<?xml version="1.0" encoding="UTF-8" standalone="no"?>
<!-- Created with Inkscape (http://www.inkscape.org/) -->

<svg
   width="210mm"
   height="297mm"
   viewBox="0 0 210 297"
   version="1.1"
   id="svg5"
   inkscape:version="1.1.2 (0a00cf5339, 2022-02-04)"
   sodipodi:docname="circumcenter_tetrahedron.svg"
   xmlns:inkscape="http://www.inkscape.org/namespaces/inkscape"
   xmlns:sodipodi="http://sodipodi.sourceforge.net/DTD/sodipodi-0.dtd"
   xmlns:xlink="http://www.w3.org/1999/xlink"
   xmlns="http://www.w3.org/2000/svg"
   xmlns:svg="http://www.w3.org/2000/svg">
  <sodipodi:namedview
     id="namedview7"
     pagecolor="#ffffff"
     bordercolor="#666666"
     borderopacity="1.0"
     inkscape:pageshadow="2"
     inkscape:pageopacity="0.0"
     inkscape:pagecheckerboard="0"
     inkscape:document-units="mm"
     showgrid="true"
     inkscape:zoom="0.67730947"
     inkscape:cx="532.253"
     inkscape:cy="738.21498"
     inkscape:window-width="1920"
     inkscape:window-height="1103"
     inkscape:window-x="0"
     inkscape:window-y="0"
     inkscape:window-maximized="1"
     inkscape:current-layer="layer1"
     inkscape:snap-object-midpoints="false"
     inkscape:snap-midpoints="true"
     inkscape:snap-global="true"
     inkscape:snap-grids="true"
     inkscape:snap-intersection-paths="true"
     inkscape:object-paths="false"
     inkscape:object-nodes="false"
     inkscape:snap-bbox="true"
     inkscape:snap-page="false">
    <inkscape:grid
       type="xygrid"
       id="grid824" />
  </sodipodi:namedview>
  <defs
     id="defs2">
    <g
       id="g9910">
      <symbol
         overflow="visible"
         id="symbol3375">
        <path
           style="stroke:none;"
           d=""
           id="path4663" />
      </symbol>
      <symbol
         overflow="visible"
         id="symbol4145">
        <path
           style="stroke:none;"
           d="M 0.515625 1.28125 C 0.484375 1.421875 0.46875 1.4375 0.453125 1.453125 C 0.40625 1.46875 0.296875 1.46875 0.203125 1.46875 C 0.03125 1.46875 -0.15625 1.46875 -0.15625 1.75 C -0.15625 1.859375 -0.0625 1.9375 0.046875 1.9375 C 0.328125 1.9375 0.65625 1.90625 0.953125 1.90625 C 1.3125 1.90625 1.6875 1.9375 2.03125 1.9375 C 2.09375 1.9375 2.28125 1.9375 2.28125 1.640625 C 2.28125 1.46875 2.125 1.46875 2.03125 1.46875 C 1.890625 1.46875 1.71875 1.46875 1.59375 1.453125 L 2.03125 -0.28125 C 2.171875 -0.140625 2.5 0.078125 3.03125 0.078125 C 4.765625 0.078125 5.84375 -1.5 5.84375 -2.859375 C 5.84375 -4.09375 4.921875 -4.5 4.09375 -4.5 C 3.390625 -4.5 2.875 -4.109375 2.71875 -3.96875 C 2.328125 -4.5 1.671875 -4.5 1.5625 -4.5 C 1.203125 -4.5 0.90625 -4.296875 0.703125 -3.9375 C 0.453125 -3.53125 0.3125 -3 0.3125 -2.953125 C 0.3125 -2.8125 0.46875 -2.8125 0.5625 -2.8125 C 0.671875 -2.8125 0.703125 -2.8125 0.75 -2.859375 C 0.78125 -2.875 0.78125 -2.90625 0.84375 -3.15625 C 1.03125 -3.953125 1.265625 -4.140625 1.515625 -4.140625 C 1.625 -4.140625 1.75 -4.109375 1.75 -3.78125 C 1.75 -3.625 1.71875 -3.484375 1.6875 -3.34375 Z M 2.8125 -3.5 C 3.09375 -3.84375 3.5625 -4.140625 4.046875 -4.140625 C 4.671875 -4.140625 4.71875 -3.609375 4.71875 -3.390625 C 4.71875 -2.875 4.375 -1.640625 4.21875 -1.25 C 3.90625 -0.53125 3.421875 -0.28125 3.015625 -0.28125 C 2.421875 -0.28125 2.1875 -0.75 2.1875 -0.859375 L 2.203125 -1 Z M 2.8125 -3.5 "
           id="path9375" />
      </symbol>
      <symbol
         overflow="visible"
         id="symbol3884">
        <path
           style="stroke:none;"
           d=""
           id="path8527" />
      </symbol>
      <symbol
         overflow="visible"
         id="symbol5947">
        <path
           style="stroke:none;"
           d="M 2.265625 -4.359375 C 2.265625 -4.46875 2.171875 -4.625 1.984375 -4.625 C 1.796875 -4.625 1.59375 -4.4375 1.59375 -4.234375 C 1.59375 -4.125 1.671875 -3.96875 1.875 -3.96875 C 2.0625 -3.96875 2.265625 -4.171875 2.265625 -4.359375 Z M 0.84375 -0.8125 C 0.8125 -0.71875 0.78125 -0.640625 0.78125 -0.515625 C 0.78125 -0.1875 1.046875 0.0625 1.4375 0.0625 C 2.125 0.0625 2.4375 -0.890625 2.4375 -1 C 2.4375 -1.09375 2.34375 -1.09375 2.328125 -1.09375 C 2.234375 -1.09375 2.21875 -1.046875 2.1875 -0.96875 C 2.03125 -0.40625 1.734375 -0.125 1.453125 -0.125 C 1.3125 -0.125 1.28125 -0.21875 1.28125 -0.375 C 1.28125 -0.53125 1.328125 -0.65625 1.390625 -0.8125 C 1.46875 -1 1.546875 -1.1875 1.609375 -1.375 C 1.671875 -1.546875 1.9375 -2.171875 1.953125 -2.265625 C 1.984375 -2.328125 2 -2.40625 2 -2.484375 C 2 -2.8125 1.71875 -3.078125 1.34375 -3.078125 C 0.640625 -3.078125 0.328125 -2.125 0.328125 -2 C 0.328125 -1.921875 0.421875 -1.921875 0.453125 -1.921875 C 0.546875 -1.921875 0.546875 -1.953125 0.578125 -2.03125 C 0.75 -2.625 1.0625 -2.875 1.3125 -2.875 C 1.421875 -2.875 1.484375 -2.828125 1.484375 -2.640625 C 1.484375 -2.46875 1.453125 -2.375 1.28125 -1.9375 Z M 0.84375 -0.8125 "
           id="path7831" />
      </symbol>
    </g>
    <g
       id="g205">
      <symbol
         overflow="visible"
         id="symbol8026">
        <path
           style="stroke:none;"
           d=""
           id="path9661" />
      </symbol>
      <symbol
         overflow="visible"
         id="symbol2632">
        <path
           style="stroke:none;"
           d="M 0.515625 1.28125 C 0.484375 1.421875 0.46875 1.4375 0.453125 1.453125 C 0.40625 1.46875 0.296875 1.46875 0.203125 1.46875 C 0.03125 1.46875 -0.15625 1.46875 -0.15625 1.75 C -0.15625 1.859375 -0.0625 1.9375 0.046875 1.9375 C 0.328125 1.9375 0.65625 1.90625 0.953125 1.90625 C 1.3125 1.90625 1.6875 1.9375 2.03125 1.9375 C 2.09375 1.9375 2.28125 1.9375 2.28125 1.640625 C 2.28125 1.46875 2.125 1.46875 2.03125 1.46875 C 1.890625 1.46875 1.71875 1.46875 1.59375 1.453125 L 2.03125 -0.28125 C 2.171875 -0.140625 2.5 0.078125 3.03125 0.078125 C 4.765625 0.078125 5.84375 -1.5 5.84375 -2.859375 C 5.84375 -4.09375 4.921875 -4.5 4.09375 -4.5 C 3.390625 -4.5 2.875 -4.109375 2.71875 -3.96875 C 2.328125 -4.5 1.671875 -4.5 1.5625 -4.5 C 1.203125 -4.5 0.90625 -4.296875 0.703125 -3.9375 C 0.453125 -3.53125 0.3125 -3 0.3125 -2.953125 C 0.3125 -2.8125 0.46875 -2.8125 0.5625 -2.8125 C 0.671875 -2.8125 0.703125 -2.8125 0.75 -2.859375 C 0.78125 -2.875 0.78125 -2.90625 0.84375 -3.15625 C 1.03125 -3.953125 1.265625 -4.140625 1.515625 -4.140625 C 1.625 -4.140625 1.75 -4.109375 1.75 -3.78125 C 1.75 -3.625 1.71875 -3.484375 1.6875 -3.34375 Z M 2.8125 -3.5 C 3.09375 -3.84375 3.5625 -4.140625 4.046875 -4.140625 C 4.671875 -4.140625 4.71875 -3.609375 4.71875 -3.390625 C 4.71875 -2.875 4.375 -1.640625 4.21875 -1.25 C 3.90625 -0.53125 3.421875 -0.28125 3.015625 -0.28125 C 2.421875 -0.28125 2.1875 -0.75 2.1875 -0.859375 L 2.203125 -1 Z M 2.8125 -3.5 "
           id="path4709" />
      </symbol>
      <symbol
         overflow="visible"
         id="symbol9715">
        <path
           style="stroke:none;"
           d=""
           id="path3216" />
      </symbol>
      <symbol
         overflow="visible"
         id="symbol9423">
        <path
           style="stroke:none;"
           d="M 3.0625 -4.359375 C 3.0625 -4.46875 2.96875 -4.625 2.78125 -4.625 C 2.578125 -4.625 2.390625 -4.421875 2.390625 -4.234375 C 2.390625 -4.125 2.46875 -3.96875 2.671875 -3.96875 C 2.859375 -3.96875 3.0625 -4.15625 3.0625 -4.359375 Z M 1.578125 0.34375 C 1.46875 0.828125 1.09375 1.21875 0.6875 1.21875 C 0.59375 1.21875 0.515625 1.21875 0.4375 1.1875 C 0.609375 1.09375 0.671875 0.9375 0.671875 0.828125 C 0.671875 0.65625 0.53125 0.578125 0.390625 0.578125 C 0.1875 0.578125 0 0.765625 0 0.984375 C 0 1.25 0.265625 1.421875 0.6875 1.421875 C 1.109375 1.421875 1.921875 1.171875 2.140625 0.328125 L 2.765625 -2.171875 C 2.78125 -2.25 2.796875 -2.3125 2.796875 -2.421875 C 2.796875 -2.796875 2.46875 -3.078125 2.0625 -3.078125 C 1.28125 -3.078125 0.84375 -2.109375 0.84375 -2 C 0.84375 -1.921875 0.9375 -1.921875 0.953125 -1.921875 C 1.03125 -1.921875 1.046875 -1.9375 1.09375 -2.046875 C 1.265625 -2.453125 1.625 -2.875 2.03125 -2.875 C 2.203125 -2.875 2.265625 -2.765625 2.265625 -2.53125 C 2.265625 -2.453125 2.265625 -2.359375 2.25 -2.328125 Z M 1.578125 0.34375 "
           id="path4858" />
      </symbol>
    </g>
    <g
       id="g9397">
      <symbol
         overflow="visible"
         id="symbol6741">
        <path
           style="stroke:none;"
           d=""
           id="path2414" />
      </symbol>
      <symbol
         overflow="visible"
         id="symbol2110">
        <path
           style="stroke:none;"
           d="M 0.515625 1.28125 C 0.484375 1.421875 0.46875 1.4375 0.453125 1.453125 C 0.40625 1.46875 0.296875 1.46875 0.203125 1.46875 C 0.03125 1.46875 -0.15625 1.46875 -0.15625 1.75 C -0.15625 1.859375 -0.0625 1.9375 0.046875 1.9375 C 0.328125 1.9375 0.65625 1.90625 0.953125 1.90625 C 1.3125 1.90625 1.6875 1.9375 2.03125 1.9375 C 2.09375 1.9375 2.28125 1.9375 2.28125 1.640625 C 2.28125 1.46875 2.125 1.46875 2.03125 1.46875 C 1.890625 1.46875 1.71875 1.46875 1.59375 1.453125 L 2.03125 -0.28125 C 2.171875 -0.140625 2.5 0.078125 3.03125 0.078125 C 4.765625 0.078125 5.84375 -1.5 5.84375 -2.859375 C 5.84375 -4.09375 4.921875 -4.5 4.09375 -4.5 C 3.390625 -4.5 2.875 -4.109375 2.71875 -3.96875 C 2.328125 -4.5 1.671875 -4.5 1.5625 -4.5 C 1.203125 -4.5 0.90625 -4.296875 0.703125 -3.9375 C 0.453125 -3.53125 0.3125 -3 0.3125 -2.953125 C 0.3125 -2.8125 0.46875 -2.8125 0.5625 -2.8125 C 0.671875 -2.8125 0.703125 -2.8125 0.75 -2.859375 C 0.78125 -2.875 0.78125 -2.90625 0.84375 -3.15625 C 1.03125 -3.953125 1.265625 -4.140625 1.515625 -4.140625 C 1.625 -4.140625 1.75 -4.109375 1.75 -3.78125 C 1.75 -3.625 1.71875 -3.484375 1.6875 -3.34375 Z M 2.8125 -3.5 C 3.09375 -3.84375 3.5625 -4.140625 4.046875 -4.140625 C 4.671875 -4.140625 4.71875 -3.609375 4.71875 -3.390625 C 4.71875 -2.875 4.375 -1.640625 4.21875 -1.25 C 3.90625 -0.53125 3.421875 -0.28125 3.015625 -0.28125 C 2.421875 -0.28125 2.1875 -0.75 2.1875 -0.859375 L 2.203125 -1 Z M 2.8125 -3.5 "
           id="path6207" />
      </symbol>
      <symbol
         overflow="visible"
         id="symbol9291">
        <path
           style="stroke:none;"
           d=""
           id="path6475" />
      </symbol>
      <symbol
         overflow="visible"
         id="symbol8743">
        <path
           style="stroke:none;"
           d="M 2.1875 -4.625 C 2.1875 -4.640625 2.203125 -4.734375 2.203125 -4.734375 C 2.203125 -4.78125 2.1875 -4.84375 2.09375 -4.84375 C 1.953125 -4.84375 1.375 -4.78125 1.203125 -4.765625 C 1.15625 -4.765625 1.046875 -4.75 1.046875 -4.609375 C 1.046875 -4.515625 1.15625 -4.515625 1.234375 -4.515625 C 1.5625 -4.515625 1.5625 -4.453125 1.5625 -4.40625 C 1.5625 -4.359375 1.546875 -4.3125 1.546875 -4.25 L 0.5625 -0.3125 C 0.515625 -0.1875 0.515625 -0.171875 0.515625 -0.15625 C 0.515625 -0.046875 0.609375 0.0625 0.765625 0.0625 C 0.953125 0.0625 1.03125 -0.0625 1.078125 -0.21875 C 1.09375 -0.25 1.390625 -1.484375 1.421875 -1.578125 C 1.921875 -1.53125 2.3125 -1.359375 2.3125 -1 C 2.3125 -0.96875 2.3125 -0.9375 2.296875 -0.859375 C 2.265625 -0.765625 2.265625 -0.71875 2.265625 -0.640625 C 2.265625 -0.15625 2.671875 0.0625 3.015625 0.0625 C 3.6875 0.0625 3.890625 -0.984375 3.890625 -1 C 3.890625 -1.09375 3.8125 -1.09375 3.78125 -1.09375 C 3.6875 -1.09375 3.671875 -1.046875 3.640625 -0.921875 C 3.5625 -0.625 3.375 -0.125 3.03125 -0.125 C 2.84375 -0.125 2.78125 -0.296875 2.78125 -0.484375 C 2.78125 -0.609375 2.78125 -0.625 2.828125 -0.796875 C 2.84375 -0.828125 2.859375 -0.9375 2.859375 -1.015625 C 2.859375 -1.640625 2.03125 -1.734375 1.734375 -1.75 C 1.9375 -1.875 2.1875 -2.109375 2.3125 -2.21875 C 2.671875 -2.546875 3.015625 -2.875 3.40625 -2.875 C 3.484375 -2.875 3.578125 -2.859375 3.640625 -2.78125 C 3.34375 -2.734375 3.28125 -2.5 3.28125 -2.390625 C 3.28125 -2.25 3.390625 -2.140625 3.546875 -2.140625 C 3.75 -2.140625 3.953125 -2.296875 3.953125 -2.578125 C 3.953125 -2.8125 3.78125 -3.078125 3.421875 -3.078125 C 3.015625 -3.078125 2.65625 -2.78125 2.296875 -2.453125 C 2 -2.1875 1.78125 -1.96875 1.484375 -1.84375 Z M 2.1875 -4.625 "
           id="path4689" />
      </symbol>
    </g>
    <g
       id="g3017">
      <symbol
         overflow="visible"
         id="symbol441">
        <path
           style="stroke:none;"
           d=""
           id="path1422" />
      </symbol>
      <symbol
         overflow="visible"
         id="symbol9327">
        <path
           style="stroke:none;"
           d="M 0.515625 1.28125 C 0.484375 1.421875 0.46875 1.4375 0.453125 1.453125 C 0.40625 1.46875 0.296875 1.46875 0.203125 1.46875 C 0.03125 1.46875 -0.15625 1.46875 -0.15625 1.75 C -0.15625 1.859375 -0.0625 1.9375 0.046875 1.9375 C 0.328125 1.9375 0.65625 1.90625 0.953125 1.90625 C 1.3125 1.90625 1.6875 1.9375 2.03125 1.9375 C 2.09375 1.9375 2.28125 1.9375 2.28125 1.640625 C 2.28125 1.46875 2.125 1.46875 2.03125 1.46875 C 1.890625 1.46875 1.71875 1.46875 1.59375 1.453125 L 2.03125 -0.28125 C 2.171875 -0.140625 2.5 0.078125 3.03125 0.078125 C 4.765625 0.078125 5.84375 -1.5 5.84375 -2.859375 C 5.84375 -4.09375 4.921875 -4.5 4.09375 -4.5 C 3.390625 -4.5 2.875 -4.109375 2.71875 -3.96875 C 2.328125 -4.5 1.671875 -4.5 1.5625 -4.5 C 1.203125 -4.5 0.90625 -4.296875 0.703125 -3.9375 C 0.453125 -3.53125 0.3125 -3 0.3125 -2.953125 C 0.3125 -2.8125 0.46875 -2.8125 0.5625 -2.8125 C 0.671875 -2.8125 0.703125 -2.8125 0.75 -2.859375 C 0.78125 -2.875 0.78125 -2.90625 0.84375 -3.15625 C 1.03125 -3.953125 1.265625 -4.140625 1.515625 -4.140625 C 1.625 -4.140625 1.75 -4.109375 1.75 -3.78125 C 1.75 -3.625 1.71875 -3.484375 1.6875 -3.34375 Z M 2.8125 -3.5 C 3.09375 -3.84375 3.5625 -4.140625 4.046875 -4.140625 C 4.671875 -4.140625 4.71875 -3.609375 4.71875 -3.390625 C 4.71875 -2.875 4.375 -1.640625 4.21875 -1.25 C 3.90625 -0.53125 3.421875 -0.28125 3.015625 -0.28125 C 2.421875 -0.28125 2.1875 -0.75 2.1875 -0.859375 L 2.203125 -1 Z M 2.8125 -3.5 "
           id="path8541" />
      </symbol>
      <symbol
         overflow="visible"
         id="symbol7911">
        <path
           style="stroke:none;"
           d=""
           id="path7751" />
      </symbol>
      <symbol
         overflow="visible"
         id="symbol1671">
        <path
           style="stroke:none;"
           d="M 1.96875 -4.625 C 1.96875 -4.640625 2 -4.734375 2 -4.734375 C 2 -4.78125 1.96875 -4.84375 1.875 -4.84375 C 1.734375 -4.84375 1.15625 -4.78125 0.984375 -4.765625 C 0.9375 -4.765625 0.84375 -4.75 0.84375 -4.609375 C 0.84375 -4.515625 0.9375 -4.515625 1.015625 -4.515625 C 1.359375 -4.515625 1.359375 -4.453125 1.359375 -4.40625 C 1.359375 -4.359375 1.34375 -4.3125 1.328125 -4.25 L 0.453125 -0.8125 C 0.4375 -0.734375 0.4375 -0.65625 0.4375 -0.59375 C 0.4375 -0.140625 0.828125 0.0625 1.15625 0.0625 C 1.328125 0.0625 1.546875 0.015625 1.71875 -0.296875 C 1.875 -0.5625 1.96875 -0.96875 1.96875 -1 C 1.96875 -1.09375 1.875 -1.09375 1.859375 -1.09375 C 1.75 -1.09375 1.734375 -1.046875 1.71875 -0.921875 C 1.625 -0.578125 1.484375 -0.125 1.1875 -0.125 C 1 -0.125 0.953125 -0.296875 0.953125 -0.46875 C 0.953125 -0.546875 0.96875 -0.671875 1 -0.75 Z M 1.96875 -4.625 "
           id="path5394" />
      </symbol>
    </g>
    <g
       id="g8916">
      <symbol
         overflow="visible"
         id="symbol7492">
        <path
           style="stroke:none;"
           d=""
           id="path3905" />
      </symbol>
      <symbol
         overflow="visible"
         id="symbol9798">
        <path
           style="stroke:none;"
           d="M 0.515625 1.28125 C 0.484375 1.421875 0.46875 1.4375 0.453125 1.453125 C 0.40625 1.46875 0.296875 1.46875 0.203125 1.46875 C 0.03125 1.46875 -0.15625 1.46875 -0.15625 1.75 C -0.15625 1.859375 -0.0625 1.9375 0.046875 1.9375 C 0.328125 1.9375 0.65625 1.90625 0.953125 1.90625 C 1.3125 1.90625 1.6875 1.9375 2.03125 1.9375 C 2.09375 1.9375 2.28125 1.9375 2.28125 1.640625 C 2.28125 1.46875 2.125 1.46875 2.03125 1.46875 C 1.890625 1.46875 1.71875 1.46875 1.59375 1.453125 L 2.03125 -0.28125 C 2.171875 -0.140625 2.5 0.078125 3.03125 0.078125 C 4.765625 0.078125 5.84375 -1.5 5.84375 -2.859375 C 5.84375 -4.09375 4.921875 -4.5 4.09375 -4.5 C 3.390625 -4.5 2.875 -4.109375 2.71875 -3.96875 C 2.328125 -4.5 1.671875 -4.5 1.5625 -4.5 C 1.203125 -4.5 0.90625 -4.296875 0.703125 -3.9375 C 0.453125 -3.53125 0.3125 -3 0.3125 -2.953125 C 0.3125 -2.8125 0.46875 -2.8125 0.5625 -2.8125 C 0.671875 -2.8125 0.703125 -2.8125 0.75 -2.859375 C 0.78125 -2.875 0.78125 -2.90625 0.84375 -3.15625 C 1.03125 -3.953125 1.265625 -4.140625 1.515625 -4.140625 C 1.625 -4.140625 1.75 -4.109375 1.75 -3.78125 C 1.75 -3.625 1.71875 -3.484375 1.6875 -3.34375 Z M 2.8125 -3.5 C 3.09375 -3.84375 3.5625 -4.140625 4.046875 -4.140625 C 4.671875 -4.140625 4.71875 -3.609375 4.71875 -3.390625 C 4.71875 -2.875 4.375 -1.640625 4.21875 -1.25 C 3.90625 -0.53125 3.421875 -0.28125 3.015625 -0.28125 C 2.421875 -0.28125 2.1875 -0.75 2.1875 -0.859375 L 2.203125 -1 Z M 2.8125 -3.5 "
           id="path7389" />
      </symbol>
      <symbol
         overflow="visible"
         id="symbol1939">
        <path
           style="stroke:none;"
           d=""
           id="path3714" />
      </symbol>
      <symbol
         overflow="visible"
         id="symbol6414">
        <path
           style="stroke:none;"
           d="M 5.1875 -4.71875 C 5.1875 -4.84375 5.1875 -4.90625 5.09375 -4.90625 C 5.0625 -4.90625 5.03125 -4.90625 4.96875 -4.8125 L 4.59375 -4.28125 C 4.3125 -4.578125 3.828125 -4.90625 3.15625 -4.90625 C 1.6875 -4.90625 0.484375 -3.765625 0.484375 -2.390625 C 0.484375 -0.96875 1.71875 0.140625 3.15625 0.140625 C 4.390625 0.140625 5.1875 -0.78125 5.1875 -1.625 C 5.1875 -1.703125 5.171875 -1.765625 5.0625 -1.765625 C 5.03125 -1.765625 4.953125 -1.765625 4.953125 -1.671875 C 4.890625 -0.546875 3.9375 -0.109375 3.25 -0.109375 C 2.515625 -0.109375 1.234375 -0.5625 1.234375 -2.375 C 1.234375 -4.265625 2.578125 -4.640625 3.234375 -4.640625 C 3.9375 -4.640625 4.75 -4.1875 4.9375 -2.984375 C 4.953125 -2.90625 5.015625 -2.90625 5.0625 -2.90625 C 5.1875 -2.90625 5.1875 -2.953125 5.1875 -3.09375 Z M 5.1875 -4.71875 "
           id="path8204" />
      </symbol>
    </g>
    <g
       id="g9725">
      <symbol
         overflow="visible"
         id="symbol9819">
        <path
           style="stroke:none;"
           d=""
           id="path9269" />
      </symbol>
      <symbol
         overflow="visible"
         id="symbol1783">
        <path
           style="stroke:none;"
           d="M 2.265625 -3.15625 L 3.953125 -3.15625 C 5.140625 -3.15625 6.21875 -3.953125 6.21875 -4.953125 C 6.21875 -5.9375 5.234375 -6.8125 3.875 -6.8125 L 0.34375 -6.8125 L 0.34375 -6.5 L 0.59375 -6.5 C 1.359375 -6.5 1.375 -6.390625 1.375 -6.03125 L 1.375 -0.78125 C 1.375 -0.421875 1.359375 -0.3125 0.59375 -0.3125 L 0.34375 -0.3125 L 0.34375 0 C 0.703125 -0.03125 1.4375 -0.03125 1.8125 -0.03125 C 2.1875 -0.03125 2.9375 -0.03125 3.296875 0 L 3.296875 -0.3125 L 3.046875 -0.3125 C 2.28125 -0.3125 2.265625 -0.421875 2.265625 -0.78125 Z M 2.234375 -3.40625 L 2.234375 -6.09375 C 2.234375 -6.4375 2.25 -6.5 2.71875 -6.5 L 3.609375 -6.5 C 5.1875 -6.5 5.1875 -5.4375 5.1875 -4.953125 C 5.1875 -4.484375 5.1875 -3.40625 3.609375 -3.40625 Z M 2.234375 -3.40625 "
           id="path3038" />
      </symbol>
      <symbol
         overflow="visible"
         id="symbol1150">
        <path
           style="stroke:none;"
           d="M 3.296875 2.390625 C 3.296875 2.359375 3.296875 2.34375 3.125 2.171875 C 1.890625 0.921875 1.5625 -0.96875 1.5625 -2.5 C 1.5625 -4.234375 1.9375 -5.96875 3.171875 -7.203125 C 3.296875 -7.328125 3.296875 -7.34375 3.296875 -7.375 C 3.296875 -7.453125 3.265625 -7.484375 3.203125 -7.484375 C 3.09375 -7.484375 2.203125 -6.796875 1.609375 -5.53125 C 1.109375 -4.4375 0.984375 -3.328125 0.984375 -2.5 C 0.984375 -1.71875 1.09375 -0.515625 1.640625 0.625 C 2.25 1.84375 3.09375 2.5 3.203125 2.5 C 3.265625 2.5 3.296875 2.46875 3.296875 2.390625 Z M 3.296875 2.390625 "
           id="path5690" />
      </symbol>
      <symbol
         overflow="visible"
         id="symbol4222">
        <path
           style="stroke:none;"
           d="M 2.875 -2.5 C 2.875 -3.265625 2.765625 -4.46875 2.21875 -5.609375 C 1.625 -6.828125 0.765625 -7.484375 0.671875 -7.484375 C 0.609375 -7.484375 0.5625 -7.4375 0.5625 -7.375 C 0.5625 -7.34375 0.5625 -7.328125 0.75 -7.140625 C 1.734375 -6.15625 2.296875 -4.578125 2.296875 -2.5 C 2.296875 -0.78125 1.9375 0.96875 0.703125 2.21875 C 0.5625 2.34375 0.5625 2.359375 0.5625 2.390625 C 0.5625 2.453125 0.609375 2.5 0.671875 2.5 C 0.765625 2.5 1.671875 1.8125 2.25 0.546875 C 2.765625 -0.546875 2.875 -1.65625 2.875 -2.5 Z M 2.875 -2.5 "
           id="path2026" />
      </symbol>
      <symbol
         overflow="visible"
         id="symbol1235">
        <path
           style="stroke:none;"
           d=""
           id="path1963" />
      </symbol>
      <symbol
         overflow="visible"
         id="symbol7927">
        <path
           style="stroke:none;"
           d="M 1.96875 -4.625 C 1.96875 -4.640625 2 -4.734375 2 -4.734375 C 2 -4.78125 1.96875 -4.84375 1.875 -4.84375 C 1.734375 -4.84375 1.15625 -4.78125 0.984375 -4.765625 C 0.9375 -4.765625 0.84375 -4.75 0.84375 -4.609375 C 0.84375 -4.515625 0.9375 -4.515625 1.015625 -4.515625 C 1.359375 -4.515625 1.359375 -4.453125 1.359375 -4.40625 C 1.359375 -4.359375 1.34375 -4.3125 1.328125 -4.25 L 0.453125 -0.8125 C 0.4375 -0.734375 0.4375 -0.65625 0.4375 -0.59375 C 0.4375 -0.140625 0.828125 0.0625 1.15625 0.0625 C 1.328125 0.0625 1.546875 0.015625 1.71875 -0.296875 C 1.875 -0.5625 1.96875 -0.96875 1.96875 -1 C 1.96875 -1.09375 1.875 -1.09375 1.859375 -1.09375 C 1.75 -1.09375 1.734375 -1.046875 1.71875 -0.921875 C 1.625 -0.578125 1.484375 -0.125 1.1875 -0.125 C 1 -0.125 0.953125 -0.296875 0.953125 -0.46875 C 0.953125 -0.546875 0.96875 -0.671875 1 -0.75 Z M 1.96875 -4.625 "
           id="path1616" />
      </symbol>
      <symbol
         overflow="visible"
         id="symbol2580">
        <path
           style="stroke:none;"
           d=""
           id="path7462" />
      </symbol>
      <symbol
         overflow="visible"
         id="symbol1388">
        <path
           style="stroke:none;"
           d="M 0.515625 1.28125 C 0.484375 1.421875 0.46875 1.4375 0.453125 1.453125 C 0.40625 1.46875 0.296875 1.46875 0.203125 1.46875 C 0.03125 1.46875 -0.15625 1.46875 -0.15625 1.75 C -0.15625 1.859375 -0.0625 1.9375 0.046875 1.9375 C 0.328125 1.9375 0.65625 1.90625 0.953125 1.90625 C 1.3125 1.90625 1.6875 1.9375 2.03125 1.9375 C 2.09375 1.9375 2.28125 1.9375 2.28125 1.640625 C 2.28125 1.46875 2.125 1.46875 2.03125 1.46875 C 1.890625 1.46875 1.71875 1.46875 1.59375 1.453125 L 2.03125 -0.28125 C 2.171875 -0.140625 2.5 0.078125 3.03125 0.078125 C 4.765625 0.078125 5.84375 -1.5 5.84375 -2.859375 C 5.84375 -4.09375 4.921875 -4.5 4.09375 -4.5 C 3.390625 -4.5 2.875 -4.109375 2.71875 -3.96875 C 2.328125 -4.5 1.671875 -4.5 1.5625 -4.5 C 1.203125 -4.5 0.90625 -4.296875 0.703125 -3.9375 C 0.453125 -3.53125 0.3125 -3 0.3125 -2.953125 C 0.3125 -2.8125 0.46875 -2.8125 0.5625 -2.8125 C 0.671875 -2.8125 0.703125 -2.8125 0.75 -2.859375 C 0.78125 -2.875 0.78125 -2.90625 0.84375 -3.15625 C 1.03125 -3.953125 1.265625 -4.140625 1.515625 -4.140625 C 1.625 -4.140625 1.75 -4.109375 1.75 -3.78125 C 1.75 -3.625 1.71875 -3.484375 1.6875 -3.34375 Z M 2.8125 -3.5 C 3.09375 -3.84375 3.5625 -4.140625 4.046875 -4.140625 C 4.671875 -4.140625 4.71875 -3.609375 4.71875 -3.390625 C 4.71875 -2.875 4.375 -1.640625 4.21875 -1.25 C 3.90625 -0.53125 3.421875 -0.28125 3.015625 -0.28125 C 2.421875 -0.28125 2.1875 -0.75 2.1875 -0.859375 L 2.203125 -1 Z M 2.8125 -3.5 "
           id="path6129" />
      </symbol>
    </g>
  </defs>
  <g
     inkscape:label="Layer 1"
     inkscape:groupmode="layer"
     id="layer1">
    <path
       style="fill:none;stroke:#000000;stroke-width:0.264583px;stroke-linecap:butt;stroke-linejoin:miter;stroke-opacity:1"
       d="M 24.844273,249.61113 165,280 190,200 140,100 25,250"
       id="path859"
       sodipodi:nodetypes="ccccc" />
    <path
       style="fill:none;stroke:#000000;stroke-width:0.264583px;stroke-linecap:butt;stroke-linejoin:miter;stroke-opacity:1"
       d="M 165,280 140,100"
       id="path861"
       sodipodi:nodetypes="cc" />
    <path
       style="fill:none;stroke:#000000;stroke-width:0.264583;stroke-linecap:butt;stroke-linejoin:miter;stroke-miterlimit:4;stroke-dasharray:1.05833, 2.11666;stroke-dashoffset:0;stroke-opacity:1"
       d="M 25,250 107.34428,224.61113 190,200"
       id="path863"
       sodipodi:nodetypes="ccc" />
    <path
       style="fill:#ffdcdc;fill-opacity:0.5;stroke:#ff0000;stroke-width:0.264583px;stroke-linecap:butt;stroke-linejoin:miter;stroke-opacity:1"
       d="m 95.016345,264.18655 16.986225,-127.58078 33.91111,76.31766 z"
       id="path1002"
       sodipodi:nodetypes="cccc" />
    <path
       style="fill:#dcffdc;fill-opacity:0.5;stroke:#009600;stroke-width:0.264583px;stroke-linecap:butt;stroke-linejoin:miter;stroke-opacity:1"
       d="m 124.9437,119.04667 -17.59942,105.56446 36.62064,51.04586 z"
       id="path1002-7-1-6"
       sodipodi:nodetypes="cccc" />
    <path
       style="fill:#dcffff;fill-opacity:0.5;stroke:#0000ff;stroke-width:0.264583px;stroke-linecap:butt;stroke-linejoin:miter;stroke-opacity:1"
       d="m 162.09179,208.62469 1.72687,59.76213 -81.474387,-93.77569 z"
       id="path1002-7-0-4-8"
       sodipodi:nodetypes="cccc" />
    <path
       style="fill:none;stroke:#dcdc00;stroke-width:0.265;stroke-linecap:butt;stroke-linejoin:miter;stroke-miterlimit:4;stroke-dasharray:1.06, 1.06;stroke-dashoffset:0;stroke-opacity:1"
       d="m 118.64826,240.55726 0.7953,-86.99855"
       id="path1002-7-0-8"
       sodipodi:nodetypes="cc" />
    <path
       style="fill:none;stroke:#c800f0;stroke-width:0.265;stroke-linecap:butt;stroke-linejoin:miter;stroke-miterlimit:4;stroke-dasharray:1.06, 1.06;stroke-dashoffset:0;stroke-opacity:1"
       d="m 103.42301,199.46501 35.87245,-0.64502"
       id="path1002-7-0-8-1"
       sodipodi:nodetypes="cc" />
    <path
       style="fill:none;stroke:#00d2d2;stroke-width:0.265;stroke-linecap:butt;stroke-linejoin:miter;stroke-miterlimit:4;stroke-dasharray:1.06, 1.06;stroke-dashoffset:0;stroke-opacity:1"
       d="m 113.90195,187.82851 25.14699,52.5228"
       id="path1002-7-0-8-1-0"
       sodipodi:nodetypes="cc" />
    <circle
       style="fill:#000000;fill-opacity:1;fill-rule:evenodd;stroke:none;stroke-width:1.00157;stroke-linecap:square;stroke-linejoin:round;stroke-miterlimit:4;stroke-dasharray:4.0063, 4.0063;stroke-dashoffset:0;stroke-opacity:1"
       id="path11057"
       cx="118.87064"
       cy="199.34882"
       r="1" />
    <g
       inkscape:label=""
       transform="translate(105.24031,118.82425)"
       id="g8057">
      <g
         id="g4073">
        <g
           style="fill:#000000;fill-opacity:1"
           id="g440">
          <g
             id="use2091"
             transform="translate(91.925003,81.962997)">
            <path
               style="stroke:none"
               d="m 2.265625,-3.15625 h 1.6875 c 1.1875,0 2.265625,-0.796875 2.265625,-1.796875 C 6.21875,-5.9375 5.234375,-6.8125 3.875,-6.8125 H 0.34375 V -6.5 h 0.25 c 0.765625,0 0.78125,0.109375 0.78125,0.46875 v 5.25 c 0,0.359375 -0.015625,0.46875 -0.78125,0.46875 h -0.25 V 0 c 0.359375,-0.03125 1.09375,-0.03125 1.46875,-0.03125 0.375,0 1.125,0 1.484375,0.03125 v -0.3125 h -0.25 c -0.765625,0 -0.78125,-0.109375 -0.78125,-0.46875 z m -0.03125,-0.25 v -2.6875 C 2.234375,-6.4375 2.25,-6.5 2.71875,-6.5 h 0.890625 c 1.578125,0 1.578125,1.0625 1.578125,1.546875 0,0.46875 0,1.546875 -1.578125,1.546875 z m 0,0"
               id="path13548" />
          </g>
        </g>
        <g
           style="fill:#000000;fill-opacity:1"
           id="g9456">
          <g
             id="use7307"
             transform="translate(98.705002,83.457001)">
            <path
               style="stroke:none"
               d="m 2.1875,-4.625 c 0,-0.015625 0.015625,-0.109375 0.015625,-0.109375 0,-0.046875 -0.015625,-0.109375 -0.109375,-0.109375 -0.140625,0 -0.71875,0.0625 -0.890625,0.078125 -0.046875,0 -0.15625,0.015625 -0.15625,0.15625 0,0.09375 0.109375,0.09375 0.1875,0.09375 0.328125,0 0.328125,0.0625 0.328125,0.109375 0,0.046875 -0.015625,0.09375 -0.015625,0.15625 L 0.5625,-0.3125 c -0.046875,0.125 -0.046875,0.140625 -0.046875,0.15625 0,0.109375 0.09375,0.21875 0.25,0.21875 0.1875,0 0.265625,-0.125 0.3125,-0.28125 0.015625,-0.03125 0.3125,-1.265625 0.34375,-1.359375 0.5,0.046875 0.890625,0.21875 0.890625,0.578125 0,0.03125 0,0.0625 -0.015625,0.140625 -0.03125,0.09375 -0.03125,0.140625 -0.03125,0.21875 0,0.484375 0.40625,0.703125 0.75,0.703125 0.671875,0 0.875,-1.046875 0.875,-1.0625 0,-0.09375 -0.078125,-0.09375 -0.109375,-0.09375 -0.09375,0 -0.109375,0.046875 -0.140625,0.171875 C 3.5625,-0.625 3.375,-0.125 3.03125,-0.125 c -0.1875,0 -0.25,-0.171875 -0.25,-0.359375 0,-0.125 0,-0.140625 0.046875,-0.3125 0.015625,-0.03125 0.03125,-0.140625 0.03125,-0.21875 0,-0.625 -0.828125,-0.71875 -1.125,-0.734375 C 1.9375,-1.875 2.1875,-2.109375 2.3125,-2.21875 2.671875,-2.546875 3.015625,-2.875 3.40625,-2.875 c 0.078125,0 0.171875,0.015625 0.234375,0.09375 C 3.34375,-2.734375 3.28125,-2.5 3.28125,-2.390625 c 0,0.140625 0.109375,0.25 0.265625,0.25 0.203125,0 0.40625,-0.15625 0.40625,-0.4375 0,-0.234375 -0.171875,-0.5 -0.53125,-0.5 -0.40625,0 -0.765625,0.296875 -1.125,0.625 C 2,-2.1875 1.78125,-1.96875 1.484375,-1.84375 Z m 0,0"
               id="path13556" />
          </g>
        </g>
        <g
           style="fill:#000000;fill-opacity:1"
           id="g4634">
          <g
             id="use61"
             transform="translate(103.607,81.962997)">
            <path
               style="stroke:none"
               d="m 3.296875,2.390625 c 0,-0.03125 0,-0.046875 -0.171875,-0.21875 C 1.890625,0.921875 1.5625,-0.96875 1.5625,-2.5 c 0,-1.734375 0.375,-3.46875 1.609375,-4.703125 0.125,-0.125 0.125,-0.140625 0.125,-0.171875 0,-0.078125 -0.03125,-0.109375 -0.09375,-0.109375 -0.109375,0 -1,0.6875 -1.59375,1.953125 -0.5,1.09375 -0.625,2.203125 -0.625,3.03125 0,0.78125 0.109375,1.984375 0.65625,3.125 C 2.25,1.84375 3.09375,2.5 3.203125,2.5 c 0.0625,0 0.09375,-0.03125 0.09375,-0.109375 z m 0,0"
               id="path13552" />
          </g>
        </g>
        <g
           style="fill:#000000;fill-opacity:1"
           id="g3448">
          <g
             id="use8300"
             transform="translate(107.482,81.962997)">
            <path
               style="stroke:none"
               d="M 0.515625,1.28125 C 0.484375,1.421875 0.46875,1.4375 0.453125,1.453125 0.40625,1.46875 0.296875,1.46875 0.203125,1.46875 c -0.171875,0 -0.359375,0 -0.359375,0.28125 0,0.109375 0.09375,0.1875 0.203125,0.1875 0.28125,0 0.609375,-0.03125 0.90625,-0.03125 0.359375,0 0.734375,0.03125 1.078125,0.03125 0.0625,0 0.25,0 0.25,-0.296875 0,-0.171875 -0.15625,-0.171875 -0.25,-0.171875 -0.140625,0 -0.3125,0 -0.4375,-0.015625 l 0.4375,-1.734375 c 0.140625,0.140625 0.46875,0.359375 1,0.359375 1.734375,0 2.8125,-1.578125 2.8125,-2.9375 C 5.84375,-4.09375 4.921875,-4.5 4.09375,-4.5 3.390625,-4.5 2.875,-4.109375 2.71875,-3.96875 2.328125,-4.5 1.671875,-4.5 1.5625,-4.5 1.203125,-4.5 0.90625,-4.296875 0.703125,-3.9375 0.453125,-3.53125 0.3125,-3 0.3125,-2.953125 c 0,0.140625 0.15625,0.140625 0.25,0.140625 0.109375,0 0.140625,0 0.1875,-0.046875 C 0.78125,-2.875 0.78125,-2.90625 0.84375,-3.15625 c 0.1875,-0.796875 0.421875,-0.984375 0.671875,-0.984375 0.109375,0 0.234375,0.03125 0.234375,0.359375 0,0.15625 -0.03125,0.296875 -0.0625,0.4375 z M 2.8125,-3.5 c 0.28125,-0.34375 0.75,-0.640625 1.234375,-0.640625 0.625,0 0.671875,0.53125 0.671875,0.75 0,0.515625 -0.34375,1.75 -0.5,2.140625 -0.3125,0.71875 -0.796875,0.96875 -1.203125,0.96875 C 2.421875,-0.28125 2.1875,-0.75 2.1875,-0.859375 L 2.203125,-1 Z m 0,0"
               id="path13484" />
          </g>
        </g>
        <g
           style="fill:#000000;fill-opacity:1"
           id="g4533">
          <g
             id="use4147"
             transform="translate(113.468,83.457001)">
            <path
               style="stroke:none"
               d="m 2.1875,-4.625 c 0,-0.015625 0.015625,-0.109375 0.015625,-0.109375 0,-0.046875 -0.015625,-0.109375 -0.109375,-0.109375 -0.140625,0 -0.71875,0.0625 -0.890625,0.078125 -0.046875,0 -0.15625,0.015625 -0.15625,0.15625 0,0.09375 0.109375,0.09375 0.1875,0.09375 0.328125,0 0.328125,0.0625 0.328125,0.109375 0,0.046875 -0.015625,0.09375 -0.015625,0.15625 L 0.5625,-0.3125 c -0.046875,0.125 -0.046875,0.140625 -0.046875,0.15625 0,0.109375 0.09375,0.21875 0.25,0.21875 0.1875,0 0.265625,-0.125 0.3125,-0.28125 0.015625,-0.03125 0.3125,-1.265625 0.34375,-1.359375 0.5,0.046875 0.890625,0.21875 0.890625,0.578125 0,0.03125 0,0.0625 -0.015625,0.140625 -0.03125,0.09375 -0.03125,0.140625 -0.03125,0.21875 0,0.484375 0.40625,0.703125 0.75,0.703125 0.671875,0 0.875,-1.046875 0.875,-1.0625 0,-0.09375 -0.078125,-0.09375 -0.109375,-0.09375 -0.09375,0 -0.109375,0.046875 -0.140625,0.171875 C 3.5625,-0.625 3.375,-0.125 3.03125,-0.125 c -0.1875,0 -0.25,-0.171875 -0.25,-0.359375 0,-0.125 0,-0.140625 0.046875,-0.3125 0.015625,-0.03125 0.03125,-0.140625 0.03125,-0.21875 0,-0.625 -0.828125,-0.71875 -1.125,-0.734375 C 1.9375,-1.875 2.1875,-2.109375 2.3125,-2.21875 2.671875,-2.546875 3.015625,-2.875 3.40625,-2.875 c 0.078125,0 0.171875,0.015625 0.234375,0.09375 C 3.34375,-2.734375 3.28125,-2.5 3.28125,-2.390625 c 0,0.140625 0.109375,0.25 0.265625,0.25 0.203125,0 0.40625,-0.15625 0.40625,-0.4375 0,-0.234375 -0.171875,-0.5 -0.53125,-0.5 -0.40625,0 -0.765625,0.296875 -1.125,0.625 C 2,-2.1875 1.78125,-1.96875 1.484375,-1.84375 Z m 0,0"
               id="path13560" />
          </g>
        </g>
        <g
           style="fill:#000000;fill-opacity:1"
           id="g1047">
          <g
             id="use8458"
             transform="translate(118.37,81.962997)">
            <path
               style="stroke:none"
               d="m 2.875,-2.5 c 0,-0.765625 -0.109375,-1.96875 -0.65625,-3.109375 -0.59375,-1.21875 -1.453125,-1.875 -1.546875,-1.875 -0.0625,0 -0.109375,0.046875 -0.109375,0.109375 0,0.03125 0,0.046875 0.1875,0.234375 0.984375,0.984375 1.546875,2.5625 1.546875,4.640625 0,1.71875 -0.359375,3.46875 -1.59375,4.71875 C 0.5625,2.34375 0.5625,2.359375 0.5625,2.390625 0.5625,2.453125 0.609375,2.5 0.671875,2.5 0.765625,2.5 1.671875,1.8125 2.25,0.546875 2.765625,-0.546875 2.875,-1.65625 2.875,-2.5 Z m 0,0"
               id="path13480" />
          </g>
        </g>
      </g>
    </g>
    <g
       inkscape:label=""
       transform="translate(37.0545,11.093)"
       id="g3330">
      <g
         id="g3382">
        <g
           style="fill:#000000;fill-opacity:1"
           id="g4483">
          <g
             id="use1761"
             transform="translate(91.925003,81.962997)">
            <path
               style="stroke:none"
               d="m 2.265625,-3.15625 h 1.6875 c 1.1875,0 2.265625,-0.796875 2.265625,-1.796875 C 6.21875,-5.9375 5.234375,-6.8125 3.875,-6.8125 H 0.34375 V -6.5 h 0.25 c 0.765625,0 0.78125,0.109375 0.78125,0.46875 v 5.25 c 0,0.359375 -0.015625,0.46875 -0.78125,0.46875 h -0.25 V 0 c 0.359375,-0.03125 1.09375,-0.03125 1.46875,-0.03125 0.375,0 1.125,0 1.484375,0.03125 v -0.3125 h -0.25 c -0.765625,0 -0.78125,-0.109375 -0.78125,-0.46875 z m -0.03125,-0.25 v -2.6875 C 2.234375,-6.4375 2.25,-6.5 2.71875,-6.5 h 0.890625 c 1.578125,0 1.578125,1.0625 1.578125,1.546875 0,0.46875 0,1.546875 -1.578125,1.546875 z m 0,0"
               id="path13532" />
          </g>
        </g>
        <g
           style="fill:#000000;fill-opacity:1"
           id="g1982">
          <g
             id="use9748"
             transform="translate(98.705002,83.457001)">
            <path
               style="stroke:none"
               d="m 2.265625,-4.359375 c 0,-0.109375 -0.09375,-0.265625 -0.28125,-0.265625 -0.1875,0 -0.390625,0.1875 -0.390625,0.390625 0,0.109375 0.078125,0.265625 0.28125,0.265625 0.1875,0 0.390625,-0.203125 0.390625,-0.390625 z M 0.84375,-0.8125 c -0.03125,0.09375 -0.0625,0.171875 -0.0625,0.296875 0,0.328125 0.265625,0.578125 0.65625,0.578125 0.6875,0 1,-0.953125 1,-1.0625 0,-0.09375 -0.09375,-0.09375 -0.109375,-0.09375 -0.09375,0 -0.109375,0.046875 -0.140625,0.125 -0.15625,0.5625 -0.453125,0.84375 -0.734375,0.84375 -0.140625,0 -0.171875,-0.09375 -0.171875,-0.25 0,-0.15625 0.046875,-0.28125 0.109375,-0.4375 C 1.46875,-1 1.546875,-1.1875 1.609375,-1.375 1.671875,-1.546875 1.9375,-2.171875 1.953125,-2.265625 1.984375,-2.328125 2,-2.40625 2,-2.484375 2,-2.8125 1.71875,-3.078125 1.34375,-3.078125 0.640625,-3.078125 0.328125,-2.125 0.328125,-2 c 0,0.078125 0.09375,0.078125 0.125,0.078125 0.09375,0 0.09375,-0.03125 0.125,-0.109375 C 0.75,-2.625 1.0625,-2.875 1.3125,-2.875 c 0.109375,0 0.171875,0.046875 0.171875,0.234375 0,0.171875 -0.03125,0.265625 -0.203125,0.703125 z m 0,0"
               id="path13540" />
          </g>
        </g>
        <g
           style="fill:#000000;fill-opacity:1"
           id="g6182">
          <g
             id="use3214"
             transform="translate(102.022,81.962997)">
            <path
               style="stroke:none"
               d="m 3.296875,2.390625 c 0,-0.03125 0,-0.046875 -0.171875,-0.21875 C 1.890625,0.921875 1.5625,-0.96875 1.5625,-2.5 c 0,-1.734375 0.375,-3.46875 1.609375,-4.703125 0.125,-0.125 0.125,-0.140625 0.125,-0.171875 0,-0.078125 -0.03125,-0.109375 -0.09375,-0.109375 -0.109375,0 -1,0.6875 -1.59375,1.953125 -0.5,1.09375 -0.625,2.203125 -0.625,3.03125 0,0.78125 0.109375,1.984375 0.65625,3.125 C 2.25,1.84375 3.09375,2.5 3.203125,2.5 c 0.0625,0 0.09375,-0.03125 0.09375,-0.109375 z m 0,0"
               id="path13488" />
          </g>
        </g>
        <g
           style="fill:#000000;fill-opacity:1"
           id="g9631">
          <g
             id="use2257"
             transform="translate(105.897,81.962997)">
            <path
               style="stroke:none"
               d="M 0.515625,1.28125 C 0.484375,1.421875 0.46875,1.4375 0.453125,1.453125 0.40625,1.46875 0.296875,1.46875 0.203125,1.46875 c -0.171875,0 -0.359375,0 -0.359375,0.28125 0,0.109375 0.09375,0.1875 0.203125,0.1875 0.28125,0 0.609375,-0.03125 0.90625,-0.03125 0.359375,0 0.734375,0.03125 1.078125,0.03125 0.0625,0 0.25,0 0.25,-0.296875 0,-0.171875 -0.15625,-0.171875 -0.25,-0.171875 -0.140625,0 -0.3125,0 -0.4375,-0.015625 l 0.4375,-1.734375 c 0.140625,0.140625 0.46875,0.359375 1,0.359375 1.734375,0 2.8125,-1.578125 2.8125,-2.9375 C 5.84375,-4.09375 4.921875,-4.5 4.09375,-4.5 3.390625,-4.5 2.875,-4.109375 2.71875,-3.96875 2.328125,-4.5 1.671875,-4.5 1.5625,-4.5 1.203125,-4.5 0.90625,-4.296875 0.703125,-3.9375 0.453125,-3.53125 0.3125,-3 0.3125,-2.953125 c 0,0.140625 0.15625,0.140625 0.25,0.140625 0.109375,0 0.140625,0 0.1875,-0.046875 C 0.78125,-2.875 0.78125,-2.90625 0.84375,-3.15625 c 0.1875,-0.796875 0.421875,-0.984375 0.671875,-0.984375 0.109375,0 0.234375,0.03125 0.234375,0.359375 0,0.15625 -0.03125,0.296875 -0.0625,0.4375 z M 2.8125,-3.5 c 0.28125,-0.34375 0.75,-0.640625 1.234375,-0.640625 0.625,0 0.671875,0.53125 0.671875,0.75 0,0.515625 -0.34375,1.75 -0.5,2.140625 -0.3125,0.71875 -0.796875,0.96875 -1.203125,0.96875 C 2.421875,-0.28125 2.1875,-0.75 2.1875,-0.859375 L 2.203125,-1 Z m 0,0"
               id="path13524" />
          </g>
        </g>
        <g
           style="fill:#000000;fill-opacity:1"
           id="g7604">
          <g
             id="use3689"
             transform="translate(111.883,83.457001)">
            <path
               style="stroke:none"
               d="m 2.265625,-4.359375 c 0,-0.109375 -0.09375,-0.265625 -0.28125,-0.265625 -0.1875,0 -0.390625,0.1875 -0.390625,0.390625 0,0.109375 0.078125,0.265625 0.28125,0.265625 0.1875,0 0.390625,-0.203125 0.390625,-0.390625 z M 0.84375,-0.8125 c -0.03125,0.09375 -0.0625,0.171875 -0.0625,0.296875 0,0.328125 0.265625,0.578125 0.65625,0.578125 0.6875,0 1,-0.953125 1,-1.0625 0,-0.09375 -0.09375,-0.09375 -0.109375,-0.09375 -0.09375,0 -0.109375,0.046875 -0.140625,0.125 -0.15625,0.5625 -0.453125,0.84375 -0.734375,0.84375 -0.140625,0 -0.171875,-0.09375 -0.171875,-0.25 0,-0.15625 0.046875,-0.28125 0.109375,-0.4375 C 1.46875,-1 1.546875,-1.1875 1.609375,-1.375 1.671875,-1.546875 1.9375,-2.171875 1.953125,-2.265625 1.984375,-2.328125 2,-2.40625 2,-2.484375 2,-2.8125 1.71875,-3.078125 1.34375,-3.078125 0.640625,-3.078125 0.328125,-2.125 0.328125,-2 c 0,0.078125 0.09375,0.078125 0.125,0.078125 0.09375,0 0.09375,-0.03125 0.125,-0.109375 C 0.75,-2.625 1.0625,-2.875 1.3125,-2.875 c 0.109375,0 0.171875,0.046875 0.171875,0.234375 0,0.171875 -0.03125,0.265625 -0.203125,0.703125 z m 0,0"
               id="path13544" />
          </g>
        </g>
        <g
           style="fill:#000000;fill-opacity:1"
           id="g1397">
          <g
             id="use8283"
             transform="translate(115.2,81.962997)">
            <path
               style="stroke:none"
               d="m 2.875,-2.5 c 0,-0.765625 -0.109375,-1.96875 -0.65625,-3.109375 -0.59375,-1.21875 -1.453125,-1.875 -1.546875,-1.875 -0.0625,0 -0.109375,0.046875 -0.109375,0.109375 0,0.03125 0,0.046875 0.1875,0.234375 0.984375,0.984375 1.546875,2.5625 1.546875,4.640625 0,1.71875 -0.359375,3.46875 -1.59375,4.71875 C 0.5625,2.34375 0.5625,2.359375 0.5625,2.390625 0.5625,2.453125 0.609375,2.5 0.671875,2.5 0.765625,2.5 1.671875,1.8125 2.25,0.546875 2.765625,-0.546875 2.875,-1.65625 2.875,-2.5 Z m 0,0"
               id="path13572" />
          </g>
        </g>
      </g>
    </g>
    <g
       inkscape:label=""
       transform="translate(57.120438,209.06825)"
       id="g3736">
      <g
         id="g2895">
        <g
           style="fill:#000000;fill-opacity:1"
           id="g7749">
          <g
             id="use9364"
             transform="translate(91.925003,81.962997)">
            <path
               style="stroke:none"
               d="m 2.265625,-3.15625 h 1.6875 c 1.1875,0 2.265625,-0.796875 2.265625,-1.796875 C 6.21875,-5.9375 5.234375,-6.8125 3.875,-6.8125 H 0.34375 V -6.5 h 0.25 c 0.765625,0 0.78125,0.109375 0.78125,0.46875 v 5.25 c 0,0.359375 -0.015625,0.46875 -0.78125,0.46875 h -0.25 V 0 c 0.359375,-0.03125 1.09375,-0.03125 1.46875,-0.03125 0.375,0 1.125,0 1.484375,0.03125 v -0.3125 h -0.25 c -0.765625,0 -0.78125,-0.109375 -0.78125,-0.46875 z m -0.03125,-0.25 v -2.6875 C 2.234375,-6.4375 2.25,-6.5 2.71875,-6.5 h 0.890625 c 1.578125,0 1.578125,1.0625 1.578125,1.546875 0,0.46875 0,1.546875 -1.578125,1.546875 z m 0,0"
               id="path13564" />
          </g>
        </g>
        <g
           style="fill:#000000;fill-opacity:1"
           id="g3473">
          <g
             id="use2917"
             transform="translate(98.705002,83.457001)">
            <path
               style="stroke:none"
               d="M 3.0625,-4.359375 C 3.0625,-4.46875 2.96875,-4.625 2.78125,-4.625 c -0.203125,0 -0.390625,0.203125 -0.390625,0.390625 0,0.109375 0.078125,0.265625 0.28125,0.265625 0.1875,0 0.390625,-0.1875 0.390625,-0.390625 z M 1.578125,0.34375 C 1.46875,0.828125 1.09375,1.21875 0.6875,1.21875 c -0.09375,0 -0.171875,0 -0.25,-0.03125 0.171875,-0.09375 0.234375,-0.25 0.234375,-0.359375 0,-0.171875 -0.140625,-0.25 -0.28125,-0.25 C 0.1875,0.578125 0,0.765625 0,0.984375 c 0,0.265625 0.265625,0.4375 0.6875,0.4375 0.421875,0 1.234375,-0.25 1.453125,-1.09375 l 0.625,-2.5 c 0.015625,-0.078125 0.03125,-0.140625 0.03125,-0.25 0,-0.375 -0.328125,-0.65625 -0.734375,-0.65625 -0.78125,0 -1.21875,0.96875 -1.21875,1.078125 0,0.078125 0.09375,0.078125 0.109375,0.078125 0.078125,0 0.09375,-0.015625 0.140625,-0.125 C 1.265625,-2.453125 1.625,-2.875 2.03125,-2.875 c 0.171875,0 0.234375,0.109375 0.234375,0.34375 0,0.078125 0,0.171875 -0.015625,0.203125 z m 0,0"
               id="path13504" />
          </g>
        </g>
        <g
           style="fill:#000000;fill-opacity:1"
           id="g1438">
          <g
             id="use4404"
             transform="translate(102.903,81.962997)">
            <path
               style="stroke:none"
               d="m 3.296875,2.390625 c 0,-0.03125 0,-0.046875 -0.171875,-0.21875 C 1.890625,0.921875 1.5625,-0.96875 1.5625,-2.5 c 0,-1.734375 0.375,-3.46875 1.609375,-4.703125 0.125,-0.125 0.125,-0.140625 0.125,-0.171875 0,-0.078125 -0.03125,-0.109375 -0.09375,-0.109375 -0.109375,0 -1,0.6875 -1.59375,1.953125 -0.5,1.09375 -0.625,2.203125 -0.625,3.03125 0,0.78125 0.109375,1.984375 0.65625,3.125 C 2.25,1.84375 3.09375,2.5 3.203125,2.5 c 0.0625,0 0.09375,-0.03125 0.09375,-0.109375 z m 0,0"
               id="path13500" />
          </g>
        </g>
        <g
           style="fill:#000000;fill-opacity:1"
           id="g9018">
          <g
             id="use6107"
             transform="translate(106.778,81.962997)">
            <path
               style="stroke:none"
               d="M 0.515625,1.28125 C 0.484375,1.421875 0.46875,1.4375 0.453125,1.453125 0.40625,1.46875 0.296875,1.46875 0.203125,1.46875 c -0.171875,0 -0.359375,0 -0.359375,0.28125 0,0.109375 0.09375,0.1875 0.203125,0.1875 0.28125,0 0.609375,-0.03125 0.90625,-0.03125 0.359375,0 0.734375,0.03125 1.078125,0.03125 0.0625,0 0.25,0 0.25,-0.296875 0,-0.171875 -0.15625,-0.171875 -0.25,-0.171875 -0.140625,0 -0.3125,0 -0.4375,-0.015625 l 0.4375,-1.734375 c 0.140625,0.140625 0.46875,0.359375 1,0.359375 1.734375,0 2.8125,-1.578125 2.8125,-2.9375 C 5.84375,-4.09375 4.921875,-4.5 4.09375,-4.5 3.390625,-4.5 2.875,-4.109375 2.71875,-3.96875 2.328125,-4.5 1.671875,-4.5 1.5625,-4.5 1.203125,-4.5 0.90625,-4.296875 0.703125,-3.9375 0.453125,-3.53125 0.3125,-3 0.3125,-2.953125 c 0,0.140625 0.15625,0.140625 0.25,0.140625 0.109375,0 0.140625,0 0.1875,-0.046875 C 0.78125,-2.875 0.78125,-2.90625 0.84375,-3.15625 c 0.1875,-0.796875 0.421875,-0.984375 0.671875,-0.984375 0.109375,0 0.234375,0.03125 0.234375,0.359375 0,0.15625 -0.03125,0.296875 -0.0625,0.4375 z M 2.8125,-3.5 c 0.28125,-0.34375 0.75,-0.640625 1.234375,-0.640625 0.625,0 0.671875,0.53125 0.671875,0.75 0,0.515625 -0.34375,1.75 -0.5,2.140625 -0.3125,0.71875 -0.796875,0.96875 -1.203125,0.96875 C 2.421875,-0.28125 2.1875,-0.75 2.1875,-0.859375 L 2.203125,-1 Z m 0,0"
               id="path13536" />
          </g>
        </g>
        <g
           style="fill:#000000;fill-opacity:1"
           id="g5351">
          <g
             id="use4488"
             transform="translate(112.764,83.457001)">
            <path
               style="stroke:none"
               d="M 3.0625,-4.359375 C 3.0625,-4.46875 2.96875,-4.625 2.78125,-4.625 c -0.203125,0 -0.390625,0.203125 -0.390625,0.390625 0,0.109375 0.078125,0.265625 0.28125,0.265625 0.1875,0 0.390625,-0.1875 0.390625,-0.390625 z M 1.578125,0.34375 C 1.46875,0.828125 1.09375,1.21875 0.6875,1.21875 c -0.09375,0 -0.171875,0 -0.25,-0.03125 0.171875,-0.09375 0.234375,-0.25 0.234375,-0.359375 0,-0.171875 -0.140625,-0.25 -0.28125,-0.25 C 0.1875,0.578125 0,0.765625 0,0.984375 c 0,0.265625 0.265625,0.4375 0.6875,0.4375 0.421875,0 1.234375,-0.25 1.453125,-1.09375 l 0.625,-2.5 c 0.015625,-0.078125 0.03125,-0.140625 0.03125,-0.25 0,-0.375 -0.328125,-0.65625 -0.734375,-0.65625 -0.78125,0 -1.21875,0.96875 -1.21875,1.078125 0,0.078125 0.09375,0.078125 0.109375,0.078125 0.078125,0 0.09375,-0.015625 0.140625,-0.125 C 1.265625,-2.453125 1.625,-2.875 2.03125,-2.875 c 0.171875,0 0.234375,0.109375 0.234375,0.34375 0,0.078125 0,0.171875 -0.015625,0.203125 z m 0,0"
               id="path13508" />
          </g>
        </g>
        <g
           style="fill:#000000;fill-opacity:1"
           id="g2389">
          <g
             id="use4968"
             transform="translate(116.962,81.962997)">
            <path
               style="stroke:none"
               d="m 2.875,-2.5 c 0,-0.765625 -0.109375,-1.96875 -0.65625,-3.109375 -0.59375,-1.21875 -1.453125,-1.875 -1.546875,-1.875 -0.0625,0 -0.109375,0.046875 -0.109375,0.109375 0,0.03125 0,0.046875 0.1875,0.234375 0.984375,0.984375 1.546875,2.5625 1.546875,4.640625 0,1.71875 -0.359375,3.46875 -1.59375,4.71875 C 0.5625,2.34375 0.5625,2.359375 0.5625,2.390625 0.5625,2.453125 0.609375,2.5 0.671875,2.5 0.765625,2.5 1.671875,1.8125 2.25,0.546875 2.765625,-0.546875 2.875,-1.65625 2.875,-2.5 Z m 0,0"
               id="path13492" />
          </g>
        </g>
      </g>
    </g>
    <g
       inkscape:label=""
       transform="translate(14.4225,132.45107)"
       id="g4737">
      <g
         id="g1077">
        <g
           style="fill:#000000;fill-opacity:1"
           id="g879">
          <g
             id="use8992"
             transform="translate(91.925003,81.962997)">
            <path
               style="stroke:none"
               d="m 2.265625,-3.15625 h 1.6875 c 1.1875,0 2.265625,-0.796875 2.265625,-1.796875 C 6.21875,-5.9375 5.234375,-6.8125 3.875,-6.8125 H 0.34375 V -6.5 h 0.25 c 0.765625,0 0.78125,0.109375 0.78125,0.46875 v 5.25 c 0,0.359375 -0.015625,0.46875 -0.78125,0.46875 h -0.25 V 0 c 0.359375,-0.03125 1.09375,-0.03125 1.46875,-0.03125 0.375,0 1.125,0 1.484375,0.03125 v -0.3125 h -0.25 c -0.765625,0 -0.78125,-0.109375 -0.78125,-0.46875 z m -0.03125,-0.25 v -2.6875 C 2.234375,-6.4375 2.25,-6.5 2.71875,-6.5 h 0.890625 c 1.578125,0 1.578125,1.0625 1.578125,1.546875 0,0.46875 0,1.546875 -1.578125,1.546875 z m 0,0"
               id="path13512" />
          </g>
        </g>
        <g
           style="fill:#000000;fill-opacity:1"
           id="g3603">
          <g
             id="use6593"
             transform="translate(98.705002,83.457001)">
            <path
               style="stroke:none"
               d="m 5.1875,-4.71875 c 0,-0.125 0,-0.1875 -0.09375,-0.1875 -0.03125,0 -0.0625,0 -0.125,0.09375 l -0.375,0.53125 c -0.28125,-0.296875 -0.765625,-0.625 -1.4375,-0.625 -1.46875,0 -2.671875,1.140625 -2.671875,2.515625 0,1.421875 1.234375,2.53125 2.671875,2.53125 1.234375,0 2.03125,-0.921875 2.03125,-1.765625 0,-0.078125 -0.015625,-0.140625 -0.125,-0.140625 -0.03125,0 -0.109375,0 -0.109375,0.09375 -0.0625,1.125 -1.015625,1.5625 -1.703125,1.5625 -0.734375,0 -2.015625,-0.453125 -2.015625,-2.265625 0,-1.890625 1.34375,-2.265625 2,-2.265625 0.703125,0 1.515625,0.453125 1.703125,1.65625 0.015625,0.078125 0.078125,0.078125 0.125,0.078125 0.125,0 0.125,-0.046875 0.125,-0.1875 z m 0,0"
               id="path13516" />
          </g>
        </g>
        <g
           style="fill:#000000;fill-opacity:1"
           id="g8461">
          <g
             id="use417"
             transform="translate(104.891,81.962997)">
            <path
               style="stroke:none"
               d="m 3.296875,2.390625 c 0,-0.03125 0,-0.046875 -0.171875,-0.21875 C 1.890625,0.921875 1.5625,-0.96875 1.5625,-2.5 c 0,-1.734375 0.375,-3.46875 1.609375,-4.703125 0.125,-0.125 0.125,-0.140625 0.125,-0.171875 0,-0.078125 -0.03125,-0.109375 -0.09375,-0.109375 -0.109375,0 -1,0.6875 -1.59375,1.953125 -0.5,1.09375 -0.625,2.203125 -0.625,3.03125 0,0.78125 0.109375,1.984375 0.65625,3.125 C 2.25,1.84375 3.09375,2.5 3.203125,2.5 c 0.0625,0 0.09375,-0.03125 0.09375,-0.109375 z m 0,0"
               id="path13568" />
          </g>
        </g>
        <g
           style="fill:#000000;fill-opacity:1"
           id="g218">
          <g
             id="use4288"
             transform="translate(108.765,81.962997)">
            <path
               style="stroke:none"
               d="M 0.515625,1.28125 C 0.484375,1.421875 0.46875,1.4375 0.453125,1.453125 0.40625,1.46875 0.296875,1.46875 0.203125,1.46875 c -0.171875,0 -0.359375,0 -0.359375,0.28125 0,0.109375 0.09375,0.1875 0.203125,0.1875 0.28125,0 0.609375,-0.03125 0.90625,-0.03125 0.359375,0 0.734375,0.03125 1.078125,0.03125 0.0625,0 0.25,0 0.25,-0.296875 0,-0.171875 -0.15625,-0.171875 -0.25,-0.171875 -0.140625,0 -0.3125,0 -0.4375,-0.015625 l 0.4375,-1.734375 c 0.140625,0.140625 0.46875,0.359375 1,0.359375 1.734375,0 2.8125,-1.578125 2.8125,-2.9375 C 5.84375,-4.09375 4.921875,-4.5 4.09375,-4.5 3.390625,-4.5 2.875,-4.109375 2.71875,-3.96875 2.328125,-4.5 1.671875,-4.5 1.5625,-4.5 1.203125,-4.5 0.90625,-4.296875 0.703125,-3.9375 0.453125,-3.53125 0.3125,-3 0.3125,-2.953125 c 0,0.140625 0.15625,0.140625 0.25,0.140625 0.109375,0 0.140625,0 0.1875,-0.046875 C 0.78125,-2.875 0.78125,-2.90625 0.84375,-3.15625 c 0.1875,-0.796875 0.421875,-0.984375 0.671875,-0.984375 0.109375,0 0.234375,0.03125 0.234375,0.359375 0,0.15625 -0.03125,0.296875 -0.0625,0.4375 z M 2.8125,-3.5 c 0.28125,-0.34375 0.75,-0.640625 1.234375,-0.640625 0.625,0 0.671875,0.53125 0.671875,0.75 0,0.515625 -0.34375,1.75 -0.5,2.140625 -0.3125,0.71875 -0.796875,0.96875 -1.203125,0.96875 C 2.421875,-0.28125 2.1875,-0.75 2.1875,-0.859375 L 2.203125,-1 Z m 0,0"
               id="path13496" />
          </g>
        </g>
        <g
           style="fill:#000000;fill-opacity:1"
           id="g6620">
          <g
             id="use4907"
             transform="translate(114.752,83.457001)">
            <path
               style="stroke:none"
               d="m 5.1875,-4.71875 c 0,-0.125 0,-0.1875 -0.09375,-0.1875 -0.03125,0 -0.0625,0 -0.125,0.09375 l -0.375,0.53125 c -0.28125,-0.296875 -0.765625,-0.625 -1.4375,-0.625 -1.46875,0 -2.671875,1.140625 -2.671875,2.515625 0,1.421875 1.234375,2.53125 2.671875,2.53125 1.234375,0 2.03125,-0.921875 2.03125,-1.765625 0,-0.078125 -0.015625,-0.140625 -0.125,-0.140625 -0.03125,0 -0.109375,0 -0.109375,0.09375 -0.0625,1.125 -1.015625,1.5625 -1.703125,1.5625 -0.734375,0 -2.015625,-0.453125 -2.015625,-2.265625 0,-1.890625 1.34375,-2.265625 2,-2.265625 0.703125,0 1.515625,0.453125 1.703125,1.65625 0.015625,0.078125 0.078125,0.078125 0.125,0.078125 0.125,0 0.125,-0.046875 0.125,-0.1875 z m 0,0"
               id="path13520" />
          </g>
        </g>
        <g
           style="fill:#000000;fill-opacity:1"
           id="g2849">
          <g
             id="use2970"
             transform="translate(120.937,81.962997)">
            <path
               style="stroke:none"
               d="m 2.875,-2.5 c 0,-0.765625 -0.109375,-1.96875 -0.65625,-3.109375 -0.59375,-1.21875 -1.453125,-1.875 -1.546875,-1.875 -0.0625,0 -0.109375,0.046875 -0.109375,0.109375 0,0.03125 0,0.046875 0.1875,0.234375 0.984375,0.984375 1.546875,2.5625 1.546875,4.640625 0,1.71875 -0.359375,3.46875 -1.59375,4.71875 C 0.5625,2.34375 0.5625,2.359375 0.5625,2.390625 0.5625,2.453125 0.609375,2.5 0.671875,2.5 0.765625,2.5 1.671875,1.8125 2.25,0.546875 2.765625,-0.546875 2.875,-1.65625 2.875,-2.5 Z m 0,0"
               id="path13528" />
          </g>
        </g>
      </g>
    </g>
    <g
       inkscape:label=""
       transform="translate(-89.261231,180.86536)"
       id="g14630">
      <g
         id="g8312">
        <g
           style="fill:#000000;fill-opacity:1"
           id="g3851">
          <use
             xlink:href="#symbol1783"
             x="91.925003"
             y="81.962997"
             id="use5252"
             width="100%"
             height="100%" />
        </g>
        <g
           style="fill:#000000;fill-opacity:1"
           id="g8006">
          <use
             xlink:href="#symbol7927"
             x="98.705002"
             y="83.457001"
             id="use9454"
             width="100%"
             height="100%" />
        </g>
        <g
           style="fill:#000000;fill-opacity:1"
           id="g8564">
          <use
             xlink:href="#symbol1150"
             x="101.763"
             y="81.962997"
             id="use240"
             width="100%"
             height="100%" />
        </g>
        <g
           style="fill:#000000;fill-opacity:1"
           id="g8380">
          <use
             xlink:href="#symbol1388"
             x="105.638"
             y="81.962997"
             id="use87"
             width="100%"
             height="100%" />
        </g>
        <g
           style="fill:#000000;fill-opacity:1"
           id="g2785">
          <use
             xlink:href="#symbol7927"
             x="111.625"
             y="83.457001"
             id="use9838"
             width="100%"
             height="100%" />
        </g>
        <g
           style="fill:#000000;fill-opacity:1"
           id="g158">
          <use
             xlink:href="#symbol4222"
             x="114.683"
             y="81.962997"
             id="use901"
             width="100%"
             height="100%" />
        </g>
      </g>
    </g>
    <circle
       style="fill:none;fill-rule:evenodd;stroke:#000000;stroke-width:0.264999;stroke-linecap:square;stroke-linejoin:round;stroke-dasharray:1.06, 1.06;stroke-opacity:1"
       id="path1114"
       cx="118.73944"
       cy="198.30312"
       r="110" />
  </g>
</svg>
