<?xml version="1.0" encoding="UTF-8" standalone="no"?>
<!-- Created with Inkscape (http://www.inkscape.org/) -->

<svg
   width="210mm"
   height="297mm"
   viewBox="0 0 210 297"
   version="1.1"
   id="svg5"
   inkscape:version="1.1.2 (0a00cf5339, 2022-02-04)"
   sodipodi:docname="joint.svg"
   xmlns:inkscape="http://www.inkscape.org/namespaces/inkscape"
   xmlns:sodipodi="http://sodipodi.sourceforge.net/DTD/sodipodi-0.dtd"
   xmlns:xlink="http://www.w3.org/1999/xlink"
   xmlns="http://www.w3.org/2000/svg"
   xmlns:svg="http://www.w3.org/2000/svg">
  <sodipodi:namedview
     id="namedview7"
     pagecolor="#ffffff"
     bordercolor="#666666"
     borderopacity="1.0"
     inkscape:pageshadow="2"
     inkscape:pageopacity="0.0"
     inkscape:pagecheckerboard="0"
     inkscape:document-units="mm"
     showgrid="true"
     inkscape:zoom="0.93773784"
     inkscape:cx="506.00496"
     inkscape:cy="923.49904"
     inkscape:window-width="1920"
     inkscape:window-height="1103"
     inkscape:window-x="0"
     inkscape:window-y="0"
     inkscape:window-maximized="1"
     inkscape:current-layer="layer1"
     inkscape:snap-global="false">
    <inkscape:grid
       type="xygrid"
       id="grid824" />
  </sodipodi:namedview>
  <defs
     id="defs2">
    <marker
       style="overflow:visible;"
       id="Arrow1Send"
       refX="0.0"
       refY="0.0"
       orient="auto"
       inkscape:stockid="Arrow1Send"
       inkscape:isstock="true">
      <path
         transform="scale(0.2) rotate(180) translate(6,0)"
         style="fill-rule:evenodd;fill:context-stroke;stroke:context-stroke;stroke-width:1.0pt;"
         d="M 0.0,0.0 L 5.0,-5.0 L -12.5,0.0 L 5.0,5.0 L 0.0,0.0 z "
         id="path1400" />
    </marker>
    <marker
       style="overflow:visible;"
       id="Arrow2Mend"
       refX="0.0"
       refY="0.0"
       orient="auto"
       inkscape:stockid="Arrow2Mend"
       inkscape:isstock="true">
      <path
         transform="scale(0.6) rotate(180) translate(0,0)"
         d="M 8.7185878,4.0337352 L -2.2072895,0.016013256 L 8.7185884,-4.0017078 C 6.9730900,-1.6296469 6.9831476,1.6157441 8.7185878,4.0337352 z "
         style="stroke:context-stroke;fill-rule:evenodd;fill:context-stroke;stroke-width:0.62500000;stroke-linejoin:round;"
         id="path1412" />
    </marker>
    <marker
       style="overflow:visible;"
       id="Arrow2Lend"
       refX="0.0"
       refY="0.0"
       orient="auto"
       inkscape:stockid="Arrow2Lend"
       inkscape:isstock="true">
      <path
         transform="scale(1.1) rotate(180) translate(1,0)"
         d="M 8.7185878,4.0337352 L -2.2072895,0.016013256 L 8.7185884,-4.0017078 C 6.9730900,-1.6296469 6.9831476,1.6157441 8.7185878,4.0337352 z "
         style="stroke:context-stroke;fill-rule:evenodd;fill:context-stroke;stroke-width:0.62500000;stroke-linejoin:round;"
         id="path1406" />
    </marker>
    <g
       id="g9014">
      <symbol
         overflow="visible"
         id="symbol8809">
        <path
           style="stroke:none;"
           d=""
           id="path6518" />
      </symbol>
      <symbol
         overflow="visible"
         id="symbol7805">
        <path
           style="stroke:none;"
           d="M 3.703125 -3.25 C 3.796875 -3.34375 3.796875 -3.390625 3.796875 -3.40625 C 3.796875 -3.453125 3.765625 -3.515625 3.734375 -3.546875 L 1.6875 -6.5 L 3.984375 -6.5 C 5.671875 -6.5 6.171875 -6.140625 6.375 -4.5625 L 6.625 -4.5625 L 6.34375 -6.8125 L 0.8125 -6.8125 C 0.578125 -6.8125 0.5625 -6.8125 0.5625 -6.578125 L 3.046875 -2.96875 L 0.671875 -0.265625 C 0.5625 -0.15625 0.5625 -0.140625 0.5625 -0.109375 C 0.5625 0 0.671875 0 0.8125 0 L 6.34375 0 L 6.625 -2.359375 L 6.375 -2.359375 C 6.203125 -0.6875 5.515625 -0.421875 3.953125 -0.421875 L 1.203125 -0.421875 Z M 3.703125 -3.25 "
           id="path3028" />
      </symbol>
      <symbol
         overflow="visible"
         id="symbol9372">
        <path
           style="stroke:none;"
           d=""
           id="path9694" />
      </symbol>
      <symbol
         overflow="visible"
         id="symbol9667">
        <path
           style="stroke:none;"
           d="M 1.9375 1.09375 C 1.484375 1.09375 1.421875 1.09375 1.421875 0.796875 L 1.421875 -0.328125 C 1.453125 -0.296875 1.78125 0.0625 2.359375 0.0625 C 3.28125 0.0625 4.0625 -0.625 4.0625 -1.5 C 4.0625 -2.359375 3.359375 -3.078125 2.46875 -3.078125 C 2.078125 -3.078125 1.671875 -2.921875 1.390625 -2.640625 L 1.390625 -3.078125 L 0.34375 -3 L 0.34375 -2.75 C 0.828125 -2.75 0.859375 -2.703125 0.859375 -2.421875 L 0.859375 0.796875 C 0.859375 1.09375 0.796875 1.09375 0.34375 1.09375 L 0.34375 1.359375 C 0.359375 1.359375 0.84375 1.328125 1.140625 1.328125 C 1.390625 1.328125 1.875 1.34375 1.9375 1.359375 Z M 1.421875 -2.328125 C 1.625 -2.671875 2.03125 -2.84375 2.390625 -2.84375 C 2.984375 -2.84375 3.4375 -2.234375 3.4375 -1.5 C 3.4375 -0.703125 2.90625 -0.125 2.328125 -0.125 C 1.703125 -0.125 1.4375 -0.65625 1.421875 -0.703125 Z M 1.421875 -2.328125 "
           id="path7392" />
      </symbol>
    </g>
    <marker
       style="overflow:visible"
       id="Arrow2Lend-9"
       refX="0"
       refY="0"
       orient="auto"
       inkscape:stockid="Arrow2Lend"
       inkscape:isstock="true">
      <path
         transform="matrix(-1.1,0,0,-1.1,-1.1,0)"
         d="M 8.7185878,4.0337352 -2.2072895,0.01601326 8.7185884,-4.0017078 c -1.7454984,2.3720609 -1.7354408,5.6174519 -6e-7,8.035443 z"
         style="fill:context-stroke;fill-rule:evenodd;stroke:context-stroke;stroke-width:0.625;stroke-linejoin:round"
         id="path1406-7" />
    </marker>
    <marker
       style="overflow:visible"
       id="marker2449"
       refX="0"
       refY="0"
       orient="auto"
       inkscape:stockid="Arrow2Lend"
       inkscape:isstock="true">
      <path
         transform="matrix(-1.1,0,0,-1.1,-1.1,0)"
         d="M 8.7185878,4.0337352 -2.2072895,0.01601326 8.7185884,-4.0017078 c -1.7454984,2.3720609 -1.7354408,5.6174519 -6e-7,8.035443 z"
         style="fill:context-stroke;fill-rule:evenodd;stroke:context-stroke;stroke-width:0.625;stroke-linejoin:round"
         id="path2447" />
    </marker>
    <marker
       style="overflow:visible"
       id="marker2453"
       refX="0"
       refY="0"
       orient="auto"
       inkscape:stockid="Arrow2Lend"
       inkscape:isstock="true">
      <path
         transform="matrix(-1.1,0,0,-1.1,-1.1,0)"
         d="M 8.7185878,4.0337352 -2.2072895,0.01601326 8.7185884,-4.0017078 c -1.7454984,2.3720609 -1.7354408,5.6174519 -6e-7,8.035443 z"
         style="fill:context-stroke;fill-rule:evenodd;stroke:context-stroke;stroke-width:0.625;stroke-linejoin:round"
         id="path2451" />
    </marker>
    <marker
       style="overflow:visible"
       id="Arrow2Lend-7"
       refX="0"
       refY="0"
       orient="auto"
       inkscape:stockid="Arrow2Lend"
       inkscape:isstock="true">
      <path
         transform="matrix(-1.1,0,0,-1.1,-1.1,0)"
         d="M 8.7185878,4.0337352 -2.2072895,0.01601326 8.7185884,-4.0017078 c -1.7454984,2.3720609 -1.7354408,5.6174519 -6e-7,8.035443 z"
         style="fill:context-stroke;fill-rule:evenodd;stroke:context-stroke;stroke-width:0.625;stroke-linejoin:round"
         id="path1406-0" />
    </marker>
    <marker
       style="overflow:visible"
       id="marker2993"
       refX="0"
       refY="0"
       orient="auto"
       inkscape:stockid="Arrow2Lend"
       inkscape:isstock="true">
      <path
         transform="matrix(-1.1,0,0,-1.1,-1.1,0)"
         d="M 8.7185878,4.0337352 -2.2072895,0.01601326 8.7185884,-4.0017078 c -1.7454984,2.3720609 -1.7354408,5.6174519 -6e-7,8.035443 z"
         style="fill:context-stroke;fill-rule:evenodd;stroke:context-stroke;stroke-width:0.625;stroke-linejoin:round"
         id="path2991" />
    </marker>
    <marker
       style="overflow:visible"
       id="marker2997"
       refX="0"
       refY="0"
       orient="auto"
       inkscape:stockid="Arrow2Lend"
       inkscape:isstock="true">
      <path
         transform="matrix(-1.1,0,0,-1.1,-1.1,0)"
         d="M 8.7185878,4.0337352 -2.2072895,0.01601326 8.7185884,-4.0017078 c -1.7454984,2.3720609 -1.7354408,5.6174519 -6e-7,8.035443 z"
         style="fill:context-stroke;fill-rule:evenodd;stroke:context-stroke;stroke-width:0.625;stroke-linejoin:round"
         id="path2995" />
    </marker>
    <marker
       style="overflow:visible"
       id="Arrow2Lend-7-5"
       refX="0"
       refY="0"
       orient="auto"
       inkscape:stockid="Arrow2Lend"
       inkscape:isstock="true">
      <path
         transform="matrix(-1.1,0,0,-1.1,-1.1,0)"
         d="M 8.7185878,4.0337352 -2.2072895,0.01601326 8.7185884,-4.0017078 c -1.7454984,2.3720609 -1.7354408,5.6174519 -6e-7,8.035443 z"
         style="fill:context-stroke;fill-rule:evenodd;stroke:context-stroke;stroke-width:0.625;stroke-linejoin:round"
         id="path1406-0-3" />
    </marker>
    <marker
       style="overflow:visible"
       id="marker3429"
       refX="0"
       refY="0"
       orient="auto"
       inkscape:stockid="Arrow2Lend"
       inkscape:isstock="true">
      <path
         transform="matrix(-1.1,0,0,-1.1,-1.1,0)"
         d="M 8.7185878,4.0337352 -2.2072895,0.01601326 8.7185884,-4.0017078 c -1.7454984,2.3720609 -1.7354408,5.6174519 -6e-7,8.035443 z"
         style="fill:context-stroke;fill-rule:evenodd;stroke:context-stroke;stroke-width:0.625;stroke-linejoin:round"
         id="path3427" />
    </marker>
    <marker
       style="overflow:visible"
       id="marker3433"
       refX="0"
       refY="0"
       orient="auto"
       inkscape:stockid="Arrow2Lend"
       inkscape:isstock="true">
      <path
         transform="matrix(-1.1,0,0,-1.1,-1.1,0)"
         d="M 8.7185878,4.0337352 -2.2072895,0.01601326 8.7185884,-4.0017078 c -1.7454984,2.3720609 -1.7354408,5.6174519 -6e-7,8.035443 z"
         style="fill:context-stroke;fill-rule:evenodd;stroke:context-stroke;stroke-width:0.625;stroke-linejoin:round"
         id="path3431" />
    </marker>
    <g
       id="g8284">
      <symbol
         overflow="visible"
         id="symbol9826">
        <path
           style="stroke:none;"
           d=""
           id="path1252" />
      </symbol>
      <symbol
         overflow="visible"
         id="symbol8190">
        <path
           style="stroke:none;"
           d="M 3.703125 -3.25 C 3.796875 -3.34375 3.796875 -3.390625 3.796875 -3.40625 C 3.796875 -3.453125 3.765625 -3.515625 3.734375 -3.546875 L 1.6875 -6.5 L 3.984375 -6.5 C 5.671875 -6.5 6.171875 -6.140625 6.375 -4.5625 L 6.625 -4.5625 L 6.34375 -6.8125 L 0.8125 -6.8125 C 0.578125 -6.8125 0.5625 -6.8125 0.5625 -6.578125 L 3.046875 -2.96875 L 0.671875 -0.265625 C 0.5625 -0.15625 0.5625 -0.140625 0.5625 -0.109375 C 0.5625 0 0.671875 0 0.8125 0 L 6.34375 0 L 6.625 -2.359375 L 6.375 -2.359375 C 6.203125 -0.6875 5.515625 -0.421875 3.953125 -0.421875 L 1.203125 -0.421875 Z M 3.703125 -3.25 "
           id="path8442" />
      </symbol>
      <symbol
         overflow="visible"
         id="symbol9155">
        <path
           style="stroke:none;"
           d=""
           id="path5018" />
      </symbol>
      <symbol
         overflow="visible"
         id="symbol9674">
        <path
           style="stroke:none;"
           d="M 3.6875 -1.484375 C 3.6875 -2.359375 2.9375 -3.109375 1.984375 -3.109375 C 1.015625 -3.109375 0.265625 -2.359375 0.265625 -1.484375 C 0.265625 -0.625 1.03125 0.0625 1.984375 0.0625 C 2.921875 0.0625 3.6875 -0.625 3.6875 -1.484375 Z M 1.984375 -0.15625 C 1.71875 -0.15625 1.34375 -0.234375 1.109375 -0.578125 C 0.921875 -0.859375 0.90625 -1.21875 0.90625 -1.546875 C 0.90625 -1.84375 0.90625 -2.265625 1.15625 -2.5625 C 1.328125 -2.765625 1.625 -2.90625 1.984375 -2.90625 C 2.390625 -2.90625 2.6875 -2.71875 2.84375 -2.5 C 3.03125 -2.234375 3.046875 -1.875 3.046875 -1.546875 C 3.046875 -1.21875 3.03125 -0.84375 2.828125 -0.5625 C 2.640625 -0.296875 2.328125 -0.15625 1.984375 -0.15625 Z M 1.984375 -0.15625 "
           id="path734" />
      </symbol>
    </g>
    <g
       id="g5779">
      <symbol
         overflow="visible"
         id="symbol6544">
        <path
           style="stroke:none;"
           d=""
           id="path5639" />
      </symbol>
      <symbol
         overflow="visible"
         id="symbol6051">
        <path
           style="stroke:none;"
           d="M 3.703125 -3.25 C 3.796875 -3.34375 3.796875 -3.390625 3.796875 -3.40625 C 3.796875 -3.453125 3.765625 -3.515625 3.734375 -3.546875 L 1.6875 -6.5 L 3.984375 -6.5 C 5.671875 -6.5 6.171875 -6.140625 6.375 -4.5625 L 6.625 -4.5625 L 6.34375 -6.8125 L 0.8125 -6.8125 C 0.578125 -6.8125 0.5625 -6.8125 0.5625 -6.578125 L 3.046875 -2.96875 L 0.671875 -0.265625 C 0.5625 -0.15625 0.5625 -0.140625 0.5625 -0.109375 C 0.5625 0 0.671875 0 0.8125 0 L 6.34375 0 L 6.625 -2.359375 L 6.375 -2.359375 C 6.203125 -0.6875 5.515625 -0.421875 3.953125 -0.421875 L 1.203125 -0.421875 Z M 3.703125 -3.25 "
           id="path4488" />
      </symbol>
      <symbol
         overflow="visible"
         id="symbol5577">
        <path
           style="stroke:none;"
           d=""
           id="path9893" />
      </symbol>
      <symbol
         overflow="visible"
         id="symbol9415">
        <path
           style="stroke:none;"
           d="M 1.6875 -4.296875 C 1.6875 -4.53125 1.5 -4.703125 1.296875 -4.703125 C 1.046875 -4.703125 0.890625 -4.5 0.890625 -4.296875 C 0.890625 -4.0625 1.09375 -3.890625 1.296875 -3.890625 C 1.53125 -3.890625 1.6875 -4.09375 1.6875 -4.296875 Z M 0.59375 -3 L 0.59375 -2.75 C 1.109375 -2.75 1.171875 -2.703125 1.171875 -2.359375 L 1.171875 0.328125 C 1.171875 0.59375 1.109375 1.21875 0.640625 1.21875 C 0.625 1.21875 0.453125 1.21875 0.296875 1.15625 C 0.3125 1.15625 0.46875 1.0625 0.46875 0.859375 C 0.46875 0.671875 0.328125 0.53125 0.140625 0.53125 C -0.0625 0.53125 -0.1875 0.671875 -0.1875 0.859375 C -0.1875 1.234375 0.234375 1.421875 0.65625 1.421875 C 1.21875 1.421875 1.6875 0.984375 1.6875 0.328125 L 1.6875 -3.078125 Z M 0.59375 -3 "
           id="path67" />
      </symbol>
    </g>
    <g
       id="g5361">
      <symbol
         overflow="visible"
         id="symbol8052">
        <path
           style="stroke:none;"
           d=""
           id="path52" />
      </symbol>
      <symbol
         overflow="visible"
         id="symbol2294">
        <path
           style="stroke:none;"
           d="M 3.328125 -3.015625 C 3.390625 -3.265625 3.625 -4.1875 4.3125 -4.1875 C 4.359375 -4.1875 4.609375 -4.1875 4.8125 -4.0625 C 4.53125 -4 4.34375 -3.765625 4.34375 -3.515625 C 4.34375 -3.359375 4.453125 -3.171875 4.71875 -3.171875 C 4.9375 -3.171875 5.25 -3.34375 5.25 -3.75 C 5.25 -4.265625 4.671875 -4.40625 4.328125 -4.40625 C 3.75 -4.40625 3.40625 -3.875 3.28125 -3.65625 C 3.03125 -4.3125 2.5 -4.40625 2.203125 -4.40625 C 1.171875 -4.40625 0.59375 -3.125 0.59375 -2.875 C 0.59375 -2.765625 0.703125 -2.765625 0.71875 -2.765625 C 0.796875 -2.765625 0.828125 -2.796875 0.84375 -2.875 C 1.1875 -3.9375 1.84375 -4.1875 2.1875 -4.1875 C 2.375 -4.1875 2.71875 -4.09375 2.71875 -3.515625 C 2.71875 -3.203125 2.546875 -2.546875 2.1875 -1.140625 C 2.03125 -0.53125 1.671875 -0.109375 1.234375 -0.109375 C 1.171875 -0.109375 0.953125 -0.109375 0.734375 -0.234375 C 0.984375 -0.296875 1.203125 -0.5 1.203125 -0.78125 C 1.203125 -1.046875 0.984375 -1.125 0.84375 -1.125 C 0.53125 -1.125 0.296875 -0.875 0.296875 -0.546875 C 0.296875 -0.09375 0.78125 0.109375 1.21875 0.109375 C 1.890625 0.109375 2.25 -0.59375 2.265625 -0.640625 C 2.390625 -0.28125 2.75 0.109375 3.34375 0.109375 C 4.375 0.109375 4.9375 -1.171875 4.9375 -1.421875 C 4.9375 -1.53125 4.859375 -1.53125 4.828125 -1.53125 C 4.734375 -1.53125 4.71875 -1.484375 4.6875 -1.421875 C 4.359375 -0.34375 3.6875 -0.109375 3.375 -0.109375 C 2.984375 -0.109375 2.828125 -0.421875 2.828125 -0.765625 C 2.828125 -0.984375 2.875 -1.203125 2.984375 -1.640625 Z M 3.328125 -3.015625 "
           id="path5145" />
      </symbol>
    </g>
    <g
       id="g4726">
      <symbol
         overflow="visible"
         id="symbol9848">
        <path
           style="stroke:none;"
           d=""
           id="path9873" />
      </symbol>
      <symbol
         overflow="visible"
         id="symbol4098">
        <path
           style="stroke:none;"
           d="M 4.84375 -3.796875 C 4.890625 -3.9375 4.890625 -3.953125 4.890625 -4.03125 C 4.890625 -4.203125 4.75 -4.296875 4.59375 -4.296875 C 4.5 -4.296875 4.34375 -4.234375 4.25 -4.09375 C 4.234375 -4.03125 4.140625 -3.734375 4.109375 -3.546875 C 4.03125 -3.296875 3.96875 -3.015625 3.90625 -2.75 L 3.453125 -0.953125 C 3.421875 -0.8125 2.984375 -0.109375 2.328125 -0.109375 C 1.828125 -0.109375 1.71875 -0.546875 1.71875 -0.921875 C 1.71875 -1.375 1.890625 -2 2.21875 -2.875 C 2.375 -3.28125 2.421875 -3.390625 2.421875 -3.59375 C 2.421875 -4.03125 2.109375 -4.40625 1.609375 -4.40625 C 0.65625 -4.40625 0.296875 -2.953125 0.296875 -2.875 C 0.296875 -2.765625 0.390625 -2.765625 0.40625 -2.765625 C 0.515625 -2.765625 0.515625 -2.796875 0.5625 -2.953125 C 0.84375 -3.890625 1.234375 -4.1875 1.578125 -4.1875 C 1.65625 -4.1875 1.828125 -4.1875 1.828125 -3.875 C 1.828125 -3.625 1.71875 -3.359375 1.65625 -3.171875 C 1.25 -2.109375 1.078125 -1.546875 1.078125 -1.078125 C 1.078125 -0.1875 1.703125 0.109375 2.296875 0.109375 C 2.6875 0.109375 3.015625 -0.0625 3.296875 -0.34375 C 3.171875 0.171875 3.046875 0.671875 2.65625 1.203125 C 2.390625 1.53125 2.015625 1.828125 1.5625 1.828125 C 1.421875 1.828125 0.96875 1.796875 0.796875 1.40625 C 0.953125 1.40625 1.09375 1.40625 1.21875 1.28125 C 1.328125 1.203125 1.421875 1.0625 1.421875 0.875 C 1.421875 0.5625 1.15625 0.53125 1.0625 0.53125 C 0.828125 0.53125 0.5 0.6875 0.5 1.171875 C 0.5 1.671875 0.9375 2.046875 1.5625 2.046875 C 2.578125 2.046875 3.609375 1.140625 3.890625 0.015625 Z M 4.84375 -3.796875 "
           id="path5486" />
      </symbol>
    </g>
    <g
       id="g5797">
      <symbol
         overflow="visible"
         id="symbol4841">
        <path
           style="stroke:none;"
           d=""
           id="path420" />
      </symbol>
      <symbol
         overflow="visible"
         id="symbol5866">
        <path
           style="stroke:none;"
           d="M 1.328125 -0.828125 C 1.859375 -1.40625 2.15625 -1.65625 2.515625 -1.96875 C 2.515625 -1.96875 3.125 -2.5 3.484375 -2.859375 C 4.4375 -3.78125 4.65625 -4.265625 4.65625 -4.3125 C 4.65625 -4.40625 4.5625 -4.40625 4.546875 -4.40625 C 4.46875 -4.40625 4.453125 -4.390625 4.390625 -4.296875 C 4.09375 -3.8125 3.890625 -3.65625 3.65625 -3.65625 C 3.40625 -3.65625 3.296875 -3.8125 3.140625 -3.984375 C 2.953125 -4.203125 2.78125 -4.40625 2.453125 -4.40625 C 1.703125 -4.40625 1.25 -3.484375 1.25 -3.265625 C 1.25 -3.21875 1.28125 -3.15625 1.359375 -3.15625 C 1.453125 -3.15625 1.46875 -3.203125 1.5 -3.265625 C 1.6875 -3.734375 2.265625 -3.734375 2.34375 -3.734375 C 2.546875 -3.734375 2.734375 -3.671875 2.96875 -3.59375 C 3.375 -3.4375 3.484375 -3.4375 3.734375 -3.4375 C 3.375 -3.015625 2.546875 -2.296875 2.359375 -2.140625 L 1.453125 -1.296875 C 0.78125 -0.625 0.421875 -0.0625 0.421875 0.015625 C 0.421875 0.109375 0.53125 0.109375 0.546875 0.109375 C 0.625 0.109375 0.640625 0.09375 0.703125 -0.015625 C 0.9375 -0.375 1.234375 -0.640625 1.5625 -0.640625 C 1.78125 -0.640625 1.890625 -0.546875 2.140625 -0.265625 C 2.296875 -0.046875 2.484375 0.109375 2.765625 0.109375 C 3.765625 0.109375 4.34375 -1.15625 4.34375 -1.421875 C 4.34375 -1.46875 4.296875 -1.53125 4.21875 -1.53125 C 4.125 -1.53125 4.109375 -1.46875 4.078125 -1.390625 C 3.84375 -0.75 3.203125 -0.5625 2.875 -0.5625 C 2.6875 -0.5625 2.5 -0.625 2.296875 -0.6875 C 1.953125 -0.8125 1.796875 -0.859375 1.59375 -0.859375 C 1.578125 -0.859375 1.421875 -0.859375 1.328125 -0.828125 Z M 1.328125 -0.828125 "
           id="path3926" />
      </symbol>
    </g>
    <g
       id="g5836">
      <symbol
         overflow="visible"
         id="symbol5716">
        <path
           style="stroke:none;"
           d=""
           id="path3976" />
      </symbol>
      <symbol
         overflow="visible"
         id="symbol7908">
        <path
           style="stroke:none;"
           d="M 5.40625 -4.328125 C 5.40625 -4.375 5.375 -4.5 5.234375 -4.5 C 5.21875 -4.5 4.640625 -4.359375 4.328125 -4.078125 C 4.1875 -4.234375 3.84375 -4.5 3.265625 -4.5 C 1.53125 -4.5 0.453125 -2.9375 0.453125 -1.5625 C 0.453125 -0.34375 1.359375 0.078125 2.1875 0.078125 C 2.671875 0.078125 3.078125 -0.109375 3.28125 -0.234375 L 2.90625 1.28125 C 2.859375 1.421875 2.84375 1.4375 2.78125 1.453125 C 2.671875 1.46875 2.515625 1.46875 2.40625 1.46875 C 2.234375 1.46875 2.171875 1.46875 2.125 1.53125 C 2.078125 1.578125 2.046875 1.75 2.046875 1.75 C 2.046875 1.8125 2.078125 1.9375 2.25 1.9375 C 2.578125 1.9375 2.953125 1.90625 3.296875 1.90625 C 3.671875 1.90625 4.046875 1.9375 4.40625 1.9375 C 4.46875 1.9375 4.671875 1.9375 4.671875 1.640625 C 4.671875 1.46875 4.5 1.46875 4.40625 1.46875 C 4.265625 1.46875 4.109375 1.46875 3.984375 1.453125 Z M 3.484375 -1.0625 C 3.4375 -0.890625 3.4375 -0.875 3.328125 -0.78125 C 3.015625 -0.453125 2.59375 -0.28125 2.25 -0.28125 C 1.625 -0.28125 1.578125 -0.8125 1.578125 -1.03125 C 1.578125 -1.5625 1.90625 -2.78125 2.078125 -3.171875 C 2.375 -3.890625 2.875 -4.140625 3.28125 -4.140625 C 3.875 -4.140625 4.109375 -3.671875 4.109375 -3.5625 C 4.109375 -3.53125 4.09375 -3.453125 4.09375 -3.421875 Z M 3.484375 -1.0625 "
           id="path4614" />
      </symbol>
    </g>
  </defs>
  <g
     inkscape:label="Layer 1"
     inkscape:groupmode="layer"
     id="layer1">
    <path
       style="fill:none;stroke:#000000;stroke-width:0.264583;stroke-linecap:butt;stroke-linejoin:miter;stroke-miterlimit:4;stroke-dasharray:none;stroke-opacity:1;marker-end:url(#Arrow2Lend)"
       d="m 25,250 0,-35"
       id="path1360"
       sodipodi:nodetypes="cc" />
    <path
       style="fill:none;stroke:#000000;stroke-width:0.264583;stroke-linecap:butt;stroke-linejoin:miter;stroke-miterlimit:4;stroke-dasharray:none;stroke-opacity:1;marker-end:url(#Arrow2Lend)"
       d="m 25,250 30,15"
       id="path1362"
       sodipodi:nodetypes="cc" />
    <path
       style="fill:none;stroke:#000000;stroke-width:0.264583;stroke-linecap:butt;stroke-linejoin:miter;stroke-miterlimit:4;stroke-dasharray:none;stroke-opacity:1;marker-end:url(#Arrow2Lend)"
       d="m 25,250 35,-5"
       id="path1364"
       sodipodi:nodetypes="cc" />
    <path
       style="fill:none;stroke:#000000;stroke-width:0.264583;stroke-linecap:butt;stroke-linejoin:miter;stroke-miterlimit:4;stroke-dasharray:none;stroke-opacity:1;marker-end:url(#Arrow2Lend-7)"
       d="M 90,235 V 200"
       id="path1360-6"
       sodipodi:nodetypes="cc" />
    <path
       style="fill:none;stroke:#000000;stroke-width:0.264583;stroke-linecap:butt;stroke-linejoin:miter;stroke-miterlimit:4;stroke-dasharray:none;stroke-opacity:1;marker-end:url(#Arrow2Lend-7)"
       d="M 90,235 65,250"
       id="path1362-0"
       sodipodi:nodetypes="cc" />
    <path
       style="fill:none;stroke:#000000;stroke-width:0.264583;stroke-linecap:butt;stroke-linejoin:miter;stroke-miterlimit:4;stroke-dasharray:none;stroke-opacity:1;marker-end:url(#Arrow2Lend-7)"
       d="m 90,235 30,10"
       id="path1364-8"
       sodipodi:nodetypes="cc" />
    <path
       style="fill:none;stroke:#0000ff;stroke-width:0.264583;stroke-linecap:butt;stroke-linejoin:miter;stroke-miterlimit:4;stroke-dasharray:none;stroke-opacity:1;marker-end:url(#Arrow2Lend-7-5)"
       d="M 125,225 115,195"
       id="path1360-6-9"
       sodipodi:nodetypes="cc" />
    <path
       style="fill:none;stroke:#0000ff;stroke-width:0.264583;stroke-linecap:butt;stroke-linejoin:miter;stroke-miterlimit:4;stroke-dasharray:none;stroke-opacity:1;marker-end:url(#Arrow2Lend-7-5)"
       d="m 125,225 -20,25"
       id="path1362-0-4"
       sodipodi:nodetypes="cc" />
    <path
       style="fill:none;stroke:#0000ff;stroke-width:0.264583;stroke-linecap:butt;stroke-linejoin:miter;stroke-miterlimit:4;stroke-dasharray:none;stroke-opacity:1;marker-end:url(#Arrow2Lend-7-5)"
       d="m 125,225 35,0"
       id="path1364-8-1"
       sodipodi:nodetypes="cc" />
    <g
       inkscape:label=""
       transform="translate(-83.035343,150.78609)"
       id="g1812">
      <g
         id="g2161">
        <g
           style="fill:#000000;fill-opacity:1"
           id="g3742">
          <use
             xlink:href="#symbol7805"
             x="91.925003"
             y="81.962997"
             id="use9862"
             width="100%"
             height="100%" />
        </g>
        <g
           style="fill:#000000;fill-opacity:1"
           id="g7460">
          <use
             xlink:href="#symbol9667"
             x="99.121002"
             y="83.457001"
             id="use1411"
             width="100%"
             height="100%" />
        </g>
      </g>
    </g>
    <g
       inkscape:label=""
       transform="translate(-20.126417,140.07051)"
       id="g3968">
      <g
         id="g1128">
        <g
           style="fill:#000000;fill-opacity:1"
           id="g1327">
          <use
             xlink:href="#symbol8190"
             x="91.925003"
             y="81.962997"
             id="use5826"
             width="100%"
             height="100%" />
        </g>
        <g
           style="fill:#000000;fill-opacity:1"
           id="g8042">
          <use
             xlink:href="#symbol9674"
             x="99.121002"
             y="83.457001"
             id="use9790"
             width="100%"
             height="100%" />
        </g>
      </g>
    </g>
    <g
       inkscape:label=""
       transform="translate(41.436273,126.77403)"
       id="g4254">
      <g
         id="g8109">
        <g
           style="fill:#000000;fill-opacity:1"
           id="g3495">
          <use
             xlink:href="#symbol6051"
             x="91.925003"
             y="81.962997"
             id="use5937"
             width="100%"
             height="100%" />
        </g>
        <g
           style="fill:#000000;fill-opacity:1"
           id="g135">
          <use
             xlink:href="#symbol9415"
             x="99.121002"
             y="83.457001"
             id="use2800"
             width="100%"
             height="100%" />
        </g>
      </g>
    </g>
    <g
       inkscape:label=""
       transform="translate(7.734375,175.64063)"
       id="g4564">
      <g
         id="g1167">
        <g
           style="fill:#000000;fill-opacity:1"
           id="g740">
          <use
             xlink:href="#symbol2294"
             x="91.925003"
             y="81.962997"
             id="use2735"
             width="100%"
             height="100%" />
        </g>
      </g>
    </g>
    <g
       inkscape:label=""
       transform="translate(71.486384,144.38152)"
       id="g4886">
      <g
         id="g1730">
        <g
           style="fill:#000000;fill-opacity:1"
           id="g8459">
          <use
             xlink:href="#symbol4098"
             x="91.925003"
             y="81.962997"
             id="use8387"
             width="100%"
             height="100%" />
        </g>
      </g>
    </g>
    <g
       inkscape:label=""
       transform="translate(27.224484,114.62586)"
       id="g5226">
      <g
         id="g6283">
        <g
           style="fill:#000000;fill-opacity:1"
           id="g3818">
          <use
             xlink:href="#symbol5866"
             x="91.925003"
             y="81.962997"
             id="use1865"
             width="100%"
             height="100%" />
        </g>
      </g>
    </g>
    <g
       inkscape:label=""
       transform="translate(9.59375,142.74941)"
       id="g5584">
      <g
         id="g3631">
        <g
           style="fill:#000000;fill-opacity:1"
           id="g4625">
          <use
             xlink:href="#symbol7908"
             x="91.925003"
             y="81.962997"
             id="use5222"
             width="100%"
             height="100%" />
        </g>
      </g>
    </g>
    <path
       style="fill:none;stroke:#000000;stroke-width:0.529167;stroke-linecap:butt;stroke-linejoin:miter;stroke-miterlimit:4;stroke-dasharray:none;stroke-opacity:1;marker-end:url(#Arrow2Mend)"
       d="M 91.511563,234.45584 123.0652,225.60463"
       id="path5987"
       sodipodi:nodetypes="cc" />
    <path
       style="fill:none;stroke:#000000;stroke-width:0.26458299;stroke-linecap:butt;stroke-linejoin:miter;stroke-opacity:1;stroke-miterlimit:4;stroke-dasharray:2.11666389, 2.11666389;stroke-dashoffset:0;marker-end:url(#Arrow2Lend)"
       d="M 25,250 89.999999,235"
       id="path6495" />
  </g>
</svg>
