<?xml version="1.0" encoding="UTF-8" standalone="no"?>
<!-- Created with Inkscape (http://www.inkscape.org/) -->

<svg
   width="210mm"
   height="297mm"
   viewBox="0 0 210 297"
   version="1.1"
   id="svg7776"
   inkscape:version="1.1.2 (0a00cf5339, 2022-02-04)"
   sodipodi:docname="joint_fixed.svg"
   xmlns:inkscape="http://www.inkscape.org/namespaces/inkscape"
   xmlns:sodipodi="http://sodipodi.sourceforge.net/DTD/sodipodi-0.dtd"
   xmlns:xlink="http://www.w3.org/1999/xlink"
   xmlns="http://www.w3.org/2000/svg"
   xmlns:svg="http://www.w3.org/2000/svg">
  <sodipodi:namedview
     id="namedview7778"
     pagecolor="#ffffff"
     bordercolor="#666666"
     borderopacity="1.0"
     inkscape:pageshadow="2"
     inkscape:pageopacity="0.0"
     inkscape:pagecheckerboard="0"
     inkscape:document-units="mm"
     showgrid="true"
     inkscape:zoom="1.2944045"
     inkscape:cx="296.27523"
     inkscape:cy="907.75332"
     inkscape:window-width="1920"
     inkscape:window-height="1103"
     inkscape:window-x="0"
     inkscape:window-y="0"
     inkscape:window-maximized="1"
     inkscape:current-layer="layer1"
     inkscape:snap-global="false">
    <inkscape:grid
       type="xygrid"
       id="grid7837" />
  </sodipodi:namedview>
  <defs
     id="defs7773">
    <marker
       style="overflow:visible"
       id="Arrow2Lend"
       refX="0"
       refY="0"
       orient="auto"
       inkscape:stockid="Arrow2Lend"
       inkscape:isstock="true">
      <path
         transform="matrix(-1.1,0,0,-1.1,-1.1,0)"
         d="M 8.7185878,4.0337352 -2.2072895,0.01601326 8.7185884,-4.0017078 c -1.7454984,2.3720609 -1.7354408,5.6174519 -6e-7,8.035443 z"
         style="fill:context-stroke;fill-rule:evenodd;stroke:context-stroke;stroke-width:0.625;stroke-linejoin:round"
         id="path1406" />
    </marker>
    <marker
       style="overflow:visible"
       id="marker7849"
       refX="0"
       refY="0"
       orient="auto"
       inkscape:stockid="Arrow2Lend"
       inkscape:isstock="true">
      <path
         transform="matrix(-1.1,0,0,-1.1,-1.1,0)"
         d="M 8.7185878,4.0337352 -2.2072895,0.01601326 8.7185884,-4.0017078 c -1.7454984,2.3720609 -1.7354408,5.6174519 -6e-7,8.035443 z"
         style="fill:context-stroke;fill-rule:evenodd;stroke:context-stroke;stroke-width:0.625;stroke-linejoin:round"
         id="path7847" />
    </marker>
    <marker
       style="overflow:visible"
       id="marker7853"
       refX="0"
       refY="0"
       orient="auto"
       inkscape:stockid="Arrow2Lend"
       inkscape:isstock="true">
      <path
         transform="matrix(-1.1,0,0,-1.1,-1.1,0)"
         d="M 8.7185878,4.0337352 -2.2072895,0.01601326 8.7185884,-4.0017078 c -1.7454984,2.3720609 -1.7354408,5.6174519 -6e-7,8.035443 z"
         style="fill:context-stroke;fill-rule:evenodd;stroke:context-stroke;stroke-width:0.625;stroke-linejoin:round"
         id="path7851" />
    </marker>
    <marker
       style="overflow:visible"
       id="Arrow2Lend-7"
       refX="0"
       refY="0"
       orient="auto"
       inkscape:stockid="Arrow2Lend"
       inkscape:isstock="true">
      <path
         transform="matrix(-1.1,0,0,-1.1,-1.1,0)"
         d="M 8.7185878,4.0337352 -2.2072895,0.01601326 8.7185884,-4.0017078 c -1.7454984,2.3720609 -1.7354408,5.6174519 -6e-7,8.035443 z"
         style="fill:context-stroke;fill-rule:evenodd;stroke:context-stroke;stroke-width:0.625;stroke-linejoin:round"
         id="path1406-0" />
    </marker>
    <marker
       style="overflow:visible"
       id="marker7859"
       refX="0"
       refY="0"
       orient="auto"
       inkscape:stockid="Arrow2Lend"
       inkscape:isstock="true">
      <path
         transform="matrix(-1.1,0,0,-1.1,-1.1,0)"
         d="M 8.7185878,4.0337352 -2.2072895,0.01601326 8.7185884,-4.0017078 c -1.7454984,2.3720609 -1.7354408,5.6174519 -6e-7,8.035443 z"
         style="fill:context-stroke;fill-rule:evenodd;stroke:context-stroke;stroke-width:0.625;stroke-linejoin:round"
         id="path7857" />
    </marker>
    <marker
       style="overflow:visible"
       id="marker7863"
       refX="0"
       refY="0"
       orient="auto"
       inkscape:stockid="Arrow2Lend"
       inkscape:isstock="true">
      <path
         transform="matrix(-1.1,0,0,-1.1,-1.1,0)"
         d="M 8.7185878,4.0337352 -2.2072895,0.01601326 8.7185884,-4.0017078 c -1.7454984,2.3720609 -1.7354408,5.6174519 -6e-7,8.035443 z"
         style="fill:context-stroke;fill-rule:evenodd;stroke:context-stroke;stroke-width:0.625;stroke-linejoin:round"
         id="path7861" />
    </marker>
    <marker
       style="overflow:visible"
       id="Arrow2Lend-7-5"
       refX="0"
       refY="0"
       orient="auto"
       inkscape:stockid="Arrow2Lend"
       inkscape:isstock="true">
      <path
         transform="matrix(-1.1,0,0,-1.1,-1.1,0)"
         d="M 8.7185878,4.0337352 -2.2072895,0.01601326 8.7185884,-4.0017078 c -1.7454984,2.3720609 -1.7354408,5.6174519 -6e-7,8.035443 z"
         style="fill:context-stroke;fill-rule:evenodd;stroke:context-stroke;stroke-width:0.625;stroke-linejoin:round"
         id="path1406-0-3" />
    </marker>
    <marker
       style="overflow:visible"
       id="marker7869"
       refX="0"
       refY="0"
       orient="auto"
       inkscape:stockid="Arrow2Lend"
       inkscape:isstock="true">
      <path
         transform="matrix(-1.1,0,0,-1.1,-1.1,0)"
         d="M 8.7185878,4.0337352 -2.2072895,0.01601326 8.7185884,-4.0017078 c -1.7454984,2.3720609 -1.7354408,5.6174519 -6e-7,8.035443 z"
         style="fill:context-stroke;fill-rule:evenodd;stroke:context-stroke;stroke-width:0.625;stroke-linejoin:round"
         id="path7867" />
    </marker>
    <marker
       style="overflow:visible"
       id="marker7873"
       refX="0"
       refY="0"
       orient="auto"
       inkscape:stockid="Arrow2Lend"
       inkscape:isstock="true">
      <path
         transform="matrix(-1.1,0,0,-1.1,-1.1,0)"
         d="M 8.7185878,4.0337352 -2.2072895,0.01601326 8.7185884,-4.0017078 c -1.7454984,2.3720609 -1.7354408,5.6174519 -6e-7,8.035443 z"
         style="fill:context-stroke;fill-rule:evenodd;stroke:context-stroke;stroke-width:0.625;stroke-linejoin:round"
         id="path7871" />
    </marker>
    <marker
       style="overflow:visible"
       id="Arrow2Mend"
       refX="0"
       refY="0"
       orient="auto"
       inkscape:stockid="Arrow2Mend"
       inkscape:isstock="true">
      <path
         transform="scale(-0.6)"
         d="M 8.7185878,4.0337352 -2.2072895,0.01601326 8.7185884,-4.0017078 c -1.7454984,2.3720609 -1.7354408,5.6174519 -6e-7,8.035443 z"
         style="fill:context-stroke;fill-rule:evenodd;stroke:context-stroke;stroke-width:0.625;stroke-linejoin:round"
         id="path1412" />
    </marker>
    <marker
       style="overflow:visible"
       id="marker7879"
       refX="0"
       refY="0"
       orient="auto"
       inkscape:stockid="Arrow2Lend"
       inkscape:isstock="true">
      <path
         transform="matrix(-1.1,0,0,-1.1,-1.1,0)"
         d="M 8.7185878,4.0337352 -2.2072895,0.01601326 8.7185884,-4.0017078 c -1.7454984,2.3720609 -1.7354408,5.6174519 -6e-7,8.035443 z"
         style="fill:context-stroke;fill-rule:evenodd;stroke:context-stroke;stroke-width:0.625;stroke-linejoin:round"
         id="path7877" />
    </marker>
    <g
       id="g9010">
      <symbol
         overflow="visible"
         id="symbol9023">
        <path
           style="stroke:none;"
           d=""
           id="path9987" />
      </symbol>
      <symbol
         overflow="visible"
         id="symbol5139">
        <path
           style="stroke:none;"
           d="M 3.703125 -3.25 C 3.796875 -3.34375 3.796875 -3.390625 3.796875 -3.40625 C 3.796875 -3.453125 3.765625 -3.515625 3.734375 -3.546875 L 1.6875 -6.5 L 3.984375 -6.5 C 5.671875 -6.5 6.171875 -6.140625 6.375 -4.5625 L 6.625 -4.5625 L 6.34375 -6.8125 L 0.8125 -6.8125 C 0.578125 -6.8125 0.5625 -6.8125 0.5625 -6.578125 L 3.046875 -2.96875 L 0.671875 -0.265625 C 0.5625 -0.15625 0.5625 -0.140625 0.5625 -0.109375 C 0.5625 0 0.671875 0 0.8125 0 L 6.34375 0 L 6.625 -2.359375 L 6.375 -2.359375 C 6.203125 -0.6875 5.515625 -0.421875 3.953125 -0.421875 L 1.203125 -0.421875 Z M 3.703125 -3.25 "
           id="path1608" />
      </symbol>
      <symbol
         overflow="visible"
         id="symbol6705">
        <path
           style="stroke:none;"
           d=""
           id="path4188" />
      </symbol>
      <symbol
         overflow="visible"
         id="symbol2196">
        <path
           style="stroke:none;"
           d="M 3.6875 -1.484375 C 3.6875 -2.359375 2.9375 -3.109375 1.984375 -3.109375 C 1.015625 -3.109375 0.265625 -2.359375 0.265625 -1.484375 C 0.265625 -0.625 1.03125 0.0625 1.984375 0.0625 C 2.921875 0.0625 3.6875 -0.625 3.6875 -1.484375 Z M 1.984375 -0.15625 C 1.71875 -0.15625 1.34375 -0.234375 1.109375 -0.578125 C 0.921875 -0.859375 0.90625 -1.21875 0.90625 -1.546875 C 0.90625 -1.84375 0.90625 -2.265625 1.15625 -2.5625 C 1.328125 -2.765625 1.625 -2.90625 1.984375 -2.90625 C 2.390625 -2.90625 2.6875 -2.71875 2.84375 -2.5 C 3.03125 -2.234375 3.046875 -1.875 3.046875 -1.546875 C 3.046875 -1.21875 3.03125 -0.84375 2.828125 -0.5625 C 2.640625 -0.296875 2.328125 -0.15625 1.984375 -0.15625 Z M 1.984375 -0.15625 "
           id="path8978" />
      </symbol>
      <symbol
         overflow="visible"
         id="symbol8244">
        <path
           style="stroke:none;"
           d="M 1.6875 -4.296875 C 1.6875 -4.53125 1.5 -4.703125 1.296875 -4.703125 C 1.046875 -4.703125 0.890625 -4.5 0.890625 -4.296875 C 0.890625 -4.0625 1.09375 -3.890625 1.296875 -3.890625 C 1.53125 -3.890625 1.6875 -4.09375 1.6875 -4.296875 Z M 0.59375 -3 L 0.59375 -2.75 C 1.109375 -2.75 1.171875 -2.703125 1.171875 -2.359375 L 1.171875 0.328125 C 1.171875 0.59375 1.109375 1.21875 0.640625 1.21875 C 0.625 1.21875 0.453125 1.21875 0.296875 1.15625 C 0.3125 1.15625 0.46875 1.0625 0.46875 0.859375 C 0.46875 0.671875 0.328125 0.53125 0.140625 0.53125 C -0.0625 0.53125 -0.1875 0.671875 -0.1875 0.859375 C -0.1875 1.234375 0.234375 1.421875 0.65625 1.421875 C 1.21875 1.421875 1.6875 0.984375 1.6875 0.328125 L 1.6875 -3.078125 Z M 0.59375 -3 "
           id="path1876" />
      </symbol>
      <symbol
         overflow="visible"
         id="symbol7098">
        <path
           style="stroke:none;"
           d=""
           id="path1512" />
      </symbol>
      <symbol
         overflow="visible"
         id="symbol3469">
        <path
           style="stroke:none;"
           d="M 6.84375 -4.234375 C 7.015625 -4.234375 7.203125 -4.234375 7.203125 -4.421875 C 7.203125 -4.625 7.015625 -4.625 6.84375 -4.625 L 0.890625 -4.625 C 0.734375 -4.625 0.546875 -4.625 0.546875 -4.421875 C 0.546875 -4.234375 0.75 -4.234375 0.90625 -4.234375 Z M 6.84375 -0.359375 C 7.015625 -0.359375 7.203125 -0.359375 7.203125 -0.5625 C 7.203125 -0.75 7.015625 -0.75 6.84375 -0.75 L 0.90625 -0.75 C 0.75 -0.75 0.546875 -0.75 0.546875 -0.5625 C 0.546875 -0.359375 0.734375 -0.359375 0.890625 -0.359375 Z M 6.84375 -2.296875 C 7.015625 -2.296875 7.203125 -2.296875 7.203125 -2.5 C 7.203125 -2.6875 7.015625 -2.6875 6.84375 -2.6875 L 0.890625 -2.6875 C 0.734375 -2.6875 0.546875 -2.6875 0.546875 -2.5 C 0.546875 -2.296875 0.734375 -2.296875 0.890625 -2.296875 Z M 6.84375 -2.296875 "
           id="path6435" />
      </symbol>
    </g>
    <g
       id="g1088">
      <symbol
         overflow="visible"
         id="symbol2929">
        <path
           style="stroke:none;"
           d=""
           id="path7353" />
      </symbol>
      <symbol
         overflow="visible"
         id="symbol7978">
        <path
           style="stroke:none;"
           d="M 5.40625 -4.328125 C 5.40625 -4.375 5.375 -4.5 5.234375 -4.5 C 5.21875 -4.5 4.640625 -4.359375 4.328125 -4.078125 C 4.1875 -4.234375 3.84375 -4.5 3.265625 -4.5 C 1.53125 -4.5 0.453125 -2.9375 0.453125 -1.5625 C 0.453125 -0.34375 1.359375 0.078125 2.1875 0.078125 C 2.671875 0.078125 3.078125 -0.109375 3.28125 -0.234375 L 2.90625 1.28125 C 2.859375 1.421875 2.84375 1.4375 2.78125 1.453125 C 2.671875 1.46875 2.515625 1.46875 2.40625 1.46875 C 2.234375 1.46875 2.171875 1.46875 2.125 1.53125 C 2.078125 1.578125 2.046875 1.75 2.046875 1.75 C 2.046875 1.8125 2.078125 1.9375 2.25 1.9375 C 2.578125 1.9375 2.953125 1.90625 3.296875 1.90625 C 3.671875 1.90625 4.046875 1.9375 4.40625 1.9375 C 4.46875 1.9375 4.671875 1.9375 4.671875 1.640625 C 4.671875 1.46875 4.5 1.46875 4.40625 1.46875 C 4.265625 1.46875 4.109375 1.46875 3.984375 1.453125 Z M 3.484375 -1.0625 C 3.4375 -0.890625 3.4375 -0.875 3.328125 -0.78125 C 3.015625 -0.453125 2.59375 -0.28125 2.25 -0.28125 C 1.625 -0.28125 1.578125 -0.8125 1.578125 -1.03125 C 1.578125 -1.5625 1.90625 -2.78125 2.078125 -3.171875 C 2.375 -3.890625 2.875 -4.140625 3.28125 -4.140625 C 3.875 -4.140625 4.109375 -3.671875 4.109375 -3.5625 C 4.109375 -3.53125 4.09375 -3.453125 4.09375 -3.421875 Z M 3.484375 -1.0625 "
           id="path7506" />
      </symbol>
      <symbol
         overflow="visible"
         id="symbol6942">
        <path
           style="stroke:none;"
           d=""
           id="path4706" />
      </symbol>
      <symbol
         overflow="visible"
         id="symbol5829">
        <path
           style="stroke:none;"
           d="M 6.84375 -3.265625 C 7 -3.265625 7.1875 -3.265625 7.1875 -3.453125 C 7.1875 -3.65625 7 -3.65625 6.859375 -3.65625 L 0.890625 -3.65625 C 0.75 -3.65625 0.5625 -3.65625 0.5625 -3.453125 C 0.5625 -3.265625 0.75 -3.265625 0.890625 -3.265625 Z M 6.859375 -1.328125 C 7 -1.328125 7.1875 -1.328125 7.1875 -1.53125 C 7.1875 -1.71875 7 -1.71875 6.84375 -1.71875 L 0.890625 -1.71875 C 0.75 -1.71875 0.5625 -1.71875 0.5625 -1.53125 C 0.5625 -1.328125 0.75 -1.328125 0.890625 -1.328125 Z M 6.859375 -1.328125 "
           id="path5869" />
      </symbol>
      <symbol
         overflow="visible"
         id="symbol5682">
        <path
           style="stroke:none;"
           d=""
           id="path8498" />
      </symbol>
      <symbol
         overflow="visible"
         id="symbol5392">
        <path
           style="stroke:none;"
           d="M 3.875 -7.5 C 3.875 -7.609375 3.78125 -7.703125 3.671875 -7.703125 C 3.515625 -7.703125 3.484375 -7.59375 3.421875 -7.375 C 3.3125 -6.984375 3.40625 -7.328125 3.296875 -6.921875 C 3.1875 -6.984375 2.859375 -7.140625 2.5 -7.140625 C 1.921875 -7.140625 1.28125 -6.84375 0.90625 -6.078125 C 0.515625 -5.265625 0.46875 -4.359375 0.46875 -3.4375 C 0.46875 -2.8125 0.46875 -1.015625 1.328125 -0.234375 C 1.109375 0.53125 1.109375 0.546875 1.109375 0.578125 C 1.109375 0.6875 1.1875 0.78125 1.3125 0.78125 C 1.453125 0.78125 1.484375 0.671875 1.546875 0.453125 C 1.671875 0.0625 1.5625 0.40625 1.671875 0.015625 C 1.90625 0.140625 2.21875 0.21875 2.484375 0.21875 C 3.59375 0.21875 4.03125 -0.71875 4.21875 -1.203125 C 4.46875 -1.890625 4.5 -2.71875 4.5 -3.4375 C 4.5 -4.171875 4.5 -5.828125 3.640625 -6.65625 Z M 1.46875 -0.703125 C 1.140625 -1.390625 1.140625 -2.609375 1.140625 -3.5625 C 1.140625 -4.359375 1.140625 -5.046875 1.28125 -5.6875 C 1.46875 -6.625 2.046875 -6.921875 2.5 -6.921875 C 2.6875 -6.921875 2.953125 -6.859375 3.203125 -6.640625 Z M 3.515625 -6.234375 C 3.84375 -5.65625 3.84375 -4.5 3.84375 -3.5625 C 3.84375 -2.828125 3.84375 -2.09375 3.71875 -1.421875 C 3.53125 -0.375 3.015625 0 2.484375 0 C 2.25 0 2.015625 -0.078125 1.78125 -0.296875 Z M 3.515625 -6.234375 "
           id="path7241" />
      </symbol>
    </g>
  </defs>
  <g
     inkscape:label="Layer 1"
     inkscape:groupmode="layer"
     id="layer1">
    <path
       style="fill:none;stroke:#000000;stroke-width:0.264583;stroke-linecap:butt;stroke-linejoin:miter;stroke-miterlimit:4;stroke-dasharray:none;stroke-opacity:1;marker-end:url(#Arrow2Lend)"
       d="M 25,250 V 215"
       id="path1360"
       sodipodi:nodetypes="cc" />
    <path
       style="fill:none;stroke:#000000;stroke-width:0.264583;stroke-linecap:butt;stroke-linejoin:miter;stroke-miterlimit:4;stroke-dasharray:none;stroke-opacity:1;marker-end:url(#Arrow2Lend)"
       d="m 25,250 30,15"
       id="path1362"
       sodipodi:nodetypes="cc" />
    <path
       style="fill:none;stroke:#000000;stroke-width:0.264583;stroke-linecap:butt;stroke-linejoin:miter;stroke-miterlimit:4;stroke-dasharray:none;stroke-opacity:1;marker-end:url(#Arrow2Lend)"
       d="m 25,250 35,-5"
       id="path1364"
       sodipodi:nodetypes="cc" />
    <path
       style="fill:none;stroke:#0000ff;stroke-width:0.264583;stroke-linecap:butt;stroke-linejoin:miter;stroke-miterlimit:4;stroke-dasharray:none;stroke-opacity:1;marker-end:url(#Arrow2Lend-7)"
       d="M 90,235 V 200"
       id="path1360-6"
       sodipodi:nodetypes="cc" />
    <path
       style="fill:none;stroke:#0000ff;stroke-width:0.264583;stroke-linecap:butt;stroke-linejoin:miter;stroke-miterlimit:4;stroke-dasharray:none;stroke-opacity:1;marker-end:url(#Arrow2Lend-7)"
       d="M 90,235 65,250"
       id="path1362-0"
       sodipodi:nodetypes="cc" />
    <path
       style="fill:none;stroke:#0000ff;stroke-width:0.264583;stroke-linecap:butt;stroke-linejoin:miter;stroke-miterlimit:4;stroke-dasharray:none;stroke-opacity:1;marker-end:url(#Arrow2Lend-7)"
       d="m 90,235 30,10"
       id="path1364-8"
       sodipodi:nodetypes="cc" />
    <g
       inkscape:label=""
       transform="translate(-83.035343,150.78609)"
       id="g1812">
      <g
         id="g2161">
        <g
           style="fill:#000000;fill-opacity:1"
           id="g3742">
          <g
             id="use9862"
             transform="translate(91.925003,81.962997)">
            <path
               style="stroke:none"
               d="m 3.703125,-3.25 c 0.09375,-0.09375 0.09375,-0.140625 0.09375,-0.15625 0,-0.046875 -0.03125,-0.109375 -0.0625,-0.140625 L 1.6875,-6.5 h 2.296875 c 1.6875,0 2.1875,0.359375 2.390625,1.9375 h 0.25 l -0.28125,-2.25 H 0.8125 c -0.234375,0 -0.25,0 -0.25,0.234375 l 2.484375,3.609375 -2.375,2.703125 C 0.5625,-0.15625 0.5625,-0.140625 0.5625,-0.109375 0.5625,0 0.671875,0 0.8125,0 H 6.34375 L 6.625,-2.359375 h -0.25 c -0.171875,1.671875 -0.859375,1.9375 -2.421875,1.9375 h -2.75 z m 0,0"
               id="path8307" />
          </g>
        </g>
        <g
           style="fill:#000000;fill-opacity:1"
           id="g7460">
          <g
             id="use1411"
             transform="translate(99.121002,83.457001)">
            <path
               style="stroke:none"
               d="m 1.9375,1.09375 c -0.453125,0 -0.515625,0 -0.515625,-0.296875 v -1.125 C 1.453125,-0.296875 1.78125,0.0625 2.359375,0.0625 3.28125,0.0625 4.0625,-0.625 4.0625,-1.5 c 0,-0.859375 -0.703125,-1.578125 -1.59375,-1.578125 -0.390625,0 -0.796875,0.15625 -1.078125,0.4375 v -0.4375 L 0.34375,-3 v 0.25 c 0.484375,0 0.515625,0.046875 0.515625,0.328125 v 3.21875 c 0,0.296875 -0.0625,0.296875 -0.515625,0.296875 v 0.265625 c 0.015625,0 0.5,-0.03125 0.796875,-0.03125 0.25,0 0.734375,0.015625 0.796875,0.03125 z M 1.421875,-2.328125 C 1.625,-2.671875 2.03125,-2.84375 2.390625,-2.84375 c 0.59375,0 1.046875,0.609375 1.046875,1.34375 0,0.796875 -0.53125,1.375 -1.109375,1.375 -0.625,0 -0.890625,-0.53125 -0.90625,-0.578125 z m 0,0"
               id="path8303" />
          </g>
        </g>
      </g>
    </g>
    <g
       inkscape:label=""
       transform="translate(-35.825872,173.06441)"
       id="g4564">
      <g
         id="g1167">
        <g
           style="fill:#000000;fill-opacity:1"
           id="g740">
          <g
             id="use2735"
             transform="translate(91.925003,81.962997)">
            <path
               style="stroke:none"
               d="M 3.328125,-3.015625 C 3.390625,-3.265625 3.625,-4.1875 4.3125,-4.1875 c 0.046875,0 0.296875,0 0.5,0.125 C 4.53125,-4 4.34375,-3.765625 4.34375,-3.515625 c 0,0.15625 0.109375,0.34375 0.375,0.34375 0.21875,0 0.53125,-0.171875 0.53125,-0.578125 0,-0.515625 -0.578125,-0.65625 -0.921875,-0.65625 -0.578125,0 -0.921875,0.53125 -1.046875,0.75 -0.25,-0.65625 -0.78125,-0.75 -1.078125,-0.75 -1.03125,0 -1.609375,1.28125 -1.609375,1.53125 0,0.109375 0.109375,0.109375 0.125,0.109375 0.078125,0 0.109375,-0.03125 0.125,-0.109375 0.34375,-1.0625 1,-1.3125 1.34375,-1.3125 0.1875,0 0.53125,0.09375 0.53125,0.671875 0,0.3125 -0.171875,0.96875 -0.53125,2.375 -0.15625,0.609375 -0.515625,1.03125 -0.953125,1.03125 -0.0625,0 -0.28125,0 -0.5,-0.125 0.25,-0.0625 0.46875,-0.265625 0.46875,-0.546875 0,-0.265625 -0.21875,-0.34375 -0.359375,-0.34375 -0.3125,0 -0.546875,0.25 -0.546875,0.578125 0,0.453125 0.484375,0.65625 0.921875,0.65625 0.671875,0 1.03125,-0.703125 1.046875,-0.75 0.125,0.359375 0.484375,0.75 1.078125,0.75 1.03125,0 1.59375,-1.28125 1.59375,-1.53125 0,-0.109375 -0.078125,-0.109375 -0.109375,-0.109375 -0.09375,0 -0.109375,0.046875 -0.140625,0.109375 -0.328125,1.078125 -1,1.3125 -1.3125,1.3125 -0.390625,0 -0.546875,-0.3125 -0.546875,-0.65625 0,-0.21875 0.046875,-0.4375 0.15625,-0.875 z m 0,0"
               id="path8283" />
          </g>
        </g>
      </g>
    </g>
    <g
       inkscape:label=""
       transform="translate(32.026582,166.3367)"
       id="g4886">
      <g
         id="g1730">
        <g
           style="fill:#000000;fill-opacity:1"
           id="g8459">
          <g
             id="use8387"
             transform="translate(91.925003,81.962997)">
            <path
               style="stroke:none"
               d="m 4.84375,-3.796875 c 0.046875,-0.140625 0.046875,-0.15625 0.046875,-0.234375 0,-0.171875 -0.140625,-0.265625 -0.296875,-0.265625 -0.09375,0 -0.25,0.0625 -0.34375,0.203125 -0.015625,0.0625 -0.109375,0.359375 -0.140625,0.546875 -0.078125,0.25 -0.140625,0.53125 -0.203125,0.796875 l -0.453125,1.796875 c -0.03125,0.140625 -0.46875,0.84375 -1.125,0.84375 -0.5,0 -0.609375,-0.4375 -0.609375,-0.8125 C 1.71875,-1.375 1.890625,-2 2.21875,-2.875 2.375,-3.28125 2.421875,-3.390625 2.421875,-3.59375 c 0,-0.4375 -0.3125,-0.8125 -0.8125,-0.8125 -0.953125,0 -1.3125,1.453125 -1.3125,1.53125 0,0.109375 0.09375,0.109375 0.109375,0.109375 0.109375,0 0.109375,-0.03125 0.15625,-0.1875 0.28125,-0.9375 0.671875,-1.234375 1.015625,-1.234375 0.078125,0 0.25,0 0.25,0.3125 0,0.25 -0.109375,0.515625 -0.171875,0.703125 -0.40625,1.0625 -0.578125,1.625 -0.578125,2.09375 0,0.890625 0.625,1.1875 1.21875,1.1875 0.390625,0 0.71875,-0.171875 1,-0.453125 -0.125,0.515625 -0.25,1.015625 -0.640625,1.546875 -0.265625,0.328125 -0.640625,0.625 -1.09375,0.625 -0.140625,0 -0.59375,-0.03125 -0.765625,-0.421875 0.15625,0 0.296875,0 0.421875,-0.125 C 1.328125,1.203125 1.421875,1.0625 1.421875,0.875 1.421875,0.5625 1.15625,0.53125 1.0625,0.53125 0.828125,0.53125 0.5,0.6875 0.5,1.171875 c 0,0.5 0.4375,0.875 1.0625,0.875 1.015625,0 2.046875,-0.90625 2.328125,-2.03125 z m 0,0"
               id="path8279" />
          </g>
        </g>
      </g>
    </g>
    <g
       inkscape:label=""
       transform="translate(-7.1368315,115.29597)"
       id="g5226">
      <g
         id="g6283">
        <g
           style="fill:#000000;fill-opacity:1"
           id="g3818">
          <g
             id="use1865"
             transform="translate(91.925003,81.962997)">
            <path
               style="stroke:none"
               d="m 1.328125,-0.828125 c 0.53125,-0.578125 0.828125,-0.828125 1.1875,-1.140625 0,0 0.609375,-0.53125 0.96875,-0.890625 C 4.4375,-3.78125 4.65625,-4.265625 4.65625,-4.3125 c 0,-0.09375 -0.09375,-0.09375 -0.109375,-0.09375 -0.078125,0 -0.09375,0.015625 -0.15625,0.109375 -0.296875,0.484375 -0.5,0.640625 -0.734375,0.640625 -0.25,0 -0.359375,-0.15625 -0.515625,-0.328125 -0.1875,-0.21875 -0.359375,-0.421875 -0.6875,-0.421875 -0.75,0 -1.203125,0.921875 -1.203125,1.140625 0,0.046875 0.03125,0.109375 0.109375,0.109375 0.09375,0 0.109375,-0.046875 0.140625,-0.109375 0.1875,-0.46875 0.765625,-0.46875 0.84375,-0.46875 0.203125,0 0.390625,0.0625 0.625,0.140625 0.40625,0.15625 0.515625,0.15625 0.765625,0.15625 -0.359375,0.421875 -1.1875,1.140625 -1.375,1.296875 l -0.90625,0.84375 C 0.78125,-0.625 0.421875,-0.0625 0.421875,0.015625 c 0,0.09375 0.109375,0.09375 0.125,0.09375 0.078125,0 0.09375,-0.015625 0.15625,-0.125 0.234375,-0.359375 0.53125,-0.625 0.859375,-0.625 0.21875,0 0.328125,0.09375 0.578125,0.375 0.15625,0.21875 0.34375,0.375 0.625,0.375 1,0 1.578125,-1.265625 1.578125,-1.53125 0,-0.046875 -0.046875,-0.109375 -0.125,-0.109375 -0.09375,0 -0.109375,0.0625 -0.140625,0.140625 C 3.84375,-0.75 3.203125,-0.5625 2.875,-0.5625 c -0.1875,0 -0.375,-0.0625 -0.578125,-0.125 -0.34375,-0.125 -0.5,-0.171875 -0.703125,-0.171875 -0.015625,0 -0.171875,0 -0.265625,0.03125 z m 0,0"
               id="path8275" />
          </g>
        </g>
      </g>
    </g>
    <path
       style="fill:none;stroke:#000000;stroke-width:0.264583;stroke-linecap:butt;stroke-linejoin:miter;stroke-miterlimit:4;stroke-dasharray:2.11666, 2.11666;stroke-dashoffset:0;stroke-opacity:1;marker-end:url(#Arrow2Lend)"
       d="M 25,250 90,235"
       id="path6495" />
    <g
       inkscape:label=""
       transform="translate(4.703125,128.84375)"
       id="g10571">
      <g
         id="g5958">
        <g
           style="fill:#000000;fill-opacity:1"
           id="g2966">
          <use
             xlink:href="#symbol5139"
             x="91.925003"
             y="81.962997"
             id="use3031"
             width="100%"
             height="100%" />
        </g>
        <g
           style="fill:#000000;fill-opacity:1"
           id="g82">
          <use
             xlink:href="#symbol2196"
             x="99.121002"
             y="83.457001"
             id="use7328"
             width="100%"
             height="100%" />
        </g>
        <g
           style="fill:#000000;fill-opacity:1"
           id="g3295">
          <use
             xlink:href="#symbol3469"
             x="106.357"
             y="81.962997"
             id="use4631"
             width="100%"
             height="100%" />
        </g>
        <g
           style="fill:#000000;fill-opacity:1"
           id="g9036">
          <use
             xlink:href="#symbol5139"
             x="116.873"
             y="81.962997"
             id="use3531"
             width="100%"
             height="100%" />
        </g>
        <g
           style="fill:#000000;fill-opacity:1"
           id="g2301">
          <use
             xlink:href="#symbol8244"
             x="124.069"
             y="83.457001"
             id="use1397"
             width="100%"
             height="100%" />
        </g>
      </g>
    </g>
    <g
       inkscape:label=""
       transform="translate(9.8965645,146.0625)"
       id="g11370">
      <g
         id="g8576">
        <g
           style="fill:#000000;fill-opacity:1"
           id="g5283">
          <use
             xlink:href="#symbol7978"
             x="91.925003"
             y="81.962997"
             id="use3696"
             width="100%"
             height="100%" />
        </g>
        <g
           style="fill:#000000;fill-opacity:1"
           id="g5164">
          <use
             xlink:href="#symbol5829"
             x="100.463"
             y="81.962997"
             id="use5588"
             width="100%"
             height="100%" />
        </g>
        <g
           style="fill:#000000;fill-opacity:1"
           id="g655">
          <use
             xlink:href="#symbol5392"
             x="110.979"
             y="81.962997"
             id="use5344"
             width="100%"
             height="100%" />
        </g>
      </g>
    </g>
  </g>
</svg>
