<?xml version="1.0" encoding="UTF-8" standalone="no"?>
<!-- Created with Inkscape (http://www.inkscape.org/) -->

<svg
   width="210mm"
   height="297mm"
   viewBox="0 0 210 297"
   version="1.1"
   id="svg5"
   inkscape:version="1.1.2 (0a00cf5339, 2022-02-04)"
   sodipodi:docname="roll_pitch_yaw.svg"
   inkscape:export-filename="/home/zhidao/document/techmemo/geo_RollPitchYaw/roll_pitch_yaw.png"
   inkscape:export-xdpi="96"
   inkscape:export-ydpi="96"
   xmlns:inkscape="http://www.inkscape.org/namespaces/inkscape"
   xmlns:sodipodi="http://sodipodi.sourceforge.net/DTD/sodipodi-0.dtd"
   xmlns:xlink="http://www.w3.org/1999/xlink"
   xmlns="http://www.w3.org/2000/svg"
   xmlns:svg="http://www.w3.org/2000/svg">
  <sodipodi:namedview
     id="namedview7"
     pagecolor="#ffffff"
     bordercolor="#666666"
     borderopacity="1.0"
     inkscape:pageshadow="2"
     inkscape:pageopacity="0.0"
     inkscape:pagecheckerboard="0"
     inkscape:document-units="mm"
     showgrid="true"
     inkscape:zoom="1.5938277"
     inkscape:cx="278.26094"
     inkscape:cy="909.13214"
     inkscape:window-width="1920"
     inkscape:window-height="1103"
     inkscape:window-x="0"
     inkscape:window-y="0"
     inkscape:window-maximized="1"
     inkscape:current-layer="layer1"
     inkscape:snap-global="false">
    <inkscape:grid
       type="xygrid"
       id="grid824" />
  </sodipodi:namedview>
  <defs
     id="defs2">
    <marker
       style="overflow:visible;"
       id="Arrow2Mend"
       refX="0.0"
       refY="0.0"
       orient="auto"
       inkscape:stockid="Arrow2Mend"
       inkscape:isstock="true">
      <path
         transform="scale(0.6) rotate(180) translate(0,0)"
         d="M 8.7185878,4.0337352 L -2.2072895,0.016013256 L 8.7185884,-4.0017078 C 6.9730900,-1.6296469 6.9831476,1.6157441 8.7185878,4.0337352 z "
         style="stroke:context-stroke;fill-rule:evenodd;fill:context-stroke;stroke-width:0.62500000;stroke-linejoin:round;"
         id="path2434" />
    </marker>
    <marker
       style="overflow:visible;"
       id="Arrow2Lend"
       refX="0.0"
       refY="0.0"
       orient="auto"
       inkscape:stockid="Arrow2Lend"
       inkscape:isstock="true">
      <path
         transform="scale(1.1) rotate(180) translate(1,0)"
         d="M 8.7185878,4.0337352 L -2.2072895,0.016013256 L 8.7185884,-4.0017078 C 6.9730900,-1.6296469 6.9831476,1.6157441 8.7185878,4.0337352 z "
         style="stroke:context-stroke;fill-rule:evenodd;fill:context-stroke;stroke-width:0.62500000;stroke-linejoin:round;"
         id="path2428" />
    </marker>
    <marker
       style="overflow:visible"
       id="Arrow2Mend-3"
       refX="0"
       refY="0"
       orient="auto"
       inkscape:stockid="Arrow2Mend"
       inkscape:isstock="true">
      <path
         transform="scale(-0.6)"
         d="M 8.7185878,4.0337352 -2.2072895,0.01601326 8.7185884,-4.0017078 c -1.7454984,2.3720609 -1.7354408,5.6174519 -6e-7,8.035443 z"
         style="fill:context-stroke;fill-rule:evenodd;stroke:context-stroke;stroke-width:0.625;stroke-linejoin:round"
         id="path2434-7" />
    </marker>
    <marker
       style="overflow:visible"
       id="Arrow2Mend-7"
       refX="0"
       refY="0"
       orient="auto"
       inkscape:stockid="Arrow2Mend"
       inkscape:isstock="true">
      <path
         transform="scale(-0.6)"
         d="M 8.7185878,4.0337352 -2.2072895,0.01601326 8.7185884,-4.0017078 c -1.7454984,2.3720609 -1.7354408,5.6174519 -6e-7,8.035443 z"
         style="fill:context-stroke;fill-rule:evenodd;stroke:context-stroke;stroke-width:0.625;stroke-linejoin:round"
         id="path2434-4" />
    </marker>
    <g
       id="g7458">
      <symbol
         overflow="visible"
         id="symbol8322">
        <path
           style="stroke:none;"
           d=""
           id="path7254" />
      </symbol>
      <symbol
         overflow="visible"
         id="symbol2465">
        <path
           style="stroke:none;"
           d="M 3.328125 -3.015625 C 3.390625 -3.265625 3.625 -4.1875 4.3125 -4.1875 C 4.359375 -4.1875 4.609375 -4.1875 4.8125 -4.0625 C 4.53125 -4 4.34375 -3.765625 4.34375 -3.515625 C 4.34375 -3.359375 4.453125 -3.171875 4.71875 -3.171875 C 4.9375 -3.171875 5.25 -3.34375 5.25 -3.75 C 5.25 -4.265625 4.671875 -4.40625 4.328125 -4.40625 C 3.75 -4.40625 3.40625 -3.875 3.28125 -3.65625 C 3.03125 -4.3125 2.5 -4.40625 2.203125 -4.40625 C 1.171875 -4.40625 0.59375 -3.125 0.59375 -2.875 C 0.59375 -2.765625 0.703125 -2.765625 0.71875 -2.765625 C 0.796875 -2.765625 0.828125 -2.796875 0.84375 -2.875 C 1.1875 -3.9375 1.84375 -4.1875 2.1875 -4.1875 C 2.375 -4.1875 2.71875 -4.09375 2.71875 -3.515625 C 2.71875 -3.203125 2.546875 -2.546875 2.1875 -1.140625 C 2.03125 -0.53125 1.671875 -0.109375 1.234375 -0.109375 C 1.171875 -0.109375 0.953125 -0.109375 0.734375 -0.234375 C 0.984375 -0.296875 1.203125 -0.5 1.203125 -0.78125 C 1.203125 -1.046875 0.984375 -1.125 0.84375 -1.125 C 0.53125 -1.125 0.296875 -0.875 0.296875 -0.546875 C 0.296875 -0.09375 0.78125 0.109375 1.21875 0.109375 C 1.890625 0.109375 2.25 -0.59375 2.265625 -0.640625 C 2.390625 -0.28125 2.75 0.109375 3.34375 0.109375 C 4.375 0.109375 4.9375 -1.171875 4.9375 -1.421875 C 4.9375 -1.53125 4.859375 -1.53125 4.828125 -1.53125 C 4.734375 -1.53125 4.71875 -1.484375 4.6875 -1.421875 C 4.359375 -0.34375 3.6875 -0.109375 3.375 -0.109375 C 2.984375 -0.109375 2.828125 -0.421875 2.828125 -0.765625 C 2.828125 -0.984375 2.875 -1.203125 2.984375 -1.640625 Z M 3.328125 -3.015625 "
           id="path4574" />
      </symbol>
    </g>
    <g
       id="g3737">
      <symbol
         overflow="visible"
         id="symbol718">
        <path
           style="stroke:none;"
           d=""
           id="path4587" />
      </symbol>
      <symbol
         overflow="visible"
         id="symbol8960">
        <path
           style="stroke:none;"
           d="M 4.84375 -3.796875 C 4.890625 -3.9375 4.890625 -3.953125 4.890625 -4.03125 C 4.890625 -4.203125 4.75 -4.296875 4.59375 -4.296875 C 4.5 -4.296875 4.34375 -4.234375 4.25 -4.09375 C 4.234375 -4.03125 4.140625 -3.734375 4.109375 -3.546875 C 4.03125 -3.296875 3.96875 -3.015625 3.90625 -2.75 L 3.453125 -0.953125 C 3.421875 -0.8125 2.984375 -0.109375 2.328125 -0.109375 C 1.828125 -0.109375 1.71875 -0.546875 1.71875 -0.921875 C 1.71875 -1.375 1.890625 -2 2.21875 -2.875 C 2.375 -3.28125 2.421875 -3.390625 2.421875 -3.59375 C 2.421875 -4.03125 2.109375 -4.40625 1.609375 -4.40625 C 0.65625 -4.40625 0.296875 -2.953125 0.296875 -2.875 C 0.296875 -2.765625 0.390625 -2.765625 0.40625 -2.765625 C 0.515625 -2.765625 0.515625 -2.796875 0.5625 -2.953125 C 0.84375 -3.890625 1.234375 -4.1875 1.578125 -4.1875 C 1.65625 -4.1875 1.828125 -4.1875 1.828125 -3.875 C 1.828125 -3.625 1.71875 -3.359375 1.65625 -3.171875 C 1.25 -2.109375 1.078125 -1.546875 1.078125 -1.078125 C 1.078125 -0.1875 1.703125 0.109375 2.296875 0.109375 C 2.6875 0.109375 3.015625 -0.0625 3.296875 -0.34375 C 3.171875 0.171875 3.046875 0.671875 2.65625 1.203125 C 2.390625 1.53125 2.015625 1.828125 1.5625 1.828125 C 1.421875 1.828125 0.96875 1.796875 0.796875 1.40625 C 0.953125 1.40625 1.09375 1.40625 1.21875 1.28125 C 1.328125 1.203125 1.421875 1.0625 1.421875 0.875 C 1.421875 0.5625 1.15625 0.53125 1.0625 0.53125 C 0.828125 0.53125 0.5 0.6875 0.5 1.171875 C 0.5 1.671875 0.9375 2.046875 1.5625 2.046875 C 2.578125 2.046875 3.609375 1.140625 3.890625 0.015625 Z M 4.84375 -3.796875 "
           id="path6587" />
      </symbol>
    </g>
    <g
       id="g3397">
      <symbol
         overflow="visible"
         id="symbol9899">
        <path
           style="stroke:none;"
           d=""
           id="path5037" />
      </symbol>
      <symbol
         overflow="visible"
         id="symbol2063">
        <path
           style="stroke:none;"
           d="M 1.328125 -0.828125 C 1.859375 -1.40625 2.15625 -1.65625 2.515625 -1.96875 C 2.515625 -1.96875 3.125 -2.5 3.484375 -2.859375 C 4.4375 -3.78125 4.65625 -4.265625 4.65625 -4.3125 C 4.65625 -4.40625 4.5625 -4.40625 4.546875 -4.40625 C 4.46875 -4.40625 4.453125 -4.390625 4.390625 -4.296875 C 4.09375 -3.8125 3.890625 -3.65625 3.65625 -3.65625 C 3.40625 -3.65625 3.296875 -3.8125 3.140625 -3.984375 C 2.953125 -4.203125 2.78125 -4.40625 2.453125 -4.40625 C 1.703125 -4.40625 1.25 -3.484375 1.25 -3.265625 C 1.25 -3.21875 1.28125 -3.15625 1.359375 -3.15625 C 1.453125 -3.15625 1.46875 -3.203125 1.5 -3.265625 C 1.6875 -3.734375 2.265625 -3.734375 2.34375 -3.734375 C 2.546875 -3.734375 2.734375 -3.671875 2.96875 -3.59375 C 3.375 -3.4375 3.484375 -3.4375 3.734375 -3.4375 C 3.375 -3.015625 2.546875 -2.296875 2.359375 -2.140625 L 1.453125 -1.296875 C 0.78125 -0.625 0.421875 -0.0625 0.421875 0.015625 C 0.421875 0.109375 0.53125 0.109375 0.546875 0.109375 C 0.625 0.109375 0.640625 0.09375 0.703125 -0.015625 C 0.9375 -0.375 1.234375 -0.640625 1.5625 -0.640625 C 1.78125 -0.640625 1.890625 -0.546875 2.140625 -0.265625 C 2.296875 -0.046875 2.484375 0.109375 2.765625 0.109375 C 3.765625 0.109375 4.34375 -1.15625 4.34375 -1.421875 C 4.34375 -1.46875 4.296875 -1.53125 4.21875 -1.53125 C 4.125 -1.53125 4.109375 -1.46875 4.078125 -1.390625 C 3.84375 -0.75 3.203125 -0.5625 2.875 -0.5625 C 2.6875 -0.5625 2.5 -0.625 2.296875 -0.6875 C 1.953125 -0.8125 1.796875 -0.859375 1.59375 -0.859375 C 1.578125 -0.859375 1.421875 -0.859375 1.328125 -0.828125 Z M 1.328125 -0.828125 "
           id="path8477" />
      </symbol>
    </g>
  </defs>
  <g
     inkscape:label="Layer 1"
     inkscape:groupmode="layer"
     id="layer1">
    <path
       style="fill:#ffffff;fill-opacity:1;stroke:#000000;stroke-width:0.264582px;stroke-linecap:butt;stroke-linejoin:miter;stroke-opacity:1"
       d="m 56.890637,242.84976 4.9997,-20.98716 4.76088,-1.59481 7.103046,20.97795 z"
       id="path9894"
       sodipodi:nodetypes="ccccc" />
    <path
       style="fill:#ffffff;fill-opacity:1;stroke:#000000;stroke-width:0.264582px;stroke-linecap:butt;stroke-linejoin:miter;stroke-opacity:1"
       d="m 104.85881,221.84423 3.19649,-1.58732 3.85219,7.60821 -7.10333,3.33886 z"
       id="path13278" />
    <path
       id="path3125"
       style="fill:#ffffff;fill-opacity:1;stroke:#000000;stroke-width:0.264582px;stroke-linecap:butt;stroke-linejoin:miter;stroke-opacity:1"
       d="m 120.83053,215.26897 c -4.74414,2.38262 -4.94779,3.02621 -9.75695,9.6963 -1.80335,2.50118 -2.42553,2.02056 -4.80796,2.63042 -15.919989,4.07532 -33.126203,7.57126 -49.206158,11.52392 -6.058968,1.48937 -10.560989,3.36534 -13.200028,6.47431 -2.130601,2.50999 -2.477451,3.10749 -5.020313,6.10269 -1.732775,2.041 0.131337,3.4777 2.53507,4.65271 3.612303,1.76581 9.638001,2.32824 17.81165,0.70389 8.804462,-1.74971 16.745626,-4.0154 23.976265,-8.19736 8.740727,-5.05535 24.852244,-13.06 34.643424,-18.30855 1.06099,-5.5152 1.76602,-9.04023 3.025,-15.27833 z"
       sodipodi:nodetypes="csssssssscc" />
    <path
       style="fill:#ffffff;fill-opacity:1;stroke:#000000;stroke-width:0.264582px;stroke-linecap:butt;stroke-linejoin:miter;stroke-opacity:1"
       d="m 86.047617,247.41613 28.180383,12.75891 -7.80134,3.26946 c 0,0 -22.561447,-5.09997 -35.026479,-7.73507 -2.179222,-0.46069 -5.49981,-1.35836 -6.209237,-2.47205 -0.832002,-1.30612 -0.101199,-2.11919 1.273689,-2.71127 1.038928,-0.44741 2.04659,-0.72647 3.104623,-0.95691 5.412843,-1.17896 16.478361,-2.15307 16.478361,-2.15307 z"
       id="path10525"
       sodipodi:nodetypes="cccssssc" />
    <path
       style="fill:#ffffff;fill-opacity:1;stroke:#000000;stroke-width:0.264582px;stroke-linecap:butt;stroke-linejoin:miter;stroke-opacity:1"
       d="m 130.26853,233.0225 -3.22403,1.63472 c 0,0 -8.60722,-1.73319 -14.09019,-2.791 -1.77506,-0.34246 -2.32037,-0.87431 -2.66678,-1.47526 -0.27299,-0.47356 -0.19651,-1.15909 0.56719,-1.52507 0.6016,-0.2883 1.83868,-0.46216 2.78619,-0.52832 1.01318,-0.0707 4.04994,-0.0997 4.04994,-0.0997 z"
       id="path11851"
       sodipodi:nodetypes="ccsssscc" />
    <path
       style="fill:none;fill-opacity:1;stroke:#000000;stroke-width:0.264582px;stroke-linecap:butt;stroke-linejoin:miter;stroke-opacity:1"
       d="m 43.384515,246.14264 c 0,0 0.618064,0.87728 0.974125,1.16612 0.236954,0.19221 0.787475,0.47665 1.083578,0.54975 0.835691,0.20628 1.482667,0.34081 2.361034,0.65237 0.988841,0.35075 1.92609,0.82691 2.595504,1.36104 0.216132,0.17245 0.05073,0.57119 -0.187266,0.62285 -0.667829,0.14484 -1.263446,0.20846 -1.943848,0.27159 -0.84588,0.0785 -1.672478,0.11398 -2.518961,0.0423 -0.629762,-0.0534 -1.294257,-0.0936 -1.85756,-0.38061 -0.514944,-0.26242 -1.040188,-0.8231 -1.350951,-1.31099 -0.277703,-0.43599 -0.461101,-1.35919 -0.461101,-1.35919"
       id="path13551"
       sodipodi:nodetypes="csssssssssc" />
    <path
       style="fill:none;stroke:#000000;stroke-width:0.264583px;stroke-linecap:butt;stroke-linejoin:miter;stroke-opacity:1;marker-end:url(#Arrow2Lend)"
       d="M 70,245 10,265"
       id="path1831"
       sodipodi:nodetypes="cc" />
    <path
       style="fill:none;stroke:#000000;stroke-width:0.264583px;stroke-linecap:butt;stroke-linejoin:miter;stroke-opacity:1;marker-end:url(#Arrow2Lend)"
       d="m 70,245 45,30"
       id="path1833"
       sodipodi:nodetypes="cc" />
    <path
       style="fill:none;stroke:#000000;stroke-width:0.264583px;stroke-linecap:butt;stroke-linejoin:miter;stroke-opacity:1;marker-end:url(#Arrow2Lend)"
       d="M 69.999999,245 70,195"
       id="path1835"
       sodipodi:nodetypes="cc" />
    <path
       style="fill:none;fill-rule:evenodd;stroke:#000000;stroke-width:0.446292;stroke-linecap:square;stroke-linejoin:round;stroke-miterlimit:4;stroke-dasharray:none;stroke-opacity:1;marker-end:url(#Arrow2Mend)"
       id="path2273"
       sodipodi:type="arc"
       sodipodi:cx="141.05888"
       sodipodi:cy="251.05461"
       sodipodi:rx="7.5"
       sodipodi:ry="5.2135501"
       sodipodi:start="2.0943951"
       sodipodi:end="1.0471976"
       sodipodi:arc-type="arc"
       d="m 137.30888,255.56968 a 7.5,5.2135501 0 0 1 -3.49444,-5.86443 7.5,5.2135501 0 0 1 7.24444,-3.86419 7.5,5.2135501 0 0 1 7.24445,3.86419 7.5,5.2135501 0 0 1 -3.49445,5.86443"
       sodipodi:open="true"
       transform="matrix(-0.63326418,0.77393571,0.77393571,0.63326418,0,0)" />
    <path
       style="fill:none;fill-rule:evenodd;stroke:#000000;stroke-width:0.494385;stroke-linecap:square;stroke-linejoin:round;stroke-miterlimit:4;stroke-dasharray:none;stroke-opacity:1;marker-end:url(#Arrow2Mend-3)"
       id="path2273-9"
       sodipodi:type="arc"
       sodipodi:cx="69.995338"
       sodipodi:cy="-206.82735"
       sodipodi:rx="7.5"
       sodipodi:ry="4.2485433"
       sodipodi:start="2.0943951"
       sodipodi:end="1.0471976"
       sodipodi:arc-type="arc"
       sodipodi:open="true"
       d="m 66.245338,-203.148 a 7.5,4.2485433 0 0 1 -3.494443,-4.77895 7.5,4.2485433 0 0 1 7.244443,-3.14894 7.5,4.2485433 0 0 1 7.244444,3.14894 7.5,4.2485433 0 0 1 -3.494444,4.77895"
       transform="scale(1,-1)" />
    <path
       style="fill:none;fill-rule:evenodd;stroke:#000000;stroke-width:0.494639;stroke-linecap:square;stroke-linejoin:round;stroke-miterlimit:4;stroke-dasharray:none;stroke-opacity:1;marker-end:url(#Arrow2Mend-7)"
       id="path2273-91"
       sodipodi:type="arc"
       sodipodi:cx="-254.04909"
       sodipodi:cy="65.40802"
       sodipodi:rx="7.5"
       sodipodi:ry="4.2441783"
       sodipodi:start="2.0943951"
       sodipodi:end="1.0471976"
       sodipodi:arc-type="arc"
       sodipodi:open="true"
       d="m -257.79909,69.083586 a 7.5,4.2441783 0 0 1 -3.49444,-4.77404 7.5,4.2441783 0 0 1 7.24444,-3.145704 7.5,4.2441783 0 0 1 7.24445,3.145704 7.5,4.2441783 0 0 1 -3.49445,4.77404"
       transform="matrix(-0.32537678,-0.94558445,-0.94558445,0.32537678,0,0)" />
    <text
       xml:space="preserve"
       style="font-size:7.05556px;line-height:1.25;font-family:'Times New Roman';-inkscape-font-specification:'Times New Roman, ';letter-spacing:0px;word-spacing:0px;stroke-width:0.264583"
       x="81.222084"
       y="205.04837"
       id="text16585"><tspan
         sodipodi:role="line"
         id="tspan16583"
         style="font-style:normal;font-variant:normal;font-weight:normal;font-stretch:normal;font-family:sans-serif;-inkscape-font-specification:sans-serif;stroke-width:0.264583"
         x="81.222084"
         y="205.04837">Yaw</tspan></text>
    <text
       xml:space="preserve"
       style="font-size:7.05556px;line-height:1.25;font-family:'Times New Roman';-inkscape-font-specification:'Times New Roman, ';letter-spacing:0px;word-spacing:0px;stroke-width:0.264583"
       x="77.713768"
       y="274.6098"
       id="text16585-5"><tspan
         sodipodi:role="line"
         id="tspan16583-8"
         style="font-style:normal;font-variant:normal;font-weight:normal;font-stretch:normal;font-family:sans-serif;-inkscape-font-specification:sans-serif;stroke-width:0.264583"
         x="77.713768"
         y="274.6098">Pitch</tspan></text>
    <text
       xml:space="preserve"
       style="font-size:7.05556px;line-height:1.25;font-family:'Times New Roman';-inkscape-font-specification:'Times New Roman, ';letter-spacing:0px;word-spacing:0px;stroke-width:0.264583"
       x="12.686279"
       y="248.94762"
       id="text16585-8"><tspan
         sodipodi:role="line"
         id="tspan16583-4"
         style="font-style:normal;font-variant:normal;font-weight:normal;font-stretch:normal;font-family:sans-serif;-inkscape-font-specification:sans-serif;stroke-width:0.264583"
         x="12.686279"
         y="248.94762">Roll</tspan></text>
    <g
       inkscape:label=""
       transform="translate(-90.814286,186.61134)"
       id="g21894">
      <g
         id="g9580">
        <g
           style="fill:#000000;fill-opacity:1"
           id="g2690">
          <use
             xlink:href="#symbol2465"
             x="91.925003"
             y="81.962997"
             id="use8241"
             width="100%"
             height="100%" />
        </g>
      </g>
    </g>
    <g
       inkscape:label=""
       transform="translate(26.534176,194.58406)"
       id="g22012">
      <g
         id="g8641">
        <g
           style="fill:#000000;fill-opacity:1"
           id="g187">
          <use
             xlink:href="#symbol8960"
             x="91.925003"
             y="81.962997"
             id="use50"
             width="100%"
             height="100%" />
        </g>
      </g>
    </g>
    <g
       inkscape:label=""
       transform="translate(-25.039352,109.37562)"
       id="g22148">
      <g
         id="g9655">
        <g
           style="fill:#000000;fill-opacity:1"
           id="g5740">
          <use
             xlink:href="#symbol2063"
             x="91.925003"
             y="81.962997"
             id="use3700"
             width="100%"
             height="100%" />
        </g>
      </g>
    </g>
  </g>
</svg>
