<?xml version="1.0" encoding="UTF-8" standalone="no"?>
<!-- Created with Inkscape (http://www.inkscape.org/) -->

<svg
   width="210mm"
   height="297mm"
   viewBox="0 0 210 297"
   version="1.1"
   id="svg5"
   inkscape:version="1.1.2 (0a00cf5339, 2022-02-04)"
   sodipodi:docname="schmitt_trigger_input_output.svg"
   inkscape:export-filename="/home/zhidao/document/techmemo/elec_SchmittTrigger/schmitt_trigger_input_output.png"
   inkscape:export-xdpi="96"
   inkscape:export-ydpi="96"
   xmlns:inkscape="http://www.inkscape.org/namespaces/inkscape"
   xmlns:sodipodi="http://sodipodi.sourceforge.net/DTD/sodipodi-0.dtd"
   xmlns:xlink="http://www.w3.org/1999/xlink"
   xmlns="http://www.w3.org/2000/svg"
   xmlns:svg="http://www.w3.org/2000/svg">
  <sodipodi:namedview
     id="namedview7"
     pagecolor="#ffffff"
     bordercolor="#666666"
     borderopacity="1.0"
     inkscape:pageshadow="2"
     inkscape:pageopacity="0.0"
     inkscape:pagecheckerboard="0"
     inkscape:document-units="mm"
     showgrid="true"
     inkscape:zoom="1.1270064"
     inkscape:cx="284.3817"
     inkscape:cy="1103.8092"
     inkscape:window-width="1920"
     inkscape:window-height="1103"
     inkscape:window-x="0"
     inkscape:window-y="0"
     inkscape:window-maximized="1"
     inkscape:current-layer="layer1">
    <inkscape:grid
       type="xygrid"
       id="grid824" />
  </sodipodi:namedview>
  <defs
     id="defs2">
    <marker
       style="overflow:visible;"
       id="Arrow2Lend"
       refX="0.0"
       refY="0.0"
       orient="auto"
       inkscape:stockid="Arrow2Lend"
       inkscape:isstock="true">
      <path
         transform="scale(1.1) rotate(180) translate(1,0)"
         d="M 8.7185878,4.0337352 L -2.2072895,0.016013256 L 8.7185884,-4.0017078 C 6.9730900,-1.6296469 6.9831476,1.6157441 8.7185878,4.0337352 z "
         style="stroke:context-stroke;fill-rule:evenodd;fill:context-stroke;stroke-width:0.62500000;stroke-linejoin:round;"
         id="path1177" />
    </marker>
    <marker
       style="overflow:visible"
       id="Arrow2Lstart"
       refX="0.0"
       refY="0.0"
       orient="auto"
       inkscape:stockid="Arrow2Lstart"
       inkscape:isstock="true">
      <path
         transform="scale(1.1) translate(1,0)"
         d="M 8.7185878,4.0337352 L -2.2072895,0.016013256 L 8.7185884,-4.0017078 C 6.9730900,-1.6296469 6.9831476,1.6157441 8.7185878,4.0337352 z "
         style="stroke:context-stroke;fill-rule:evenodd;fill:context-stroke;stroke-width:0.62500000;stroke-linejoin:round"
         id="path1174" />
    </marker>
    <marker
       style="overflow:visible"
       id="Arrow1Lstart"
       refX="0.0"
       refY="0.0"
       orient="auto"
       inkscape:stockid="Arrow1Lstart"
       inkscape:isstock="true">
      <path
         transform="scale(0.8) translate(12.5,0)"
         style="fill-rule:evenodd;fill:context-stroke;stroke:context-stroke;stroke-width:1.0pt"
         d="M 0.0,0.0 L 5.0,-5.0 L -12.5,0.0 L 5.0,5.0 L 0.0,0.0 z "
         id="path1156" />
    </marker>
    <g
       id="g1901">
      <symbol
         overflow="visible"
         id="symbol4748">
        <path
           style="stroke:none;"
           d=""
           id="path1775" />
      </symbol>
      <symbol
         overflow="visible"
         id="symbol4214">
        <path
           style="stroke:none;"
           d="M 4.671875 -3.703125 C 4.671875 -4.25 4.40625 -4.40625 4.234375 -4.40625 C 3.984375 -4.40625 3.734375 -4.140625 3.734375 -3.921875 C 3.734375 -3.796875 3.78125 -3.734375 3.890625 -3.625 C 4.109375 -3.421875 4.234375 -3.171875 4.234375 -2.8125 C 4.234375 -2.390625 3.625 -0.109375 2.46875 -0.109375 C 1.953125 -0.109375 1.71875 -0.453125 1.71875 -0.984375 C 1.71875 -1.53125 2 -2.265625 2.296875 -3.09375 C 2.375 -3.265625 2.421875 -3.40625 2.421875 -3.59375 C 2.421875 -4.03125 2.109375 -4.40625 1.609375 -4.40625 C 0.671875 -4.40625 0.296875 -2.953125 0.296875 -2.875 C 0.296875 -2.765625 0.390625 -2.765625 0.40625 -2.765625 C 0.515625 -2.765625 0.515625 -2.796875 0.5625 -2.953125 C 0.859375 -3.953125 1.28125 -4.1875 1.578125 -4.1875 C 1.65625 -4.1875 1.828125 -4.1875 1.828125 -3.875 C 1.828125 -3.625 1.71875 -3.34375 1.65625 -3.171875 C 1.21875 -2.015625 1.09375 -1.5625 1.09375 -1.125 C 1.09375 -0.046875 1.96875 0.109375 2.421875 0.109375 C 4.09375 0.109375 4.671875 -3.1875 4.671875 -3.703125 Z M 4.671875 -3.703125 "
           id="path4378" />
      </symbol>
    </g>
    <g
       id="g1695">
      <symbol
         overflow="visible"
         id="symbol8310">
        <path
           style="stroke:none;"
           d=""
           id="path5534" />
      </symbol>
      <symbol
         overflow="visible"
         id="symbol3344">
        <path
           style="stroke:none;"
           d="M 2.046875 -3.984375 L 2.984375 -3.984375 C 3.1875 -3.984375 3.296875 -3.984375 3.296875 -4.1875 C 3.296875 -4.296875 3.1875 -4.296875 3.015625 -4.296875 L 2.140625 -4.296875 C 2.5 -5.71875 2.546875 -5.90625 2.546875 -5.96875 C 2.546875 -6.140625 2.421875 -6.234375 2.25 -6.234375 C 2.21875 -6.234375 1.9375 -6.234375 1.859375 -5.875 L 1.46875 -4.296875 L 0.53125 -4.296875 C 0.328125 -4.296875 0.234375 -4.296875 0.234375 -4.109375 C 0.234375 -3.984375 0.3125 -3.984375 0.515625 -3.984375 L 1.390625 -3.984375 C 0.671875 -1.15625 0.625 -0.984375 0.625 -0.8125 C 0.625 -0.265625 1 0.109375 1.546875 0.109375 C 2.5625 0.109375 3.125 -1.34375 3.125 -1.421875 C 3.125 -1.53125 3.046875 -1.53125 3.015625 -1.53125 C 2.921875 -1.53125 2.90625 -1.5 2.859375 -1.390625 C 2.4375 -0.34375 1.90625 -0.109375 1.5625 -0.109375 C 1.359375 -0.109375 1.25 -0.234375 1.25 -0.5625 C 1.25 -0.8125 1.28125 -0.875 1.3125 -1.046875 Z M 2.046875 -3.984375 "
           id="path6451" />
      </symbol>
    </g>
    <g
       id="g3443">
      <symbol
         overflow="visible"
         id="symbol4816">
        <path
           style="stroke:none;"
           d=""
           id="path4957" />
      </symbol>
      <symbol
         overflow="visible"
         id="symbol9669">
        <path
           style="stroke:none;"
           d="M 6.265625 -5.671875 C 6.75 -6.453125 7.171875 -6.484375 7.53125 -6.5 C 7.65625 -6.515625 7.671875 -6.671875 7.671875 -6.6875 C 7.671875 -6.765625 7.609375 -6.8125 7.53125 -6.8125 C 7.28125 -6.8125 6.984375 -6.78125 6.71875 -6.78125 C 6.390625 -6.78125 6.046875 -6.8125 5.734375 -6.8125 C 5.671875 -6.8125 5.546875 -6.8125 5.546875 -6.625 C 5.546875 -6.515625 5.625 -6.5 5.703125 -6.5 C 5.96875 -6.484375 6.15625 -6.375 6.15625 -6.171875 C 6.15625 -6.015625 6.015625 -5.796875 6.015625 -5.796875 L 2.953125 -0.921875 L 2.265625 -6.203125 C 2.265625 -6.375 2.5 -6.5 2.953125 -6.5 C 3.09375 -6.5 3.203125 -6.5 3.203125 -6.703125 C 3.203125 -6.78125 3.125 -6.8125 3.078125 -6.8125 C 2.671875 -6.8125 2.25 -6.78125 1.828125 -6.78125 C 1.65625 -6.78125 1.46875 -6.78125 1.28125 -6.78125 C 1.109375 -6.78125 0.921875 -6.8125 0.75 -6.8125 C 0.671875 -6.8125 0.5625 -6.8125 0.5625 -6.625 C 0.5625 -6.5 0.640625 -6.5 0.8125 -6.5 C 1.359375 -6.5 1.375 -6.40625 1.40625 -6.15625 L 2.1875 -0.015625 C 2.21875 0.1875 2.265625 0.21875 2.390625 0.21875 C 2.546875 0.21875 2.59375 0.171875 2.671875 0.046875 Z M 6.265625 -5.671875 "
           id="path3324" />
      </symbol>
      <symbol
         overflow="visible"
         id="symbol1099">
        <path
           style="stroke:none;"
           d=""
           id="path1507" />
      </symbol>
      <symbol
         overflow="visible"
         id="symbol8066">
        <path
           style="stroke:none;"
           d="M 4.53125 -1.828125 L 4.296875 -1.828125 C 4.21875 -1.15625 4.125 -0.25 2.796875 -0.25 L 2.109375 -0.25 C 1.78125 -0.25 1.765625 -0.3125 1.765625 -0.515625 L 1.765625 -4.1875 C 1.765625 -4.421875 1.765625 -4.515625 2.421875 -4.515625 L 2.671875 -4.515625 L 2.671875 -4.765625 C 2.515625 -4.75 1.625 -4.734375 1.453125 -4.734375 C 1.1875 -4.734375 0.390625 -4.765625 0.390625 -4.765625 L 0.390625 -4.515625 L 0.5625 -4.515625 C 1.09375 -4.515625 1.109375 -4.4375 1.109375 -4.1875 L 1.109375 -0.5625 C 1.109375 -0.328125 1.09375 -0.25 0.5625 -0.25 L 0.390625 -0.25 L 0.390625 0 L 4.328125 0 Z M 4.53125 -1.828125 "
           id="path4056" />
      </symbol>
    </g>
    <g
       id="g699">
      <symbol
         overflow="visible"
         id="symbol7260">
        <path
           style="stroke:none;"
           d=""
           id="path7892" />
      </symbol>
      <symbol
         overflow="visible"
         id="symbol6645">
        <path
           style="stroke:none;"
           d="M 6.265625 -5.671875 C 6.75 -6.453125 7.171875 -6.484375 7.53125 -6.5 C 7.65625 -6.515625 7.671875 -6.671875 7.671875 -6.6875 C 7.671875 -6.765625 7.609375 -6.8125 7.53125 -6.8125 C 7.28125 -6.8125 6.984375 -6.78125 6.71875 -6.78125 C 6.390625 -6.78125 6.046875 -6.8125 5.734375 -6.8125 C 5.671875 -6.8125 5.546875 -6.8125 5.546875 -6.625 C 5.546875 -6.515625 5.625 -6.5 5.703125 -6.5 C 5.96875 -6.484375 6.15625 -6.375 6.15625 -6.171875 C 6.15625 -6.015625 6.015625 -5.796875 6.015625 -5.796875 L 2.953125 -0.921875 L 2.265625 -6.203125 C 2.265625 -6.375 2.5 -6.5 2.953125 -6.5 C 3.09375 -6.5 3.203125 -6.5 3.203125 -6.703125 C 3.203125 -6.78125 3.125 -6.8125 3.078125 -6.8125 C 2.671875 -6.8125 2.25 -6.78125 1.828125 -6.78125 C 1.65625 -6.78125 1.46875 -6.78125 1.28125 -6.78125 C 1.109375 -6.78125 0.921875 -6.8125 0.75 -6.8125 C 0.671875 -6.8125 0.5625 -6.8125 0.5625 -6.625 C 0.5625 -6.5 0.640625 -6.5 0.8125 -6.5 C 1.359375 -6.5 1.375 -6.40625 1.40625 -6.15625 L 2.1875 -0.015625 C 2.21875 0.1875 2.265625 0.21875 2.390625 0.21875 C 2.546875 0.21875 2.59375 0.171875 2.671875 0.046875 Z M 6.265625 -5.671875 "
           id="path8072" />
      </symbol>
      <symbol
         overflow="visible"
         id="symbol5107">
        <path
           style="stroke:none;"
           d=""
           id="path1169" />
      </symbol>
      <symbol
         overflow="visible"
         id="symbol8097">
        <path
           style="stroke:none;"
           d="M 4.765625 -4.1875 C 4.765625 -4.4375 4.78125 -4.515625 5.3125 -4.515625 L 5.484375 -4.515625 L 5.484375 -4.765625 C 5.125 -4.75 4.6875 -4.734375 4.4375 -4.734375 C 4.171875 -4.734375 3.734375 -4.75 3.375 -4.765625 L 3.375 -4.515625 L 3.546875 -4.515625 C 4.078125 -4.515625 4.09375 -4.4375 4.09375 -4.1875 L 4.09375 -2.59375 L 1.765625 -2.59375 L 1.765625 -4.1875 C 1.765625 -4.4375 1.78125 -4.515625 2.328125 -4.515625 L 2.484375 -4.515625 L 2.484375 -4.765625 C 2.140625 -4.75 1.6875 -4.734375 1.4375 -4.734375 C 1.1875 -4.734375 0.734375 -4.75 0.390625 -4.765625 L 0.390625 -4.515625 L 0.5625 -4.515625 C 1.09375 -4.515625 1.109375 -4.4375 1.109375 -4.1875 L 1.109375 -0.5625 C 1.109375 -0.328125 1.09375 -0.25 0.5625 -0.25 L 0.390625 -0.25 L 0.390625 0 C 0.734375 -0.015625 1.1875 -0.03125 1.4375 -0.03125 C 1.6875 -0.03125 2.140625 -0.015625 2.484375 0 L 2.484375 -0.25 L 2.328125 -0.25 C 1.78125 -0.25 1.765625 -0.328125 1.765625 -0.5625 L 1.765625 -2.34375 L 4.09375 -2.34375 L 4.09375 -0.5625 C 4.09375 -0.328125 4.078125 -0.25 3.546875 -0.25 L 3.375 -0.25 L 3.375 0 C 3.734375 -0.015625 4.171875 -0.03125 4.421875 -0.03125 C 4.6875 -0.03125 5.125 -0.015625 5.484375 0 L 5.484375 -0.25 L 5.3125 -0.25 C 4.78125 -0.25 4.765625 -0.328125 4.765625 -0.5625 Z M 4.765625 -4.1875 "
           id="path1984" />
      </symbol>
    </g>
    <g
       id="g3225">
      <symbol
         overflow="visible"
         id="symbol9911">
        <path
           style="stroke:none;"
           d=""
           id="path3599" />
      </symbol>
      <symbol
         overflow="visible"
         id="symbol1095">
        <path
           style="stroke:none;"
           d="M 4.671875 -3.703125 C 4.671875 -4.25 4.40625 -4.40625 4.234375 -4.40625 C 3.984375 -4.40625 3.734375 -4.140625 3.734375 -3.921875 C 3.734375 -3.796875 3.78125 -3.734375 3.890625 -3.625 C 4.109375 -3.421875 4.234375 -3.171875 4.234375 -2.8125 C 4.234375 -2.390625 3.625 -0.109375 2.46875 -0.109375 C 1.953125 -0.109375 1.71875 -0.453125 1.71875 -0.984375 C 1.71875 -1.53125 2 -2.265625 2.296875 -3.09375 C 2.375 -3.265625 2.421875 -3.40625 2.421875 -3.59375 C 2.421875 -4.03125 2.109375 -4.40625 1.609375 -4.40625 C 0.671875 -4.40625 0.296875 -2.953125 0.296875 -2.875 C 0.296875 -2.765625 0.390625 -2.765625 0.40625 -2.765625 C 0.515625 -2.765625 0.515625 -2.796875 0.5625 -2.953125 C 0.859375 -3.953125 1.28125 -4.1875 1.578125 -4.1875 C 1.65625 -4.1875 1.828125 -4.1875 1.828125 -3.875 C 1.828125 -3.625 1.71875 -3.34375 1.65625 -3.171875 C 1.21875 -2.015625 1.09375 -1.5625 1.09375 -1.125 C 1.09375 -0.046875 1.96875 0.109375 2.421875 0.109375 C 4.09375 0.109375 4.671875 -3.1875 4.671875 -3.703125 Z M 4.671875 -3.703125 "
           id="path2497" />
      </symbol>
      <symbol
         overflow="visible"
         id="symbol627">
        <path
           style="stroke:none;"
           d=""
           id="path3960" />
      </symbol>
      <symbol
         overflow="visible"
         id="symbol8511">
        <path
           style="stroke:none;"
           d="M 1.390625 -1.59375 C 1.390625 -2.171875 1.65625 -2.875 2.328125 -2.875 C 2.265625 -2.828125 2.203125 -2.734375 2.203125 -2.625 C 2.203125 -2.390625 2.390625 -2.3125 2.515625 -2.3125 C 2.6875 -2.3125 2.84375 -2.421875 2.84375 -2.625 C 2.84375 -2.859375 2.609375 -3.078125 2.28125 -3.078125 C 1.9375 -3.078125 1.546875 -2.859375 1.34375 -2.328125 L 1.34375 -3.078125 L 0.34375 -3 L 0.34375 -2.75 C 0.8125 -2.75 0.859375 -2.703125 0.859375 -2.359375 L 0.859375 -0.546875 C 0.859375 -0.25 0.796875 -0.25 0.34375 -0.25 L 0.34375 0 C 0.375 0 0.84375 -0.03125 1.140625 -0.03125 C 1.4375 -0.03125 1.734375 -0.015625 2.046875 0 L 2.046875 -0.25 L 1.90625 -0.25 C 1.390625 -0.25 1.390625 -0.328125 1.390625 -0.5625 Z M 1.390625 -1.59375 "
           id="path5526" />
      </symbol>
      <symbol
         overflow="visible"
         id="symbol7998">
        <path
           style="stroke:none;"
           d="M 3.0625 -1.59375 C 3.21875 -1.59375 3.265625 -1.59375 3.265625 -1.734375 C 3.265625 -2.359375 2.921875 -3.109375 1.875 -3.109375 C 0.96875 -3.109375 0.265625 -2.390625 0.265625 -1.53125 C 0.265625 -0.640625 1.046875 0.0625 1.96875 0.0625 C 2.90625 0.0625 3.265625 -0.6875 3.265625 -0.84375 C 3.265625 -0.859375 3.25 -0.9375 3.140625 -0.9375 C 3.046875 -0.9375 3.03125 -0.890625 3.015625 -0.828125 C 2.796875 -0.265625 2.265625 -0.15625 2.015625 -0.15625 C 1.6875 -0.15625 1.375 -0.296875 1.171875 -0.5625 C 0.90625 -0.890625 0.90625 -1.3125 0.90625 -1.59375 Z M 0.90625 -1.765625 C 0.984375 -2.75 1.609375 -2.90625 1.875 -2.90625 C 2.734375 -2.90625 2.765625 -1.9375 2.78125 -1.765625 Z M 0.90625 -1.765625 "
           id="path9172" />
      </symbol>
      <symbol
         overflow="visible"
         id="symbol8770">
        <path
           style="stroke:none;"
           d="M 1.4375 -2.75 L 2.3125 -2.75 L 2.3125 -3 L 1.40625 -3 L 1.40625 -3.78125 C 1.40625 -4.421875 1.78125 -4.703125 2.078125 -4.703125 C 2.140625 -4.703125 2.21875 -4.703125 2.28125 -4.671875 C 2.1875 -4.625 2.125 -4.515625 2.125 -4.390625 C 2.125 -4.203125 2.265625 -4.078125 2.453125 -4.078125 C 2.640625 -4.078125 2.78125 -4.203125 2.78125 -4.390625 C 2.78125 -4.703125 2.46875 -4.90625 2.09375 -4.90625 C 1.546875 -4.90625 0.90625 -4.515625 0.90625 -3.78125 L 0.90625 -3 L 0.3125 -3 L 0.3125 -2.75 L 0.90625 -2.75 L 0.90625 -0.546875 C 0.90625 -0.25 0.84375 -0.25 0.390625 -0.25 L 0.390625 0 C 0.421875 0 0.90625 -0.03125 1.1875 -0.03125 C 1.484375 -0.03125 1.796875 -0.015625 2.09375 0 L 2.09375 -0.25 L 1.953125 -0.25 C 1.4375 -0.25 1.4375 -0.328125 1.4375 -0.5625 Z M 1.4375 -2.75 "
           id="path9556" />
      </symbol>
    </g>
    <g
       id="g8823">
      <symbol
         overflow="visible"
         id="symbol5134">
        <path
           style="stroke:none;"
           d=""
           id="path870" />
      </symbol>
      <symbol
         overflow="visible"
         id="symbol7732">
        <path
           style="stroke:none;"
           d="M 4.671875 -3.703125 C 4.671875 -4.25 4.40625 -4.40625 4.234375 -4.40625 C 3.984375 -4.40625 3.734375 -4.140625 3.734375 -3.921875 C 3.734375 -3.796875 3.78125 -3.734375 3.890625 -3.625 C 4.109375 -3.421875 4.234375 -3.171875 4.234375 -2.8125 C 4.234375 -2.390625 3.625 -0.109375 2.46875 -0.109375 C 1.953125 -0.109375 1.71875 -0.453125 1.71875 -0.984375 C 1.71875 -1.53125 2 -2.265625 2.296875 -3.09375 C 2.375 -3.265625 2.421875 -3.40625 2.421875 -3.59375 C 2.421875 -4.03125 2.109375 -4.40625 1.609375 -4.40625 C 0.671875 -4.40625 0.296875 -2.953125 0.296875 -2.875 C 0.296875 -2.765625 0.390625 -2.765625 0.40625 -2.765625 C 0.515625 -2.765625 0.515625 -2.796875 0.5625 -2.953125 C 0.859375 -3.953125 1.28125 -4.1875 1.578125 -4.1875 C 1.65625 -4.1875 1.828125 -4.1875 1.828125 -3.875 C 1.828125 -3.625 1.71875 -3.34375 1.65625 -3.171875 C 1.21875 -2.015625 1.09375 -1.5625 1.09375 -1.125 C 1.09375 -0.046875 1.96875 0.109375 2.421875 0.109375 C 4.09375 0.109375 4.671875 -3.1875 4.671875 -3.703125 Z M 4.671875 -3.703125 "
           id="path1445" />
      </symbol>
      <symbol
         overflow="visible"
         id="symbol4739">
        <path
           style="stroke:none;"
           d=""
           id="path1172" />
      </symbol>
      <symbol
         overflow="visible"
         id="symbol698">
        <path
           style="stroke:none;"
           d="M 1.46875 -4.296875 C 1.46875 -4.5 1.296875 -4.703125 1.0625 -4.703125 C 0.859375 -4.703125 0.671875 -4.53125 0.671875 -4.296875 C 0.671875 -4.046875 0.875 -3.890625 1.0625 -3.890625 C 1.296875 -3.890625 1.46875 -4.0625 1.46875 -4.296875 Z M 0.40625 -3 L 0.40625 -2.75 C 0.84375 -2.75 0.90625 -2.703125 0.90625 -2.359375 L 0.90625 -0.546875 C 0.90625 -0.25 0.84375 -0.25 0.390625 -0.25 L 0.390625 0 C 0.40625 0 0.890625 -0.03125 1.171875 -0.03125 C 1.421875 -0.03125 1.671875 -0.015625 1.90625 0 L 1.90625 -0.25 C 1.5 -0.25 1.4375 -0.25 1.4375 -0.546875 L 1.4375 -3.078125 Z M 0.40625 -3 "
           id="path7589" />
      </symbol>
    </g>
    <g
       id="g1713">
      <symbol
         overflow="visible"
         id="symbol3268">
        <path
           style="stroke:none;"
           d=""
           id="path8293" />
      </symbol>
      <symbol
         overflow="visible"
         id="symbol1040">
        <path
           style="stroke:none;"
           d="M 4.671875 -3.703125 C 4.671875 -4.25 4.40625 -4.40625 4.234375 -4.40625 C 3.984375 -4.40625 3.734375 -4.140625 3.734375 -3.921875 C 3.734375 -3.796875 3.78125 -3.734375 3.890625 -3.625 C 4.109375 -3.421875 4.234375 -3.171875 4.234375 -2.8125 C 4.234375 -2.390625 3.625 -0.109375 2.46875 -0.109375 C 1.953125 -0.109375 1.71875 -0.453125 1.71875 -0.984375 C 1.71875 -1.53125 2 -2.265625 2.296875 -3.09375 C 2.375 -3.265625 2.421875 -3.40625 2.421875 -3.59375 C 2.421875 -4.03125 2.109375 -4.40625 1.609375 -4.40625 C 0.671875 -4.40625 0.296875 -2.953125 0.296875 -2.875 C 0.296875 -2.765625 0.390625 -2.765625 0.40625 -2.765625 C 0.515625 -2.765625 0.515625 -2.796875 0.5625 -2.953125 C 0.859375 -3.953125 1.28125 -4.1875 1.578125 -4.1875 C 1.65625 -4.1875 1.828125 -4.1875 1.828125 -3.875 C 1.828125 -3.625 1.71875 -3.34375 1.65625 -3.171875 C 1.21875 -2.015625 1.09375 -1.5625 1.09375 -1.125 C 1.09375 -0.046875 1.96875 0.109375 2.421875 0.109375 C 4.09375 0.109375 4.671875 -3.1875 4.671875 -3.703125 Z M 4.671875 -3.703125 "
           id="path7316" />
      </symbol>
      <symbol
         overflow="visible"
         id="symbol8214">
        <path
           style="stroke:none;"
           d=""
           id="path9258" />
      </symbol>
      <symbol
         overflow="visible"
         id="symbol5198">
        <path
           style="stroke:none;"
           d="M 3.6875 -1.484375 C 3.6875 -2.359375 2.9375 -3.109375 1.984375 -3.109375 C 1.015625 -3.109375 0.265625 -2.359375 0.265625 -1.484375 C 0.265625 -0.625 1.03125 0.0625 1.984375 0.0625 C 2.921875 0.0625 3.6875 -0.625 3.6875 -1.484375 Z M 1.984375 -0.15625 C 1.71875 -0.15625 1.34375 -0.234375 1.109375 -0.578125 C 0.921875 -0.859375 0.90625 -1.21875 0.90625 -1.546875 C 0.90625 -1.84375 0.90625 -2.265625 1.15625 -2.5625 C 1.328125 -2.765625 1.625 -2.90625 1.984375 -2.90625 C 2.390625 -2.90625 2.6875 -2.71875 2.84375 -2.5 C 3.03125 -2.234375 3.046875 -1.875 3.046875 -1.546875 C 3.046875 -1.21875 3.03125 -0.84375 2.828125 -0.5625 C 2.640625 -0.296875 2.328125 -0.15625 1.984375 -0.15625 Z M 1.984375 -0.15625 "
           id="path7330" />
      </symbol>
    </g>
    <marker
       style="overflow:visible"
       id="Arrow2Lend-3"
       refX="0"
       refY="0"
       orient="auto"
       inkscape:stockid="Arrow2Lend"
       inkscape:isstock="true">
      <path
         transform="matrix(-1.1,0,0,-1.1,-1.1,0)"
         d="M 8.7185878,4.0337352 -2.2072895,0.01601326 8.7185884,-4.0017078 c -1.7454984,2.3720609 -1.7354408,5.6174519 -6e-7,8.035443 z"
         style="fill:context-stroke;fill-rule:evenodd;stroke:context-stroke;stroke-width:0.625;stroke-linejoin:round"
         id="path1177-9" />
    </marker>
    <marker
       style="overflow:visible"
       id="Arrow2Lend-7"
       refX="0"
       refY="0"
       orient="auto"
       inkscape:stockid="Arrow2Lend"
       inkscape:isstock="true">
      <path
         transform="matrix(-1.1,0,0,-1.1,-1.1,0)"
         d="M 8.7185878,4.0337352 -2.2072895,0.01601326 8.7185884,-4.0017078 c -1.7454984,2.3720609 -1.7354408,5.6174519 -6e-7,8.035443 z"
         style="fill:context-stroke;fill-rule:evenodd;stroke:context-stroke;stroke-width:0.625;stroke-linejoin:round"
         id="path1177-2" />
    </marker>
    <marker
       style="overflow:visible"
       id="Arrow2Lend-7-2"
       refX="0"
       refY="0"
       orient="auto"
       inkscape:stockid="Arrow2Lend"
       inkscape:isstock="true">
      <path
         transform="matrix(-1.1,0,0,-1.1,-1.1,0)"
         d="M 8.7185878,4.0337352 -2.2072895,0.01601326 8.7185884,-4.0017078 c -1.7454984,2.3720609 -1.7354408,5.6174519 -6e-7,8.035443 z"
         style="fill:context-stroke;fill-rule:evenodd;stroke:context-stroke;stroke-width:0.625;stroke-linejoin:round"
         id="path1177-2-9" />
    </marker>
  </defs>
  <g
     inkscape:label="Layer 1"
     inkscape:groupmode="layer"
     id="layer1">
    <path
       style="fill:none;stroke:#000000;stroke-width:0.264583px;stroke-linecap:butt;stroke-linejoin:miter;stroke-opacity:1;marker-start:url(#Arrow2Lstart);marker-end:url(#Arrow2Lend)"
       d="m 10,200 v 90 h 115"
       id="path859" />
    <path
       style="fill:none;stroke:#000000;stroke-width:0.529167;stroke-linecap:butt;stroke-linejoin:miter;stroke-miterlimit:4;stroke-dasharray:none;stroke-opacity:1"
       d="m 10,290 h 35 l 0,-70 80,0"
       id="path861"
       sodipodi:nodetypes="cccc" />
    <path
       style="fill:none;stroke:#000000;stroke-width:0.529167;stroke-linecap:butt;stroke-linejoin:miter;stroke-miterlimit:4;stroke-dasharray:none;stroke-opacity:1"
       d="m 10,290 h 85 v -70 l 30,0"
       id="path861-5"
       sodipodi:nodetypes="cccc" />
    <path
       style="fill:none;stroke:#000000;stroke-width:0.26458299;stroke-linecap:butt;stroke-linejoin:miter;stroke-opacity:1;stroke-miterlimit:4;stroke-dasharray:2.11666389,1.05833194;stroke-dashoffset:0"
       d="M 10,220 H 125"
       id="path861-6" />
    <g
       inkscape:label=""
       transform="translate(-95.756473,210.55793)"
       id="g1680">
      <g
         id="g4088">
        <g
           style="fill:#000000;fill-opacity:1"
           id="g4987">
          <use
             xlink:href="#symbol9669"
             x="91.925003"
             y="81.962997"
             id="use7404"
             width="100%"
             height="100%" />
        </g>
        <g
           style="fill:#000000;fill-opacity:1"
           id="g8084">
          <use
             xlink:href="#symbol8066"
             x="97.737"
             y="83.457001"
             id="use389"
             width="100%"
             height="100%" />
        </g>
      </g>
    </g>
    <g
       inkscape:label=""
       transform="translate(-96.709598,140.50295)"
       id="g1824">
      <g
         id="g7660">
        <g
           style="fill:#000000;fill-opacity:1"
           id="g6028">
          <use
             xlink:href="#symbol6645"
             x="91.925003"
             y="81.962997"
             id="use8849"
             width="100%"
             height="100%" />
        </g>
        <g
           style="fill:#000000;fill-opacity:1"
           id="g8784">
          <use
             xlink:href="#symbol8097"
             x="97.737"
             y="83.457001"
             id="use5728"
             width="100%"
             height="100%" />
        </g>
      </g>
    </g>
    <g
       inkscape:label=""
       transform="translate(-29.733911,217.19497)"
       id="g2004">
      <g
         id="g608">
        <g
           style="fill:#000000;fill-opacity:1"
           id="g6297">
          <use
             xlink:href="#symbol1095"
             x="91.925003"
             y="81.962997"
             id="use1481"
             width="100%"
             height="100%" />
        </g>
        <g
           style="fill:#000000;fill-opacity:1"
           id="g2672">
          <use
             xlink:href="#symbol8511"
             x="96.753998"
             y="83.457001"
             id="use1609"
             width="100%"
             height="100%" />
          <use
             xlink:href="#symbol7998"
             x="99.867104"
             y="83.457001"
             id="use9088"
             width="100%"
             height="100%" />
          <use
             xlink:href="#symbol8770"
             x="103.4091"
             y="83.457001"
             id="use8241"
             width="100%"
             height="100%" />
        </g>
      </g>
    </g>
    <g
       inkscape:label=""
       transform="translate(38.09375,210.25)"
       id="g2226">
      <g
         id="g551">
        <g
           style="fill:#000000;fill-opacity:1"
           id="g3857">
          <use
             xlink:href="#symbol7732"
             x="91.925003"
             y="81.962997"
             id="use3840"
             width="100%"
             height="100%" />
        </g>
        <g
           style="fill:#000000;fill-opacity:1"
           id="g4398">
          <use
             xlink:href="#symbol698"
             x="96.753998"
             y="83.457001"
             id="use7410"
             width="100%"
             height="100%" />
        </g>
      </g>
    </g>
    <g
       inkscape:label=""
       transform="translate(-93.929721,122.53548)"
       id="g2472">
      <g
         id="g9410">
        <g
           style="fill:#000000;fill-opacity:1"
           id="g5887">
          <use
             xlink:href="#symbol1040"
             x="91.925003"
             y="81.962997"
             id="use2663"
             width="100%"
             height="100%" />
        </g>
        <g
           style="fill:#000000;fill-opacity:1"
           id="g1301">
          <use
             xlink:href="#symbol5198"
             x="96.753998"
             y="83.457001"
             id="use4446"
             width="100%"
             height="100%" />
        </g>
      </g>
    </g>
    <g
       inkscape:label=""
       transform="matrix(0.8,0,0,0.8,12.321802,233.28637)"
       id="g2045"
       style="stroke-width:1.25">
      <g
         id="g4684"
         style="stroke-width:1.25">
        <g
           style="fill:#000000;fill-opacity:1;stroke-width:1.25"
           id="g406">
          <g
             id="use5618"
             style="stroke-width:1.25"
             transform="translate(91.925003,81.962997)">
            <path
               style="stroke:none"
               d="m 4.671875,-3.703125 c 0,-0.546875 -0.265625,-0.703125 -0.4375,-0.703125 -0.25,0 -0.5,0.265625 -0.5,0.484375 0,0.125 0.046875,0.1875 0.15625,0.296875 0.21875,0.203125 0.34375,0.453125 0.34375,0.8125 0,0.421875 -0.609375,2.703125 -1.765625,2.703125 -0.515625,0 -0.75,-0.34375 -0.75,-0.875 0,-0.546875 0.28125,-1.28125 0.578125,-2.109375 0.078125,-0.171875 0.125,-0.3125 0.125,-0.5 0,-0.4375 -0.3125,-0.8125 -0.8125,-0.8125 -0.9375,0 -1.3125,1.453125 -1.3125,1.53125 0,0.109375 0.09375,0.109375 0.109375,0.109375 0.109375,0 0.109375,-0.03125 0.15625,-0.1875 0.296875,-1 0.71875,-1.234375 1.015625,-1.234375 0.078125,0 0.25,0 0.25,0.3125 0,0.25 -0.109375,0.53125 -0.171875,0.703125 -0.4375,1.15625 -0.5625,1.609375 -0.5625,2.046875 0,1.078125 0.875,1.234375 1.328125,1.234375 1.671875,0 2.25,-3.296875 2.25,-3.8125 z m 0,0"
               id="path1752" />
          </g>
        </g>
        <g
           style="fill:#000000;fill-opacity:1;stroke-width:1.25"
           id="g2892">
          <g
             id="use2341"
             style="stroke-width:1.25"
             transform="translate(96.753998,83.457001)">
            <path
               style="stroke:none"
               d="m 1.390625,-1.59375 c 0,-0.578125 0.265625,-1.28125 0.9375,-1.28125 -0.0625,0.046875 -0.125,0.140625 -0.125,0.25 0,0.234375 0.1875,0.3125 0.3125,0.3125 0.171875,0 0.328125,-0.109375 0.328125,-0.3125 0,-0.234375 -0.234375,-0.453125 -0.5625,-0.453125 -0.34375,0 -0.734375,0.21875 -0.9375,0.75 v -0.75 L 0.34375,-3 v 0.25 c 0.46875,0 0.515625,0.046875 0.515625,0.390625 v 1.8125 C 0.859375,-0.25 0.796875,-0.25 0.34375,-0.25 V 0 c 0.03125,0 0.5,-0.03125 0.796875,-0.03125 0.296875,0 0.59375,0.015625 0.90625,0.03125 V -0.25 H 1.90625 c -0.515625,0 -0.515625,-0.078125 -0.515625,-0.3125 z m 0,0"
               id="path1712" />
          </g>
          <g
             id="use889"
             style="stroke-width:1.25"
             transform="translate(99.867104,83.457001)">
            <path
               style="stroke:none"
               d="m 3.0625,-1.59375 c 0.15625,0 0.203125,0 0.203125,-0.140625 0,-0.625 -0.34375,-1.375 -1.390625,-1.375 -0.90625,0 -1.609375,0.71875 -1.609375,1.578125 0,0.890625 0.78125,1.59375 1.703125,1.59375 0.9375,0 1.296875,-0.75 1.296875,-0.90625 0,-0.015625 -0.015625,-0.09375 -0.125,-0.09375 -0.09375,0 -0.109375,0.046875 -0.125,0.109375 -0.21875,0.5625 -0.75,0.671875 -1,0.671875 C 1.6875,-0.15625 1.375,-0.296875 1.171875,-0.5625 0.90625,-0.890625 0.90625,-1.3125 0.90625,-1.59375 Z M 0.90625,-1.765625 C 0.984375,-2.75 1.609375,-2.90625 1.875,-2.90625 c 0.859375,0 0.890625,0.96875 0.90625,1.140625 z m 0,0"
               id="path1760" />
          </g>
          <g
             id="use561"
             style="stroke-width:1.25"
             transform="translate(103.4091,83.457001)">
            <path
               style="stroke:none"
               d="m 1.4375,-2.75 h 0.875 V -3 H 1.40625 v -0.78125 c 0,-0.640625 0.375,-0.921875 0.671875,-0.921875 0.0625,0 0.140625,0 0.203125,0.03125 C 2.1875,-4.625 2.125,-4.515625 2.125,-4.390625 c 0,0.1875 0.140625,0.3125 0.328125,0.3125 0.1875,0 0.328125,-0.125 0.328125,-0.3125 0,-0.3125 -0.3125,-0.515625 -0.6875,-0.515625 -0.546875,0 -1.1875,0.390625 -1.1875,1.125 V -3 H 0.3125 v 0.25 h 0.59375 v 2.203125 C 0.90625,-0.25 0.84375,-0.25 0.390625,-0.25 V 0 C 0.421875,0 0.90625,-0.03125 1.1875,-0.03125 1.484375,-0.03125 1.796875,-0.015625 2.09375,0 V -0.25 H 1.953125 C 1.4375,-0.25 1.4375,-0.328125 1.4375,-0.5625 Z m 0,0"
               id="path1768" />
          </g>
        </g>
        <g
           style="fill:#000000;fill-opacity:1;stroke-width:1.25"
           id="g1256">
          <g
             id="use2705"
             style="stroke-width:1.25"
             transform="translate(109.149,81.962997)">
            <path
               style="stroke:none"
               d="m 4.078125,-2.296875 h 2.78125 C 7,-2.296875 7.1875,-2.296875 7.1875,-2.5 7.1875,-2.6875 7,-2.6875 6.859375,-2.6875 h -2.78125 v -2.796875 c 0,-0.140625 0,-0.328125 -0.203125,-0.328125 -0.203125,0 -0.203125,0.1875 -0.203125,0.328125 V -2.6875 h -2.78125 c -0.140625,0 -0.328125,0 -0.328125,0.1875 0,0.203125 0.1875,0.203125 0.328125,0.203125 h 2.78125 V 0.5 c 0,0.140625 0,0.328125 0.203125,0.328125 0.203125,0 0.203125,-0.1875 0.203125,-0.328125 z m 0,0"
               id="path1708" />
          </g>
        </g>
        <g
           style="fill:#000000;fill-opacity:1;stroke-width:1.25"
           id="g2793">
          <g
             id="use2714"
             style="stroke-width:1.25"
             transform="translate(119.111,81.962997)">
            <path
               style="stroke:none"
               d="m 6.15625,-6.890625 c -0.046875,-0.203125 -0.0625,-0.25 -0.234375,-0.25 -0.09375,0 -0.171875,0 -0.3125,0.1875 l -5.046875,6.75 C 0.484375,-0.09375 0.484375,-0.078125 0.484375,-0.0625 0.484375,-0.015625 0.5,0 0.703125,0 H 7.59375 c 0.15625,0 0.25,0 0.25,-0.09375 0,-0.046875 -0.015625,-0.109375 -0.015625,-0.140625 z m -0.75,0.6875 1.359375,5.484375 h -5.46875 z m 0,0"
               id="path1732" />
          </g>
          <g
             id="use3766"
             style="stroke-width:1.25"
             transform="translate(127.41283,81.962997)">
            <path
               style="stroke:none"
               d="m 4.671875,-3.703125 c 0,-0.546875 -0.265625,-0.703125 -0.4375,-0.703125 -0.25,0 -0.5,0.265625 -0.5,0.484375 0,0.125 0.046875,0.1875 0.15625,0.296875 0.21875,0.203125 0.34375,0.453125 0.34375,0.8125 0,0.421875 -0.609375,2.703125 -1.765625,2.703125 -0.515625,0 -0.75,-0.34375 -0.75,-0.875 0,-0.546875 0.28125,-1.28125 0.578125,-2.109375 0.078125,-0.171875 0.125,-0.3125 0.125,-0.5 0,-0.4375 -0.3125,-0.8125 -0.8125,-0.8125 -0.9375,0 -1.3125,1.453125 -1.3125,1.53125 0,0.109375 0.09375,0.109375 0.109375,0.109375 0.109375,0 0.109375,-0.03125 0.15625,-0.1875 0.296875,-1 0.71875,-1.234375 1.015625,-1.234375 0.078125,0 0.25,0 0.25,0.3125 0,0.25 -0.109375,0.53125 -0.171875,0.703125 -0.4375,1.15625 -0.5625,1.609375 -0.5625,2.046875 0,1.078125 0.875,1.234375 1.328125,1.234375 1.671875,0 2.25,-3.296875 2.25,-3.8125 z m 0,0"
               id="path1756" />
          </g>
        </g>
        <g
           style="fill:#000000;fill-opacity:1;stroke-width:1.25"
           id="g5562">
          <g
             id="use4281"
             style="stroke-width:1.25"
             transform="translate(132.243,83.457001)">
            <path
               style="stroke:none"
               d="m 1.390625,-1.59375 c 0,-0.578125 0.265625,-1.28125 0.9375,-1.28125 -0.0625,0.046875 -0.125,0.140625 -0.125,0.25 0,0.234375 0.1875,0.3125 0.3125,0.3125 0.171875,0 0.328125,-0.109375 0.328125,-0.3125 0,-0.234375 -0.234375,-0.453125 -0.5625,-0.453125 -0.34375,0 -0.734375,0.21875 -0.9375,0.75 v -0.75 L 0.34375,-3 v 0.25 c 0.46875,0 0.515625,0.046875 0.515625,0.390625 v 1.8125 C 0.859375,-0.25 0.796875,-0.25 0.34375,-0.25 V 0 c 0.03125,0 0.5,-0.03125 0.796875,-0.03125 0.296875,0 0.59375,0.015625 0.90625,0.03125 V -0.25 H 1.90625 c -0.515625,0 -0.515625,-0.078125 -0.515625,-0.3125 z m 0,0"
               id="path1716" />
          </g>
          <g
             id="use8272"
             style="stroke-width:1.25"
             transform="translate(135.35611,83.457001)">
            <path
               style="stroke:none"
               d="m 3.0625,-1.59375 c 0.15625,0 0.203125,0 0.203125,-0.140625 0,-0.625 -0.34375,-1.375 -1.390625,-1.375 -0.90625,0 -1.609375,0.71875 -1.609375,1.578125 0,0.890625 0.78125,1.59375 1.703125,1.59375 0.9375,0 1.296875,-0.75 1.296875,-0.90625 0,-0.015625 -0.015625,-0.09375 -0.125,-0.09375 -0.09375,0 -0.109375,0.046875 -0.125,0.109375 -0.21875,0.5625 -0.75,0.671875 -1,0.671875 C 1.6875,-0.15625 1.375,-0.296875 1.171875,-0.5625 0.90625,-0.890625 0.90625,-1.3125 0.90625,-1.59375 Z M 0.90625,-1.765625 C 0.984375,-2.75 1.609375,-2.90625 1.875,-2.90625 c 0.859375,0 0.890625,0.96875 0.90625,1.140625 z m 0,0"
               id="path1764" />
          </g>
          <g
             id="use1845"
             style="stroke-width:1.25"
             transform="translate(138.8981,83.457001)">
            <path
               style="stroke:none"
               d="m 1.4375,-2.75 h 0.875 V -3 H 1.40625 v -0.78125 c 0,-0.640625 0.375,-0.921875 0.671875,-0.921875 0.0625,0 0.140625,0 0.203125,0.03125 C 2.1875,-4.625 2.125,-4.515625 2.125,-4.390625 c 0,0.1875 0.140625,0.3125 0.328125,0.3125 0.1875,0 0.328125,-0.125 0.328125,-0.3125 0,-0.3125 -0.3125,-0.515625 -0.6875,-0.515625 -0.546875,0 -1.1875,0.390625 -1.1875,1.125 V -3 H 0.3125 v 0.25 h 0.59375 v 2.203125 C 0.90625,-0.25 0.84375,-0.25 0.390625,-0.25 V 0 C 0.421875,0 0.90625,-0.03125 1.1875,-0.03125 1.484375,-0.03125 1.796875,-0.015625 2.09375,0 V -0.25 H 1.953125 C 1.4375,-0.25 1.4375,-0.328125 1.4375,-0.5625 Z m 0,0"
               id="path1772" />
          </g>
        </g>
        <g
           style="fill:#000000;fill-opacity:1;stroke-width:1.25"
           id="g1225">
          <g
             id="use2918"
             style="stroke-width:1.25"
             transform="translate(141.92612,83.457001)">
            <path
               style="stroke:none"
               d="m 3.21875,-1.578125 h 2.140625 c 0.09375,0 0.25,0 0.25,-0.15625 0,-0.1875 -0.15625,-0.1875 -0.25,-0.1875 H 3.21875 V -4.0625 c 0,-0.078125 0,-0.25 -0.15625,-0.25 -0.171875,0 -0.171875,0.15625 -0.171875,0.25 v 2.140625 H 0.75 c -0.09375,0 -0.265625,0 -0.265625,0.171875 0,0.171875 0.15625,0.171875 0.265625,0.171875 H 2.890625 V 0.5625 c 0,0.09375 0,0.265625 0.15625,0.265625 0.171875,0 0.171875,-0.171875 0.171875,-0.265625 z m 0,0"
               id="path1688" />
          </g>
        </g>
      </g>
    </g>
    <g
       inkscape:label=""
       transform="matrix(0.8,0,0,0.8,-61.5513,233.89887)"
       id="g2465"
       style="stroke-width:1.25">
      <g
         id="g5800"
         style="stroke-width:1.25">
        <g
           style="fill:#000000;fill-opacity:1;stroke-width:1.25"
           id="g1387">
          <g
             id="use7979"
             style="stroke-width:1.25"
             transform="translate(91.925003,81.962997)">
            <path
               style="stroke:none"
               d="m 4.671875,-3.703125 c 0,-0.546875 -0.265625,-0.703125 -0.4375,-0.703125 -0.25,0 -0.5,0.265625 -0.5,0.484375 0,0.125 0.046875,0.1875 0.15625,0.296875 0.21875,0.203125 0.34375,0.453125 0.34375,0.8125 0,0.421875 -0.609375,2.703125 -1.765625,2.703125 -0.515625,0 -0.75,-0.34375 -0.75,-0.875 0,-0.546875 0.28125,-1.28125 0.578125,-2.109375 0.078125,-0.171875 0.125,-0.3125 0.125,-0.5 0,-0.4375 -0.3125,-0.8125 -0.8125,-0.8125 -0.9375,0 -1.3125,1.453125 -1.3125,1.53125 0,0.109375 0.09375,0.109375 0.109375,0.109375 0.109375,0 0.109375,-0.03125 0.15625,-0.1875 0.296875,-1 0.71875,-1.234375 1.015625,-1.234375 0.078125,0 0.25,0 0.25,0.3125 0,0.25 -0.109375,0.53125 -0.171875,0.703125 -0.4375,1.15625 -0.5625,1.609375 -0.5625,2.046875 0,1.078125 0.875,1.234375 1.328125,1.234375 1.671875,0 2.25,-3.296875 2.25,-3.8125 z m 0,0"
               id="path1744" />
          </g>
        </g>
        <g
           style="fill:#000000;fill-opacity:1;stroke-width:1.25"
           id="g4014">
          <g
             id="use570"
             style="stroke-width:1.25"
             transform="translate(96.753998,83.457001)">
            <path
               style="stroke:none"
               d="m 1.390625,-1.59375 c 0,-0.578125 0.265625,-1.28125 0.9375,-1.28125 -0.0625,0.046875 -0.125,0.140625 -0.125,0.25 0,0.234375 0.1875,0.3125 0.3125,0.3125 0.171875,0 0.328125,-0.109375 0.328125,-0.3125 0,-0.234375 -0.234375,-0.453125 -0.5625,-0.453125 -0.34375,0 -0.734375,0.21875 -0.9375,0.75 v -0.75 L 0.34375,-3 v 0.25 c 0.46875,0 0.515625,0.046875 0.515625,0.390625 v 1.8125 C 0.859375,-0.25 0.796875,-0.25 0.34375,-0.25 V 0 c 0.03125,0 0.5,-0.03125 0.796875,-0.03125 0.296875,0 0.59375,0.015625 0.90625,0.03125 V -0.25 H 1.90625 c -0.515625,0 -0.515625,-0.078125 -0.515625,-0.3125 z m 0,0"
               id="path1700" />
          </g>
          <g
             id="use4591"
             style="stroke-width:1.25"
             transform="translate(99.867104,83.457001)">
            <path
               style="stroke:none"
               d="m 3.0625,-1.59375 c 0.15625,0 0.203125,0 0.203125,-0.140625 0,-0.625 -0.34375,-1.375 -1.390625,-1.375 -0.90625,0 -1.609375,0.71875 -1.609375,1.578125 0,0.890625 0.78125,1.59375 1.703125,1.59375 0.9375,0 1.296875,-0.75 1.296875,-0.90625 0,-0.015625 -0.015625,-0.09375 -0.125,-0.09375 -0.09375,0 -0.109375,0.046875 -0.125,0.109375 -0.21875,0.5625 -0.75,0.671875 -1,0.671875 C 1.6875,-0.15625 1.375,-0.296875 1.171875,-0.5625 0.90625,-0.890625 0.90625,-1.3125 0.90625,-1.59375 Z M 0.90625,-1.765625 C 0.984375,-2.75 1.609375,-2.90625 1.875,-2.90625 c 0.859375,0 0.890625,0.96875 0.90625,1.140625 z m 0,0"
               id="path1724" />
          </g>
          <g
             id="use4227"
             style="stroke-width:1.25"
             transform="translate(103.4091,83.457001)">
            <path
               style="stroke:none"
               d="m 1.4375,-2.75 h 0.875 V -3 H 1.40625 v -0.78125 c 0,-0.640625 0.375,-0.921875 0.671875,-0.921875 0.0625,0 0.140625,0 0.203125,0.03125 C 2.1875,-4.625 2.125,-4.515625 2.125,-4.390625 c 0,0.1875 0.140625,0.3125 0.328125,0.3125 0.1875,0 0.328125,-0.125 0.328125,-0.3125 0,-0.3125 -0.3125,-0.515625 -0.6875,-0.515625 -0.546875,0 -1.1875,0.390625 -1.1875,1.125 V -3 H 0.3125 v 0.25 h 0.59375 v 2.203125 C 0.90625,-0.25 0.84375,-0.25 0.390625,-0.25 V 0 C 0.421875,0 0.90625,-0.03125 1.1875,-0.03125 1.484375,-0.03125 1.796875,-0.015625 2.09375,0 V -0.25 H 1.953125 C 1.4375,-0.25 1.4375,-0.328125 1.4375,-0.5625 Z m 0,0"
               id="path1692" />
          </g>
        </g>
        <g
           style="fill:#000000;fill-opacity:1;stroke-width:1.25"
           id="g6021">
          <g
             id="use1499"
             style="stroke-width:1.25"
             transform="translate(109.149,81.962997)">
            <path
               style="stroke:none"
               d="m 6.5625,-2.296875 c 0.171875,0 0.359375,0 0.359375,-0.203125 0,-0.1875 -0.1875,-0.1875 -0.359375,-0.1875 H 1.171875 c -0.171875,0 -0.34375,0 -0.34375,0.1875 0,0.203125 0.171875,0.203125 0.34375,0.203125 z m 0,0"
               id="path1736" />
          </g>
        </g>
        <g
           style="fill:#000000;fill-opacity:1;stroke-width:1.25"
           id="g8109">
          <g
             id="use1872"
             style="stroke-width:1.25"
             transform="translate(119.111,81.962997)">
            <path
               style="stroke:none"
               d="m 6.15625,-6.890625 c -0.046875,-0.203125 -0.0625,-0.25 -0.234375,-0.25 -0.09375,0 -0.171875,0 -0.3125,0.1875 l -5.046875,6.75 C 0.484375,-0.09375 0.484375,-0.078125 0.484375,-0.0625 0.484375,-0.015625 0.5,0 0.703125,0 H 7.59375 c 0.15625,0 0.25,0 0.25,-0.09375 0,-0.046875 -0.015625,-0.109375 -0.015625,-0.140625 z m -0.75,0.6875 1.359375,5.484375 h -5.46875 z m 0,0"
               id="path1740" />
          </g>
          <g
             id="use1454"
             style="stroke-width:1.25"
             transform="translate(127.41283,81.962997)">
            <path
               style="stroke:none"
               d="m 4.671875,-3.703125 c 0,-0.546875 -0.265625,-0.703125 -0.4375,-0.703125 -0.25,0 -0.5,0.265625 -0.5,0.484375 0,0.125 0.046875,0.1875 0.15625,0.296875 0.21875,0.203125 0.34375,0.453125 0.34375,0.8125 0,0.421875 -0.609375,2.703125 -1.765625,2.703125 -0.515625,0 -0.75,-0.34375 -0.75,-0.875 0,-0.546875 0.28125,-1.28125 0.578125,-2.109375 0.078125,-0.171875 0.125,-0.3125 0.125,-0.5 0,-0.4375 -0.3125,-0.8125 -0.8125,-0.8125 -0.9375,0 -1.3125,1.453125 -1.3125,1.53125 0,0.109375 0.09375,0.109375 0.109375,0.109375 0.109375,0 0.109375,-0.03125 0.15625,-0.1875 0.296875,-1 0.71875,-1.234375 1.015625,-1.234375 0.078125,0 0.25,0 0.25,0.3125 0,0.25 -0.109375,0.53125 -0.171875,0.703125 -0.4375,1.15625 -0.5625,1.609375 -0.5625,2.046875 0,1.078125 0.875,1.234375 1.328125,1.234375 1.671875,0 2.25,-3.296875 2.25,-3.8125 z m 0,0"
               id="path1748" />
          </g>
        </g>
        <g
           style="fill:#000000;fill-opacity:1;stroke-width:1.25"
           id="g9621">
          <g
             id="use4934"
             style="stroke-width:1.25"
             transform="translate(132.243,83.457001)">
            <path
               style="stroke:none"
               d="m 1.390625,-1.59375 c 0,-0.578125 0.265625,-1.28125 0.9375,-1.28125 -0.0625,0.046875 -0.125,0.140625 -0.125,0.25 0,0.234375 0.1875,0.3125 0.3125,0.3125 0.171875,0 0.328125,-0.109375 0.328125,-0.3125 0,-0.234375 -0.234375,-0.453125 -0.5625,-0.453125 -0.34375,0 -0.734375,0.21875 -0.9375,0.75 v -0.75 L 0.34375,-3 v 0.25 c 0.46875,0 0.515625,0.046875 0.515625,0.390625 v 1.8125 C 0.859375,-0.25 0.796875,-0.25 0.34375,-0.25 V 0 c 0.03125,0 0.5,-0.03125 0.796875,-0.03125 0.296875,0 0.59375,0.015625 0.90625,0.03125 V -0.25 H 1.90625 c -0.515625,0 -0.515625,-0.078125 -0.515625,-0.3125 z m 0,0"
               id="path1704" />
          </g>
          <g
             id="use1187"
             style="stroke-width:1.25"
             transform="translate(135.35611,83.457001)">
            <path
               style="stroke:none"
               d="m 3.0625,-1.59375 c 0.15625,0 0.203125,0 0.203125,-0.140625 0,-0.625 -0.34375,-1.375 -1.390625,-1.375 -0.90625,0 -1.609375,0.71875 -1.609375,1.578125 0,0.890625 0.78125,1.59375 1.703125,1.59375 0.9375,0 1.296875,-0.75 1.296875,-0.90625 0,-0.015625 -0.015625,-0.09375 -0.125,-0.09375 -0.09375,0 -0.109375,0.046875 -0.125,0.109375 -0.21875,0.5625 -0.75,0.671875 -1,0.671875 C 1.6875,-0.15625 1.375,-0.296875 1.171875,-0.5625 0.90625,-0.890625 0.90625,-1.3125 0.90625,-1.59375 Z M 0.90625,-1.765625 C 0.984375,-2.75 1.609375,-2.90625 1.875,-2.90625 c 0.859375,0 0.890625,0.96875 0.90625,1.140625 z m 0,0"
               id="path1728" />
          </g>
          <g
             id="use4903"
             style="stroke-width:1.25"
             transform="translate(138.8981,83.457001)">
            <path
               style="stroke:none"
               d="m 1.4375,-2.75 h 0.875 V -3 H 1.40625 v -0.78125 c 0,-0.640625 0.375,-0.921875 0.671875,-0.921875 0.0625,0 0.140625,0 0.203125,0.03125 C 2.1875,-4.625 2.125,-4.515625 2.125,-4.390625 c 0,0.1875 0.140625,0.3125 0.328125,0.3125 0.1875,0 0.328125,-0.125 0.328125,-0.3125 0,-0.3125 -0.3125,-0.515625 -0.6875,-0.515625 -0.546875,0 -1.1875,0.390625 -1.1875,1.125 V -3 H 0.3125 v 0.25 h 0.59375 v 2.203125 C 0.90625,-0.25 0.84375,-0.25 0.390625,-0.25 V 0 C 0.421875,0 0.90625,-0.03125 1.1875,-0.03125 1.484375,-0.03125 1.796875,-0.015625 2.09375,0 V -0.25 H 1.953125 C 1.4375,-0.25 1.4375,-0.328125 1.4375,-0.5625 Z m 0,0"
               id="path1696" />
          </g>
        </g>
        <g
           style="fill:#000000;fill-opacity:1;stroke-width:1.25"
           id="g639">
          <g
             id="use8237"
             style="stroke-width:1.25"
             transform="translate(141.925,83.457001)">
            <path
               style="stroke:none"
               d="m 5.1875,-1.578125 c 0.109375,0 0.28125,0 0.28125,-0.15625 0,-0.1875 -0.171875,-0.1875 -0.28125,-0.1875 H 1.03125 c -0.109375,0 -0.28125,0 -0.28125,0.171875 0,0.171875 0.15625,0.171875 0.28125,0.171875 z m 0,0"
               id="path1720" />
          </g>
        </g>
      </g>
    </g>
    <path
       style="fill:none;stroke:#000000;stroke-width:0.264583px;stroke-linecap:butt;stroke-linejoin:miter;stroke-opacity:1"
       d="m 70,285 v 5"
       id="path2171" />
    <path
       style="fill:none;stroke:#000000;stroke-width:0.264583px;stroke-linecap:butt;stroke-linejoin:miter;stroke-opacity:1;marker-end:url(#Arrow2Lend)"
       d="M 79.999998,285.00001 C 90,285 90,285.03692 89.999999,275"
       id="path3083"
       sodipodi:nodetypes="cc" />
    <path
       style="fill:none;stroke:#000000;stroke-width:0.264583px;stroke-linecap:butt;stroke-linejoin:miter;stroke-opacity:1;marker-end:url(#Arrow2Lend-7)"
       d="m 100,235 c 1e-5,-10 -0.03691,-10 10.00001,-10"
       id="path3083-7"
       sodipodi:nodetypes="cc" />
    <path
       style="fill:none;stroke:#000000;stroke-width:0.264583px;stroke-linecap:butt;stroke-linejoin:miter;stroke-opacity:1;marker-end:url(#Arrow2Lend-7-2)"
       d="m 40,275 c -1e-5,10 0.03691,10 -10.00001,10"
       id="path3083-7-0"
       sodipodi:nodetypes="cc" />
    <path
       style="fill:none;stroke:#000000;stroke-width:0.264583px;stroke-linecap:butt;stroke-linejoin:miter;stroke-opacity:1;marker-end:url(#Arrow2Lend-3)"
       d="m 60,225 c -10.000002,1e-5 -10.000002,-0.0369 -10.000001,10.00001"
       id="path3083-0"
       sodipodi:nodetypes="cc" />
  </g>
</svg>
