<?xml version="1.0" encoding="UTF-8" standalone="no"?>
<!-- Created with Inkscape (http://www.inkscape.org/) -->

<svg
   width="210mm"
   height="297mm"
   viewBox="0 0 210 297"
   version="1.1"
   id="svg5"
   inkscape:version="1.1.2 (0a00cf5339, 2022-02-04)"
   sodipodi:docname="velocity_profile_nonflat.svg"
   xmlns:inkscape="http://www.inkscape.org/namespaces/inkscape"
   xmlns:sodipodi="http://sodipodi.sourceforge.net/DTD/sodipodi-0.dtd"
   xmlns:xlink="http://www.w3.org/1999/xlink"
   xmlns="http://www.w3.org/2000/svg"
   xmlns:svg="http://www.w3.org/2000/svg">
  <sodipodi:namedview
     id="namedview7"
     pagecolor="#ffffff"
     bordercolor="#666666"
     borderopacity="1.0"
     inkscape:pageshadow="2"
     inkscape:pageopacity="0.0"
     inkscape:pagecheckerboard="0"
     inkscape:document-units="mm"
     showgrid="true"
     inkscape:zoom="0.68684764"
     inkscape:cx="396.7401"
     inkscape:cy="560.53188"
     inkscape:window-width="1920"
     inkscape:window-height="1103"
     inkscape:window-x="0"
     inkscape:window-y="0"
     inkscape:window-maximized="1"
     inkscape:current-layer="layer1">
    <inkscape:grid
       type="xygrid"
       id="grid824" />
  </sodipodi:namedview>
  <defs
     id="defs2">
    <marker
       style="overflow:visible"
       id="Arrow2Lstart"
       refX="0.0"
       refY="0.0"
       orient="auto"
       inkscape:stockid="Arrow2Lstart"
       inkscape:isstock="true">
      <path
         transform="scale(1.1) translate(1,0)"
         d="M 8.7185878,4.0337352 L -2.2072895,0.016013256 L 8.7185884,-4.0017078 C 6.9730900,-1.6296469 6.9831476,1.6157441 8.7185878,4.0337352 z "
         style="stroke:context-stroke;fill-rule:evenodd;fill:context-stroke;stroke-width:0.62500000;stroke-linejoin:round"
         id="path1008" />
    </marker>
    <marker
       style="overflow:visible;"
       id="Arrow2Lend"
       refX="0.0"
       refY="0.0"
       orient="auto"
       inkscape:stockid="Arrow2Lend"
       inkscape:isstock="true">
      <path
         transform="scale(1.1) rotate(180) translate(1,0)"
         d="M 8.7185878,4.0337352 L -2.2072895,0.016013256 L 8.7185884,-4.0017078 C 6.9730900,-1.6296469 6.9831476,1.6157441 8.7185878,4.0337352 z "
         style="stroke:context-stroke;fill-rule:evenodd;fill:context-stroke;stroke-width:0.62500000;stroke-linejoin:round;"
         id="path1011" />
    </marker>
    <g
       id="g1512">
      <symbol
         overflow="visible"
         id="symbol6156">
        <path
           style="stroke:none;"
           d=""
           id="path1800" />
      </symbol>
      <symbol
         overflow="visible"
         id="symbol7911">
        <path
           style="stroke:none;"
           d="M 4.671875 -3.703125 C 4.671875 -4.25 4.40625 -4.40625 4.234375 -4.40625 C 3.984375 -4.40625 3.734375 -4.140625 3.734375 -3.921875 C 3.734375 -3.796875 3.78125 -3.734375 3.890625 -3.625 C 4.109375 -3.421875 4.234375 -3.171875 4.234375 -2.8125 C 4.234375 -2.390625 3.625 -0.109375 2.46875 -0.109375 C 1.953125 -0.109375 1.71875 -0.453125 1.71875 -0.984375 C 1.71875 -1.53125 2 -2.265625 2.296875 -3.09375 C 2.375 -3.265625 2.421875 -3.40625 2.421875 -3.59375 C 2.421875 -4.03125 2.109375 -4.40625 1.609375 -4.40625 C 0.671875 -4.40625 0.296875 -2.953125 0.296875 -2.875 C 0.296875 -2.765625 0.390625 -2.765625 0.40625 -2.765625 C 0.515625 -2.765625 0.515625 -2.796875 0.5625 -2.953125 C 0.859375 -3.953125 1.28125 -4.1875 1.578125 -4.1875 C 1.65625 -4.1875 1.828125 -4.1875 1.828125 -3.875 C 1.828125 -3.625 1.71875 -3.34375 1.65625 -3.171875 C 1.21875 -2.015625 1.09375 -1.5625 1.09375 -1.125 C 1.09375 -0.046875 1.96875 0.109375 2.421875 0.109375 C 4.09375 0.109375 4.671875 -3.1875 4.671875 -3.703125 Z M 4.671875 -3.703125 "
           id="path5380" />
      </symbol>
      <symbol
         overflow="visible"
         id="symbol9627">
        <path
           style="stroke:none;"
           d=""
           id="path8259" />
      </symbol>
      <symbol
         overflow="visible"
         id="symbol8404">
        <path
           style="stroke:none;"
           d="M 2.328125 -4.4375 C 2.328125 -4.625 2.328125 -4.625 2.125 -4.625 C 1.671875 -4.1875 1.046875 -4.1875 0.765625 -4.1875 L 0.765625 -3.9375 C 0.921875 -3.9375 1.390625 -3.9375 1.765625 -4.125 L 1.765625 -0.578125 C 1.765625 -0.34375 1.765625 -0.25 1.078125 -0.25 L 0.8125 -0.25 L 0.8125 0 C 0.9375 0 1.796875 -0.03125 2.046875 -0.03125 C 2.265625 -0.03125 3.140625 0 3.296875 0 L 3.296875 -0.25 L 3.03125 -0.25 C 2.328125 -0.25 2.328125 -0.34375 2.328125 -0.578125 Z M 2.328125 -4.4375 "
           id="path2111" />
      </symbol>
    </g>
    <g
       id="g2960">
      <symbol
         overflow="visible"
         id="symbol784">
        <path
           style="stroke:none;"
           d=""
           id="path1482" />
      </symbol>
      <symbol
         overflow="visible"
         id="symbol1217">
        <path
           style="stroke:none;"
           d="M 4.671875 -3.703125 C 4.671875 -4.25 4.40625 -4.40625 4.234375 -4.40625 C 3.984375 -4.40625 3.734375 -4.140625 3.734375 -3.921875 C 3.734375 -3.796875 3.78125 -3.734375 3.890625 -3.625 C 4.109375 -3.421875 4.234375 -3.171875 4.234375 -2.8125 C 4.234375 -2.390625 3.625 -0.109375 2.46875 -0.109375 C 1.953125 -0.109375 1.71875 -0.453125 1.71875 -0.984375 C 1.71875 -1.53125 2 -2.265625 2.296875 -3.09375 C 2.375 -3.265625 2.421875 -3.40625 2.421875 -3.59375 C 2.421875 -4.03125 2.109375 -4.40625 1.609375 -4.40625 C 0.671875 -4.40625 0.296875 -2.953125 0.296875 -2.875 C 0.296875 -2.765625 0.390625 -2.765625 0.40625 -2.765625 C 0.515625 -2.765625 0.515625 -2.796875 0.5625 -2.953125 C 0.859375 -3.953125 1.28125 -4.1875 1.578125 -4.1875 C 1.65625 -4.1875 1.828125 -4.1875 1.828125 -3.875 C 1.828125 -3.625 1.71875 -3.34375 1.65625 -3.171875 C 1.21875 -2.015625 1.09375 -1.5625 1.09375 -1.125 C 1.09375 -0.046875 1.96875 0.109375 2.421875 0.109375 C 4.09375 0.109375 4.671875 -3.1875 4.671875 -3.703125 Z M 4.671875 -3.703125 "
           id="path9454" />
      </symbol>
      <symbol
         overflow="visible"
         id="symbol682">
        <path
           style="stroke:none;"
           d=""
           id="path6828" />
      </symbol>
      <symbol
         overflow="visible"
         id="symbol1055">
        <path
           style="stroke:none;"
           d="M 3.515625 -1.265625 L 3.28125 -1.265625 C 3.265625 -1.109375 3.1875 -0.703125 3.09375 -0.640625 C 3.046875 -0.59375 2.515625 -0.59375 2.40625 -0.59375 L 1.125 -0.59375 C 1.859375 -1.234375 2.109375 -1.4375 2.515625 -1.765625 C 3.03125 -2.171875 3.515625 -2.609375 3.515625 -3.265625 C 3.515625 -4.109375 2.78125 -4.625 1.890625 -4.625 C 1.03125 -4.625 0.4375 -4.015625 0.4375 -3.375 C 0.4375 -3.03125 0.734375 -2.984375 0.8125 -2.984375 C 0.96875 -2.984375 1.171875 -3.109375 1.171875 -3.359375 C 1.171875 -3.484375 1.125 -3.734375 0.765625 -3.734375 C 0.984375 -4.21875 1.453125 -4.375 1.78125 -4.375 C 2.484375 -4.375 2.84375 -3.828125 2.84375 -3.265625 C 2.84375 -2.65625 2.40625 -2.1875 2.1875 -1.9375 L 0.515625 -0.265625 C 0.4375 -0.203125 0.4375 -0.1875 0.4375 0 L 3.3125 0 Z M 3.515625 -1.265625 "
           id="path319" />
      </symbol>
    </g>
    <g
       id="g1501">
      <symbol
         overflow="visible"
         id="symbol7380">
        <path
           style="stroke:none;"
           d=""
           id="path7235" />
      </symbol>
      <symbol
         overflow="visible"
         id="symbol9459">
        <path
           style="stroke:none;"
           d="M 4.25 -6.046875 C 4.328125 -6.328125 4.359375 -6.390625 4.484375 -6.421875 C 4.578125 -6.4375 4.90625 -6.4375 5.109375 -6.4375 C 6.125 -6.4375 6.5625 -6.40625 6.5625 -5.625 C 6.5625 -5.46875 6.53125 -5.078125 6.484375 -4.828125 C 6.484375 -4.78125 6.453125 -4.671875 6.453125 -4.640625 C 6.453125 -4.578125 6.484375 -4.5 6.578125 -4.5 C 6.6875 -4.5 6.703125 -4.578125 6.734375 -4.734375 L 7 -6.46875 C 7.015625 -6.515625 7.015625 -6.609375 7.015625 -6.640625 C 7.015625 -6.75 6.921875 -6.75 6.75 -6.75 L 1.21875 -6.75 C 0.984375 -6.75 0.96875 -6.734375 0.890625 -6.546875 L 0.296875 -4.796875 C 0.296875 -4.78125 0.234375 -4.640625 0.234375 -4.609375 C 0.234375 -4.5625 0.296875 -4.5 0.359375 -4.5 C 0.453125 -4.5 0.46875 -4.5625 0.53125 -4.71875 C 1.0625 -6.265625 1.328125 -6.4375 2.796875 -6.4375 L 3.1875 -6.4375 C 3.46875 -6.4375 3.46875 -6.40625 3.46875 -6.3125 C 3.46875 -6.265625 3.4375 -6.140625 3.421875 -6.109375 L 2.09375 -0.78125 C 2 -0.421875 1.96875 -0.3125 0.90625 -0.3125 C 0.546875 -0.3125 0.484375 -0.3125 0.484375 -0.125 C 0.484375 0 0.59375 0 0.65625 0 C 0.921875 0 1.203125 -0.015625 1.46875 -0.015625 C 1.75 -0.015625 2.046875 -0.03125 2.328125 -0.03125 C 2.609375 -0.03125 2.875 -0.015625 3.15625 -0.015625 C 3.4375 -0.015625 3.734375 0 4.015625 0 C 4.109375 0 4.234375 0 4.234375 -0.203125 C 4.234375 -0.3125 4.15625 -0.3125 3.890625 -0.3125 C 3.65625 -0.3125 3.515625 -0.3125 3.265625 -0.328125 C 2.96875 -0.359375 2.890625 -0.390625 2.890625 -0.546875 C 2.890625 -0.5625 2.890625 -0.609375 2.9375 -0.75 Z M 4.25 -6.046875 "
           id="path7536" />
      </symbol>
    </g>
    <g
       id="g2408">
      <symbol
         overflow="visible"
         id="symbol4915">
        <path
           style="stroke:none;"
           d=""
           id="path8007" />
      </symbol>
      <symbol
         overflow="visible"
         id="symbol5724">
        <path
           style="stroke:none;"
           d="M 4.25 -6.046875 C 4.328125 -6.328125 4.359375 -6.390625 4.484375 -6.421875 C 4.578125 -6.4375 4.90625 -6.4375 5.109375 -6.4375 C 6.125 -6.4375 6.5625 -6.40625 6.5625 -5.625 C 6.5625 -5.46875 6.53125 -5.078125 6.484375 -4.828125 C 6.484375 -4.78125 6.453125 -4.671875 6.453125 -4.640625 C 6.453125 -4.578125 6.484375 -4.5 6.578125 -4.5 C 6.6875 -4.5 6.703125 -4.578125 6.734375 -4.734375 L 7 -6.46875 C 7.015625 -6.515625 7.015625 -6.609375 7.015625 -6.640625 C 7.015625 -6.75 6.921875 -6.75 6.75 -6.75 L 1.21875 -6.75 C 0.984375 -6.75 0.96875 -6.734375 0.890625 -6.546875 L 0.296875 -4.796875 C 0.296875 -4.78125 0.234375 -4.640625 0.234375 -4.609375 C 0.234375 -4.5625 0.296875 -4.5 0.359375 -4.5 C 0.453125 -4.5 0.46875 -4.5625 0.53125 -4.71875 C 1.0625 -6.265625 1.328125 -6.4375 2.796875 -6.4375 L 3.1875 -6.4375 C 3.46875 -6.4375 3.46875 -6.40625 3.46875 -6.3125 C 3.46875 -6.265625 3.4375 -6.140625 3.421875 -6.109375 L 2.09375 -0.78125 C 2 -0.421875 1.96875 -0.3125 0.90625 -0.3125 C 0.546875 -0.3125 0.484375 -0.3125 0.484375 -0.125 C 0.484375 0 0.59375 0 0.65625 0 C 0.921875 0 1.203125 -0.015625 1.46875 -0.015625 C 1.75 -0.015625 2.046875 -0.03125 2.328125 -0.03125 C 2.609375 -0.03125 2.875 -0.015625 3.15625 -0.015625 C 3.4375 -0.015625 3.734375 0 4.015625 0 C 4.109375 0 4.234375 0 4.234375 -0.203125 C 4.234375 -0.3125 4.15625 -0.3125 3.890625 -0.3125 C 3.65625 -0.3125 3.515625 -0.3125 3.265625 -0.328125 C 2.96875 -0.359375 2.890625 -0.390625 2.890625 -0.546875 C 2.890625 -0.5625 2.890625 -0.609375 2.9375 -0.75 Z M 4.25 -6.046875 "
           id="path6494" />
      </symbol>
      <symbol
         overflow="visible"
         id="symbol6679">
        <path
           style="stroke:none;"
           d=""
           id="path2345" />
      </symbol>
      <symbol
         overflow="visible"
         id="symbol8448">
        <path
           style="stroke:none;"
           d="M 2.015625 -3.296875 C 2.078125 -3.40625 2.078125 -3.46875 2.078125 -3.515625 C 2.078125 -3.734375 1.890625 -3.890625 1.671875 -3.890625 C 1.40625 -3.890625 1.328125 -3.671875 1.296875 -3.5625 L 0.375 -0.546875 C 0.359375 -0.53125 0.328125 -0.453125 0.328125 -0.4375 C 0.328125 -0.359375 0.546875 -0.28125 0.609375 -0.28125 C 0.65625 -0.28125 0.65625 -0.296875 0.703125 -0.40625 Z M 2.015625 -3.296875 "
           id="path2371" />
      </symbol>
    </g>
    <g
       id="g7865">
      <symbol
         overflow="visible"
         id="symbol548">
        <path
           style="stroke:none;"
           d=""
           id="path5622" />
      </symbol>
      <symbol
         overflow="visible"
         id="symbol720">
        <path
           style="stroke:none;"
           d="M 4.578125 -3.1875 C 4.578125 -3.984375 4.53125 -4.78125 4.1875 -5.515625 C 3.734375 -6.484375 2.90625 -6.640625 2.5 -6.640625 C 1.890625 -6.640625 1.171875 -6.375 0.75 -5.453125 C 0.4375 -4.765625 0.390625 -3.984375 0.390625 -3.1875 C 0.390625 -2.4375 0.421875 -1.546875 0.84375 -0.78125 C 1.265625 0.015625 2 0.21875 2.484375 0.21875 C 3.015625 0.21875 3.78125 0.015625 4.21875 -0.9375 C 4.53125 -1.625 4.578125 -2.40625 4.578125 -3.1875 Z M 2.484375 0 C 2.09375 0 1.5 -0.25 1.328125 -1.203125 C 1.21875 -1.796875 1.21875 -2.71875 1.21875 -3.3125 C 1.21875 -3.953125 1.21875 -4.609375 1.296875 -5.140625 C 1.484375 -6.328125 2.234375 -6.421875 2.484375 -6.421875 C 2.8125 -6.421875 3.46875 -6.234375 3.65625 -5.25 C 3.765625 -4.6875 3.765625 -3.9375 3.765625 -3.3125 C 3.765625 -2.5625 3.765625 -1.890625 3.65625 -1.25 C 3.5 -0.296875 2.9375 0 2.484375 0 Z M 2.484375 0 "
           id="path8268" />
      </symbol>
    </g>
  </defs>
  <g
     inkscape:label="Layer 1"
     inkscape:groupmode="layer"
     id="layer1">
    <path
       style="fill:none;stroke:#000000;stroke-width:0.264583px;stroke-linecap:butt;stroke-linejoin:miter;stroke-opacity:1;marker-end:url(#Arrow2Lend);marker-start:url(#Arrow2Lstart)"
       d="M 125,275 H 25 l 0,-75"
       id="path859" />
    <path
       style="fill:none;stroke:#000000;stroke-width:0.264583px;stroke-linecap:butt;stroke-linejoin:miter;stroke-opacity:1"
       d="M 25,250 59.999998,215 110,265"
       id="path861" />
    <path
       style="fill:none;stroke:#000000;stroke-width:0.26458332;stroke-linecap:butt;stroke-linejoin:miter;stroke-opacity:1;stroke-miterlimit:4;stroke-dasharray:1.05833327,2.11666654;stroke-dashoffset:0"
       d="M 110,275 V 265 H 25"
       id="path863" />
    <path
       style="fill:none;stroke:#000000;stroke-width:0.26458332;stroke-linecap:butt;stroke-linejoin:miter;stroke-opacity:1;stroke-miterlimit:4;stroke-dasharray:1.05833327,2.11666654;stroke-dashoffset:0"
       d="m 59.999998,215 v 60"
       id="path865" />
    <g
       inkscape:label=""
       transform="translate(-80.765625,168.70313)"
       id="g1317">
      <g
         id="g5878">
        <g
           style="fill:#000000;fill-opacity:1"
           id="g5011">
          <use
             xlink:href="#symbol7911"
             x="91.925003"
             y="81.962997"
             id="use9230"
             width="100%"
             height="100%" />
        </g>
        <g
           style="fill:#000000;fill-opacity:1"
           id="g2054">
          <use
             xlink:href="#symbol8404"
             x="96.753998"
             y="83.457001"
             id="use3086"
             width="100%"
             height="100%" />
        </g>
      </g>
    </g>
    <g
       inkscape:label=""
       transform="translate(-80.765625,183.73437)"
       id="g1423">
      <g
         id="g8792">
        <g
           style="fill:#000000;fill-opacity:1"
           id="g9628">
          <use
             xlink:href="#symbol1217"
             x="91.925003"
             y="81.962997"
             id="use9172"
             width="100%"
             height="100%" />
        </g>
        <g
           style="fill:#000000;fill-opacity:1"
           id="g2005">
          <use
             xlink:href="#symbol1055"
             x="96.753998"
             y="83.457001"
             id="use2029"
             width="100%"
             height="100%" />
        </g>
      </g>
    </g>
    <g
       inkscape:label=""
       transform="translate(13.515625,204.82813)"
       id="g1553">
      <g
         id="g788">
        <g
           style="fill:#000000;fill-opacity:1"
           id="g48">
          <use
             xlink:href="#symbol9459"
             x="91.925003"
             y="81.962997"
             id="use447"
             width="100%"
             height="100%" />
        </g>
      </g>
    </g>
    <g
       inkscape:label=""
       transform="translate(-37.9375,205.58375)"
       id="g1701">
      <g
         id="g9478">
        <g
           style="fill:#000000;fill-opacity:1"
           id="g8299">
          <use
             xlink:href="#symbol5724"
             x="91.925003"
             y="81.962997"
             id="use5905"
             width="100%"
             height="100%" />
        </g>
        <g
           style="fill:#000000;fill-opacity:1"
           id="g594">
          <use
             xlink:href="#symbol8448"
             x="99.130997"
             y="78.348"
             id="use1894"
             width="100%"
             height="100%" />
        </g>
      </g>
    </g>
    <g
       inkscape:label=""
       transform="translate(-74.578125,204.71875)"
       id="g2013">
      <g
         id="g2087">
        <g
           style="fill:#000000;fill-opacity:1"
           id="g8874">
          <use
             xlink:href="#symbol720"
             x="91.925003"
             y="81.962997"
             id="use4784"
             width="100%"
             height="100%" />
        </g>
      </g>
    </g>
  </g>
</svg>
