<?xml version="1.0" encoding="UTF-8" standalone="no"?>
<!-- Created with Inkscape (http://www.inkscape.org/) -->

<svg
   width="210mm"
   height="297mm"
   viewBox="0 0 210 297"
   version="1.1"
   id="svg5"
   inkscape:version="1.1.2 (0a00cf5339, 2022-02-04)"
   sodipodi:docname="support_plane_outlier.svg"
   xmlns:inkscape="http://www.inkscape.org/namespaces/inkscape"
   xmlns:sodipodi="http://sodipodi.sourceforge.net/DTD/sodipodi-0.dtd"
   xmlns:xlink="http://www.w3.org/1999/xlink"
   xmlns="http://www.w3.org/2000/svg"
   xmlns:svg="http://www.w3.org/2000/svg">
  <sodipodi:namedview
     id="namedview7"
     pagecolor="#ffffff"
     bordercolor="#666666"
     borderopacity="1.0"
     inkscape:pageshadow="2"
     inkscape:pageopacity="0.0"
     inkscape:pagecheckerboard="0"
     inkscape:document-units="mm"
     showgrid="true"
     inkscape:zoom="1.0411638"
     inkscape:cx="394.27033"
     inkscape:cy="600.28979"
     inkscape:window-width="1920"
     inkscape:window-height="1103"
     inkscape:window-x="0"
     inkscape:window-y="0"
     inkscape:window-maximized="1"
     inkscape:current-layer="layer1"
     inkscape:snap-global="false"
     inkscape:snap-grids="true"
     inkscape:snap-object-midpoints="true"
     inkscape:snap-intersection-paths="true">
    <inkscape:grid
       type="xygrid"
       id="grid824" />
  </sodipodi:namedview>
  <defs
     id="defs2">
    <marker
       style="overflow:visible;"
       id="Arrow2Lend"
       refX="0.0"
       refY="0.0"
       orient="auto"
       inkscape:stockid="Arrow2Lend"
       inkscape:isstock="true">
      <path
         transform="scale(1.1) rotate(180) translate(1,0)"
         d="M 8.7185878,4.0337352 L -2.2072895,0.016013256 L 8.7185884,-4.0017078 C 6.9730900,-1.6296469 6.9831476,1.6157441 8.7185878,4.0337352 z "
         style="stroke:context-stroke;fill-rule:evenodd;fill:context-stroke;stroke-width:0.62500000;stroke-linejoin:round;"
         id="path10156" />
    </marker>
    <g
       id="g2864">
      <symbol
         overflow="visible"
         id="symbol6053">
        <path
           style="stroke:none;"
           d=""
           id="path8754" />
      </symbol>
      <symbol
         overflow="visible"
         id="symbol5528">
        <path
           style="stroke:none;"
           d="M 3.46875 -6.8125 C 2.0625 -6.8125 1 -6.125 0.59375 -5.65625 C 0.234375 -5.265625 0.203125 -4.96875 0.203125 -4.953125 C 0.203125 -4.890625 0.25 -4.875 0.3125 -4.875 C 0.46875 -4.875 0.703125 -5.015625 0.78125 -5.0625 C 0.984375 -5.203125 1.015625 -5.265625 1.078125 -5.453125 C 1.21875 -5.859375 1.5 -6.203125 2.75 -6.265625 C 2.578125 -4.015625 1.96875 -1.828125 1.140625 0.25 C 1.078125 0.40625 1.078125 0.421875 1.078125 0.421875 C 1.078125 0.453125 1.109375 0.5 1.171875 0.5 C 1.328125 0.5 1.8125 0.28125 1.921875 0.015625 C 2.4375 -1.203125 3.265625 -3.484375 3.5625 -6.265625 L 4.078125 -6.265625 C 5.296875 -6.265625 6.453125 -5.796875 6.453125 -4.796875 C 6.453125 -4.046875 5.734375 -2.65625 3.8125 -2.59375 C 3.59375 -2.578125 3.484375 -2.578125 3.203125 -2.40625 C 3.03125 -2.28125 2.953125 -2.171875 2.953125 -2.109375 C 2.953125 -2.046875 3.015625 -2.046875 3.140625 -2.046875 C 4.953125 -2.046875 7.3125 -3.578125 7.3125 -5.21875 C 7.3125 -6.359375 5.96875 -6.8125 4.8125 -6.8125 Z M 3.46875 -6.8125 "
           id="path3276" />
      </symbol>
      <symbol
         overflow="visible"
         id="symbol913">
        <path
           style="stroke:none;"
           d=""
           id="path340" />
      </symbol>
      <symbol
         overflow="visible"
         id="symbol5042">
        <path
           style="stroke:none;"
           d="M 3.125 -4.8125 C 3.09375 -4.921875 3.0625 -4.96875 2.9375 -4.96875 C 2.796875 -4.96875 2.78125 -4.921875 2.734375 -4.8125 L 1.125 -0.734375 C 1.0625 -0.5625 0.9375 -0.25 0.3125 -0.25 L 0.3125 0 C 0.546875 -0.015625 0.796875 -0.03125 1.03125 -0.03125 C 1.3125 -0.03125 1.828125 0 1.875 0 L 1.875 -0.25 C 1.5625 -0.25 1.359375 -0.390625 1.359375 -0.578125 C 1.359375 -0.640625 1.375 -0.65625 1.40625 -0.71875 L 1.734375 -1.578125 L 3.71875 -1.578125 L 4.125 -0.5625 C 4.125 -0.53125 4.15625 -0.484375 4.15625 -0.453125 C 4.15625 -0.25 3.78125 -0.25 3.59375 -0.25 L 3.59375 0 C 3.9375 -0.015625 4.390625 -0.03125 4.625 -0.03125 C 4.953125 -0.03125 5.484375 0 5.546875 0 L 5.546875 -0.25 L 5.421875 -0.25 C 4.953125 -0.25 4.90625 -0.328125 4.828125 -0.515625 Z M 2.71875 -4.09375 L 3.609375 -1.828125 L 1.828125 -1.828125 Z M 2.71875 -4.09375 "
           id="path143" />
      </symbol>
    </g>
    <g
       id="g8073">
      <symbol
         overflow="visible"
         id="symbol1248">
        <path
           style="stroke:none;"
           d=""
           id="path6610" />
      </symbol>
      <symbol
         overflow="visible"
         id="symbol2047">
        <path
           style="stroke:none;"
           d="M 3.46875 -6.8125 C 2.0625 -6.8125 1 -6.125 0.59375 -5.65625 C 0.234375 -5.265625 0.203125 -4.96875 0.203125 -4.953125 C 0.203125 -4.890625 0.25 -4.875 0.3125 -4.875 C 0.46875 -4.875 0.703125 -5.015625 0.78125 -5.0625 C 0.984375 -5.203125 1.015625 -5.265625 1.078125 -5.453125 C 1.21875 -5.859375 1.5 -6.203125 2.75 -6.265625 C 2.578125 -4.015625 1.96875 -1.828125 1.140625 0.25 C 1.078125 0.40625 1.078125 0.421875 1.078125 0.421875 C 1.078125 0.453125 1.109375 0.5 1.171875 0.5 C 1.328125 0.5 1.8125 0.28125 1.921875 0.015625 C 2.4375 -1.203125 3.265625 -3.484375 3.5625 -6.265625 L 4.078125 -6.265625 C 5.296875 -6.265625 6.453125 -5.796875 6.453125 -4.796875 C 6.453125 -4.046875 5.734375 -2.65625 3.8125 -2.59375 C 3.59375 -2.578125 3.484375 -2.578125 3.203125 -2.40625 C 3.03125 -2.28125 2.953125 -2.171875 2.953125 -2.109375 C 2.953125 -2.046875 3.015625 -2.046875 3.140625 -2.046875 C 4.953125 -2.046875 7.3125 -3.578125 7.3125 -5.21875 C 7.3125 -6.359375 5.96875 -6.8125 4.8125 -6.8125 Z M 3.46875 -6.8125 "
           id="path7900" />
      </symbol>
      <symbol
         overflow="visible"
         id="symbol5452">
        <path
           style="stroke:none;"
           d=""
           id="path5310" />
      </symbol>
      <symbol
         overflow="visible"
         id="symbol8226">
        <path
           style="stroke:none;"
           d="M 0.421875 -4.765625 L 0.421875 -4.515625 L 0.578125 -4.515625 C 1.125 -4.515625 1.140625 -4.4375 1.140625 -4.1875 L 1.140625 -0.5625 C 1.140625 -0.328125 1.125 -0.25 0.578125 -0.25 L 0.421875 -0.25 L 0.421875 0 L 3.375 0 C 4.359375 0 5.078125 -0.609375 5.078125 -1.28125 C 5.078125 -1.875 4.453125 -2.390625 3.609375 -2.484375 C 4.296875 -2.609375 4.859375 -3.03125 4.859375 -3.578125 C 4.859375 -4.203125 4.125 -4.765625 3.15625 -4.765625 Z M 1.75 -2.578125 L 1.75 -4.234375 C 1.75 -4.453125 1.75 -4.515625 2.078125 -4.515625 L 3.109375 -4.515625 C 3.8125 -4.515625 4.171875 -4.015625 4.171875 -3.578125 C 4.171875 -3.078125 3.703125 -2.578125 2.90625 -2.578125 Z M 2.078125 -0.25 C 1.75 -0.25 1.75 -0.3125 1.75 -0.515625 L 1.75 -2.375 L 3.234375 -2.375 C 3.96875 -2.375 4.359375 -1.78125 4.359375 -1.296875 C 4.359375 -0.78125 3.890625 -0.25 3.125 -0.25 Z M 2.078125 -0.25 "
           id="path7330" />
      </symbol>
    </g>
    <g
       id="g9319">
      <symbol
         overflow="visible"
         id="symbol1857">
        <path
           style="stroke:none;"
           d=""
           id="path1788" />
      </symbol>
      <symbol
         overflow="visible"
         id="symbol5142">
        <path
           style="stroke:none;"
           d="M 2.640625 -3.71875 L 3.765625 -3.71875 C 3.4375 -2.25 3.34375 -1.8125 3.34375 -1.140625 C 3.34375 -1 3.34375 -0.734375 3.421875 -0.390625 C 3.53125 0.046875 3.640625 0.109375 3.78125 0.109375 C 3.984375 0.109375 4.203125 -0.0625 4.203125 -0.265625 C 4.203125 -0.328125 4.203125 -0.34375 4.140625 -0.484375 C 3.84375 -1.203125 3.84375 -1.859375 3.84375 -2.140625 C 3.84375 -2.65625 3.921875 -3.203125 4.03125 -3.71875 L 5.15625 -3.71875 C 5.296875 -3.71875 5.65625 -3.71875 5.65625 -4.0625 C 5.65625 -4.296875 5.4375 -4.296875 5.25 -4.296875 L 1.90625 -4.296875 C 1.6875 -4.296875 1.3125 -4.296875 0.875 -3.828125 C 0.53125 -3.4375 0.265625 -2.984375 0.265625 -2.9375 C 0.265625 -2.921875 0.265625 -2.828125 0.390625 -2.828125 C 0.46875 -2.828125 0.484375 -2.875 0.546875 -2.953125 C 1.03125 -3.71875 1.609375 -3.71875 1.8125 -3.71875 L 2.375 -3.71875 C 2.0625 -2.515625 1.53125 -1.3125 1.109375 -0.40625 C 1.03125 -0.25 1.03125 -0.234375 1.03125 -0.15625 C 1.03125 0.03125 1.1875 0.109375 1.3125 0.109375 C 1.609375 0.109375 1.6875 -0.171875 1.8125 -0.53125 C 1.953125 -1 1.953125 -1.015625 2.078125 -1.515625 Z M 2.640625 -3.71875 "
           id="path7149" />
      </symbol>
    </g>
    <marker
       style="overflow:visible"
       id="Arrow2Lend-0"
       refX="0"
       refY="0"
       orient="auto"
       inkscape:stockid="Arrow2Lend"
       inkscape:isstock="true">
      <path
         transform="matrix(-1.1,0,0,-1.1,-1.1,0)"
         d="M 8.7185878,4.0337352 -2.2072895,0.01601326 8.7185884,-4.0017078 c -1.7454984,2.3720609 -1.7354408,5.6174519 -6e-7,8.035443 z"
         style="fill:context-stroke;fill-rule:evenodd;stroke:context-stroke;stroke-width:0.625;stroke-linejoin:round"
         id="path10156-1" />
    </marker>
    <g
       id="g7278">
      <symbol
         overflow="visible"
         id="symbol8922">
        <path
           style="stroke:none;"
           d=""
           id="path4149" />
      </symbol>
      <symbol
         overflow="visible"
         id="symbol9802">
        <path
           style="stroke:none;"
           d="M 2.5 -6.921875 L 1.15625 -5.5625 L 1.328125 -5.390625 L 2.5 -6.40625 L 3.640625 -5.390625 L 3.8125 -5.5625 Z M 2.5 -6.921875 "
           id="path5752" />
      </symbol>
      <symbol
         overflow="visible"
         id="symbol2105">
        <path
           style="stroke:none;"
           d=""
           id="path4114" />
      </symbol>
      <symbol
         overflow="visible"
         id="symbol3275">
        <path
           style="stroke:none;"
           d="M 3.46875 -6.8125 C 2.0625 -6.8125 1 -6.125 0.59375 -5.65625 C 0.234375 -5.265625 0.203125 -4.96875 0.203125 -4.953125 C 0.203125 -4.890625 0.25 -4.875 0.3125 -4.875 C 0.46875 -4.875 0.703125 -5.015625 0.78125 -5.0625 C 0.984375 -5.203125 1.015625 -5.265625 1.078125 -5.453125 C 1.21875 -5.859375 1.5 -6.203125 2.75 -6.265625 C 2.578125 -4.015625 1.96875 -1.828125 1.140625 0.25 C 1.078125 0.40625 1.078125 0.421875 1.078125 0.421875 C 1.078125 0.453125 1.109375 0.5 1.171875 0.5 C 1.328125 0.5 1.8125 0.28125 1.921875 0.015625 C 2.4375 -1.203125 3.265625 -3.484375 3.5625 -6.265625 L 4.078125 -6.265625 C 5.296875 -6.265625 6.453125 -5.796875 6.453125 -4.796875 C 6.453125 -4.046875 5.734375 -2.65625 3.8125 -2.59375 C 3.59375 -2.578125 3.484375 -2.578125 3.203125 -2.40625 C 3.03125 -2.28125 2.953125 -2.171875 2.953125 -2.109375 C 2.953125 -2.046875 3.015625 -2.046875 3.140625 -2.046875 C 4.953125 -2.046875 7.3125 -3.578125 7.3125 -5.21875 C 7.3125 -6.359375 5.96875 -6.8125 4.8125 -6.8125 Z M 3.46875 -6.8125 "
           id="path2025" />
      </symbol>
      <symbol
         overflow="visible"
         id="symbol1711">
        <path
           style="stroke:none;"
           d=""
           id="path2783" />
      </symbol>
      <symbol
         overflow="visible"
         id="symbol5912">
        <path
           style="stroke:none;"
           d="M 3.125 -4.8125 C 3.09375 -4.921875 3.0625 -4.96875 2.9375 -4.96875 C 2.796875 -4.96875 2.78125 -4.921875 2.734375 -4.8125 L 1.125 -0.734375 C 1.0625 -0.5625 0.9375 -0.25 0.3125 -0.25 L 0.3125 0 C 0.546875 -0.015625 0.796875 -0.03125 1.03125 -0.03125 C 1.3125 -0.03125 1.828125 0 1.875 0 L 1.875 -0.25 C 1.5625 -0.25 1.359375 -0.390625 1.359375 -0.578125 C 1.359375 -0.640625 1.375 -0.65625 1.40625 -0.71875 L 1.734375 -1.578125 L 3.71875 -1.578125 L 4.125 -0.5625 C 4.125 -0.53125 4.15625 -0.484375 4.15625 -0.453125 C 4.15625 -0.25 3.78125 -0.25 3.59375 -0.25 L 3.59375 0 C 3.9375 -0.015625 4.390625 -0.03125 4.625 -0.03125 C 4.953125 -0.03125 5.484375 0 5.546875 0 L 5.546875 -0.25 L 5.421875 -0.25 C 4.953125 -0.25 4.90625 -0.328125 4.828125 -0.515625 Z M 2.71875 -4.09375 L 3.609375 -1.828125 L 1.828125 -1.828125 Z M 2.71875 -4.09375 "
           id="path6183" />
      </symbol>
    </g>
    <g
       id="g9335">
      <symbol
         overflow="visible"
         id="symbol9914">
        <path
           style="stroke:none;"
           d=""
           id="path5259" />
      </symbol>
      <symbol
         overflow="visible"
         id="symbol7308">
        <path
           style="stroke:none;"
           d="M 2.5 -6.921875 L 1.15625 -5.5625 L 1.328125 -5.390625 L 2.5 -6.40625 L 3.640625 -5.390625 L 3.8125 -5.5625 Z M 2.5 -6.921875 "
           id="path5751" />
      </symbol>
      <symbol
         overflow="visible"
         id="symbol9161">
        <path
           style="stroke:none;"
           d=""
           id="path7374" />
      </symbol>
      <symbol
         overflow="visible"
         id="symbol7971">
        <path
           style="stroke:none;"
           d="M 3.46875 -6.8125 C 2.0625 -6.8125 1 -6.125 0.59375 -5.65625 C 0.234375 -5.265625 0.203125 -4.96875 0.203125 -4.953125 C 0.203125 -4.890625 0.25 -4.875 0.3125 -4.875 C 0.46875 -4.875 0.703125 -5.015625 0.78125 -5.0625 C 0.984375 -5.203125 1.015625 -5.265625 1.078125 -5.453125 C 1.21875 -5.859375 1.5 -6.203125 2.75 -6.265625 C 2.578125 -4.015625 1.96875 -1.828125 1.140625 0.25 C 1.078125 0.40625 1.078125 0.421875 1.078125 0.421875 C 1.078125 0.453125 1.109375 0.5 1.171875 0.5 C 1.328125 0.5 1.8125 0.28125 1.921875 0.015625 C 2.4375 -1.203125 3.265625 -3.484375 3.5625 -6.265625 L 4.078125 -6.265625 C 5.296875 -6.265625 6.453125 -5.796875 6.453125 -4.796875 C 6.453125 -4.046875 5.734375 -2.65625 3.8125 -2.59375 C 3.59375 -2.578125 3.484375 -2.578125 3.203125 -2.40625 C 3.03125 -2.28125 2.953125 -2.171875 2.953125 -2.109375 C 2.953125 -2.046875 3.015625 -2.046875 3.140625 -2.046875 C 4.953125 -2.046875 7.3125 -3.578125 7.3125 -5.21875 C 7.3125 -6.359375 5.96875 -6.8125 4.8125 -6.8125 Z M 3.46875 -6.8125 "
           id="path2958" />
      </symbol>
      <symbol
         overflow="visible"
         id="symbol2195">
        <path
           style="stroke:none;"
           d=""
           id="path6490" />
      </symbol>
      <symbol
         overflow="visible"
         id="symbol6594">
        <path
           style="stroke:none;"
           d="M 0.421875 -4.765625 L 0.421875 -4.515625 L 0.578125 -4.515625 C 1.125 -4.515625 1.140625 -4.4375 1.140625 -4.1875 L 1.140625 -0.5625 C 1.140625 -0.328125 1.125 -0.25 0.578125 -0.25 L 0.421875 -0.25 L 0.421875 0 L 3.375 0 C 4.359375 0 5.078125 -0.609375 5.078125 -1.28125 C 5.078125 -1.875 4.453125 -2.390625 3.609375 -2.484375 C 4.296875 -2.609375 4.859375 -3.03125 4.859375 -3.578125 C 4.859375 -4.203125 4.125 -4.765625 3.15625 -4.765625 Z M 1.75 -2.578125 L 1.75 -4.234375 C 1.75 -4.453125 1.75 -4.515625 2.078125 -4.515625 L 3.109375 -4.515625 C 3.8125 -4.515625 4.171875 -4.015625 4.171875 -3.578125 C 4.171875 -3.078125 3.703125 -2.578125 2.90625 -2.578125 Z M 2.078125 -0.25 C 1.75 -0.25 1.75 -0.3125 1.75 -0.515625 L 1.75 -2.375 L 3.234375 -2.375 C 3.96875 -2.375 4.359375 -1.78125 4.359375 -1.296875 C 4.359375 -0.78125 3.890625 -0.25 3.125 -0.25 Z M 2.078125 -0.25 "
           id="path5723" />
      </symbol>
    </g>
    <g
       id="g8325">
      <symbol
         overflow="visible"
         id="symbol4681">
        <path
           style="stroke:none;"
           d=""
           id="path8690" />
      </symbol>
      <symbol
         overflow="visible"
         id="symbol2">
        <path
           style="stroke:none;"
           d="M 2.5 -6.921875 L 1.15625 -5.5625 L 1.328125 -5.390625 L 2.5 -6.40625 L 3.640625 -5.390625 L 3.8125 -5.5625 Z M 2.5 -6.921875 "
           id="path7403" />
      </symbol>
      <symbol
         overflow="visible"
         id="symbol4227">
        <path
           style="stroke:none;"
           d=""
           id="path8384" />
      </symbol>
      <symbol
         overflow="visible"
         id="symbol8979">
        <path
           style="stroke:none;"
           d="M 0.515625 1.28125 C 0.484375 1.421875 0.46875 1.4375 0.453125 1.453125 C 0.40625 1.46875 0.296875 1.46875 0.203125 1.46875 C 0.03125 1.46875 -0.15625 1.46875 -0.15625 1.75 C -0.15625 1.859375 -0.0625 1.9375 0.046875 1.9375 C 0.328125 1.9375 0.65625 1.90625 0.953125 1.90625 C 1.3125 1.90625 1.6875 1.9375 2.03125 1.9375 C 2.09375 1.9375 2.28125 1.9375 2.28125 1.640625 C 2.28125 1.46875 2.125 1.46875 2.03125 1.46875 C 1.890625 1.46875 1.71875 1.46875 1.59375 1.453125 L 2.03125 -0.28125 C 2.171875 -0.140625 2.5 0.078125 3.03125 0.078125 C 4.765625 0.078125 5.84375 -1.5 5.84375 -2.859375 C 5.84375 -4.09375 4.921875 -4.5 4.09375 -4.5 C 3.390625 -4.5 2.875 -4.109375 2.71875 -3.96875 C 2.328125 -4.5 1.671875 -4.5 1.5625 -4.5 C 1.203125 -4.5 0.90625 -4.296875 0.703125 -3.9375 C 0.453125 -3.53125 0.3125 -3 0.3125 -2.953125 C 0.3125 -2.8125 0.46875 -2.8125 0.5625 -2.8125 C 0.671875 -2.8125 0.703125 -2.8125 0.75 -2.859375 C 0.78125 -2.875 0.78125 -2.90625 0.84375 -3.15625 C 1.03125 -3.953125 1.265625 -4.140625 1.515625 -4.140625 C 1.625 -4.140625 1.75 -4.109375 1.75 -3.78125 C 1.75 -3.625 1.71875 -3.484375 1.6875 -3.34375 Z M 2.8125 -3.5 C 3.09375 -3.84375 3.5625 -4.140625 4.046875 -4.140625 C 4.671875 -4.140625 4.71875 -3.609375 4.71875 -3.390625 C 4.71875 -2.875 4.375 -1.640625 4.21875 -1.25 C 3.90625 -0.53125 3.421875 -0.28125 3.015625 -0.28125 C 2.421875 -0.28125 2.1875 -0.75 2.1875 -0.859375 L 2.203125 -1 Z M 2.8125 -3.5 "
           id="path1541" />
      </symbol>
      <symbol
         overflow="visible"
         id="symbol1019">
        <path
           style="stroke:none;"
           d=""
           id="path2037" />
      </symbol>
      <symbol
         overflow="visible"
         id="symbol6815">
        <path
           style="stroke:none;"
           d="M 0.421875 -4.765625 L 0.421875 -4.515625 L 0.578125 -4.515625 C 1.125 -4.515625 1.140625 -4.4375 1.140625 -4.1875 L 1.140625 -0.5625 C 1.140625 -0.328125 1.125 -0.25 0.578125 -0.25 L 0.421875 -0.25 L 0.421875 0 L 3.375 0 C 4.359375 0 5.078125 -0.609375 5.078125 -1.28125 C 5.078125 -1.875 4.453125 -2.390625 3.609375 -2.484375 C 4.296875 -2.609375 4.859375 -3.03125 4.859375 -3.578125 C 4.859375 -4.203125 4.125 -4.765625 3.15625 -4.765625 Z M 1.75 -2.578125 L 1.75 -4.234375 C 1.75 -4.453125 1.75 -4.515625 2.078125 -4.515625 L 3.109375 -4.515625 C 3.8125 -4.515625 4.171875 -4.015625 4.171875 -3.578125 C 4.171875 -3.078125 3.703125 -2.578125 2.90625 -2.578125 Z M 2.078125 -0.25 C 1.75 -0.25 1.75 -0.3125 1.75 -0.515625 L 1.75 -2.375 L 3.234375 -2.375 C 3.96875 -2.375 4.359375 -1.78125 4.359375 -1.296875 C 4.359375 -0.78125 3.890625 -0.25 3.125 -0.25 Z M 2.078125 -0.25 "
           id="path9851" />
      </symbol>
    </g>
    <g
       id="g5511">
      <symbol
         overflow="visible"
         id="symbol3711">
        <path
           style="stroke:none;"
           d=""
           id="path6542" />
      </symbol>
      <symbol
         overflow="visible"
         id="symbol9980">
        <path
           style="stroke:none;"
           d="M 2.5 -6.921875 L 1.15625 -5.5625 L 1.328125 -5.390625 L 2.5 -6.40625 L 3.640625 -5.390625 L 3.8125 -5.5625 Z M 2.5 -6.921875 "
           id="path6672" />
      </symbol>
      <symbol
         overflow="visible"
         id="symbol316">
        <path
           style="stroke:none;"
           d=""
           id="path1688" />
      </symbol>
      <symbol
         overflow="visible"
         id="symbol4477">
        <path
           style="stroke:none;"
           d="M 0.515625 1.28125 C 0.484375 1.421875 0.46875 1.4375 0.453125 1.453125 C 0.40625 1.46875 0.296875 1.46875 0.203125 1.46875 C 0.03125 1.46875 -0.15625 1.46875 -0.15625 1.75 C -0.15625 1.859375 -0.0625 1.9375 0.046875 1.9375 C 0.328125 1.9375 0.65625 1.90625 0.953125 1.90625 C 1.3125 1.90625 1.6875 1.9375 2.03125 1.9375 C 2.09375 1.9375 2.28125 1.9375 2.28125 1.640625 C 2.28125 1.46875 2.125 1.46875 2.03125 1.46875 C 1.890625 1.46875 1.71875 1.46875 1.59375 1.453125 L 2.03125 -0.28125 C 2.171875 -0.140625 2.5 0.078125 3.03125 0.078125 C 4.765625 0.078125 5.84375 -1.5 5.84375 -2.859375 C 5.84375 -4.09375 4.921875 -4.5 4.09375 -4.5 C 3.390625 -4.5 2.875 -4.109375 2.71875 -3.96875 C 2.328125 -4.5 1.671875 -4.5 1.5625 -4.5 C 1.203125 -4.5 0.90625 -4.296875 0.703125 -3.9375 C 0.453125 -3.53125 0.3125 -3 0.3125 -2.953125 C 0.3125 -2.8125 0.46875 -2.8125 0.5625 -2.8125 C 0.671875 -2.8125 0.703125 -2.8125 0.75 -2.859375 C 0.78125 -2.875 0.78125 -2.90625 0.84375 -3.15625 C 1.03125 -3.953125 1.265625 -4.140625 1.515625 -4.140625 C 1.625 -4.140625 1.75 -4.109375 1.75 -3.78125 C 1.75 -3.625 1.71875 -3.484375 1.6875 -3.34375 Z M 2.8125 -3.5 C 3.09375 -3.84375 3.5625 -4.140625 4.046875 -4.140625 C 4.671875 -4.140625 4.71875 -3.609375 4.71875 -3.390625 C 4.71875 -2.875 4.375 -1.640625 4.21875 -1.25 C 3.90625 -0.53125 3.421875 -0.28125 3.015625 -0.28125 C 2.421875 -0.28125 2.1875 -0.75 2.1875 -0.859375 L 2.203125 -1 Z M 2.8125 -3.5 "
           id="path9205" />
      </symbol>
      <symbol
         overflow="visible"
         id="symbol3403">
        <path
           style="stroke:none;"
           d=""
           id="path2914" />
      </symbol>
      <symbol
         overflow="visible"
         id="symbol1210">
        <path
           style="stroke:none;"
           d="M 3.125 -4.8125 C 3.09375 -4.921875 3.0625 -4.96875 2.9375 -4.96875 C 2.796875 -4.96875 2.78125 -4.921875 2.734375 -4.8125 L 1.125 -0.734375 C 1.0625 -0.5625 0.9375 -0.25 0.3125 -0.25 L 0.3125 0 C 0.546875 -0.015625 0.796875 -0.03125 1.03125 -0.03125 C 1.3125 -0.03125 1.828125 0 1.875 0 L 1.875 -0.25 C 1.5625 -0.25 1.359375 -0.390625 1.359375 -0.578125 C 1.359375 -0.640625 1.375 -0.65625 1.40625 -0.71875 L 1.734375 -1.578125 L 3.71875 -1.578125 L 4.125 -0.5625 C 4.125 -0.53125 4.15625 -0.484375 4.15625 -0.453125 C 4.15625 -0.25 3.78125 -0.25 3.59375 -0.25 L 3.59375 0 C 3.9375 -0.015625 4.390625 -0.03125 4.625 -0.03125 C 4.953125 -0.03125 5.484375 0 5.546875 0 L 5.546875 -0.25 L 5.421875 -0.25 C 4.953125 -0.25 4.90625 -0.328125 4.828125 -0.515625 Z M 2.71875 -4.09375 L 3.609375 -1.828125 L 1.828125 -1.828125 Z M 2.71875 -4.09375 "
           id="path7322" />
      </symbol>
    </g>
    <g
       id="g8146">
      <symbol
         overflow="visible"
         id="symbol5077">
        <path
           style="stroke:none;"
           d=""
           id="path2321" />
      </symbol>
      <symbol
         overflow="visible"
         id="symbol7975">
        <path
           style="stroke:none;"
           d="M 5.140625 -6.8125 C 5.140625 -6.8125 5.140625 -6.921875 5.015625 -6.921875 C 4.859375 -6.921875 3.921875 -6.828125 3.75 -6.8125 C 3.671875 -6.796875 3.609375 -6.75 3.609375 -6.625 C 3.609375 -6.5 3.703125 -6.5 3.84375 -6.5 C 4.328125 -6.5 4.34375 -6.4375 4.34375 -6.328125 L 4.3125 -6.125 L 3.71875 -3.765625 C 3.53125 -4.140625 3.25 -4.40625 2.796875 -4.40625 C 1.640625 -4.40625 0.40625 -2.9375 0.40625 -1.484375 C 0.40625 -0.546875 0.953125 0.109375 1.71875 0.109375 C 1.921875 0.109375 2.421875 0.0625 3.015625 -0.640625 C 3.09375 -0.21875 3.453125 0.109375 3.921875 0.109375 C 4.28125 0.109375 4.5 -0.125 4.671875 -0.4375 C 4.828125 -0.796875 4.96875 -1.40625 4.96875 -1.421875 C 4.96875 -1.53125 4.875 -1.53125 4.84375 -1.53125 C 4.75 -1.53125 4.734375 -1.484375 4.703125 -1.34375 C 4.53125 -0.703125 4.359375 -0.109375 3.953125 -0.109375 C 3.671875 -0.109375 3.65625 -0.375 3.65625 -0.5625 C 3.65625 -0.8125 3.671875 -0.875 3.703125 -1.046875 Z M 3.078125 -1.1875 C 3.015625 -1 3.015625 -0.984375 2.875 -0.8125 C 2.4375 -0.265625 2.03125 -0.109375 1.75 -0.109375 C 1.25 -0.109375 1.109375 -0.65625 1.109375 -1.046875 C 1.109375 -1.546875 1.421875 -2.765625 1.65625 -3.234375 C 1.96875 -3.8125 2.40625 -4.1875 2.8125 -4.1875 C 3.453125 -4.1875 3.59375 -3.375 3.59375 -3.3125 C 3.59375 -3.25 3.578125 -3.1875 3.5625 -3.140625 Z M 3.078125 -1.1875 "
           id="path4662" />
      </symbol>
      <symbol
         overflow="visible"
         id="symbol795">
        <path
           style="stroke:none;"
           d=""
           id="path6472" />
      </symbol>
      <symbol
         overflow="visible"
         id="symbol8023">
        <path
           style="stroke:none;"
           d="M 3.296875 2.390625 C 3.296875 2.359375 3.296875 2.34375 3.125 2.171875 C 1.890625 0.921875 1.5625 -0.96875 1.5625 -2.5 C 1.5625 -4.234375 1.9375 -5.96875 3.171875 -7.203125 C 3.296875 -7.328125 3.296875 -7.34375 3.296875 -7.375 C 3.296875 -7.453125 3.265625 -7.484375 3.203125 -7.484375 C 3.09375 -7.484375 2.203125 -6.796875 1.609375 -5.53125 C 1.109375 -4.4375 0.984375 -3.328125 0.984375 -2.5 C 0.984375 -1.71875 1.09375 -0.515625 1.640625 0.625 C 2.25 1.84375 3.09375 2.5 3.203125 2.5 C 3.265625 2.5 3.296875 2.46875 3.296875 2.390625 Z M 3.296875 2.390625 "
           id="path5177" />
      </symbol>
      <symbol
         overflow="visible"
         id="symbol6028">
        <path
           style="stroke:none;"
           d="M 2.5 -6.921875 L 1.15625 -5.5625 L 1.328125 -5.390625 L 2.5 -6.40625 L 3.640625 -5.390625 L 3.8125 -5.5625 Z M 2.5 -6.921875 "
           id="path5637" />
      </symbol>
      <symbol
         overflow="visible"
         id="symbol9188">
        <path
           style="stroke:none;"
           d="M 2.875 -2.5 C 2.875 -3.265625 2.765625 -4.46875 2.21875 -5.609375 C 1.625 -6.828125 0.765625 -7.484375 0.671875 -7.484375 C 0.609375 -7.484375 0.5625 -7.4375 0.5625 -7.375 C 0.5625 -7.34375 0.5625 -7.328125 0.75 -7.140625 C 1.734375 -6.15625 2.296875 -4.578125 2.296875 -2.5 C 2.296875 -0.78125 1.9375 0.96875 0.703125 2.21875 C 0.5625 2.34375 0.5625 2.359375 0.5625 2.390625 C 0.5625 2.453125 0.609375 2.5 0.671875 2.5 C 0.765625 2.5 1.671875 1.8125 2.25 0.546875 C 2.765625 -0.546875 2.875 -1.65625 2.875 -2.5 Z M 2.875 -2.5 "
           id="path877" />
      </symbol>
      <symbol
         overflow="visible"
         id="symbol6462">
        <path
           style="stroke:none;"
           d=""
           id="path3280" />
      </symbol>
      <symbol
         overflow="visible"
         id="symbol3225">
        <path
           style="stroke:none;"
           d="M 0.515625 1.28125 C 0.484375 1.421875 0.46875 1.4375 0.453125 1.453125 C 0.40625 1.46875 0.296875 1.46875 0.203125 1.46875 C 0.03125 1.46875 -0.15625 1.46875 -0.15625 1.75 C -0.15625 1.859375 -0.0625 1.9375 0.046875 1.9375 C 0.328125 1.9375 0.65625 1.90625 0.953125 1.90625 C 1.3125 1.90625 1.6875 1.9375 2.03125 1.9375 C 2.09375 1.9375 2.28125 1.9375 2.28125 1.640625 C 2.28125 1.46875 2.125 1.46875 2.03125 1.46875 C 1.890625 1.46875 1.71875 1.46875 1.59375 1.453125 L 2.03125 -0.28125 C 2.171875 -0.140625 2.5 0.078125 3.03125 0.078125 C 4.765625 0.078125 5.84375 -1.5 5.84375 -2.859375 C 5.84375 -4.09375 4.921875 -4.5 4.09375 -4.5 C 3.390625 -4.5 2.875 -4.109375 2.71875 -3.96875 C 2.328125 -4.5 1.671875 -4.5 1.5625 -4.5 C 1.203125 -4.5 0.90625 -4.296875 0.703125 -3.9375 C 0.453125 -3.53125 0.3125 -3 0.3125 -2.953125 C 0.3125 -2.8125 0.46875 -2.8125 0.5625 -2.8125 C 0.671875 -2.8125 0.703125 -2.8125 0.75 -2.859375 C 0.78125 -2.875 0.78125 -2.90625 0.84375 -3.15625 C 1.03125 -3.953125 1.265625 -4.140625 1.515625 -4.140625 C 1.625 -4.140625 1.75 -4.109375 1.75 -3.78125 C 1.75 -3.625 1.71875 -3.484375 1.6875 -3.34375 Z M 2.8125 -3.5 C 3.09375 -3.84375 3.5625 -4.140625 4.046875 -4.140625 C 4.671875 -4.140625 4.71875 -3.609375 4.71875 -3.390625 C 4.71875 -2.875 4.375 -1.640625 4.21875 -1.25 C 3.90625 -0.53125 3.421875 -0.28125 3.015625 -0.28125 C 2.421875 -0.28125 2.1875 -0.75 2.1875 -0.859375 L 2.203125 -1 Z M 2.8125 -3.5 "
           id="path4810" />
      </symbol>
      <symbol
         overflow="visible"
         id="symbol673">
        <path
           style="stroke:none;"
           d=""
           id="path1681" />
      </symbol>
      <symbol
         overflow="visible"
         id="symbol9027">
        <path
           style="stroke:none;"
           d="M 3.125 -4.8125 C 3.09375 -4.921875 3.0625 -4.96875 2.9375 -4.96875 C 2.796875 -4.96875 2.78125 -4.921875 2.734375 -4.8125 L 1.125 -0.734375 C 1.0625 -0.5625 0.9375 -0.25 0.3125 -0.25 L 0.3125 0 C 0.546875 -0.015625 0.796875 -0.03125 1.03125 -0.03125 C 1.3125 -0.03125 1.828125 0 1.875 0 L 1.875 -0.25 C 1.5625 -0.25 1.359375 -0.390625 1.359375 -0.578125 C 1.359375 -0.640625 1.375 -0.65625 1.40625 -0.71875 L 1.734375 -1.578125 L 3.71875 -1.578125 L 4.125 -0.5625 C 4.125 -0.53125 4.15625 -0.484375 4.15625 -0.453125 C 4.15625 -0.25 3.78125 -0.25 3.59375 -0.25 L 3.59375 0 C 3.9375 -0.015625 4.390625 -0.03125 4.625 -0.03125 C 4.953125 -0.03125 5.484375 0 5.546875 0 L 5.546875 -0.25 L 5.421875 -0.25 C 4.953125 -0.25 4.90625 -0.328125 4.828125 -0.515625 Z M 2.71875 -4.09375 L 3.609375 -1.828125 L 1.828125 -1.828125 Z M 2.71875 -4.09375 "
           id="path7449" />
      </symbol>
    </g>
    <g
       id="g1832">
      <symbol
         overflow="visible"
         id="symbol9428">
        <path
           style="stroke:none;"
           d=""
           id="path8710" />
      </symbol>
      <symbol
         overflow="visible"
         id="symbol3494">
        <path
           style="stroke:none;"
           d="M 6.5625 -2.296875 C 6.734375 -2.296875 6.921875 -2.296875 6.921875 -2.5 C 6.921875 -2.6875 6.734375 -2.6875 6.5625 -2.6875 L 1.171875 -2.6875 C 1 -2.6875 0.828125 -2.6875 0.828125 -2.5 C 0.828125 -2.296875 1 -2.296875 1.171875 -2.296875 Z M 6.5625 -2.296875 "
           id="path1829" />
      </symbol>
      <symbol
         overflow="visible"
         id="symbol6976">
        <path
           style="stroke:none;"
           d=""
           id="path5004" />
      </symbol>
      <symbol
         overflow="visible"
         id="symbol61">
        <path
           style="stroke:none;"
           d="M 5.140625 -6.8125 C 5.140625 -6.8125 5.140625 -6.921875 5.015625 -6.921875 C 4.859375 -6.921875 3.921875 -6.828125 3.75 -6.8125 C 3.671875 -6.796875 3.609375 -6.75 3.609375 -6.625 C 3.609375 -6.5 3.703125 -6.5 3.84375 -6.5 C 4.328125 -6.5 4.34375 -6.4375 4.34375 -6.328125 L 4.3125 -6.125 L 3.71875 -3.765625 C 3.53125 -4.140625 3.25 -4.40625 2.796875 -4.40625 C 1.640625 -4.40625 0.40625 -2.9375 0.40625 -1.484375 C 0.40625 -0.546875 0.953125 0.109375 1.71875 0.109375 C 1.921875 0.109375 2.421875 0.0625 3.015625 -0.640625 C 3.09375 -0.21875 3.453125 0.109375 3.921875 0.109375 C 4.28125 0.109375 4.5 -0.125 4.671875 -0.4375 C 4.828125 -0.796875 4.96875 -1.40625 4.96875 -1.421875 C 4.96875 -1.53125 4.875 -1.53125 4.84375 -1.53125 C 4.75 -1.53125 4.734375 -1.484375 4.703125 -1.34375 C 4.53125 -0.703125 4.359375 -0.109375 3.953125 -0.109375 C 3.671875 -0.109375 3.65625 -0.375 3.65625 -0.5625 C 3.65625 -0.8125 3.671875 -0.875 3.703125 -1.046875 Z M 3.078125 -1.1875 C 3.015625 -1 3.015625 -0.984375 2.875 -0.8125 C 2.4375 -0.265625 2.03125 -0.109375 1.75 -0.109375 C 1.25 -0.109375 1.109375 -0.65625 1.109375 -1.046875 C 1.109375 -1.546875 1.421875 -2.765625 1.65625 -3.234375 C 1.96875 -3.8125 2.40625 -4.1875 2.8125 -4.1875 C 3.453125 -4.1875 3.59375 -3.375 3.59375 -3.3125 C 3.59375 -3.25 3.578125 -3.1875 3.5625 -3.140625 Z M 3.078125 -1.1875 "
           id="path651" />
      </symbol>
      <symbol
         overflow="visible"
         id="symbol5491">
        <path
           style="stroke:none;"
           d=""
           id="path9147" />
      </symbol>
      <symbol
         overflow="visible"
         id="symbol9687">
        <path
           style="stroke:none;"
           d="M 3.296875 2.390625 C 3.296875 2.359375 3.296875 2.34375 3.125 2.171875 C 1.890625 0.921875 1.5625 -0.96875 1.5625 -2.5 C 1.5625 -4.234375 1.9375 -5.96875 3.171875 -7.203125 C 3.296875 -7.328125 3.296875 -7.34375 3.296875 -7.375 C 3.296875 -7.453125 3.265625 -7.484375 3.203125 -7.484375 C 3.09375 -7.484375 2.203125 -6.796875 1.609375 -5.53125 C 1.109375 -4.4375 0.984375 -3.328125 0.984375 -2.5 C 0.984375 -1.71875 1.09375 -0.515625 1.640625 0.625 C 2.25 1.84375 3.09375 2.5 3.203125 2.5 C 3.265625 2.5 3.296875 2.46875 3.296875 2.390625 Z M 3.296875 2.390625 "
           id="path3839" />
      </symbol>
      <symbol
         overflow="visible"
         id="symbol3373">
        <path
           style="stroke:none;"
           d="M 2.5 -6.921875 L 1.15625 -5.5625 L 1.328125 -5.390625 L 2.5 -6.40625 L 3.640625 -5.390625 L 3.8125 -5.5625 Z M 2.5 -6.921875 "
           id="path8987" />
      </symbol>
      <symbol
         overflow="visible"
         id="symbol8260">
        <path
           style="stroke:none;"
           d="M 2.875 -2.5 C 2.875 -3.265625 2.765625 -4.46875 2.21875 -5.609375 C 1.625 -6.828125 0.765625 -7.484375 0.671875 -7.484375 C 0.609375 -7.484375 0.5625 -7.4375 0.5625 -7.375 C 0.5625 -7.34375 0.5625 -7.328125 0.75 -7.140625 C 1.734375 -6.15625 2.296875 -4.578125 2.296875 -2.5 C 2.296875 -0.78125 1.9375 0.96875 0.703125 2.21875 C 0.5625 2.34375 0.5625 2.359375 0.5625 2.390625 C 0.5625 2.453125 0.609375 2.5 0.671875 2.5 C 0.765625 2.5 1.671875 1.8125 2.25 0.546875 C 2.765625 -0.546875 2.875 -1.65625 2.875 -2.5 Z M 2.875 -2.5 "
           id="path9984" />
      </symbol>
      <symbol
         overflow="visible"
         id="symbol5254">
        <path
           style="stroke:none;"
           d=""
           id="path548" />
      </symbol>
      <symbol
         overflow="visible"
         id="symbol8436">
        <path
           style="stroke:none;"
           d="M 0.515625 1.28125 C 0.484375 1.421875 0.46875 1.4375 0.453125 1.453125 C 0.40625 1.46875 0.296875 1.46875 0.203125 1.46875 C 0.03125 1.46875 -0.15625 1.46875 -0.15625 1.75 C -0.15625 1.859375 -0.0625 1.9375 0.046875 1.9375 C 0.328125 1.9375 0.65625 1.90625 0.953125 1.90625 C 1.3125 1.90625 1.6875 1.9375 2.03125 1.9375 C 2.09375 1.9375 2.28125 1.9375 2.28125 1.640625 C 2.28125 1.46875 2.125 1.46875 2.03125 1.46875 C 1.890625 1.46875 1.71875 1.46875 1.59375 1.453125 L 2.03125 -0.28125 C 2.171875 -0.140625 2.5 0.078125 3.03125 0.078125 C 4.765625 0.078125 5.84375 -1.5 5.84375 -2.859375 C 5.84375 -4.09375 4.921875 -4.5 4.09375 -4.5 C 3.390625 -4.5 2.875 -4.109375 2.71875 -3.96875 C 2.328125 -4.5 1.671875 -4.5 1.5625 -4.5 C 1.203125 -4.5 0.90625 -4.296875 0.703125 -3.9375 C 0.453125 -3.53125 0.3125 -3 0.3125 -2.953125 C 0.3125 -2.8125 0.46875 -2.8125 0.5625 -2.8125 C 0.671875 -2.8125 0.703125 -2.8125 0.75 -2.859375 C 0.78125 -2.875 0.78125 -2.90625 0.84375 -3.15625 C 1.03125 -3.953125 1.265625 -4.140625 1.515625 -4.140625 C 1.625 -4.140625 1.75 -4.109375 1.75 -3.78125 C 1.75 -3.625 1.71875 -3.484375 1.6875 -3.34375 Z M 2.8125 -3.5 C 3.09375 -3.84375 3.5625 -4.140625 4.046875 -4.140625 C 4.671875 -4.140625 4.71875 -3.609375 4.71875 -3.390625 C 4.71875 -2.875 4.375 -1.640625 4.21875 -1.25 C 3.90625 -0.53125 3.421875 -0.28125 3.015625 -0.28125 C 2.421875 -0.28125 2.1875 -0.75 2.1875 -0.859375 L 2.203125 -1 Z M 2.8125 -3.5 "
           id="path443" />
      </symbol>
      <symbol
         overflow="visible"
         id="symbol3887">
        <path
           style="stroke:none;"
           d=""
           id="path3113" />
      </symbol>
      <symbol
         overflow="visible"
         id="symbol1997">
        <path
           style="stroke:none;"
           d="M 0.421875 -4.765625 L 0.421875 -4.515625 L 0.578125 -4.515625 C 1.125 -4.515625 1.140625 -4.4375 1.140625 -4.1875 L 1.140625 -0.5625 C 1.140625 -0.328125 1.125 -0.25 0.578125 -0.25 L 0.421875 -0.25 L 0.421875 0 L 3.375 0 C 4.359375 0 5.078125 -0.609375 5.078125 -1.28125 C 5.078125 -1.875 4.453125 -2.390625 3.609375 -2.484375 C 4.296875 -2.609375 4.859375 -3.03125 4.859375 -3.578125 C 4.859375 -4.203125 4.125 -4.765625 3.15625 -4.765625 Z M 1.75 -2.578125 L 1.75 -4.234375 C 1.75 -4.453125 1.75 -4.515625 2.078125 -4.515625 L 3.109375 -4.515625 C 3.8125 -4.515625 4.171875 -4.015625 4.171875 -3.578125 C 4.171875 -3.078125 3.703125 -2.578125 2.90625 -2.578125 Z M 2.078125 -0.25 C 1.75 -0.25 1.75 -0.3125 1.75 -0.515625 L 1.75 -2.375 L 3.234375 -2.375 C 3.96875 -2.375 4.359375 -1.78125 4.359375 -1.296875 C 4.359375 -0.78125 3.890625 -0.25 3.125 -0.25 Z M 2.078125 -0.25 "
           id="path3505" />
      </symbol>
    </g>
    <g
       id="g6276">
      <symbol
         overflow="visible"
         id="symbol6524">
        <path
           style="stroke:none;"
           d=""
           id="path3021" />
      </symbol>
      <symbol
         overflow="visible"
         id="symbol300">
        <path
           style="stroke:none;"
           d="M 2.5 -6.921875 L 1.15625 -5.5625 L 1.328125 -5.390625 L 2.5 -6.40625 L 3.640625 -5.390625 L 3.8125 -5.5625 Z M 2.5 -6.921875 "
           id="path7213" />
      </symbol>
      <symbol
         overflow="visible"
         id="symbol6421">
        <path
           style="stroke:none;"
           d=""
           id="path9268" />
      </symbol>
      <symbol
         overflow="visible"
         id="symbol1687">
        <path
           style="stroke:none;"
           d="M 2.640625 -3.71875 L 3.765625 -3.71875 C 3.4375 -2.25 3.34375 -1.8125 3.34375 -1.140625 C 3.34375 -1 3.34375 -0.734375 3.421875 -0.390625 C 3.53125 0.046875 3.640625 0.109375 3.78125 0.109375 C 3.984375 0.109375 4.203125 -0.0625 4.203125 -0.265625 C 4.203125 -0.328125 4.203125 -0.34375 4.140625 -0.484375 C 3.84375 -1.203125 3.84375 -1.859375 3.84375 -2.140625 C 3.84375 -2.65625 3.921875 -3.203125 4.03125 -3.71875 L 5.15625 -3.71875 C 5.296875 -3.71875 5.65625 -3.71875 5.65625 -4.0625 C 5.65625 -4.296875 5.4375 -4.296875 5.25 -4.296875 L 1.90625 -4.296875 C 1.6875 -4.296875 1.3125 -4.296875 0.875 -3.828125 C 0.53125 -3.4375 0.265625 -2.984375 0.265625 -2.9375 C 0.265625 -2.921875 0.265625 -2.828125 0.390625 -2.828125 C 0.46875 -2.828125 0.484375 -2.875 0.546875 -2.953125 C 1.03125 -3.71875 1.609375 -3.71875 1.8125 -3.71875 L 2.375 -3.71875 C 2.0625 -2.515625 1.53125 -1.3125 1.109375 -0.40625 C 1.03125 -0.25 1.03125 -0.234375 1.03125 -0.15625 C 1.03125 0.03125 1.1875 0.109375 1.3125 0.109375 C 1.609375 0.109375 1.6875 -0.171875 1.8125 -0.53125 C 1.953125 -1 1.953125 -1.015625 2.078125 -1.515625 Z M 2.640625 -3.71875 "
           id="path5857" />
      </symbol>
    </g>
    <g
       id="g8212">
      <symbol
         overflow="visible"
         id="symbol2775">
        <path
           style="stroke:none;"
           d=""
           id="path2527" />
      </symbol>
      <symbol
         overflow="visible"
         id="symbol7230">
        <path
           style="stroke:none;"
           d="M 2.5 -6.921875 L 1.15625 -5.5625 L 1.328125 -5.390625 L 2.5 -6.40625 L 3.640625 -5.390625 L 3.8125 -5.5625 Z M 2.5 -6.921875 "
           id="path1205" />
      </symbol>
      <symbol
         overflow="visible"
         id="symbol6088">
        <path
           style="stroke:none;"
           d="M 3.296875 2.390625 C 3.296875 2.359375 3.296875 2.34375 3.125 2.171875 C 1.890625 0.921875 1.5625 -0.96875 1.5625 -2.5 C 1.5625 -4.234375 1.9375 -5.96875 3.171875 -7.203125 C 3.296875 -7.328125 3.296875 -7.34375 3.296875 -7.375 C 3.296875 -7.453125 3.265625 -7.484375 3.203125 -7.484375 C 3.09375 -7.484375 2.203125 -6.796875 1.609375 -5.53125 C 1.109375 -4.4375 0.984375 -3.328125 0.984375 -2.5 C 0.984375 -1.71875 1.09375 -0.515625 1.640625 0.625 C 2.25 1.84375 3.09375 2.5 3.203125 2.5 C 3.265625 2.5 3.296875 2.46875 3.296875 2.390625 Z M 3.296875 2.390625 "
           id="path8365" />
      </symbol>
      <symbol
         overflow="visible"
         id="symbol62">
        <path
           style="stroke:none;"
           d="M 2.875 -2.5 C 2.875 -3.265625 2.765625 -4.46875 2.21875 -5.609375 C 1.625 -6.828125 0.765625 -7.484375 0.671875 -7.484375 C 0.609375 -7.484375 0.5625 -7.4375 0.5625 -7.375 C 0.5625 -7.34375 0.5625 -7.328125 0.75 -7.140625 C 1.734375 -6.15625 2.296875 -4.578125 2.296875 -2.5 C 2.296875 -0.78125 1.9375 0.96875 0.703125 2.21875 C 0.5625 2.34375 0.5625 2.359375 0.5625 2.390625 C 0.5625 2.453125 0.609375 2.5 0.671875 2.5 C 0.765625 2.5 1.671875 1.8125 2.25 0.546875 C 2.765625 -0.546875 2.875 -1.65625 2.875 -2.5 Z M 2.875 -2.5 "
           id="path6282" />
      </symbol>
      <symbol
         overflow="visible"
         id="symbol3204">
        <path
           style="stroke:none;"
           d=""
           id="path1797" />
      </symbol>
      <symbol
         overflow="visible"
         id="symbol3990">
        <path
           style="stroke:none;"
           d="M 5.140625 -6.8125 C 5.140625 -6.8125 5.140625 -6.921875 5.015625 -6.921875 C 4.859375 -6.921875 3.921875 -6.828125 3.75 -6.8125 C 3.671875 -6.796875 3.609375 -6.75 3.609375 -6.625 C 3.609375 -6.5 3.703125 -6.5 3.84375 -6.5 C 4.328125 -6.5 4.34375 -6.4375 4.34375 -6.328125 L 4.3125 -6.125 L 3.71875 -3.765625 C 3.53125 -4.140625 3.25 -4.40625 2.796875 -4.40625 C 1.640625 -4.40625 0.40625 -2.9375 0.40625 -1.484375 C 0.40625 -0.546875 0.953125 0.109375 1.71875 0.109375 C 1.921875 0.109375 2.421875 0.0625 3.015625 -0.640625 C 3.09375 -0.21875 3.453125 0.109375 3.921875 0.109375 C 4.28125 0.109375 4.5 -0.125 4.671875 -0.4375 C 4.828125 -0.796875 4.96875 -1.40625 4.96875 -1.421875 C 4.96875 -1.53125 4.875 -1.53125 4.84375 -1.53125 C 4.75 -1.53125 4.734375 -1.484375 4.703125 -1.34375 C 4.53125 -0.703125 4.359375 -0.109375 3.953125 -0.109375 C 3.671875 -0.109375 3.65625 -0.375 3.65625 -0.5625 C 3.65625 -0.8125 3.671875 -0.875 3.703125 -1.046875 Z M 3.078125 -1.1875 C 3.015625 -1 3.015625 -0.984375 2.875 -0.8125 C 2.4375 -0.265625 2.03125 -0.109375 1.75 -0.109375 C 1.25 -0.109375 1.109375 -0.65625 1.109375 -1.046875 C 1.109375 -1.546875 1.421875 -2.765625 1.65625 -3.234375 C 1.96875 -3.8125 2.40625 -4.1875 2.8125 -4.1875 C 3.453125 -4.1875 3.59375 -3.375 3.59375 -3.3125 C 3.59375 -3.25 3.578125 -3.1875 3.5625 -3.140625 Z M 3.078125 -1.1875 "
           id="path8687" />
      </symbol>
      <symbol
         overflow="visible"
         id="symbol506">
        <path
           style="stroke:none;"
           d=""
           id="path3238" />
      </symbol>
      <symbol
         overflow="visible"
         id="symbol8617">
        <path
           style="stroke:none;"
           d="M 0.515625 1.28125 C 0.484375 1.421875 0.46875 1.4375 0.453125 1.453125 C 0.40625 1.46875 0.296875 1.46875 0.203125 1.46875 C 0.03125 1.46875 -0.15625 1.46875 -0.15625 1.75 C -0.15625 1.859375 -0.0625 1.9375 0.046875 1.9375 C 0.328125 1.9375 0.65625 1.90625 0.953125 1.90625 C 1.3125 1.90625 1.6875 1.9375 2.03125 1.9375 C 2.09375 1.9375 2.28125 1.9375 2.28125 1.640625 C 2.28125 1.46875 2.125 1.46875 2.03125 1.46875 C 1.890625 1.46875 1.71875 1.46875 1.59375 1.453125 L 2.03125 -0.28125 C 2.171875 -0.140625 2.5 0.078125 3.03125 0.078125 C 4.765625 0.078125 5.84375 -1.5 5.84375 -2.859375 C 5.84375 -4.09375 4.921875 -4.5 4.09375 -4.5 C 3.390625 -4.5 2.875 -4.109375 2.71875 -3.96875 C 2.328125 -4.5 1.671875 -4.5 1.5625 -4.5 C 1.203125 -4.5 0.90625 -4.296875 0.703125 -3.9375 C 0.453125 -3.53125 0.3125 -3 0.3125 -2.953125 C 0.3125 -2.8125 0.46875 -2.8125 0.5625 -2.8125 C 0.671875 -2.8125 0.703125 -2.8125 0.75 -2.859375 C 0.78125 -2.875 0.78125 -2.90625 0.84375 -3.15625 C 1.03125 -3.953125 1.265625 -4.140625 1.515625 -4.140625 C 1.625 -4.140625 1.75 -4.109375 1.75 -3.78125 C 1.75 -3.625 1.71875 -3.484375 1.6875 -3.34375 Z M 2.8125 -3.5 C 3.09375 -3.84375 3.5625 -4.140625 4.046875 -4.140625 C 4.671875 -4.140625 4.71875 -3.609375 4.71875 -3.390625 C 4.71875 -2.875 4.375 -1.640625 4.21875 -1.25 C 3.90625 -0.53125 3.421875 -0.28125 3.015625 -0.28125 C 2.421875 -0.28125 2.1875 -0.75 2.1875 -0.859375 L 2.203125 -1 Z M 2.8125 -3.5 "
           id="path8131" />
      </symbol>
      <symbol
         overflow="visible"
         id="symbol4174">
        <path
           style="stroke:none;"
           d=""
           id="path5609" />
      </symbol>
      <symbol
         overflow="visible"
         id="symbol8358">
        <path
           style="stroke:none;"
           d="M 3.125 -4.8125 C 3.09375 -4.921875 3.0625 -4.96875 2.9375 -4.96875 C 2.796875 -4.96875 2.78125 -4.921875 2.734375 -4.8125 L 1.125 -0.734375 C 1.0625 -0.5625 0.9375 -0.25 0.3125 -0.25 L 0.3125 0 C 0.546875 -0.015625 0.796875 -0.03125 1.03125 -0.03125 C 1.3125 -0.03125 1.828125 0 1.875 0 L 1.875 -0.25 C 1.5625 -0.25 1.359375 -0.390625 1.359375 -0.578125 C 1.359375 -0.640625 1.375 -0.65625 1.40625 -0.71875 L 1.734375 -1.578125 L 3.71875 -1.578125 L 4.125 -0.5625 C 4.125 -0.53125 4.15625 -0.484375 4.15625 -0.453125 C 4.15625 -0.25 3.78125 -0.25 3.59375 -0.25 L 3.59375 0 C 3.9375 -0.015625 4.390625 -0.03125 4.625 -0.03125 C 4.953125 -0.03125 5.484375 0 5.546875 0 L 5.546875 -0.25 L 5.421875 -0.25 C 4.953125 -0.25 4.90625 -0.328125 4.828125 -0.515625 Z M 2.71875 -4.09375 L 3.609375 -1.828125 L 1.828125 -1.828125 Z M 2.71875 -4.09375 "
           id="path4774" />
      </symbol>
    </g>
    <g
       id="g3608">
      <symbol
         overflow="visible"
         id="symbol9770">
        <path
           style="stroke:none;"
           d=""
           id="path5140" />
      </symbol>
      <symbol
         overflow="visible"
         id="symbol1023">
        <path
           style="stroke:none;"
           d="M 6.5625 -2.296875 C 6.734375 -2.296875 6.921875 -2.296875 6.921875 -2.5 C 6.921875 -2.6875 6.734375 -2.6875 6.5625 -2.6875 L 1.171875 -2.6875 C 1 -2.6875 0.828125 -2.6875 0.828125 -2.5 C 0.828125 -2.296875 1 -2.296875 1.171875 -2.296875 Z M 6.5625 -2.296875 "
           id="path9115" />
      </symbol>
      <symbol
         overflow="visible"
         id="symbol3554">
        <path
           style="stroke:none;"
           d=""
           id="path7803" />
      </symbol>
      <symbol
         overflow="visible"
         id="symbol5564">
        <path
           style="stroke:none;"
           d="M 2.5 -6.921875 L 1.15625 -5.5625 L 1.328125 -5.390625 L 2.5 -6.40625 L 3.640625 -5.390625 L 3.8125 -5.5625 Z M 2.5 -6.921875 "
           id="path1141" />
      </symbol>
      <symbol
         overflow="visible"
         id="symbol203">
        <path
           style="stroke:none;"
           d="M 3.296875 2.390625 C 3.296875 2.359375 3.296875 2.34375 3.125 2.171875 C 1.890625 0.921875 1.5625 -0.96875 1.5625 -2.5 C 1.5625 -4.234375 1.9375 -5.96875 3.171875 -7.203125 C 3.296875 -7.328125 3.296875 -7.34375 3.296875 -7.375 C 3.296875 -7.453125 3.265625 -7.484375 3.203125 -7.484375 C 3.09375 -7.484375 2.203125 -6.796875 1.609375 -5.53125 C 1.109375 -4.4375 0.984375 -3.328125 0.984375 -2.5 C 0.984375 -1.71875 1.09375 -0.515625 1.640625 0.625 C 2.25 1.84375 3.09375 2.5 3.203125 2.5 C 3.265625 2.5 3.296875 2.46875 3.296875 2.390625 Z M 3.296875 2.390625 "
           id="path3103" />
      </symbol>
      <symbol
         overflow="visible"
         id="symbol6768">
        <path
           style="stroke:none;"
           d="M 2.875 -2.5 C 2.875 -3.265625 2.765625 -4.46875 2.21875 -5.609375 C 1.625 -6.828125 0.765625 -7.484375 0.671875 -7.484375 C 0.609375 -7.484375 0.5625 -7.4375 0.5625 -7.375 C 0.5625 -7.34375 0.5625 -7.328125 0.75 -7.140625 C 1.734375 -6.15625 2.296875 -4.578125 2.296875 -2.5 C 2.296875 -0.78125 1.9375 0.96875 0.703125 2.21875 C 0.5625 2.34375 0.5625 2.359375 0.5625 2.390625 C 0.5625 2.453125 0.609375 2.5 0.671875 2.5 C 0.765625 2.5 1.671875 1.8125 2.25 0.546875 C 2.765625 -0.546875 2.875 -1.65625 2.875 -2.5 Z M 2.875 -2.5 "
           id="path6223" />
      </symbol>
      <symbol
         overflow="visible"
         id="symbol3949">
        <path
           style="stroke:none;"
           d=""
           id="path383" />
      </symbol>
      <symbol
         overflow="visible"
         id="symbol9064">
        <path
           style="stroke:none;"
           d="M 5.140625 -6.8125 C 5.140625 -6.8125 5.140625 -6.921875 5.015625 -6.921875 C 4.859375 -6.921875 3.921875 -6.828125 3.75 -6.8125 C 3.671875 -6.796875 3.609375 -6.75 3.609375 -6.625 C 3.609375 -6.5 3.703125 -6.5 3.84375 -6.5 C 4.328125 -6.5 4.34375 -6.4375 4.34375 -6.328125 L 4.3125 -6.125 L 3.71875 -3.765625 C 3.53125 -4.140625 3.25 -4.40625 2.796875 -4.40625 C 1.640625 -4.40625 0.40625 -2.9375 0.40625 -1.484375 C 0.40625 -0.546875 0.953125 0.109375 1.71875 0.109375 C 1.921875 0.109375 2.421875 0.0625 3.015625 -0.640625 C 3.09375 -0.21875 3.453125 0.109375 3.921875 0.109375 C 4.28125 0.109375 4.5 -0.125 4.671875 -0.4375 C 4.828125 -0.796875 4.96875 -1.40625 4.96875 -1.421875 C 4.96875 -1.53125 4.875 -1.53125 4.84375 -1.53125 C 4.75 -1.53125 4.734375 -1.484375 4.703125 -1.34375 C 4.53125 -0.703125 4.359375 -0.109375 3.953125 -0.109375 C 3.671875 -0.109375 3.65625 -0.375 3.65625 -0.5625 C 3.65625 -0.8125 3.671875 -0.875 3.703125 -1.046875 Z M 3.078125 -1.1875 C 3.015625 -1 3.015625 -0.984375 2.875 -0.8125 C 2.4375 -0.265625 2.03125 -0.109375 1.75 -0.109375 C 1.25 -0.109375 1.109375 -0.65625 1.109375 -1.046875 C 1.109375 -1.546875 1.421875 -2.765625 1.65625 -3.234375 C 1.96875 -3.8125 2.40625 -4.1875 2.8125 -4.1875 C 3.453125 -4.1875 3.59375 -3.375 3.59375 -3.3125 C 3.59375 -3.25 3.578125 -3.1875 3.5625 -3.140625 Z M 3.078125 -1.1875 "
           id="path5275" />
      </symbol>
      <symbol
         overflow="visible"
         id="symbol9074">
        <path
           style="stroke:none;"
           d=""
           id="path8783" />
      </symbol>
      <symbol
         overflow="visible"
         id="symbol8337">
        <path
           style="stroke:none;"
           d="M 0.515625 1.28125 C 0.484375 1.421875 0.46875 1.4375 0.453125 1.453125 C 0.40625 1.46875 0.296875 1.46875 0.203125 1.46875 C 0.03125 1.46875 -0.15625 1.46875 -0.15625 1.75 C -0.15625 1.859375 -0.0625 1.9375 0.046875 1.9375 C 0.328125 1.9375 0.65625 1.90625 0.953125 1.90625 C 1.3125 1.90625 1.6875 1.9375 2.03125 1.9375 C 2.09375 1.9375 2.28125 1.9375 2.28125 1.640625 C 2.28125 1.46875 2.125 1.46875 2.03125 1.46875 C 1.890625 1.46875 1.71875 1.46875 1.59375 1.453125 L 2.03125 -0.28125 C 2.171875 -0.140625 2.5 0.078125 3.03125 0.078125 C 4.765625 0.078125 5.84375 -1.5 5.84375 -2.859375 C 5.84375 -4.09375 4.921875 -4.5 4.09375 -4.5 C 3.390625 -4.5 2.875 -4.109375 2.71875 -3.96875 C 2.328125 -4.5 1.671875 -4.5 1.5625 -4.5 C 1.203125 -4.5 0.90625 -4.296875 0.703125 -3.9375 C 0.453125 -3.53125 0.3125 -3 0.3125 -2.953125 C 0.3125 -2.8125 0.46875 -2.8125 0.5625 -2.8125 C 0.671875 -2.8125 0.703125 -2.8125 0.75 -2.859375 C 0.78125 -2.875 0.78125 -2.90625 0.84375 -3.15625 C 1.03125 -3.953125 1.265625 -4.140625 1.515625 -4.140625 C 1.625 -4.140625 1.75 -4.109375 1.75 -3.78125 C 1.75 -3.625 1.71875 -3.484375 1.6875 -3.34375 Z M 2.8125 -3.5 C 3.09375 -3.84375 3.5625 -4.140625 4.046875 -4.140625 C 4.671875 -4.140625 4.71875 -3.609375 4.71875 -3.390625 C 4.71875 -2.875 4.375 -1.640625 4.21875 -1.25 C 3.90625 -0.53125 3.421875 -0.28125 3.015625 -0.28125 C 2.421875 -0.28125 2.1875 -0.75 2.1875 -0.859375 L 2.203125 -1 Z M 2.8125 -3.5 "
           id="path9830" />
      </symbol>
      <symbol
         overflow="visible"
         id="symbol400">
        <path
           style="stroke:none;"
           d=""
           id="path7315" />
      </symbol>
      <symbol
         overflow="visible"
         id="symbol4046">
        <path
           style="stroke:none;"
           d="M 0.421875 -4.765625 L 0.421875 -4.515625 L 0.578125 -4.515625 C 1.125 -4.515625 1.140625 -4.4375 1.140625 -4.1875 L 1.140625 -0.5625 C 1.140625 -0.328125 1.125 -0.25 0.578125 -0.25 L 0.421875 -0.25 L 0.421875 0 L 3.375 0 C 4.359375 0 5.078125 -0.609375 5.078125 -1.28125 C 5.078125 -1.875 4.453125 -2.390625 3.609375 -2.484375 C 4.296875 -2.609375 4.859375 -3.03125 4.859375 -3.578125 C 4.859375 -4.203125 4.125 -4.765625 3.15625 -4.765625 Z M 1.75 -2.578125 L 1.75 -4.234375 C 1.75 -4.453125 1.75 -4.515625 2.078125 -4.515625 L 3.109375 -4.515625 C 3.8125 -4.515625 4.171875 -4.015625 4.171875 -3.578125 C 4.171875 -3.078125 3.703125 -2.578125 2.90625 -2.578125 Z M 2.078125 -0.25 C 1.75 -0.25 1.75 -0.3125 1.75 -0.515625 L 1.75 -2.375 L 3.234375 -2.375 C 3.96875 -2.375 4.359375 -1.78125 4.359375 -1.296875 C 4.359375 -0.78125 3.890625 -0.25 3.125 -0.25 Z M 2.078125 -0.25 "
           id="path4298" />
      </symbol>
    </g>
  </defs>
  <g
     inkscape:label="Layer 1"
     inkscape:groupmode="layer"
     id="layer1">
    <circle
       style="fill:#ff0000;fill-opacity:1;fill-rule:evenodd;stroke:#000000;stroke-width:0.264583;stroke-linecap:square;stroke-linejoin:round;stroke-miterlimit:4;stroke-dasharray:none;stroke-dashoffset:0"
       id="path848"
       cx="25"
       cy="125"
       r="2" />
    <circle
       style="fill:#ff0000;fill-opacity:1;fill-rule:evenodd;stroke:#000000;stroke-width:0.264583;stroke-linecap:square;stroke-linejoin:round;stroke-miterlimit:4;stroke-dasharray:none;stroke-dashoffset:0"
       id="path848-1"
       cx="35"
       cy="135"
       r="2" />
    <circle
       style="fill:#ff0000;fill-opacity:1;fill-rule:evenodd;stroke:#000000;stroke-width:0.264583;stroke-linecap:square;stroke-linejoin:round;stroke-miterlimit:4;stroke-dasharray:none;stroke-dashoffset:0"
       id="path848-5"
       cx="45"
       cy="120"
       r="2" />
    <circle
       style="fill:#ff0000;fill-opacity:1;fill-rule:evenodd;stroke:#000000;stroke-width:0.264583;stroke-linecap:square;stroke-linejoin:round;stroke-miterlimit:4;stroke-dasharray:none;stroke-dashoffset:0"
       id="path848-4"
       cx="30"
       cy="105"
       r="2" />
    <circle
       style="fill:#ff0000;fill-opacity:1;fill-rule:evenodd;stroke:#000000;stroke-width:0.264583;stroke-linecap:square;stroke-linejoin:round;stroke-miterlimit:4;stroke-dasharray:none;stroke-dashoffset:0"
       id="path848-15"
       cx="50"
       cy="110"
       r="2" />
    <circle
       style="fill:#ff0000;fill-opacity:1;fill-rule:evenodd;stroke:#000000;stroke-width:0.264583;stroke-linecap:square;stroke-linejoin:round;stroke-miterlimit:4;stroke-dasharray:none;stroke-dashoffset:0"
       id="path848-54"
       cx="70"
       cy="120"
       r="2" />
    <circle
       style="fill:#ff0000;fill-opacity:1;fill-rule:evenodd;stroke:#000000;stroke-width:0.264583;stroke-linecap:square;stroke-linejoin:round;stroke-miterlimit:4;stroke-dasharray:none;stroke-dashoffset:0"
       id="path848-9"
       cx="85"
       cy="105"
       r="2" />
    <circle
       style="fill:#ff0000;fill-opacity:1;fill-rule:evenodd;stroke:#000000;stroke-width:0.264583;stroke-linecap:square;stroke-linejoin:round;stroke-miterlimit:4;stroke-dasharray:none;stroke-dashoffset:0"
       id="path848-8"
       cx="80"
       cy="90"
       r="2" />
    <circle
       style="fill:#ff0000;fill-opacity:1;fill-rule:evenodd;stroke:#000000;stroke-width:0.264583;stroke-linecap:square;stroke-linejoin:round;stroke-miterlimit:4;stroke-dasharray:none;stroke-dashoffset:0"
       id="path848-3"
       cx="50"
       cy="85"
       r="2" />
    <circle
       style="fill:#ff0000;fill-opacity:1;fill-rule:evenodd;stroke:#000000;stroke-width:0.264583;stroke-linecap:square;stroke-linejoin:round;stroke-miterlimit:4;stroke-dasharray:none;stroke-dashoffset:0"
       id="path848-85"
       cx="95"
       cy="65"
       r="2" />
    <circle
       style="fill:#ff0000;fill-opacity:1;fill-rule:evenodd;stroke:#000000;stroke-width:0.264583;stroke-linecap:square;stroke-linejoin:round;stroke-miterlimit:4;stroke-dasharray:none;stroke-dashoffset:0"
       id="path848-2"
       cx="105"
       cy="85"
       r="2" />
    <circle
       style="fill:#ff0000;fill-opacity:1;fill-rule:evenodd;stroke:#000000;stroke-width:0.264583;stroke-linecap:square;stroke-linejoin:round;stroke-miterlimit:4;stroke-dasharray:none;stroke-dashoffset:0"
       id="path848-22"
       cx="104.32008"
       cy="106.27061"
       r="2" />
    <circle
       style="fill:#ff0000;fill-opacity:1;fill-rule:evenodd;stroke:#000000;stroke-width:0.264583;stroke-linecap:square;stroke-linejoin:round;stroke-miterlimit:4;stroke-dasharray:none;stroke-dashoffset:0"
       id="path848-7"
       cx="60"
       cy="95"
       r="2" />
    <circle
       style="fill:#ff0000;fill-opacity:1;fill-rule:evenodd;stroke:#000000;stroke-width:0.264583;stroke-linecap:square;stroke-linejoin:round;stroke-miterlimit:4;stroke-dasharray:none;stroke-dashoffset:0"
       id="path848-0"
       cx="75"
       cy="70"
       r="2" />
    <circle
       style="fill:#ff0000;fill-opacity:1;fill-rule:evenodd;stroke:#000000;stroke-width:0.264583;stroke-linecap:square;stroke-linejoin:round;stroke-miterlimit:4;stroke-dasharray:none;stroke-dashoffset:0"
       id="path848-34"
       cx="55"
       cy="135"
       r="2" />
    <circle
       style="fill:#ff0000;fill-opacity:1;fill-rule:evenodd;stroke:#000000;stroke-width:0.264583;stroke-linecap:square;stroke-linejoin:round;stroke-miterlimit:4;stroke-dasharray:none;stroke-dashoffset:0"
       id="path848-6"
       cx="85"
       cy="125"
       r="2" />
    <circle
       style="fill:#ff0000;fill-opacity:1;fill-rule:evenodd;stroke:#000000;stroke-width:0.264583;stroke-linecap:square;stroke-linejoin:round;stroke-miterlimit:4;stroke-dasharray:none;stroke-dashoffset:0"
       id="path848-6-0"
       cx="106.73152"
       cy="120.20003"
       r="2" />
    <circle
       style="fill:#ff0000;fill-opacity:1;fill-rule:evenodd;stroke:#000000;stroke-width:0.264583;stroke-linecap:square;stroke-linejoin:round;stroke-miterlimit:4;stroke-dasharray:none;stroke-dashoffset:0"
       id="path848-6-0-0"
       cx="104.44442"
       cy="136.718"
       r="2" />
    <circle
       style="fill:#ff0000;fill-opacity:1;fill-rule:evenodd;stroke:#000000;stroke-width:0.264583;stroke-linecap:square;stroke-linejoin:round;stroke-miterlimit:4;stroke-dasharray:none;stroke-dashoffset:0"
       id="path848-6-0-4"
       cx="60.735321"
       cy="158.0643"
       r="2" />
    <circle
       style="fill:#ff0000;fill-opacity:1;fill-rule:evenodd;stroke:#000000;stroke-width:0.264583;stroke-linecap:square;stroke-linejoin:round;stroke-miterlimit:4;stroke-dasharray:none;stroke-dashoffset:0"
       id="path848-6-06"
       cx="72.170837"
       cy="143.57932"
       r="2" />
    <circle
       style="fill:#ff0000;fill-opacity:1;fill-rule:evenodd;stroke:#000000;stroke-width:0.264583;stroke-linecap:square;stroke-linejoin:round;stroke-miterlimit:4;stroke-dasharray:none;stroke-dashoffset:0"
       id="path848-6-2"
       cx="43.709103"
       cy="147.13702"
       r="2" />
    <circle
       style="fill:#ff0000;fill-opacity:1;fill-rule:evenodd;stroke:#000000;stroke-width:0.264583;stroke-linecap:square;stroke-linejoin:round;stroke-miterlimit:4;stroke-dasharray:none;stroke-dashoffset:0"
       id="path848-6-02"
       cx="88.434692"
       cy="135.19327"
       r="2" />
    <circle
       style="fill:#0000ff;fill-opacity:1;fill-rule:evenodd;stroke:#000000;stroke-width:0.264583;stroke-linecap:square;stroke-linejoin:round;stroke-miterlimit:4;stroke-dasharray:none;stroke-dashoffset:0"
       id="path848-36"
       cx="142.19246"
       cy="118.43996"
       r="2"
       transform="rotate(26.543113)" />
    <circle
       style="fill:#0000ff;fill-opacity:1;fill-rule:evenodd;stroke:#000000;stroke-width:0.264583;stroke-linecap:square;stroke-linejoin:round;stroke-miterlimit:4;stroke-dasharray:none;stroke-dashoffset:0"
       id="path848-1-3"
       cx="152.19246"
       cy="128.43996"
       r="2"
       transform="rotate(26.543113)" />
    <circle
       style="fill:#0000ff;fill-opacity:1;fill-rule:evenodd;stroke:#000000;stroke-width:0.264583;stroke-linecap:square;stroke-linejoin:round;stroke-miterlimit:4;stroke-dasharray:none;stroke-dashoffset:0"
       id="path848-5-3"
       cx="162.19246"
       cy="113.43996"
       r="2"
       transform="rotate(26.543113)" />
    <circle
       style="fill:#0000ff;fill-opacity:1;fill-rule:evenodd;stroke:#000000;stroke-width:0.264583;stroke-linecap:square;stroke-linejoin:round;stroke-miterlimit:4;stroke-dasharray:none;stroke-dashoffset:0"
       id="path848-4-4"
       cx="146.01105"
       cy="93.706528"
       r="2"
       transform="rotate(26.543113)" />
    <circle
       style="fill:#0000ff;fill-opacity:1;fill-rule:evenodd;stroke:#000000;stroke-width:0.264583;stroke-linecap:square;stroke-linejoin:round;stroke-miterlimit:4;stroke-dasharray:none;stroke-dashoffset:0"
       id="path848-15-4"
       cx="167.19246"
       cy="103.43996"
       r="2"
       transform="rotate(26.543113)" />
    <circle
       style="fill:#0000ff;fill-opacity:1;fill-rule:evenodd;stroke:#000000;stroke-width:0.264583;stroke-linecap:square;stroke-linejoin:round;stroke-miterlimit:4;stroke-dasharray:none;stroke-dashoffset:0"
       id="path848-54-3"
       cx="187.19246"
       cy="113.43996"
       r="2"
       transform="rotate(26.543113)" />
    <circle
       style="fill:#0000ff;fill-opacity:1;fill-rule:evenodd;stroke:#000000;stroke-width:0.264583;stroke-linecap:square;stroke-linejoin:round;stroke-miterlimit:4;stroke-dasharray:none;stroke-dashoffset:0"
       id="path848-9-9"
       cx="202.19246"
       cy="98.439964"
       r="2"
       transform="rotate(26.543113)" />
    <circle
       style="fill:#0000ff;fill-opacity:1;fill-rule:evenodd;stroke:#000000;stroke-width:0.264583;stroke-linecap:square;stroke-linejoin:round;stroke-miterlimit:4;stroke-dasharray:none;stroke-dashoffset:0"
       id="path848-8-7"
       cx="197.19246"
       cy="83.439964"
       r="2"
       transform="rotate(26.543113)" />
    <circle
       style="fill:#0000ff;fill-opacity:1;fill-rule:evenodd;stroke:#000000;stroke-width:0.264583;stroke-linecap:square;stroke-linejoin:round;stroke-miterlimit:4;stroke-dasharray:none;stroke-dashoffset:0"
       id="path848-3-2"
       cx="167.19246"
       cy="78.439964"
       r="2"
       transform="rotate(26.543113)" />
    <circle
       style="fill:#0000ff;fill-opacity:1;fill-rule:evenodd;stroke:#000000;stroke-width:0.264583;stroke-linecap:square;stroke-linejoin:round;stroke-miterlimit:4;stroke-dasharray:none;stroke-dashoffset:0"
       id="path848-85-5"
       cx="212.19246"
       cy="58.43996"
       r="2"
       transform="rotate(26.543113)" />
    <circle
       style="fill:#0000ff;fill-opacity:1;fill-rule:evenodd;stroke:#000000;stroke-width:0.264583;stroke-linecap:square;stroke-linejoin:round;stroke-miterlimit:4;stroke-dasharray:none;stroke-dashoffset:0"
       id="path848-2-8"
       cx="222.19246"
       cy="78.439964"
       r="2"
       transform="rotate(26.543113)" />
    <circle
       style="fill:#0000ff;fill-opacity:1;fill-rule:evenodd;stroke:#000000;stroke-width:0.264583;stroke-linecap:square;stroke-linejoin:round;stroke-miterlimit:4;stroke-dasharray:none;stroke-dashoffset:0"
       id="path848-22-9"
       cx="217.19246"
       cy="98.439964"
       r="2"
       transform="rotate(26.543113)" />
    <circle
       style="fill:#0000ff;fill-opacity:1;fill-rule:evenodd;stroke:#000000;stroke-width:0.264583;stroke-linecap:square;stroke-linejoin:round;stroke-miterlimit:4;stroke-dasharray:none;stroke-dashoffset:0"
       id="path848-7-0"
       cx="177.19246"
       cy="88.439964"
       r="2"
       transform="rotate(26.543113)" />
    <circle
       style="fill:#0000ff;fill-opacity:1;fill-rule:evenodd;stroke:#000000;stroke-width:0.264583;stroke-linecap:square;stroke-linejoin:round;stroke-miterlimit:4;stroke-dasharray:none;stroke-dashoffset:0"
       id="path848-7-0-4"
       cx="172.49451"
       cy="57.003258"
       r="2"
       transform="rotate(26.543113)" />
    <circle
       style="fill:#0000ff;fill-opacity:1;fill-rule:evenodd;stroke:#000000;stroke-width:0.264583;stroke-linecap:square;stroke-linejoin:round;stroke-miterlimit:4;stroke-dasharray:none;stroke-dashoffset:0"
       id="path848-7-0-9"
       cx="191.59241"
       cy="43.486561"
       r="2"
       transform="rotate(26.543113)" />
    <circle
       style="fill:#0000ff;fill-opacity:1;fill-rule:evenodd;stroke:#000000;stroke-width:0.264583;stroke-linecap:square;stroke-linejoin:round;stroke-miterlimit:4;stroke-dasharray:none;stroke-dashoffset:0"
       id="path848-7-0-99"
       cx="157.37927"
       cy="57.452057"
       r="2"
       transform="rotate(26.543113)" />
    <circle
       style="fill:#0000ff;fill-opacity:1;fill-rule:evenodd;stroke:#000000;stroke-width:0.264583;stroke-linecap:square;stroke-linejoin:round;stroke-miterlimit:4;stroke-dasharray:none;stroke-dashoffset:0"
       id="path848-7-0-5"
       cx="137.93918"
       cy="74.264389"
       r="2"
       transform="rotate(26.543113)" />
    <circle
       style="fill:#0000ff;fill-opacity:1;fill-rule:evenodd;stroke:#000000;stroke-width:0.264583;stroke-linecap:square;stroke-linejoin:round;stroke-miterlimit:4;stroke-dasharray:none;stroke-dashoffset:0"
       id="path848-7-0-0"
       cx="123.34933"
       cy="88.844444"
       r="2"
       transform="rotate(26.543113)" />
    <circle
       style="fill:#0000ff;fill-opacity:1;fill-rule:evenodd;stroke:#000000;stroke-width:0.264583;stroke-linecap:square;stroke-linejoin:round;stroke-miterlimit:4;stroke-dasharray:none;stroke-dashoffset:0"
       id="path848-7-0-3"
       cx="123.60819"
       cy="104.14809"
       r="2"
       transform="rotate(26.543113)" />
    <circle
       style="fill:#0000ff;fill-opacity:1;fill-rule:evenodd;stroke:#000000;stroke-width:0.264583;stroke-linecap:square;stroke-linejoin:round;stroke-miterlimit:4;stroke-dasharray:none;stroke-dashoffset:0"
       id="path848-7-0-7"
       cx="130.64456"
       cy="129.60774"
       r="2"
       transform="rotate(26.543113)" />
    <circle
       style="fill:#0000ff;fill-opacity:1;fill-rule:evenodd;stroke:#000000;stroke-width:0.264583;stroke-linecap:square;stroke-linejoin:round;stroke-miterlimit:4;stroke-dasharray:none;stroke-dashoffset:0"
       id="path848-0-2"
       cx="192.19246"
       cy="63.43996"
       r="2"
       transform="rotate(26.543113)" />
    <circle
       style="fill:#0000ff;fill-opacity:1;fill-rule:evenodd;stroke:#000000;stroke-width:0.264583;stroke-linecap:square;stroke-linejoin:round;stroke-miterlimit:4;stroke-dasharray:none;stroke-dashoffset:0"
       id="path848-34-4"
       cx="172.19246"
       cy="128.43996"
       r="2"
       transform="rotate(26.543113)" />
    <circle
       style="fill:#0000ff;fill-opacity:1;fill-rule:evenodd;stroke:#000000;stroke-width:0.264583;stroke-linecap:square;stroke-linejoin:round;stroke-miterlimit:4;stroke-dasharray:none;stroke-dashoffset:0"
       id="path848-6-7"
       cx="202.19246"
       cy="118.43996"
       r="2"
       transform="rotate(26.543113)" />
    <path
       style="fill:none;stroke:#000000;stroke-width:0.52916667;stroke-linecap:butt;stroke-linejoin:miter;stroke-opacity:1;stroke-miterlimit:4;stroke-dasharray:none"
       d="M 10,190 180,75"
       id="path1779"
       sodipodi:nodetypes="cc" />
    <text
       xml:space="preserve"
       style="font-size:7.05556px;line-height:1.25;font-family:'Times New Roman';-inkscape-font-specification:'Times New Roman, ';letter-spacing:0px;word-spacing:0px;stroke-width:0.264583"
       x="100"
       y="255"
       id="text2805"><tspan
         sodipodi:role="line"
         id="tspan2803"
         style="stroke-width:0.264583"
         x="100"
         y="255" /></text>
    <g
       inkscape:label=""
       transform="translate(-63.912217,-1.7785368)"
       id="g15681">
      <g
         id="g7468">
        <g
           style="fill:#000000;fill-opacity:1"
           id="g7287">
          <use
             xlink:href="#symbol9802"
             x="94.139"
             y="79.445"
             id="use6667"
             width="100%"
             height="100%" />
        </g>
        <g
           style="fill:#000000;fill-opacity:1"
           id="g6210">
          <use
             xlink:href="#symbol3275"
             x="91.925003"
             y="81.962997"
             id="use1272"
             width="100%"
             height="100%" />
        </g>
        <g
           style="fill:#000000;fill-opacity:1"
           id="g6592">
          <use
             xlink:href="#symbol5912"
             x="98.855003"
             y="83.457001"
             id="use2862"
             width="100%"
             height="100%" />
        </g>
      </g>
    </g>
    <g
       inkscape:label=""
       transform="translate(54.254831,122.48745)"
       id="g15953">
      <g
         id="g7739">
        <g
           style="fill:#000000;fill-opacity:1"
           id="g1236">
          <use
             xlink:href="#symbol7308"
             x="94.139"
             y="79.445"
             id="use8483"
             width="100%"
             height="100%" />
        </g>
        <g
           style="fill:#000000;fill-opacity:1"
           id="g1846">
          <use
             xlink:href="#symbol7971"
             x="91.925003"
             y="81.962997"
             id="use620"
             width="100%"
             height="100%" />
        </g>
        <g
           style="fill:#000000;fill-opacity:1"
           id="g8">
          <use
             xlink:href="#symbol6594"
             x="98.855003"
             y="83.457001"
             id="use928"
             width="100%"
             height="100%" />
        </g>
      </g>
    </g>
    <g
       inkscape:label=""
       transform="translate(73.314032,-2.0326595)"
       id="g18523">
      <g
         id="g1767">
        <g
           style="fill:#000000;fill-opacity:1"
           id="g1400">
          <use
             xlink:href="#symbol300"
             x="92.453003"
             y="81.962997"
             id="use9826"
             width="100%"
             height="100%" />
        </g>
        <g
           style="fill:#000000;fill-opacity:1"
           id="g5602">
          <use
             xlink:href="#symbol1687"
             x="91.925003"
             y="81.962997"
             id="use2442"
             width="100%"
             height="100%" />
        </g>
      </g>
    </g>
    <circle
       style="fill:#ff0000;fill-opacity:1;fill-rule:evenodd;stroke:#000000;stroke-width:0.264583;stroke-linecap:square;stroke-linejoin:round;stroke-miterlimit:4;stroke-dasharray:none;stroke-dashoffset:0"
       id="path848-6-0-9"
       cx="81.848427"
       cy="157.53514"
       r="2" />
  </g>
</svg>
