<?xml version="1.0" encoding="UTF-8" standalone="no"?>
<!-- Created with Inkscape (http://www.inkscape.org/) -->

<svg
   width="210mm"
   height="297mm"
   viewBox="0 0 210 297"
   version="1.1"
   id="svg5"
   sodipodi:docname="active_set_add.svg"
   inkscape:version="1.1.2 (0a00cf5339, 2022-02-04)"
   xmlns:inkscape="http://www.inkscape.org/namespaces/inkscape"
   xmlns:sodipodi="http://sodipodi.sourceforge.net/DTD/sodipodi-0.dtd"
   xmlns:xlink="http://www.w3.org/1999/xlink"
   xmlns="http://www.w3.org/2000/svg"
   xmlns:svg="http://www.w3.org/2000/svg">
  <sodipodi:namedview
     id="namedview7"
     pagecolor="#ffffff"
     bordercolor="#666666"
     borderopacity="1.0"
     inkscape:pageshadow="2"
     inkscape:pageopacity="0.0"
     inkscape:pagecheckerboard="0"
     inkscape:document-units="mm"
     showgrid="true"
     inkscape:zoom="1.468454"
     inkscape:cx="249.24171"
     inkscape:cy="766.45232"
     inkscape:window-width="1868"
     inkscape:window-height="880"
     inkscape:window-x="0"
     inkscape:window-y="0"
     inkscape:window-maximized="1"
     inkscape:current-layer="layer1"
     inkscape:snap-grids="false"
     inkscape:snap-intersection-paths="true"
     inkscape:object-paths="true">
    <inkscape:grid
       type="xygrid"
       id="grid824" />
  </sodipodi:namedview>
  <defs
     id="defs2">
    <marker
       style="overflow:visible;"
       id="Arrow1Lend"
       refX="0.0"
       refY="0.0"
       orient="auto"
       inkscape:stockid="Arrow1Lend"
       inkscape:isstock="true">
      <path
         transform="scale(0.8) rotate(180) translate(12.5,0)"
         style="fill-rule:evenodd;fill:context-stroke;stroke:context-stroke;stroke-width:1.0pt;"
         d="M 0.0,0.0 L 5.0,-5.0 L -12.5,0.0 L 5.0,5.0 L 0.0,0.0 z "
         id="path2083" />
    </marker>
    <marker
       style="overflow:visible"
       id="DotL"
       refX="0.0"
       refY="0.0"
       orient="auto"
       inkscape:stockid="DotL"
       inkscape:isstock="true">
      <path
         transform="scale(0.8) translate(7.4, 1)"
         style="fill-rule:evenodd;fill:context-stroke;stroke:context-stroke;stroke-width:1.0pt"
         d="M -2.5,-1.0 C -2.5,1.7600000 -4.7400000,4.0 -7.5,4.0 C -10.260000,4.0 -12.5,1.7600000 -12.5,-1.0 C -12.5,-3.7600000 -10.260000,-6.0 -7.5,-6.0 C -4.7400000,-6.0 -2.5,-3.7600000 -2.5,-1.0 z "
         id="path2141" />
    </marker>
    <g
       id="g5036">
      <symbol
         overflow="visible"
         id="symbol6247">
        <path
           style="stroke:none;"
           d=""
           id="path470" />
      </symbol>
      <symbol
         overflow="visible"
         id="symbol9112">
        <path
           style="stroke:none;"
           d="M 5.34375 -4 C 4.984375 -3.890625 4.8125 -3.5625 4.8125 -3.3125 C 4.8125 -3.09375 4.96875 -2.84375 5.296875 -2.84375 C 5.65625 -2.84375 6.015625 -3.140625 6.015625 -3.625 C 6.015625 -4.15625 5.5 -4.5 4.890625 -4.5 C 4.3125 -4.5 3.953125 -4.078125 3.8125 -3.890625 C 3.5625 -4.3125 3.015625 -4.5 2.4375 -4.5 C 1.1875 -4.5 0.515625 -3.28125 0.515625 -2.953125 C 0.515625 -2.8125 0.65625 -2.8125 0.75 -2.8125 C 0.875 -2.8125 0.9375 -2.8125 0.984375 -2.9375 C 1.265625 -3.84375 1.984375 -4.140625 2.390625 -4.140625 C 2.765625 -4.140625 2.953125 -3.96875 2.953125 -3.65625 C 2.953125 -3.453125 2.8125 -2.90625 2.71875 -2.546875 L 2.375 -1.1875 C 2.234375 -0.578125 1.875 -0.28125 1.53125 -0.28125 C 1.484375 -0.28125 1.25 -0.28125 1.0625 -0.421875 C 1.421875 -0.53125 1.59375 -0.875 1.59375 -1.109375 C 1.59375 -1.328125 1.421875 -1.578125 1.09375 -1.578125 C 0.75 -1.578125 0.375 -1.28125 0.375 -0.796875 C 0.375 -0.265625 0.90625 0.078125 1.515625 0.078125 C 2.078125 0.078125 2.453125 -0.34375 2.578125 -0.53125 C 2.828125 -0.109375 3.390625 0.078125 3.953125 0.078125 C 5.21875 0.078125 5.890625 -1.140625 5.890625 -1.46875 C 5.890625 -1.609375 5.734375 -1.609375 5.65625 -1.609375 C 5.53125 -1.609375 5.46875 -1.609375 5.421875 -1.484375 C 5.140625 -0.578125 4.421875 -0.28125 4 -0.28125 C 3.625 -0.28125 3.453125 -0.453125 3.453125 -0.78125 C 3.453125 -0.984375 3.578125 -1.515625 3.671875 -1.890625 C 3.734375 -2.140625 3.96875 -3.078125 4.015625 -3.234375 C 4.171875 -3.84375 4.515625 -4.140625 4.859375 -4.140625 C 4.921875 -4.140625 5.140625 -4.140625 5.34375 -4 Z M 5.34375 -4 "
           id="path838" />
      </symbol>
      <symbol
         overflow="visible"
         id="symbol1582">
        <path
           style="stroke:none;"
           d=""
           id="path53" />
      </symbol>
      <symbol
         overflow="visible"
         id="symbol1940">
        <path
           style="stroke:none;"
           d="M 3.59375 -2.21875 C 3.59375 -2.984375 3.5 -3.546875 3.1875 -4.03125 C 2.96875 -4.34375 2.53125 -4.625 1.984375 -4.625 C 0.359375 -4.625 0.359375 -2.71875 0.359375 -2.21875 C 0.359375 -1.71875 0.359375 0.140625 1.984375 0.140625 C 3.59375 0.140625 3.59375 -1.71875 3.59375 -2.21875 Z M 1.984375 -0.0625 C 1.65625 -0.0625 1.234375 -0.25 1.09375 -0.8125 C 1 -1.21875 1 -1.796875 1 -2.3125 C 1 -2.828125 1 -3.359375 1.09375 -3.734375 C 1.25 -4.28125 1.6875 -4.4375 1.984375 -4.4375 C 2.359375 -4.4375 2.71875 -4.203125 2.84375 -3.796875 C 2.953125 -3.421875 2.96875 -2.921875 2.96875 -2.3125 C 2.96875 -1.796875 2.96875 -1.28125 2.875 -0.84375 C 2.734375 -0.203125 2.265625 -0.0625 1.984375 -0.0625 Z M 1.984375 -0.0625 "
           id="path103" />
      </symbol>
    </g>
    <g
       id="g6190">
      <symbol
         overflow="visible"
         id="symbol8334">
        <path
           style="stroke:none;"
           d=""
           id="path6046" />
      </symbol>
      <symbol
         overflow="visible"
         id="symbol6705">
        <path
           style="stroke:none;"
           d="M 5.34375 -4 C 4.984375 -3.890625 4.8125 -3.5625 4.8125 -3.3125 C 4.8125 -3.09375 4.96875 -2.84375 5.296875 -2.84375 C 5.65625 -2.84375 6.015625 -3.140625 6.015625 -3.625 C 6.015625 -4.15625 5.5 -4.5 4.890625 -4.5 C 4.3125 -4.5 3.953125 -4.078125 3.8125 -3.890625 C 3.5625 -4.3125 3.015625 -4.5 2.4375 -4.5 C 1.1875 -4.5 0.515625 -3.28125 0.515625 -2.953125 C 0.515625 -2.8125 0.65625 -2.8125 0.75 -2.8125 C 0.875 -2.8125 0.9375 -2.8125 0.984375 -2.9375 C 1.265625 -3.84375 1.984375 -4.140625 2.390625 -4.140625 C 2.765625 -4.140625 2.953125 -3.96875 2.953125 -3.65625 C 2.953125 -3.453125 2.8125 -2.90625 2.71875 -2.546875 L 2.375 -1.1875 C 2.234375 -0.578125 1.875 -0.28125 1.53125 -0.28125 C 1.484375 -0.28125 1.25 -0.28125 1.0625 -0.421875 C 1.421875 -0.53125 1.59375 -0.875 1.59375 -1.109375 C 1.59375 -1.328125 1.421875 -1.578125 1.09375 -1.578125 C 0.75 -1.578125 0.375 -1.28125 0.375 -0.796875 C 0.375 -0.265625 0.90625 0.078125 1.515625 0.078125 C 2.078125 0.078125 2.453125 -0.34375 2.578125 -0.53125 C 2.828125 -0.109375 3.390625 0.078125 3.953125 0.078125 C 5.21875 0.078125 5.890625 -1.140625 5.890625 -1.46875 C 5.890625 -1.609375 5.734375 -1.609375 5.65625 -1.609375 C 5.53125 -1.609375 5.46875 -1.609375 5.421875 -1.484375 C 5.140625 -0.578125 4.421875 -0.28125 4 -0.28125 C 3.625 -0.28125 3.453125 -0.453125 3.453125 -0.78125 C 3.453125 -0.984375 3.578125 -1.515625 3.671875 -1.890625 C 3.734375 -2.140625 3.96875 -3.078125 4.015625 -3.234375 C 4.171875 -3.84375 4.515625 -4.140625 4.859375 -4.140625 C 4.921875 -4.140625 5.140625 -4.140625 5.34375 -4 Z M 5.34375 -4 "
           id="path4219" />
      </symbol>
      <symbol
         overflow="visible"
         id="symbol7440">
        <path
           style="stroke:none;"
           d=""
           id="path3920" />
      </symbol>
      <symbol
         overflow="visible"
         id="symbol2668">
        <path
           style="stroke:none;"
           d="M 2.015625 -3.296875 C 2.078125 -3.40625 2.078125 -3.46875 2.078125 -3.515625 C 2.078125 -3.734375 1.890625 -3.890625 1.671875 -3.890625 C 1.40625 -3.890625 1.328125 -3.671875 1.296875 -3.5625 L 0.375 -0.546875 C 0.359375 -0.53125 0.328125 -0.453125 0.328125 -0.4375 C 0.328125 -0.359375 0.546875 -0.28125 0.609375 -0.28125 C 0.65625 -0.28125 0.65625 -0.296875 0.703125 -0.40625 Z M 2.015625 -3.296875 "
           id="path692" />
      </symbol>
    </g>
    <g
       id="g1780">
      <symbol
         overflow="visible"
         id="symbol5812">
        <path
           style="stroke:none;"
           d=""
           id="path4390" />
      </symbol>
      <symbol
         overflow="visible"
         id="symbol4792">
        <path
           style="stroke:none;"
           d="M 5.34375 -4 C 4.984375 -3.890625 4.8125 -3.5625 4.8125 -3.3125 C 4.8125 -3.09375 4.96875 -2.84375 5.296875 -2.84375 C 5.65625 -2.84375 6.015625 -3.140625 6.015625 -3.625 C 6.015625 -4.15625 5.5 -4.5 4.890625 -4.5 C 4.3125 -4.5 3.953125 -4.078125 3.8125 -3.890625 C 3.5625 -4.3125 3.015625 -4.5 2.4375 -4.5 C 1.1875 -4.5 0.515625 -3.28125 0.515625 -2.953125 C 0.515625 -2.8125 0.65625 -2.8125 0.75 -2.8125 C 0.875 -2.8125 0.9375 -2.8125 0.984375 -2.9375 C 1.265625 -3.84375 1.984375 -4.140625 2.390625 -4.140625 C 2.765625 -4.140625 2.953125 -3.96875 2.953125 -3.65625 C 2.953125 -3.453125 2.8125 -2.90625 2.71875 -2.546875 L 2.375 -1.1875 C 2.234375 -0.578125 1.875 -0.28125 1.53125 -0.28125 C 1.484375 -0.28125 1.25 -0.28125 1.0625 -0.421875 C 1.421875 -0.53125 1.59375 -0.875 1.59375 -1.109375 C 1.59375 -1.328125 1.421875 -1.578125 1.09375 -1.578125 C 0.75 -1.578125 0.375 -1.28125 0.375 -0.796875 C 0.375 -0.265625 0.90625 0.078125 1.515625 0.078125 C 2.078125 0.078125 2.453125 -0.34375 2.578125 -0.53125 C 2.828125 -0.109375 3.390625 0.078125 3.953125 0.078125 C 5.21875 0.078125 5.890625 -1.140625 5.890625 -1.46875 C 5.890625 -1.609375 5.734375 -1.609375 5.65625 -1.609375 C 5.53125 -1.609375 5.46875 -1.609375 5.421875 -1.484375 C 5.140625 -0.578125 4.421875 -0.28125 4 -0.28125 C 3.625 -0.28125 3.453125 -0.453125 3.453125 -0.78125 C 3.453125 -0.984375 3.578125 -1.515625 3.671875 -1.890625 C 3.734375 -2.140625 3.96875 -3.078125 4.015625 -3.234375 C 4.171875 -3.84375 4.515625 -4.140625 4.859375 -4.140625 C 4.921875 -4.140625 5.140625 -4.140625 5.34375 -4 Z M 5.34375 -4 "
           id="path3351" />
      </symbol>
      <symbol
         overflow="visible"
         id="symbol1684">
        <path
           style="stroke:none;"
           d=""
           id="path4607" />
      </symbol>
      <symbol
         overflow="visible"
         id="symbol8375">
        <path
           style="stroke:none;"
           d="M 2.015625 -3.296875 C 2.078125 -3.40625 2.078125 -3.46875 2.078125 -3.515625 C 2.078125 -3.734375 1.890625 -3.890625 1.671875 -3.890625 C 1.40625 -3.890625 1.328125 -3.671875 1.296875 -3.5625 L 0.375 -0.546875 C 0.359375 -0.53125 0.328125 -0.453125 0.328125 -0.4375 C 0.328125 -0.359375 0.546875 -0.28125 0.609375 -0.28125 C 0.65625 -0.28125 0.65625 -0.296875 0.703125 -0.40625 Z M 2.015625 -3.296875 "
           id="path1226" />
      </symbol>
    </g>
    <g
       id="g6789">
      <symbol
         overflow="visible"
         id="symbol2501">
        <path
           style="stroke:none;"
           d=""
           id="path313" />
      </symbol>
      <symbol
         overflow="visible"
         id="symbol8115">
        <path
           style="stroke:none;"
           d="M 5.140625 -3.15625 C 5.1875 -3.40625 5.296875 -3.8125 5.296875 -3.890625 C 5.296875 -4.21875 5.03125 -4.34375 4.828125 -4.34375 C 4.640625 -4.34375 4.4375 -4.234375 4.3125 -4.09375 C 4.171875 -4.25 3.84375 -4.5 3.265625 -4.5 C 1.53125 -4.5 0.453125 -2.9375 0.453125 -1.5625 C 0.453125 -0.34375 1.359375 0.078125 2.1875 0.078125 C 2.90625 0.078125 3.421875 -0.3125 3.578125 -0.453125 C 3.953125 0.078125 4.609375 0.078125 4.71875 0.078125 C 5.09375 0.078125 5.390625 -0.125 5.59375 -0.484375 C 5.84375 -0.890625 5.96875 -1.421875 5.96875 -1.46875 C 5.96875 -1.609375 5.828125 -1.609375 5.734375 -1.609375 C 5.625 -1.609375 5.578125 -1.609375 5.53125 -1.5625 C 5.515625 -1.546875 5.515625 -1.53125 5.453125 -1.28125 C 5.25 -0.484375 5.03125 -0.28125 4.78125 -0.28125 C 4.671875 -0.28125 4.546875 -0.3125 4.546875 -0.640625 C 4.546875 -0.8125 4.578125 -0.984375 4.6875 -1.375 C 4.75 -1.65625 4.859375 -2.046875 4.90625 -2.265625 Z M 3.484375 -0.921875 C 3.1875 -0.59375 2.71875 -0.28125 2.25 -0.28125 C 1.625 -0.28125 1.578125 -0.8125 1.578125 -1.03125 C 1.578125 -1.5625 1.90625 -2.78125 2.078125 -3.171875 C 2.375 -3.890625 2.875 -4.140625 3.28125 -4.140625 C 3.875 -4.140625 4.109375 -3.671875 4.109375 -3.5625 L 4.09375 -3.421875 Z M 3.484375 -0.921875 "
           id="path6109" />
      </symbol>
      <symbol
         overflow="visible"
         id="symbol3496">
        <path
           style="stroke:none;"
           d="M 5.34375 -4 C 4.984375 -3.890625 4.8125 -3.5625 4.8125 -3.3125 C 4.8125 -3.09375 4.96875 -2.84375 5.296875 -2.84375 C 5.65625 -2.84375 6.015625 -3.140625 6.015625 -3.625 C 6.015625 -4.15625 5.5 -4.5 4.890625 -4.5 C 4.3125 -4.5 3.953125 -4.078125 3.8125 -3.890625 C 3.5625 -4.3125 3.015625 -4.5 2.4375 -4.5 C 1.1875 -4.5 0.515625 -3.28125 0.515625 -2.953125 C 0.515625 -2.8125 0.65625 -2.8125 0.75 -2.8125 C 0.875 -2.8125 0.9375 -2.8125 0.984375 -2.9375 C 1.265625 -3.84375 1.984375 -4.140625 2.390625 -4.140625 C 2.765625 -4.140625 2.953125 -3.96875 2.953125 -3.65625 C 2.953125 -3.453125 2.8125 -2.90625 2.71875 -2.546875 L 2.375 -1.1875 C 2.234375 -0.578125 1.875 -0.28125 1.53125 -0.28125 C 1.484375 -0.28125 1.25 -0.28125 1.0625 -0.421875 C 1.421875 -0.53125 1.59375 -0.875 1.59375 -1.109375 C 1.59375 -1.328125 1.421875 -1.578125 1.09375 -1.578125 C 0.75 -1.578125 0.375 -1.28125 0.375 -0.796875 C 0.375 -0.265625 0.90625 0.078125 1.515625 0.078125 C 2.078125 0.078125 2.453125 -0.34375 2.578125 -0.53125 C 2.828125 -0.109375 3.390625 0.078125 3.953125 0.078125 C 5.21875 0.078125 5.890625 -1.140625 5.890625 -1.46875 C 5.890625 -1.609375 5.734375 -1.609375 5.65625 -1.609375 C 5.53125 -1.609375 5.46875 -1.609375 5.421875 -1.484375 C 5.140625 -0.578125 4.421875 -0.28125 4 -0.28125 C 3.625 -0.28125 3.453125 -0.453125 3.453125 -0.78125 C 3.453125 -0.984375 3.578125 -1.515625 3.671875 -1.890625 C 3.734375 -2.140625 3.96875 -3.078125 4.015625 -3.234375 C 4.171875 -3.84375 4.515625 -4.140625 4.859375 -4.140625 C 4.921875 -4.140625 5.140625 -4.140625 5.34375 -4 Z M 5.34375 -4 "
           id="path244" />
      </symbol>
      <symbol
         overflow="visible"
         id="symbol8721">
        <path
           style="stroke:none;"
           d=""
           id="path9909" />
      </symbol>
      <symbol
         overflow="visible"
         id="symbol9794">
        <path
           style="stroke:none;"
           d="M 5.1875 -4.703125 L 0.484375 -4.703125 L 0.328125 -3.109375 L 0.578125 -3.109375 C 0.671875 -4.3125 0.875 -4.453125 1.9375 -4.453125 C 2.078125 -4.453125 2.28125 -4.453125 2.359375 -4.453125 C 2.515625 -4.421875 2.515625 -4.34375 2.515625 -4.1875 L 2.515625 -0.578125 C 2.515625 -0.34375 2.515625 -0.25 1.78125 -0.25 L 1.484375 -0.25 L 1.484375 0 C 1.828125 -0.03125 2.484375 -0.03125 2.84375 -0.03125 C 3.203125 -0.03125 3.84375 -0.03125 4.1875 0 L 4.1875 -0.25 L 3.890625 -0.25 C 3.171875 -0.25 3.171875 -0.34375 3.171875 -0.578125 L 3.171875 -4.1875 C 3.171875 -4.34375 3.171875 -4.421875 3.328125 -4.453125 C 3.390625 -4.453125 3.59375 -4.453125 3.734375 -4.453125 C 4.125 -4.453125 4.421875 -4.453125 4.671875 -4.328125 C 4.984375 -4.125 5.03125 -3.6875 5.03125 -3.65625 L 5.09375 -3.109375 L 5.34375 -3.109375 Z M 5.1875 -4.703125 "
           id="path7526" />
      </symbol>
      <symbol
         overflow="visible"
         id="symbol4546">
        <path
           style="stroke:none;"
           d="M 2.328125 -4.4375 C 2.328125 -4.625 2.328125 -4.625 2.125 -4.625 C 1.671875 -4.1875 1.046875 -4.1875 0.765625 -4.1875 L 0.765625 -3.9375 C 0.921875 -3.9375 1.390625 -3.9375 1.765625 -4.125 L 1.765625 -0.578125 C 1.765625 -0.34375 1.765625 -0.25 1.078125 -0.25 L 0.8125 -0.25 L 0.8125 0 C 0.9375 0 1.796875 -0.03125 2.046875 -0.03125 C 2.265625 -0.03125 3.140625 0 3.296875 0 L 3.296875 -0.25 L 3.03125 -0.25 C 2.328125 -0.25 2.328125 -0.34375 2.328125 -0.578125 Z M 2.328125 -4.4375 "
           id="path8453" />
      </symbol>
      <symbol
         overflow="visible"
         id="symbol8200">
        <path
           style="stroke:none;"
           d=""
           id="path9103" />
      </symbol>
      <symbol
         overflow="visible"
         id="symbol2578">
        <path
           style="stroke:none;"
           d="M 6.84375 -3.265625 C 7 -3.265625 7.1875 -3.265625 7.1875 -3.453125 C 7.1875 -3.65625 7 -3.65625 6.859375 -3.65625 L 0.890625 -3.65625 C 0.75 -3.65625 0.5625 -3.65625 0.5625 -3.453125 C 0.5625 -3.265625 0.75 -3.265625 0.890625 -3.265625 Z M 6.859375 -1.328125 C 7 -1.328125 7.1875 -1.328125 7.1875 -1.53125 C 7.1875 -1.71875 7 -1.71875 6.84375 -1.71875 L 0.890625 -1.71875 C 0.75 -1.71875 0.5625 -1.71875 0.5625 -1.53125 C 0.5625 -1.328125 0.75 -1.328125 0.890625 -1.328125 Z M 6.859375 -1.328125 "
           id="path7754" />
      </symbol>
      <symbol
         overflow="visible"
         id="symbol7611">
        <path
           style="stroke:none;"
           d=""
           id="path5528" />
      </symbol>
      <symbol
         overflow="visible"
         id="symbol6137">
        <path
           style="stroke:none;"
           d="M 2.375 -6.8125 C 2.375 -6.8125 2.375 -6.921875 2.25 -6.921875 C 2.03125 -6.921875 1.296875 -6.84375 1.03125 -6.8125 C 0.953125 -6.8125 0.84375 -6.796875 0.84375 -6.625 C 0.84375 -6.5 0.9375 -6.5 1.09375 -6.5 C 1.5625 -6.5 1.578125 -6.4375 1.578125 -6.328125 C 1.578125 -6.265625 1.5 -5.921875 1.453125 -5.71875 L 0.625 -2.46875 C 0.515625 -1.96875 0.46875 -1.796875 0.46875 -1.453125 C 0.46875 -0.515625 1 0.109375 1.734375 0.109375 C 2.90625 0.109375 4.140625 -1.375 4.140625 -2.8125 C 4.140625 -3.71875 3.609375 -4.40625 2.8125 -4.40625 C 2.359375 -4.40625 1.9375 -4.109375 1.640625 -3.8125 Z M 1.453125 -3.046875 C 1.5 -3.265625 1.5 -3.28125 1.59375 -3.390625 C 2.078125 -4.03125 2.53125 -4.1875 2.796875 -4.1875 C 3.15625 -4.1875 3.421875 -3.890625 3.421875 -3.25 C 3.421875 -2.65625 3.09375 -1.515625 2.90625 -1.140625 C 2.578125 -0.46875 2.125 -0.109375 1.734375 -0.109375 C 1.390625 -0.109375 1.0625 -0.375 1.0625 -1.109375 C 1.0625 -1.3125 1.0625 -1.5 1.21875 -2.125 Z M 1.453125 -3.046875 "
           id="path7751" />
      </symbol>
    </g>
    <g
       id="g8385">
      <symbol
         overflow="visible"
         id="symbol2469">
        <path
           style="stroke:none;"
           d=""
           id="path8952" />
      </symbol>
      <symbol
         overflow="visible"
         id="symbol6609">
        <path
           style="stroke:none;"
           d="M 5.140625 -3.15625 C 5.1875 -3.40625 5.296875 -3.8125 5.296875 -3.890625 C 5.296875 -4.21875 5.03125 -4.34375 4.828125 -4.34375 C 4.640625 -4.34375 4.4375 -4.234375 4.3125 -4.09375 C 4.171875 -4.25 3.84375 -4.5 3.265625 -4.5 C 1.53125 -4.5 0.453125 -2.9375 0.453125 -1.5625 C 0.453125 -0.34375 1.359375 0.078125 2.1875 0.078125 C 2.90625 0.078125 3.421875 -0.3125 3.578125 -0.453125 C 3.953125 0.078125 4.609375 0.078125 4.71875 0.078125 C 5.09375 0.078125 5.390625 -0.125 5.59375 -0.484375 C 5.84375 -0.890625 5.96875 -1.421875 5.96875 -1.46875 C 5.96875 -1.609375 5.828125 -1.609375 5.734375 -1.609375 C 5.625 -1.609375 5.578125 -1.609375 5.53125 -1.5625 C 5.515625 -1.546875 5.515625 -1.53125 5.453125 -1.28125 C 5.25 -0.484375 5.03125 -0.28125 4.78125 -0.28125 C 4.671875 -0.28125 4.546875 -0.3125 4.546875 -0.640625 C 4.546875 -0.8125 4.578125 -0.984375 4.6875 -1.375 C 4.75 -1.65625 4.859375 -2.046875 4.90625 -2.265625 Z M 3.484375 -0.921875 C 3.1875 -0.59375 2.71875 -0.28125 2.25 -0.28125 C 1.625 -0.28125 1.578125 -0.8125 1.578125 -1.03125 C 1.578125 -1.5625 1.90625 -2.78125 2.078125 -3.171875 C 2.375 -3.890625 2.875 -4.140625 3.28125 -4.140625 C 3.875 -4.140625 4.109375 -3.671875 4.109375 -3.5625 L 4.09375 -3.421875 Z M 3.484375 -0.921875 "
           id="path8808" />
      </symbol>
      <symbol
         overflow="visible"
         id="symbol9057">
        <path
           style="stroke:none;"
           d="M 5.34375 -4 C 4.984375 -3.890625 4.8125 -3.5625 4.8125 -3.3125 C 4.8125 -3.09375 4.96875 -2.84375 5.296875 -2.84375 C 5.65625 -2.84375 6.015625 -3.140625 6.015625 -3.625 C 6.015625 -4.15625 5.5 -4.5 4.890625 -4.5 C 4.3125 -4.5 3.953125 -4.078125 3.8125 -3.890625 C 3.5625 -4.3125 3.015625 -4.5 2.4375 -4.5 C 1.1875 -4.5 0.515625 -3.28125 0.515625 -2.953125 C 0.515625 -2.8125 0.65625 -2.8125 0.75 -2.8125 C 0.875 -2.8125 0.9375 -2.8125 0.984375 -2.9375 C 1.265625 -3.84375 1.984375 -4.140625 2.390625 -4.140625 C 2.765625 -4.140625 2.953125 -3.96875 2.953125 -3.65625 C 2.953125 -3.453125 2.8125 -2.90625 2.71875 -2.546875 L 2.375 -1.1875 C 2.234375 -0.578125 1.875 -0.28125 1.53125 -0.28125 C 1.484375 -0.28125 1.25 -0.28125 1.0625 -0.421875 C 1.421875 -0.53125 1.59375 -0.875 1.59375 -1.109375 C 1.59375 -1.328125 1.421875 -1.578125 1.09375 -1.578125 C 0.75 -1.578125 0.375 -1.28125 0.375 -0.796875 C 0.375 -0.265625 0.90625 0.078125 1.515625 0.078125 C 2.078125 0.078125 2.453125 -0.34375 2.578125 -0.53125 C 2.828125 -0.109375 3.390625 0.078125 3.953125 0.078125 C 5.21875 0.078125 5.890625 -1.140625 5.890625 -1.46875 C 5.890625 -1.609375 5.734375 -1.609375 5.65625 -1.609375 C 5.53125 -1.609375 5.46875 -1.609375 5.421875 -1.484375 C 5.140625 -0.578125 4.421875 -0.28125 4 -0.28125 C 3.625 -0.28125 3.453125 -0.453125 3.453125 -0.78125 C 3.453125 -0.984375 3.578125 -1.515625 3.671875 -1.890625 C 3.734375 -2.140625 3.96875 -3.078125 4.015625 -3.234375 C 4.171875 -3.84375 4.515625 -4.140625 4.859375 -4.140625 C 4.921875 -4.140625 5.140625 -4.140625 5.34375 -4 Z M 5.34375 -4 "
           id="path2153" />
      </symbol>
      <symbol
         overflow="visible"
         id="symbol6918">
        <path
           style="stroke:none;"
           d=""
           id="path3420" />
      </symbol>
      <symbol
         overflow="visible"
         id="symbol6984">
        <path
           style="stroke:none;"
           d="M 5.1875 -4.703125 L 0.484375 -4.703125 L 0.328125 -3.109375 L 0.578125 -3.109375 C 0.671875 -4.3125 0.875 -4.453125 1.9375 -4.453125 C 2.078125 -4.453125 2.28125 -4.453125 2.359375 -4.453125 C 2.515625 -4.421875 2.515625 -4.34375 2.515625 -4.1875 L 2.515625 -0.578125 C 2.515625 -0.34375 2.515625 -0.25 1.78125 -0.25 L 1.484375 -0.25 L 1.484375 0 C 1.828125 -0.03125 2.484375 -0.03125 2.84375 -0.03125 C 3.203125 -0.03125 3.84375 -0.03125 4.1875 0 L 4.1875 -0.25 L 3.890625 -0.25 C 3.171875 -0.25 3.171875 -0.34375 3.171875 -0.578125 L 3.171875 -4.1875 C 3.171875 -4.34375 3.171875 -4.421875 3.328125 -4.453125 C 3.390625 -4.453125 3.59375 -4.453125 3.734375 -4.453125 C 4.125 -4.453125 4.421875 -4.453125 4.671875 -4.328125 C 4.984375 -4.125 5.03125 -3.6875 5.03125 -3.65625 L 5.09375 -3.109375 L 5.34375 -3.109375 Z M 5.1875 -4.703125 "
           id="path9796" />
      </symbol>
      <symbol
         overflow="visible"
         id="symbol3250">
        <path
           style="stroke:none;"
           d="M 3.515625 -1.265625 L 3.28125 -1.265625 C 3.265625 -1.109375 3.1875 -0.703125 3.09375 -0.640625 C 3.046875 -0.59375 2.515625 -0.59375 2.40625 -0.59375 L 1.125 -0.59375 C 1.859375 -1.234375 2.109375 -1.4375 2.515625 -1.765625 C 3.03125 -2.171875 3.515625 -2.609375 3.515625 -3.265625 C 3.515625 -4.109375 2.78125 -4.625 1.890625 -4.625 C 1.03125 -4.625 0.4375 -4.015625 0.4375 -3.375 C 0.4375 -3.03125 0.734375 -2.984375 0.8125 -2.984375 C 0.96875 -2.984375 1.171875 -3.109375 1.171875 -3.359375 C 1.171875 -3.484375 1.125 -3.734375 0.765625 -3.734375 C 0.984375 -4.21875 1.453125 -4.375 1.78125 -4.375 C 2.484375 -4.375 2.84375 -3.828125 2.84375 -3.265625 C 2.84375 -2.65625 2.40625 -2.1875 2.1875 -1.9375 L 0.515625 -0.265625 C 0.4375 -0.203125 0.4375 -0.1875 0.4375 0 L 3.3125 0 Z M 3.515625 -1.265625 "
           id="path142" />
      </symbol>
      <symbol
         overflow="visible"
         id="symbol2392">
        <path
           style="stroke:none;"
           d=""
           id="path3953" />
      </symbol>
      <symbol
         overflow="visible"
         id="symbol1159">
        <path
           style="stroke:none;"
           d="M 6.84375 -3.265625 C 7 -3.265625 7.1875 -3.265625 7.1875 -3.453125 C 7.1875 -3.65625 7 -3.65625 6.859375 -3.65625 L 0.890625 -3.65625 C 0.75 -3.65625 0.5625 -3.65625 0.5625 -3.453125 C 0.5625 -3.265625 0.75 -3.265625 0.890625 -3.265625 Z M 6.859375 -1.328125 C 7 -1.328125 7.1875 -1.328125 7.1875 -1.53125 C 7.1875 -1.71875 7 -1.71875 6.84375 -1.71875 L 0.890625 -1.71875 C 0.75 -1.71875 0.5625 -1.71875 0.5625 -1.53125 C 0.5625 -1.328125 0.75 -1.328125 0.890625 -1.328125 Z M 6.859375 -1.328125 "
           id="path7905" />
      </symbol>
      <symbol
         overflow="visible"
         id="symbol9350">
        <path
           style="stroke:none;"
           d=""
           id="path5161" />
      </symbol>
      <symbol
         overflow="visible"
         id="symbol6417">
        <path
           style="stroke:none;"
           d="M 2.375 -6.8125 C 2.375 -6.8125 2.375 -6.921875 2.25 -6.921875 C 2.03125 -6.921875 1.296875 -6.84375 1.03125 -6.8125 C 0.953125 -6.8125 0.84375 -6.796875 0.84375 -6.625 C 0.84375 -6.5 0.9375 -6.5 1.09375 -6.5 C 1.5625 -6.5 1.578125 -6.4375 1.578125 -6.328125 C 1.578125 -6.265625 1.5 -5.921875 1.453125 -5.71875 L 0.625 -2.46875 C 0.515625 -1.96875 0.46875 -1.796875 0.46875 -1.453125 C 0.46875 -0.515625 1 0.109375 1.734375 0.109375 C 2.90625 0.109375 4.140625 -1.375 4.140625 -2.8125 C 4.140625 -3.71875 3.609375 -4.40625 2.8125 -4.40625 C 2.359375 -4.40625 1.9375 -4.109375 1.640625 -3.8125 Z M 1.453125 -3.046875 C 1.5 -3.265625 1.5 -3.28125 1.59375 -3.390625 C 2.078125 -4.03125 2.53125 -4.1875 2.796875 -4.1875 C 3.15625 -4.1875 3.421875 -3.890625 3.421875 -3.25 C 3.421875 -2.65625 3.09375 -1.515625 2.90625 -1.140625 C 2.578125 -0.46875 2.125 -0.109375 1.734375 -0.109375 C 1.390625 -0.109375 1.0625 -0.375 1.0625 -1.109375 C 1.0625 -1.3125 1.0625 -1.5 1.21875 -2.125 Z M 1.453125 -3.046875 "
           id="path8829" />
      </symbol>
    </g>
    <g
       id="g5190">
      <symbol
         overflow="visible"
         id="symbol7771">
        <path
           style="stroke:none;"
           d=""
           id="path3612" />
      </symbol>
      <symbol
         overflow="visible"
         id="symbol211">
        <path
           style="stroke:none;"
           d="M 5.140625 -3.15625 C 5.1875 -3.40625 5.296875 -3.8125 5.296875 -3.890625 C 5.296875 -4.21875 5.03125 -4.34375 4.828125 -4.34375 C 4.640625 -4.34375 4.4375 -4.234375 4.3125 -4.09375 C 4.171875 -4.25 3.84375 -4.5 3.265625 -4.5 C 1.53125 -4.5 0.453125 -2.9375 0.453125 -1.5625 C 0.453125 -0.34375 1.359375 0.078125 2.1875 0.078125 C 2.90625 0.078125 3.421875 -0.3125 3.578125 -0.453125 C 3.953125 0.078125 4.609375 0.078125 4.71875 0.078125 C 5.09375 0.078125 5.390625 -0.125 5.59375 -0.484375 C 5.84375 -0.890625 5.96875 -1.421875 5.96875 -1.46875 C 5.96875 -1.609375 5.828125 -1.609375 5.734375 -1.609375 C 5.625 -1.609375 5.578125 -1.609375 5.53125 -1.5625 C 5.515625 -1.546875 5.515625 -1.53125 5.453125 -1.28125 C 5.25 -0.484375 5.03125 -0.28125 4.78125 -0.28125 C 4.671875 -0.28125 4.546875 -0.3125 4.546875 -0.640625 C 4.546875 -0.8125 4.578125 -0.984375 4.6875 -1.375 C 4.75 -1.65625 4.859375 -2.046875 4.90625 -2.265625 Z M 3.484375 -0.921875 C 3.1875 -0.59375 2.71875 -0.28125 2.25 -0.28125 C 1.625 -0.28125 1.578125 -0.8125 1.578125 -1.03125 C 1.578125 -1.5625 1.90625 -2.78125 2.078125 -3.171875 C 2.375 -3.890625 2.875 -4.140625 3.28125 -4.140625 C 3.875 -4.140625 4.109375 -3.671875 4.109375 -3.5625 L 4.09375 -3.421875 Z M 3.484375 -0.921875 "
           id="path1237" />
      </symbol>
      <symbol
         overflow="visible"
         id="symbol4862">
        <path
           style="stroke:none;"
           d="M 5.34375 -4 C 4.984375 -3.890625 4.8125 -3.5625 4.8125 -3.3125 C 4.8125 -3.09375 4.96875 -2.84375 5.296875 -2.84375 C 5.65625 -2.84375 6.015625 -3.140625 6.015625 -3.625 C 6.015625 -4.15625 5.5 -4.5 4.890625 -4.5 C 4.3125 -4.5 3.953125 -4.078125 3.8125 -3.890625 C 3.5625 -4.3125 3.015625 -4.5 2.4375 -4.5 C 1.1875 -4.5 0.515625 -3.28125 0.515625 -2.953125 C 0.515625 -2.8125 0.65625 -2.8125 0.75 -2.8125 C 0.875 -2.8125 0.9375 -2.8125 0.984375 -2.9375 C 1.265625 -3.84375 1.984375 -4.140625 2.390625 -4.140625 C 2.765625 -4.140625 2.953125 -3.96875 2.953125 -3.65625 C 2.953125 -3.453125 2.8125 -2.90625 2.71875 -2.546875 L 2.375 -1.1875 C 2.234375 -0.578125 1.875 -0.28125 1.53125 -0.28125 C 1.484375 -0.28125 1.25 -0.28125 1.0625 -0.421875 C 1.421875 -0.53125 1.59375 -0.875 1.59375 -1.109375 C 1.59375 -1.328125 1.421875 -1.578125 1.09375 -1.578125 C 0.75 -1.578125 0.375 -1.28125 0.375 -0.796875 C 0.375 -0.265625 0.90625 0.078125 1.515625 0.078125 C 2.078125 0.078125 2.453125 -0.34375 2.578125 -0.53125 C 2.828125 -0.109375 3.390625 0.078125 3.953125 0.078125 C 5.21875 0.078125 5.890625 -1.140625 5.890625 -1.46875 C 5.890625 -1.609375 5.734375 -1.609375 5.65625 -1.609375 C 5.53125 -1.609375 5.46875 -1.609375 5.421875 -1.484375 C 5.140625 -0.578125 4.421875 -0.28125 4 -0.28125 C 3.625 -0.28125 3.453125 -0.453125 3.453125 -0.78125 C 3.453125 -0.984375 3.578125 -1.515625 3.671875 -1.890625 C 3.734375 -2.140625 3.96875 -3.078125 4.015625 -3.234375 C 4.171875 -3.84375 4.515625 -4.140625 4.859375 -4.140625 C 4.921875 -4.140625 5.140625 -4.140625 5.34375 -4 Z M 5.34375 -4 "
           id="path4241" />
      </symbol>
      <symbol
         overflow="visible"
         id="symbol3140">
        <path
           style="stroke:none;"
           d=""
           id="path2461" />
      </symbol>
      <symbol
         overflow="visible"
         id="symbol6359">
        <path
           style="stroke:none;"
           d="M 5.1875 -4.703125 L 0.484375 -4.703125 L 0.328125 -3.109375 L 0.578125 -3.109375 C 0.671875 -4.3125 0.875 -4.453125 1.9375 -4.453125 C 2.078125 -4.453125 2.28125 -4.453125 2.359375 -4.453125 C 2.515625 -4.421875 2.515625 -4.34375 2.515625 -4.1875 L 2.515625 -0.578125 C 2.515625 -0.34375 2.515625 -0.25 1.78125 -0.25 L 1.484375 -0.25 L 1.484375 0 C 1.828125 -0.03125 2.484375 -0.03125 2.84375 -0.03125 C 3.203125 -0.03125 3.84375 -0.03125 4.1875 0 L 4.1875 -0.25 L 3.890625 -0.25 C 3.171875 -0.25 3.171875 -0.34375 3.171875 -0.578125 L 3.171875 -4.1875 C 3.171875 -4.34375 3.171875 -4.421875 3.328125 -4.453125 C 3.390625 -4.453125 3.59375 -4.453125 3.734375 -4.453125 C 4.125 -4.453125 4.421875 -4.453125 4.671875 -4.328125 C 4.984375 -4.125 5.03125 -3.6875 5.03125 -3.65625 L 5.09375 -3.109375 L 5.34375 -3.109375 Z M 5.1875 -4.703125 "
           id="path1955" />
      </symbol>
      <symbol
         overflow="visible"
         id="symbol2428">
        <path
           style="stroke:none;"
           d="M 1.90625 -2.328125 C 2.453125 -2.328125 2.84375 -1.953125 2.84375 -1.203125 C 2.84375 -0.34375 2.328125 -0.078125 1.9375 -0.078125 C 1.65625 -0.078125 1.03125 -0.15625 0.75 -0.578125 C 1.078125 -0.578125 1.15625 -0.8125 1.15625 -0.96875 C 1.15625 -1.1875 0.984375 -1.34375 0.765625 -1.34375 C 0.578125 -1.34375 0.375 -1.21875 0.375 -0.9375 C 0.375 -0.28125 1.09375 0.140625 1.9375 0.140625 C 2.90625 0.140625 3.578125 -0.515625 3.578125 -1.203125 C 3.578125 -1.75 3.140625 -2.296875 2.375 -2.453125 C 3.09375 -2.71875 3.359375 -3.234375 3.359375 -3.671875 C 3.359375 -4.21875 2.734375 -4.625 1.953125 -4.625 C 1.1875 -4.625 0.59375 -4.25 0.59375 -3.6875 C 0.59375 -3.453125 0.75 -3.328125 0.953125 -3.328125 C 1.171875 -3.328125 1.3125 -3.484375 1.3125 -3.671875 C 1.3125 -3.875 1.171875 -4.03125 0.953125 -4.046875 C 1.203125 -4.34375 1.671875 -4.421875 1.9375 -4.421875 C 2.25 -4.421875 2.6875 -4.265625 2.6875 -3.671875 C 2.6875 -3.375 2.59375 -3.046875 2.40625 -2.84375 C 2.1875 -2.578125 1.984375 -2.5625 1.640625 -2.53125 C 1.46875 -2.515625 1.453125 -2.515625 1.421875 -2.515625 C 1.40625 -2.515625 1.34375 -2.5 1.34375 -2.421875 C 1.34375 -2.328125 1.40625 -2.328125 1.53125 -2.328125 Z M 1.90625 -2.328125 "
           id="path8475" />
      </symbol>
      <symbol
         overflow="visible"
         id="symbol7815">
        <path
           style="stroke:none;"
           d=""
           id="path578" />
      </symbol>
      <symbol
         overflow="visible"
         id="symbol2557">
        <path
           style="stroke:none;"
           d="M 6.84375 -3.265625 C 7 -3.265625 7.1875 -3.265625 7.1875 -3.453125 C 7.1875 -3.65625 7 -3.65625 6.859375 -3.65625 L 0.890625 -3.65625 C 0.75 -3.65625 0.5625 -3.65625 0.5625 -3.453125 C 0.5625 -3.265625 0.75 -3.265625 0.890625 -3.265625 Z M 6.859375 -1.328125 C 7 -1.328125 7.1875 -1.328125 7.1875 -1.53125 C 7.1875 -1.71875 7 -1.71875 6.84375 -1.71875 L 0.890625 -1.71875 C 0.75 -1.71875 0.5625 -1.71875 0.5625 -1.53125 C 0.5625 -1.328125 0.75 -1.328125 0.890625 -1.328125 Z M 6.859375 -1.328125 "
           id="path5293" />
      </symbol>
      <symbol
         overflow="visible"
         id="symbol732">
        <path
           style="stroke:none;"
           d=""
           id="path914" />
      </symbol>
      <symbol
         overflow="visible"
         id="symbol3071">
        <path
           style="stroke:none;"
           d="M 2.375 -6.8125 C 2.375 -6.8125 2.375 -6.921875 2.25 -6.921875 C 2.03125 -6.921875 1.296875 -6.84375 1.03125 -6.8125 C 0.953125 -6.8125 0.84375 -6.796875 0.84375 -6.625 C 0.84375 -6.5 0.9375 -6.5 1.09375 -6.5 C 1.5625 -6.5 1.578125 -6.4375 1.578125 -6.328125 C 1.578125 -6.265625 1.5 -5.921875 1.453125 -5.71875 L 0.625 -2.46875 C 0.515625 -1.96875 0.46875 -1.796875 0.46875 -1.453125 C 0.46875 -0.515625 1 0.109375 1.734375 0.109375 C 2.90625 0.109375 4.140625 -1.375 4.140625 -2.8125 C 4.140625 -3.71875 3.609375 -4.40625 2.8125 -4.40625 C 2.359375 -4.40625 1.9375 -4.109375 1.640625 -3.8125 Z M 1.453125 -3.046875 C 1.5 -3.265625 1.5 -3.28125 1.59375 -3.390625 C 2.078125 -4.03125 2.53125 -4.1875 2.796875 -4.1875 C 3.15625 -4.1875 3.421875 -3.890625 3.421875 -3.25 C 3.421875 -2.65625 3.09375 -1.515625 2.90625 -1.140625 C 2.578125 -0.46875 2.125 -0.109375 1.734375 -0.109375 C 1.390625 -0.109375 1.0625 -0.375 1.0625 -1.109375 C 1.0625 -1.3125 1.0625 -1.5 1.21875 -2.125 Z M 1.453125 -3.046875 "
           id="path1239" />
      </symbol>
    </g>
    <g
       id="g3510">
      <symbol
         overflow="visible"
         id="symbol8286">
        <path
           style="stroke:none;"
           d=""
           id="path396" />
      </symbol>
      <symbol
         overflow="visible"
         id="symbol7044">
        <path
           style="stroke:none;"
           d="M 5.34375 -4 C 4.984375 -3.890625 4.8125 -3.5625 4.8125 -3.3125 C 4.8125 -3.09375 4.96875 -2.84375 5.296875 -2.84375 C 5.65625 -2.84375 6.015625 -3.140625 6.015625 -3.625 C 6.015625 -4.15625 5.5 -4.5 4.890625 -4.5 C 4.3125 -4.5 3.953125 -4.078125 3.8125 -3.890625 C 3.5625 -4.3125 3.015625 -4.5 2.4375 -4.5 C 1.1875 -4.5 0.515625 -3.28125 0.515625 -2.953125 C 0.515625 -2.8125 0.65625 -2.8125 0.75 -2.8125 C 0.875 -2.8125 0.9375 -2.8125 0.984375 -2.9375 C 1.265625 -3.84375 1.984375 -4.140625 2.390625 -4.140625 C 2.765625 -4.140625 2.953125 -3.96875 2.953125 -3.65625 C 2.953125 -3.453125 2.8125 -2.90625 2.71875 -2.546875 L 2.375 -1.1875 C 2.234375 -0.578125 1.875 -0.28125 1.53125 -0.28125 C 1.484375 -0.28125 1.25 -0.28125 1.0625 -0.421875 C 1.421875 -0.53125 1.59375 -0.875 1.59375 -1.109375 C 1.59375 -1.328125 1.421875 -1.578125 1.09375 -1.578125 C 0.75 -1.578125 0.375 -1.28125 0.375 -0.796875 C 0.375 -0.265625 0.90625 0.078125 1.515625 0.078125 C 2.078125 0.078125 2.453125 -0.34375 2.578125 -0.53125 C 2.828125 -0.109375 3.390625 0.078125 3.953125 0.078125 C 5.21875 0.078125 5.890625 -1.140625 5.890625 -1.46875 C 5.890625 -1.609375 5.734375 -1.609375 5.65625 -1.609375 C 5.53125 -1.609375 5.46875 -1.609375 5.421875 -1.484375 C 5.140625 -0.578125 4.421875 -0.28125 4 -0.28125 C 3.625 -0.28125 3.453125 -0.453125 3.453125 -0.78125 C 3.453125 -0.984375 3.578125 -1.515625 3.671875 -1.890625 C 3.734375 -2.140625 3.96875 -3.078125 4.015625 -3.234375 C 4.171875 -3.84375 4.515625 -4.140625 4.859375 -4.140625 C 4.921875 -4.140625 5.140625 -4.140625 5.34375 -4 Z M 5.34375 -4 "
           id="path4378" />
      </symbol>
      <symbol
         overflow="visible"
         id="symbol8765">
        <path
           style="stroke:none;"
           d=""
           id="path4936" />
      </symbol>
      <symbol
         overflow="visible"
         id="symbol5973">
        <path
           style="stroke:none;"
           d="M 2.015625 -3.296875 C 2.078125 -3.40625 2.078125 -3.46875 2.078125 -3.515625 C 2.078125 -3.734375 1.890625 -3.890625 1.671875 -3.890625 C 1.40625 -3.890625 1.328125 -3.671875 1.296875 -3.5625 L 0.375 -0.546875 C 0.359375 -0.53125 0.328125 -0.453125 0.328125 -0.4375 C 0.328125 -0.359375 0.546875 -0.28125 0.609375 -0.28125 C 0.65625 -0.28125 0.65625 -0.296875 0.703125 -0.40625 Z M 2.015625 -3.296875 "
           id="path1060" />
      </symbol>
      <symbol
         overflow="visible"
         id="symbol1604">
        <path
           style="stroke:none;"
           d=""
           id="path2644" />
      </symbol>
      <symbol
         overflow="visible"
         id="symbol356">
        <path
           style="stroke:none;"
           d="M 2.328125 -4.4375 C 2.328125 -4.625 2.328125 -4.625 2.125 -4.625 C 1.671875 -4.1875 1.046875 -4.1875 0.765625 -4.1875 L 0.765625 -3.9375 C 0.921875 -3.9375 1.390625 -3.9375 1.765625 -4.125 L 1.765625 -0.578125 C 1.765625 -0.34375 1.765625 -0.25 1.078125 -0.25 L 0.8125 -0.25 L 0.8125 0 C 0.9375 0 1.796875 -0.03125 2.046875 -0.03125 C 2.265625 -0.03125 3.140625 0 3.296875 0 L 3.296875 -0.25 L 3.03125 -0.25 C 2.328125 -0.25 2.328125 -0.34375 2.328125 -0.578125 Z M 2.328125 -4.4375 "
           id="path8870" />
      </symbol>
    </g>
    <g
       id="g9821">
      <symbol
         overflow="visible"
         id="symbol7332">
        <path
           style="stroke:none;"
           d=""
           id="path5662" />
      </symbol>
      <symbol
         overflow="visible"
         id="symbol2608">
        <path
           style="stroke:none;"
           d="M 5.34375 -4 C 4.984375 -3.890625 4.8125 -3.5625 4.8125 -3.3125 C 4.8125 -3.09375 4.96875 -2.84375 5.296875 -2.84375 C 5.65625 -2.84375 6.015625 -3.140625 6.015625 -3.625 C 6.015625 -4.15625 5.5 -4.5 4.890625 -4.5 C 4.3125 -4.5 3.953125 -4.078125 3.8125 -3.890625 C 3.5625 -4.3125 3.015625 -4.5 2.4375 -4.5 C 1.1875 -4.5 0.515625 -3.28125 0.515625 -2.953125 C 0.515625 -2.8125 0.65625 -2.8125 0.75 -2.8125 C 0.875 -2.8125 0.9375 -2.8125 0.984375 -2.9375 C 1.265625 -3.84375 1.984375 -4.140625 2.390625 -4.140625 C 2.765625 -4.140625 2.953125 -3.96875 2.953125 -3.65625 C 2.953125 -3.453125 2.8125 -2.90625 2.71875 -2.546875 L 2.375 -1.1875 C 2.234375 -0.578125 1.875 -0.28125 1.53125 -0.28125 C 1.484375 -0.28125 1.25 -0.28125 1.0625 -0.421875 C 1.421875 -0.53125 1.59375 -0.875 1.59375 -1.109375 C 1.59375 -1.328125 1.421875 -1.578125 1.09375 -1.578125 C 0.75 -1.578125 0.375 -1.28125 0.375 -0.796875 C 0.375 -0.265625 0.90625 0.078125 1.515625 0.078125 C 2.078125 0.078125 2.453125 -0.34375 2.578125 -0.53125 C 2.828125 -0.109375 3.390625 0.078125 3.953125 0.078125 C 5.21875 0.078125 5.890625 -1.140625 5.890625 -1.46875 C 5.890625 -1.609375 5.734375 -1.609375 5.65625 -1.609375 C 5.53125 -1.609375 5.46875 -1.609375 5.421875 -1.484375 C 5.140625 -0.578125 4.421875 -0.28125 4 -0.28125 C 3.625 -0.28125 3.453125 -0.453125 3.453125 -0.78125 C 3.453125 -0.984375 3.578125 -1.515625 3.671875 -1.890625 C 3.734375 -2.140625 3.96875 -3.078125 4.015625 -3.234375 C 4.171875 -3.84375 4.515625 -4.140625 4.859375 -4.140625 C 4.921875 -4.140625 5.140625 -4.140625 5.34375 -4 Z M 5.34375 -4 "
           id="path54" />
      </symbol>
      <symbol
         overflow="visible"
         id="symbol9251">
        <path
           style="stroke:none;"
           d=""
           id="path7354" />
      </symbol>
      <symbol
         overflow="visible"
         id="symbol9389">
        <path
           style="stroke:none;"
           d="M 2.015625 -3.296875 C 2.078125 -3.40625 2.078125 -3.46875 2.078125 -3.515625 C 2.078125 -3.734375 1.890625 -3.890625 1.671875 -3.890625 C 1.40625 -3.890625 1.328125 -3.671875 1.296875 -3.5625 L 0.375 -0.546875 C 0.359375 -0.53125 0.328125 -0.453125 0.328125 -0.4375 C 0.328125 -0.359375 0.546875 -0.28125 0.609375 -0.28125 C 0.65625 -0.28125 0.65625 -0.296875 0.703125 -0.40625 Z M 2.015625 -3.296875 "
           id="path7395" />
      </symbol>
      <symbol
         overflow="visible"
         id="symbol7068">
        <path
           style="stroke:none;"
           d=""
           id="path1150" />
      </symbol>
      <symbol
         overflow="visible"
         id="symbol1599">
        <path
           style="stroke:none;"
           d="M 3.515625 -1.265625 L 3.28125 -1.265625 C 3.265625 -1.109375 3.1875 -0.703125 3.09375 -0.640625 C 3.046875 -0.59375 2.515625 -0.59375 2.40625 -0.59375 L 1.125 -0.59375 C 1.859375 -1.234375 2.109375 -1.4375 2.515625 -1.765625 C 3.03125 -2.171875 3.515625 -2.609375 3.515625 -3.265625 C 3.515625 -4.109375 2.78125 -4.625 1.890625 -4.625 C 1.03125 -4.625 0.4375 -4.015625 0.4375 -3.375 C 0.4375 -3.03125 0.734375 -2.984375 0.8125 -2.984375 C 0.96875 -2.984375 1.171875 -3.109375 1.171875 -3.359375 C 1.171875 -3.484375 1.125 -3.734375 0.765625 -3.734375 C 0.984375 -4.21875 1.453125 -4.375 1.78125 -4.375 C 2.484375 -4.375 2.84375 -3.828125 2.84375 -3.265625 C 2.84375 -2.65625 2.40625 -2.1875 2.1875 -1.9375 L 0.515625 -0.265625 C 0.4375 -0.203125 0.4375 -0.1875 0.4375 0 L 3.3125 0 Z M 3.515625 -1.265625 "
           id="path8514" />
      </symbol>
    </g>
    <g
       id="g8658">
      <symbol
         overflow="visible"
         id="symbol8509">
        <path
           style="stroke:none;"
           d=""
           id="path6020" />
      </symbol>
      <symbol
         overflow="visible"
         id="symbol3905">
        <path
           style="stroke:none;"
           d="M 5.34375 -4 C 4.984375 -3.890625 4.8125 -3.5625 4.8125 -3.3125 C 4.8125 -3.09375 4.96875 -2.84375 5.296875 -2.84375 C 5.65625 -2.84375 6.015625 -3.140625 6.015625 -3.625 C 6.015625 -4.15625 5.5 -4.5 4.890625 -4.5 C 4.3125 -4.5 3.953125 -4.078125 3.8125 -3.890625 C 3.5625 -4.3125 3.015625 -4.5 2.4375 -4.5 C 1.1875 -4.5 0.515625 -3.28125 0.515625 -2.953125 C 0.515625 -2.8125 0.65625 -2.8125 0.75 -2.8125 C 0.875 -2.8125 0.9375 -2.8125 0.984375 -2.9375 C 1.265625 -3.84375 1.984375 -4.140625 2.390625 -4.140625 C 2.765625 -4.140625 2.953125 -3.96875 2.953125 -3.65625 C 2.953125 -3.453125 2.8125 -2.90625 2.71875 -2.546875 L 2.375 -1.1875 C 2.234375 -0.578125 1.875 -0.28125 1.53125 -0.28125 C 1.484375 -0.28125 1.25 -0.28125 1.0625 -0.421875 C 1.421875 -0.53125 1.59375 -0.875 1.59375 -1.109375 C 1.59375 -1.328125 1.421875 -1.578125 1.09375 -1.578125 C 0.75 -1.578125 0.375 -1.28125 0.375 -0.796875 C 0.375 -0.265625 0.90625 0.078125 1.515625 0.078125 C 2.078125 0.078125 2.453125 -0.34375 2.578125 -0.53125 C 2.828125 -0.109375 3.390625 0.078125 3.953125 0.078125 C 5.21875 0.078125 5.890625 -1.140625 5.890625 -1.46875 C 5.890625 -1.609375 5.734375 -1.609375 5.65625 -1.609375 C 5.53125 -1.609375 5.46875 -1.609375 5.421875 -1.484375 C 5.140625 -0.578125 4.421875 -0.28125 4 -0.28125 C 3.625 -0.28125 3.453125 -0.453125 3.453125 -0.78125 C 3.453125 -0.984375 3.578125 -1.515625 3.671875 -1.890625 C 3.734375 -2.140625 3.96875 -3.078125 4.015625 -3.234375 C 4.171875 -3.84375 4.515625 -4.140625 4.859375 -4.140625 C 4.921875 -4.140625 5.140625 -4.140625 5.34375 -4 Z M 5.34375 -4 "
           id="path2479" />
      </symbol>
      <symbol
         overflow="visible"
         id="symbol6948">
        <path
           style="stroke:none;"
           d=""
           id="path401" />
      </symbol>
      <symbol
         overflow="visible"
         id="symbol6282">
        <path
           style="stroke:none;"
           d="M 2.015625 -3.296875 C 2.078125 -3.40625 2.078125 -3.46875 2.078125 -3.515625 C 2.078125 -3.734375 1.890625 -3.890625 1.671875 -3.890625 C 1.40625 -3.890625 1.328125 -3.671875 1.296875 -3.5625 L 0.375 -0.546875 C 0.359375 -0.53125 0.328125 -0.453125 0.328125 -0.4375 C 0.328125 -0.359375 0.546875 -0.28125 0.609375 -0.28125 C 0.65625 -0.28125 0.65625 -0.296875 0.703125 -0.40625 Z M 2.015625 -3.296875 "
           id="path4679" />
      </symbol>
      <symbol
         overflow="visible"
         id="symbol2253">
        <path
           style="stroke:none;"
           d=""
           id="path2643" />
      </symbol>
      <symbol
         overflow="visible"
         id="symbol7683">
        <path
           style="stroke:none;"
           d="M 1.90625 -2.328125 C 2.453125 -2.328125 2.84375 -1.953125 2.84375 -1.203125 C 2.84375 -0.34375 2.328125 -0.078125 1.9375 -0.078125 C 1.65625 -0.078125 1.03125 -0.15625 0.75 -0.578125 C 1.078125 -0.578125 1.15625 -0.8125 1.15625 -0.96875 C 1.15625 -1.1875 0.984375 -1.34375 0.765625 -1.34375 C 0.578125 -1.34375 0.375 -1.21875 0.375 -0.9375 C 0.375 -0.28125 1.09375 0.140625 1.9375 0.140625 C 2.90625 0.140625 3.578125 -0.515625 3.578125 -1.203125 C 3.578125 -1.75 3.140625 -2.296875 2.375 -2.453125 C 3.09375 -2.71875 3.359375 -3.234375 3.359375 -3.671875 C 3.359375 -4.21875 2.734375 -4.625 1.953125 -4.625 C 1.1875 -4.625 0.59375 -4.25 0.59375 -3.6875 C 0.59375 -3.453125 0.75 -3.328125 0.953125 -3.328125 C 1.171875 -3.328125 1.3125 -3.484375 1.3125 -3.671875 C 1.3125 -3.875 1.171875 -4.03125 0.953125 -4.046875 C 1.203125 -4.34375 1.671875 -4.421875 1.9375 -4.421875 C 2.25 -4.421875 2.6875 -4.265625 2.6875 -3.671875 C 2.6875 -3.375 2.59375 -3.046875 2.40625 -2.84375 C 2.1875 -2.578125 1.984375 -2.5625 1.640625 -2.53125 C 1.46875 -2.515625 1.453125 -2.515625 1.421875 -2.515625 C 1.40625 -2.515625 1.34375 -2.5 1.34375 -2.421875 C 1.34375 -2.328125 1.40625 -2.328125 1.53125 -2.328125 Z M 1.90625 -2.328125 "
           id="path7623" />
      </symbol>
    </g>
    <marker
       style="overflow:visible"
       id="DotL-3"
       refX="0"
       refY="0"
       orient="auto"
       inkscape:stockid="DotL"
       inkscape:isstock="true">
      <path
         transform="matrix(0.8,0,0,0.8,5.92,0.8)"
         style="fill:context-stroke;fill-rule:evenodd;stroke:context-stroke;stroke-width:1pt"
         d="m -2.5,-1 c 0,2.76 -2.24,5 -5,5 -2.76,0 -5,-2.24 -5,-5 0,-2.76 2.24,-5 5,-5 2.76,0 5,2.24 5,5 z"
         id="path2141-6" />
    </marker>
    <marker
       style="overflow:visible"
       id="marker6080"
       refX="0"
       refY="0"
       orient="auto"
       inkscape:stockid="DotL"
       inkscape:isstock="true">
      <path
         transform="matrix(0.8,0,0,0.8,5.92,0.8)"
         style="fill:context-stroke;fill-rule:evenodd;stroke:context-stroke;stroke-width:1pt"
         d="m -2.5,-1 c 0,2.76 -2.24,5 -5,5 -2.76,0 -5,-2.24 -5,-5 0,-2.76 2.24,-5 5,-5 2.76,0 5,2.24 5,5 z"
         id="path6078" />
    </marker>
    <marker
       style="overflow:visible"
       id="Arrow1Lend-7"
       refX="0"
       refY="0"
       orient="auto"
       inkscape:stockid="Arrow1Lend"
       inkscape:isstock="true">
      <path
         transform="matrix(-0.8,0,0,-0.8,-10,0)"
         style="fill:context-stroke;fill-rule:evenodd;stroke:context-stroke;stroke-width:1pt"
         d="M 0,0 5,-5 -12.5,0 5,5 Z"
         id="path2083-5" />
    </marker>
    <marker
       style="overflow:visible"
       id="marker6086"
       refX="0"
       refY="0"
       orient="auto"
       inkscape:stockid="Arrow1Lend"
       inkscape:isstock="true">
      <path
         transform="matrix(-0.8,0,0,-0.8,-10,0)"
         style="fill:context-stroke;fill-rule:evenodd;stroke:context-stroke;stroke-width:1pt"
         d="M 0,0 5,-5 -12.5,0 5,5 Z"
         id="path6084" />
    </marker>
    <marker
       style="overflow:visible"
       id="marker6090"
       refX="0"
       refY="0"
       orient="auto"
       inkscape:stockid="Arrow1Lend"
       inkscape:isstock="true">
      <path
         transform="matrix(-0.8,0,0,-0.8,-10,0)"
         style="fill:context-stroke;fill-rule:evenodd;stroke:context-stroke;stroke-width:1pt"
         d="M 0,0 5,-5 -12.5,0 5,5 Z"
         id="path6088" />
    </marker>
  </defs>
  <g
     inkscape:label="Layer 1"
     inkscape:groupmode="layer"
     id="layer1">
    <path
       style="fill:#e6e6e6;stroke:none;stroke-width:0.264583px;stroke-linecap:butt;stroke-linejoin:miter;stroke-opacity:1;fill-opacity:1"
       d="m 0,140 h 150 v 45 l -40.90909,17.72727 -43.873519,2.9249 L 0,160 v -20"
       id="path1383"
       sodipodi:nodetypes="ccccccc" />
    <path
       style="fill:none;stroke:#000000;stroke-width:0.264583px;stroke-linecap:butt;stroke-linejoin:miter;stroke-opacity:1"
       d="M 0,250 150,185"
       id="path859" />
    <path
       style="fill:none;stroke:#000000;stroke-width:0.264583px;stroke-linecap:butt;stroke-linejoin:miter;stroke-opacity:1"
       d="M 0,210 150,200"
       id="path861" />
    <path
       style="fill:none;stroke:#000000;stroke-width:0.264583px;stroke-linecap:butt;stroke-linejoin:miter;stroke-opacity:1"
       d="M 0,160 150,265"
       id="path863" />
    <g
       inkscape:label=""
       transform="translate(-26.984375,90.0625)"
       id="g893">
      <g
         id="g9582">
        <g
           style="fill:#000000;fill-opacity:1"
           id="g4984">
          <use
             xlink:href="#symbol9112"
             x="91.925003"
             y="81.962997"
             id="use778"
             width="100%"
             height="100%" />
        </g>
        <g
           style="fill:#000000;fill-opacity:1"
           id="g4157">
          <use
             xlink:href="#symbol1940"
             x="98.490997"
             y="83.457001"
             id="use2417"
             width="100%"
             height="100%" />
        </g>
      </g>
    </g>
    <g
       inkscape:label=""
       transform="translate(14.625,180.54687)"
       id="g1004">
      <g
         id="g9975">
        <g
           style="fill:#000000;fill-opacity:1"
           id="g773">
          <use
             xlink:href="#symbol6705"
             x="91.925003"
             y="81.962997"
             id="use9278"
             width="100%"
             height="100%" />
        </g>
        <g
           style="fill:#000000;fill-opacity:1"
           id="g1597">
          <use
             xlink:href="#symbol2668"
             x="98.490997"
             y="78.348"
             id="use6420"
             width="100%"
             height="100%" />
        </g>
      </g>
    </g>
    <path
       style="fill:none;stroke:#000000;stroke-width:0.265;stroke-linecap:butt;stroke-linejoin:miter;stroke-opacity:1;stroke-miterlimit:4;stroke-dasharray:none;marker-start:url(#DotL);marker-end:url(#DotL)"
       d="M 79.999998,170 100,260"
       id="path2078" />
    <path
       style="fill:none;stroke:#000000;stroke-width:0.264583px;stroke-linecap:butt;stroke-linejoin:miter;stroke-opacity:1;marker-end:url(#Arrow1Lend)"
       d="m 79.999998,170 12.105264,54.47368"
       id="path2897"
       sodipodi:nodetypes="cc" />
    <path
       style="fill:none;stroke:#000000;stroke-width:0.264583px;stroke-linecap:butt;stroke-linejoin:miter;stroke-opacity:1;marker-end:url(#Arrow1Lend);marker-start:url(#DotL)"
       d="m 87.59124,204.16058 1.597948,7.19077"
       id="path2899"
       sodipodi:nodetypes="cc" />
    <path
       style="fill:none;stroke:#000000;stroke-width:0.264583px;stroke-linecap:butt;stroke-linejoin:miter;stroke-opacity:1;marker-end:url(#Arrow1Lend)"
       d="m 79.999998,170 7.591242,34.16058"
       id="path2901"
       sodipodi:nodetypes="cc" />
    <g
       inkscape:label=""
       transform="translate(-110.50479,101.28253)"
       id="g3305">
      <g
         id="g6558">
        <g
           style="fill:#000000;fill-opacity:1"
           id="g3704">
          <use
             xlink:href="#symbol8115"
             x="91.925003"
             y="81.962997"
             id="use9144"
             width="100%"
             height="100%" />
        </g>
        <g
           style="fill:#000000;fill-opacity:1"
           id="g1703">
          <use
             xlink:href="#symbol9794"
             x="98.230003"
             y="78.348"
             id="use2208"
             width="100%"
             height="100%" />
        </g>
        <g
           style="fill:#000000;fill-opacity:1"
           id="g5661">
          <use
             xlink:href="#symbol4546"
             x="98.230003"
             y="84.435997"
             id="use719"
             width="100%"
             height="100%" />
        </g>
        <g
           style="fill:#000000;fill-opacity:1"
           id="g5526">
          <use
             xlink:href="#symbol3496"
             x="104.415"
             y="81.962997"
             id="use1846"
             width="100%"
             height="100%" />
        </g>
        <g
           style="fill:#000000;fill-opacity:1"
           id="g5240">
          <use
             xlink:href="#symbol2578"
             x="113.748"
             y="81.962997"
             id="use7653"
             width="100%"
             height="100%" />
        </g>
        <g
           style="fill:#000000;fill-opacity:1"
           id="g4887">
          <use
             xlink:href="#symbol6137"
             x="124.264"
             y="81.962997"
             id="use9883"
             width="100%"
             height="100%" />
        </g>
        <g
           style="fill:#000000;fill-opacity:1"
           id="g2393">
          <use
             xlink:href="#symbol4546"
             x="128.53999"
             y="83.457001"
             id="use7077"
             width="100%"
             height="100%" />
        </g>
      </g>
    </g>
    <g
       inkscape:label=""
       transform="translate(-110.50479,142.11415)"
       id="g3599">
      <g
         id="g5779">
        <g
           style="fill:#000000;fill-opacity:1"
           id="g5140">
          <use
             xlink:href="#symbol6609"
             x="91.925003"
             y="81.962997"
             id="use5394"
             width="100%"
             height="100%" />
        </g>
        <g
           style="fill:#000000;fill-opacity:1"
           id="g3179">
          <use
             xlink:href="#symbol6984"
             x="98.230003"
             y="78.348"
             id="use5329"
             width="100%"
             height="100%" />
        </g>
        <g
           style="fill:#000000;fill-opacity:1"
           id="g9033">
          <use
             xlink:href="#symbol3250"
             x="98.230003"
             y="84.435997"
             id="use9925"
             width="100%"
             height="100%" />
        </g>
        <g
           style="fill:#000000;fill-opacity:1"
           id="g2856">
          <use
             xlink:href="#symbol9057"
             x="104.415"
             y="81.962997"
             id="use2593"
             width="100%"
             height="100%" />
        </g>
        <g
           style="fill:#000000;fill-opacity:1"
           id="g9426">
          <use
             xlink:href="#symbol1159"
             x="113.748"
             y="81.962997"
             id="use8100"
             width="100%"
             height="100%" />
        </g>
        <g
           style="fill:#000000;fill-opacity:1"
           id="g5373">
          <use
             xlink:href="#symbol6417"
             x="124.264"
             y="81.962997"
             id="use1332"
             width="100%"
             height="100%" />
        </g>
        <g
           style="fill:#000000;fill-opacity:1"
           id="g244">
          <use
             xlink:href="#symbol3250"
             x="128.53999"
             y="83.457001"
             id="use3543"
             width="100%"
             height="100%" />
        </g>
      </g>
    </g>
    <g
       inkscape:label=""
       transform="translate(-110.50479,181.00755)"
       id="g3967">
      <g
         id="g1073">
        <g
           style="fill:#000000;fill-opacity:1"
           id="g2661">
          <use
             xlink:href="#symbol211"
             x="91.925003"
             y="81.962997"
             id="use9313"
             width="100%"
             height="100%" />
        </g>
        <g
           style="fill:#000000;fill-opacity:1"
           id="g7838">
          <use
             xlink:href="#symbol6359"
             x="98.230003"
             y="78.348"
             id="use7853"
             width="100%"
             height="100%" />
        </g>
        <g
           style="fill:#000000;fill-opacity:1"
           id="g5760">
          <use
             xlink:href="#symbol2428"
             x="98.230003"
             y="84.435997"
             id="use7083"
             width="100%"
             height="100%" />
        </g>
        <g
           style="fill:#000000;fill-opacity:1"
           id="g3062">
          <use
             xlink:href="#symbol4862"
             x="104.415"
             y="81.962997"
             id="use2660"
             width="100%"
             height="100%" />
        </g>
        <g
           style="fill:#000000;fill-opacity:1"
           id="g8328">
          <use
             xlink:href="#symbol2557"
             x="113.748"
             y="81.962997"
             id="use954"
             width="100%"
             height="100%" />
        </g>
        <g
           style="fill:#000000;fill-opacity:1"
           id="g2315">
          <use
             xlink:href="#symbol3071"
             x="124.264"
             y="81.962997"
             id="use1768"
             width="100%"
             height="100%" />
        </g>
        <g
           style="fill:#000000;fill-opacity:1"
           id="g369">
          <use
             xlink:href="#symbol2428"
             x="128.53999"
             y="83.457001"
             id="use3869"
             width="100%"
             height="100%" />
        </g>
      </g>
    </g>
    <g
       inkscape:label=""
       transform="translate(-12.964917,151.51277)"
       id="g4741">
      <g
         id="g1350">
        <g
           style="fill:#000000;fill-opacity:1"
           id="g9877">
          <use
             xlink:href="#symbol7044"
             x="91.925003"
             y="81.962997"
             id="use1384"
             width="100%"
             height="100%" />
        </g>
        <g
           style="fill:#000000;fill-opacity:1"
           id="g925">
          <use
             xlink:href="#symbol5973"
             x="98.490997"
             y="78.348"
             id="use4047"
             width="100%"
             height="100%" />
        </g>
        <g
           style="fill:#000000;fill-opacity:1"
           id="g143">
          <use
             xlink:href="#symbol356"
             x="98.490997"
             y="84.435997"
             id="use7802"
             width="100%"
             height="100%" />
        </g>
      </g>
    </g>
    <g
       inkscape:label=""
       transform="translate(-1.2963891,116.83381)"
       id="g5193">
      <g
         id="g1690">
        <g
           style="fill:#000000;fill-opacity:1"
           id="g4121">
          <use
             xlink:href="#symbol2608"
             x="91.925003"
             y="81.962997"
             id="use3469"
             width="100%"
             height="100%" />
        </g>
        <g
           style="fill:#000000;fill-opacity:1"
           id="g6029">
          <use
             xlink:href="#symbol9389"
             x="98.490997"
             y="78.348"
             id="use4930"
             width="100%"
             height="100%" />
        </g>
        <g
           style="fill:#000000;fill-opacity:1"
           id="g1118">
          <use
             xlink:href="#symbol1599"
             x="98.490997"
             y="84.435997"
             id="use414"
             width="100%"
             height="100%" />
        </g>
      </g>
    </g>
    <g
       inkscape:label=""
       transform="translate(2.1071953,134.25242)"
       id="g5687">
      <g
         id="g3570">
        <g
           style="fill:#000000;fill-opacity:1"
           id="g9428">
          <use
             xlink:href="#symbol3905"
             x="91.925003"
             y="81.962997"
             id="use368"
             width="100%"
             height="100%" />
        </g>
        <g
           style="fill:#000000;fill-opacity:1"
           id="g863">
          <use
             xlink:href="#symbol6282"
             x="98.490997"
             y="78.348"
             id="use2211"
             width="100%"
             height="100%" />
        </g>
        <g
           style="fill:#000000;fill-opacity:1"
           id="g4539">
          <use
             xlink:href="#symbol7683"
             x="98.490997"
             y="84.435997"
             id="use3864"
             width="100%"
             height="100%" />
        </g>
      </g>
    </g>
  </g>
</svg>
